<?xml version="1.0" encoding="UTF-8"?>
<!-- Generator: visioncortex VTracer 0.6.3 -->
<svg version="1.1" xmlns="http://www.w3.org/2000/svg" width="1280" height="1280">
<path d="M0 0 C7.92 0 15.84 0 24 0 C24.33 0.99 24.66 1.98 25 3 C25.6 3.37 26.2 3.74 26.81 4.12 C30.69 7.45 32.6 12.36 33.36 17.38 C33.49 19.91 33.5 22.42 33.47 24.95 C33.47 25.91 33.47 26.86 33.47 27.84 C33.48 29.88 33.47 31.93 33.46 33.98 C33.43 37.22 33.44 40.46 33.45 43.7 C33.47 51.74 33.45 59.78 33.43 67.82 C33.4 74.63 33.4 81.44 33.43 88.26 C33.43 91.45 33.41 94.64 33.38 97.84 C33.39 99.79 33.4 101.74 33.4 103.69 C33.39 104.58 33.37 105.47 33.36 106.38 C33.39 111.47 33.39 111.47 36.35 115.52 C39.27 117.15 41.79 117.9 45.06 118.56 C49.22 119.41 51.72 120.32 55 123 C56.7 123.74 58.41 124.48 60.13 125.18 C64.64 127.15 68.53 129.49 72 133 C73.57 134.26 75.16 135.51 76.75 136.75 C87.82 145.56 87.82 145.56 90 150.08 C90.98 152.33 90.98 152.33 94 154 C94.14 154.82 94.29 155.65 94.44 156.5 C94.62 157.32 94.81 158.15 95 159 C95.62 159.29 96.24 159.58 96.88 159.88 C99.68 161.36 100.18 163.25 101.28 166.13 C102.06 168.25 102.06 168.25 103.56 171.12 C105 174 105 174 106.06 176.69 C107 179.21 107 179.21 109 182 C109.61 185.31 110.02 188.63 110.44 191.97 C110.82 195.16 110.82 195.16 113 198 C114.08 203.47 114.18 208.88 114.19 214.44 C114.2 215.25 114.21 216.05 114.22 216.88 C114.24 222.27 113.49 226.82 112 232 C111.66 233.31 111.33 234.62 111 235.94 C110.84 236.59 110.67 237.24 110.5 237.91 C109.77 240.96 109.16 244.04 108.56 247.12 C108 249 108 249 106 251 C105.18 253.57 104.54 256.17 103.88 258.79 C103.59 259.52 103.3 260.25 103 261 C102.01 261.33 101.02 261.66 100 262 C99.92 262.91 99.84 263.81 99.75 264.75 C98.88 268.51 97.79 269.46 95 272 C94.46 272.91 93.93 273.81 93.38 274.75 C92.69 275.86 92.69 275.86 92 277 C91.34 277 90.68 277 90 277 C89.95 277.54 89.89 278.08 89.84 278.64 C88.61 282.09 86.19 284.25 83.62 286.75 C83.13 287.26 82.63 287.76 82.12 288.29 C78.38 292 78.38 292 75 292 C75 369.88 75 447.76 75 528 C133.08 528 191.16 528 251 528 C251 516.12 251 504.24 251 492 C242.23 492.03 242.23 492.03 233.47 492.15 C225.19 492.02 220.8 490.32 214.87 484.52 C210.63 478.81 210.47 472.83 211 466 C211.71 461.7 212.9 459.04 216 456 C217.34 454.25 218.65 452.48 219.94 450.69 C220.64 449.71 221.35 448.74 222.07 447.73 C223.52 445.67 224.94 443.61 226.31 441.5 C228.25 438.62 230.38 436.56 232.94 434.25 C235.56 431.39 237.16 428.41 239 425 C239.66 425 240.32 425 241 425 C241.27 424.2 241.54 423.39 241.81 422.56 C242.2 421.72 242.6 420.87 243 420 C243.99 419.67 244.98 419.34 246 419 C247.23 415.99 247.23 415.99 248 413 C248.99 413 249.98 413 251 413 C251.08 412.28 251.16 411.56 251.25 410.81 C252.45 406.31 255.28 403.7 258.56 400.5 C261.08 398.11 261.08 398.11 262.69 395.19 C263.34 394.1 263.34 394.1 264 393 C264.66 393 265.32 393 266 393 C266.06 392.3 266.12 391.6 266.19 390.88 C267.5 386.23 270.72 383.25 274.12 379.94 C276.14 378 276.14 378 277.62 375.25 C278.31 374.14 278.31 374.14 279 373 C279.66 373 280.32 373 281 373 C281.26 372.27 281.52 371.54 281.79 370.78 C283.03 367.92 284.47 365.91 286.44 363.5 C288.4 361.05 290.14 358.76 291.75 356.06 C293 354 293 354 296 352 C296.68 350.67 297.35 349.34 298 348 C298.66 347.67 299.32 347.34 300 347 C301.12 345.35 301.12 345.35 302.12 343.44 C303.05 341.74 303.05 341.74 304 340 C304.66 340 305.32 340 306 340 C306.27 339.2 306.54 338.39 306.81 337.56 C307.2 336.72 307.6 335.87 308 335 C308.99 334.67 309.98 334.34 311 334 C311.33 333.18 311.66 332.35 312 331.5 C312.33 330.68 312.66 329.85 313 329 C313.99 328.67 314.98 328.34 316 328 C316.08 327.28 316.16 326.56 316.25 325.81 C317.45 321.31 320.28 318.7 323.56 315.5 C326.08 313.11 326.08 313.11 327.69 310.19 C328.34 309.1 328.34 309.1 329 308 C329.66 308 330.32 308 331 308 C331.19 307.1 331.19 307.1 331.38 306.19 C332 304 332 304 334 301 C334.66 301 335.32 301 336 301 C336.26 300.25 336.51 299.51 336.77 298.74 C338.94 293.9 342.23 291.24 347 289 C349.76 288.46 352.44 288.33 355.25 288.31 C355.94 288.31 356.62 288.3 357.33 288.29 C362.14 288.46 364.57 289.7 368 293 C368.89 293.78 369.77 294.57 370.69 295.38 C375.39 300.72 375.29 306.47 375.24 313.23 C375.24 314.61 375.24 314.61 375.25 316.01 C375.25 319.09 375.24 322.17 375.23 325.24 C375.23 327.45 375.23 329.66 375.23 331.87 C375.23 337.86 375.22 343.85 375.2 349.84 C375.19 356.1 375.19 362.36 375.19 368.63 C375.18 379.14 375.17 389.65 375.15 400.16 C375.13 410.98 375.12 421.8 375.11 432.63 C375.11 433.63 375.11 433.63 375.11 434.65 C375.11 438 375.1 441.35 375.1 444.7 C375.08 472.46 375.04 500.23 375 528 C375.58 528 376.15 528 376.74 528 C410.82 528.06 444.9 528.14 478.98 528.23 C483.07 528.24 487.16 528.25 491.25 528.26 C492.48 528.27 492.48 528.27 493.72 528.27 C506.91 528.3 520.1 528.33 533.29 528.35 C546.83 528.37 560.36 528.41 573.9 528.45 C582.25 528.48 590.6 528.49 598.95 528.5 C604.68 528.5 610.4 528.52 616.13 528.55 C619.43 528.56 622.74 528.57 626.04 528.57 C629.63 528.56 633.21 528.58 636.79 528.6 C638.36 528.59 638.36 528.59 639.95 528.59 C645.8 528.64 649.78 529.36 655 532 C658.42 532.83 661.85 533.49 665.3 534.16 C666.19 534.43 667.08 534.71 668 535 C668.33 535.99 668.66 536.98 669 538 C670.09 538.12 671.19 538.25 672.31 538.38 C676 539 676 539 679 541 C679 541.66 679 542.32 679 543 C679.83 543.23 680.65 543.45 681.5 543.69 C688.12 546.17 693.2 549.81 698 555 C698.78 555.74 699.57 556.49 700.38 557.25 C703.28 560.3 705.81 563.51 708.36 566.86 C709.63 568.52 710.99 570.12 712.38 571.69 C714.32 574.46 714.69 576.66 715 580 C715.99 580.33 716.98 580.66 718 581 C719.1 583.14 719.1 583.14 720.06 585.81 C721.38 589.44 721.38 589.44 723.03 592.93 C724.31 595.66 724.86 598.37 725.5 601.31 C726.24 604.69 726.99 607.97 728.03 611.27 C729.01 615.06 729.25 618.21 729.25 622.12 C729.26 622.8 729.26 623.48 729.26 624.18 C729.27 626.44 729.27 628.71 729.26 630.97 C729.26 632.6 729.27 634.23 729.27 635.86 C729.28 640.27 729.28 644.69 729.27 649.1 C729.26 653.72 729.27 658.34 729.27 662.96 C729.28 670.72 729.27 678.47 729.26 686.23 C729.25 695.2 729.25 704.17 729.26 713.14 C729.27 720.84 729.27 728.55 729.27 736.25 C729.27 740.85 729.27 745.45 729.27 750.05 C729.28 754.37 729.27 758.69 729.26 763.01 C729.26 764.6 729.26 766.19 729.27 767.77 C729.27 769.94 729.26 772.1 729.25 774.26 C729.25 775.48 729.25 776.69 729.25 777.93 C729.01 780.87 728.54 782.53 727 785 C726.34 785 725.68 785 725 785 C724.75 785.97 724.51 786.94 724.25 787.94 C723.84 788.95 723.42 789.96 723 791 C721 791.63 721 791.63 719 792 C718.73 792.66 718.46 793.32 718.19 794 C717.8 794.66 717.4 795.32 717 796 C714.69 796.33 712.38 796.66 710 797 C709.67 812.18 709.34 827.36 709 843 C711.97 843.66 714.94 844.32 718 845 C718.33 845.99 718.66 846.98 719 848 C719.83 848.29 720.65 848.58 721.5 848.88 C722.33 849.25 723.15 849.62 724 850 C724.81 852.63 724.81 852.63 725 855 C725.99 855.33 726.98 855.66 728 856 C729.04 859.13 729.13 861.31 729.13 864.59 C729.13 866.35 729.13 866.35 729.14 868.14 C729.14 869.44 729.14 870.73 729.13 872.06 C729.14 873.45 729.14 874.83 729.14 876.21 C729.15 880.02 729.15 883.83 729.15 887.64 C729.15 891.74 729.15 895.85 729.16 899.95 C729.16 908 729.17 916.04 729.17 924.09 C729.17 930.63 729.17 937.17 729.17 943.71 C729.18 962.24 729.19 980.78 729.19 999.31 C729.19 1000.31 729.19 1001.31 729.19 1002.34 C729.19 1003.84 729.19 1003.84 729.19 1005.38 C729.18 1021.59 729.19 1037.81 729.21 1054.03 C729.22 1070.68 729.23 1087.33 729.23 1103.97 C729.23 1113.32 729.23 1122.67 729.24 1132.02 C729.25 1139.98 729.25 1147.94 729.25 1155.9 C729.24 1159.97 729.24 1164.03 729.25 1168.09 C729.26 1171.81 729.26 1175.53 729.25 1179.25 C729.25 1181.23 729.25 1183.21 729.26 1185.19 C729.24 1191.5 728.88 1196.97 727 1203 C726.67 1204.15 726.34 1205.31 726 1206.5 C725.67 1207.65 725.34 1208.81 725 1210 C724.64 1211.44 724.29 1212.87 723.94 1214.31 C723 1218 723 1218 722 1220 C721.34 1220 720.68 1220 720 1220 C719.92 1221.22 719.84 1222.43 719.75 1223.69 C719.24 1227.86 717.82 1229.84 715 1233 C713.96 1234.98 712.94 1236.97 712 1239 C711.34 1239 710.68 1239 710 1239 C709.6 1240.42 709.6 1240.42 709.19 1241.88 C708 1245 708 1245 705 1247 C704.67 1247.68 704.34 1248.36 704 1249.06 C703 1251 703 1251 700 1252 C699.67 1252.66 699.34 1253.32 699 1254 C698.67 1254.66 698.34 1255.32 698 1256 C697.01 1256.33 696.02 1256.66 695 1257 C694.15 1257.85 693.31 1258.69 692.44 1259.56 C691.63 1260.37 690.83 1261.17 690 1262 C689.34 1262 688.68 1262 688 1262 C687.67 1262.99 687.34 1263.98 687 1265 C684.68 1266.03 682.35 1267.03 680 1268 C679.51 1268.54 679.01 1269.07 678.5 1269.62 C676.05 1271.87 673.2 1271.7 670 1272 C669.67 1272.99 669.34 1273.98 669 1275 C664.69 1276.34 661.52 1277 657 1277 C657 1277.99 657 1278.98 657 1280 C330.96 1280 4.92 1280 -331 1280 C-331 1279.01 -331 1278.02 -331 1277 C-331.69 1276.95 -332.37 1276.9 -333.08 1276.85 C-333.98 1276.78 -334.88 1276.7 -335.81 1276.62 C-336.71 1276.56 -337.6 1276.49 -338.52 1276.41 C-341 1276 -341 1276 -344 1274 C-344 1273.34 -344 1272.68 -344 1272 C-345.09 1271.9 -346.19 1271.79 -347.31 1271.69 C-351.26 1270.95 -351.45 1270.66 -354 1268 C-356.03 1266.8 -356.03 1266.8 -358.19 1265.81 C-358.9 1265.47 -359.62 1265.12 -360.36 1264.77 C-361.17 1264.39 -361.17 1264.39 -362 1264 C-362 1263.34 -362 1262.68 -362 1262 C-362.78 1261.73 -363.57 1261.46 -364.38 1261.19 C-367 1260 -367 1260 -369 1257 C-369.68 1256.67 -370.36 1256.34 -371.06 1256 C-373 1255 -373 1255 -374 1252 C-375.73 1250.32 -375.73 1250.32 -377.81 1248.69 C-383.12 1244.17 -386.09 1239.1 -388.97 1232.83 C-389.92 1230.93 -389.92 1230.93 -391.58 1229.52 C-394.1 1226.82 -393.71 1223.57 -394 1220 C-394.99 1219.67 -395.98 1219.34 -397 1219 C-397.19 1217.95 -397.39 1216.9 -397.59 1215.82 C-397.85 1214.45 -398.11 1213.07 -398.38 1211.69 C-398.5 1211 -398.63 1210.31 -398.76 1209.6 C-399.42 1206.16 -400.03 1203.95 -402 1201 C-402.96 1197.39 -403.13 1193.98 -403.14 1190.26 C-403.15 1189.11 -403.15 1187.95 -403.16 1186.76 C-403.16 1185.5 -403.16 1184.24 -403.16 1182.94 C-403.17 1181.58 -403.17 1180.22 -403.18 1178.86 C-403.19 1175.13 -403.2 1171.4 -403.2 1167.67 C-403.21 1164.47 -403.22 1161.26 -403.23 1158.06 C-403.26 1147.52 -403.29 1136.98 -403.3 1126.43 C-403.31 1123.69 -403.31 1120.94 -403.32 1118.19 C-403.35 1101.14 -403.38 1084.08 -403.39 1067.03 C-403.4 1063.08 -403.4 1059.13 -403.41 1055.18 C-403.41 1054.2 -403.41 1053.22 -403.41 1052.21 C-403.43 1036.31 -403.47 1020.41 -403.52 1004.51 C-403.57 988.18 -403.6 971.85 -403.61 955.52 C-403.61 946.35 -403.62 937.19 -403.66 928.02 C-403.7 920.21 -403.71 912.41 -403.7 904.6 C-403.69 900.62 -403.7 896.64 -403.73 892.66 C-403.76 889.01 -403.76 885.36 -403.73 881.71 C-403.73 879.78 -403.75 877.84 -403.78 875.9 C-403.69 867.91 -402.21 862.21 -397 856 C-393 853 -393 853 -384 848 C-384 833.48 -384 818.96 -384 804 C-388.45 802.51 -388.45 802.51 -393 801 C-398.34 796.56 -402.5 791.5 -403.5 784.48 C-403.5 783.22 -403.51 781.97 -403.51 780.68 C-403.51 779.98 -403.52 779.28 -403.53 778.56 C-403.54 776.22 -403.53 773.88 -403.52 771.55 C-403.52 769.86 -403.53 768.18 -403.54 766.5 C-403.56 761.94 -403.55 757.38 -403.54 752.82 C-403.53 748.03 -403.54 743.25 -403.54 738.46 C-403.55 730.42 -403.54 722.37 -403.52 714.33 C-403.5 705.06 -403.51 695.79 -403.53 686.51 C-403.55 678.54 -403.55 670.56 -403.54 662.58 C-403.53 657.82 -403.53 653.06 -403.55 648.31 C-403.56 643.82 -403.55 639.34 -403.53 634.86 C-403.52 633.23 -403.52 631.59 -403.53 629.96 C-403.58 620.7 -402.86 612.81 -399.96 603.95 C-399.09 601.28 -398.46 598.69 -397.94 595.94 C-397.21 592.45 -395.97 590 -394 587 C-393.46 585.78 -392.94 584.55 -392.44 583.31 C-391 580 -391 580 -389 578 C-388.7 577.23 -388.4 576.45 -388.09 575.66 C-386.93 572.83 -385.54 570.87 -383.62 568.5 C-383 567.72 -382.37 566.94 -381.72 566.13 C-380.87 565.08 -380.87 565.08 -380 564 C-379.36 563.13 -378.72 562.27 -378.06 561.38 C-375.57 558.5 -372.8 556.11 -369.9 553.65 C-368 552.05 -368 552.05 -366.39 550.33 C-364.68 548.7 -363.3 548.4 -361 548 C-361 547.34 -361 546.68 -361 546 C-358.09 543.96 -356.6 543 -353 543 C-352.67 542.01 -352.34 541.02 -352 540 C-348.68 538.29 -346.82 538 -343 538 C-342.67 537.01 -342.34 536.02 -342 535 C-339.27 534.16 -339.27 534.16 -335.81 533.5 C-330.93 532.58 -330.93 532.58 -326.48 530.47 C-321.58 528.4 -317.15 528.58 -311.88 528.6 C-310.75 528.59 -309.63 528.59 -308.47 528.58 C-304.7 528.56 -300.93 528.57 -297.17 528.57 C-294.47 528.56 -291.77 528.55 -289.07 528.54 C-283.25 528.51 -277.44 528.5 -271.62 528.5 C-263.22 528.49 -254.81 528.47 -246.4 528.44 C-232.76 528.4 -219.12 528.37 -205.48 528.35 C-192.23 528.33 -178.98 528.3 -165.74 528.26 C-164.51 528.26 -164.51 528.26 -163.26 528.26 C-159.16 528.24 -155.06 528.23 -150.97 528.22 C-116.98 528.13 -82.99 528.06 -49 528 C-49 527.11 -49.01 526.22 -49.01 525.31 C-49.05 516.92 -49.08 508.53 -49.1 500.15 C-49.11 495.84 -49.13 491.53 -49.15 487.21 C-49.17 483.05 -49.18 478.89 -49.19 474.73 C-49.19 473.14 -49.2 471.55 -49.21 469.97 C-49.23 467.74 -49.23 465.52 -49.23 463.29 C-49.23 462.02 -49.24 460.76 -49.24 459.45 C-48.89 454.41 -47.94 451.09 -44.62 447.25 C-40.77 443.95 -39.14 443 -34 443 C-33.23 440.24 -32.84 437.68 -32.71 434.82 C-32.68 434 -32.64 433.19 -32.6 432.35 C-32.48 428.63 -32.39 424.91 -32.32 421.19 C-32.27 419.24 -32.21 417.28 -32.12 415.33 C-31.16 403.93 -31.16 403.93 -35.5 393.96 C-38.26 392 -40.99 390.51 -44 389 C-44 388.34 -44 387.68 -44 387 C-44.64 386.77 -45.28 386.55 -45.94 386.31 C-48 385 -48 385 -48.62 382.93 C-49.1 379.23 -49.15 375.58 -49.16 371.86 C-49.16 371.06 -49.17 370.25 -49.17 369.42 C-49.18 367.68 -49.19 365.93 -49.2 364.19 C-49.21 361.43 -49.23 358.68 -49.25 355.92 C-49.31 348.09 -49.37 340.25 -49.4 332.41 C-49.42 327.62 -49.46 322.82 -49.5 318.02 C-49.52 316.19 -49.53 314.36 -49.53 312.54 C-49.53 309.98 -49.56 307.43 -49.58 304.88 C-49.58 304.12 -49.58 303.37 -49.57 302.59 C-49.59 298.57 -49.59 298.57 -51.46 295.13 C-51.97 294.76 -52.48 294.39 -53 294 C-53.33 293.34 -53.66 292.68 -54 292 C-54.66 291.71 -55.32 291.42 -56 291.12 C-58 290 -58 290 -58.75 287.88 C-58.83 287.26 -58.92 286.64 -59 286 C-59.64 285.9 -60.28 285.79 -60.94 285.69 C-61.96 285.35 -61.96 285.35 -63 285 C-63.33 284.01 -63.66 283.02 -64 282 C-64.85 281.15 -65.69 280.31 -66.56 279.44 C-67.37 278.63 -68.17 277.83 -69 277 C-69 276.34 -69 275.68 -69 275 C-69.99 274.67 -70.98 274.34 -72 274 C-73.65 271.4 -74 270.14 -74 267 C-74.6 266.81 -75.2 266.63 -75.81 266.44 C-79.04 264.32 -79.64 261.53 -81 258 C-81.66 257.01 -82.32 256.02 -83 255 C-83.56 252.8 -83.94 250.59 -84.34 248.35 C-84.9 245.9 -84.9 245.9 -86.49 243.73 C-89.22 238.79 -88.97 233.23 -89.31 227.69 C-89.4 226.41 -89.48 225.12 -89.57 223.8 C-90.03 215.31 -90 206.98 -89.31 198.5 C-89.2 197.02 -89.2 197.02 -89.08 195.5 C-88.58 190.54 -87.92 187.16 -85 183 C-84.44 181.35 -83.94 179.68 -83.5 178 C-82.43 174.24 -81.18 171.28 -79 168 C-78.53 167.05 -78.05 166.1 -77.56 165.12 C-72.75 155.5 -72.75 155.5 -69 153 C-68.33 151.67 -67.66 150.33 -67 149 C-65.41 147.47 -65.41 147.47 -63.62 146.06 C-60.65 143.62 -58.34 141.07 -56 138 C-53.15 134.69 -51.37 133.49 -47 133 C-46.67 132.01 -46.34 131.02 -46 130 C-43.4 128.35 -42.14 128 -39 128 C-38.67 127.01 -38.34 126.02 -38 125 C-34.68 123.29 -32.82 123 -29 123 C-28.67 122.01 -28.34 121.02 -28 120 C-25.67 119.16 -25.67 119.16 -22.75 118.5 C-18.64 117.49 -15.56 116.33 -12 114 C-11.01 114 -10.02 114 -9 114 C-9 112.78 -9.01 111.55 -9.01 110.29 C-9.05 98.74 -9.08 87.19 -9.1 75.64 C-9.11 69.7 -9.13 63.76 -9.15 57.83 C-9.17 52.09 -9.18 46.36 -9.19 40.63 C-9.19 38.44 -9.2 36.26 -9.21 34.07 C-9.23 31.01 -9.23 27.95 -9.23 24.88 C-9.23 23.98 -9.24 23.08 -9.25 22.15 C-9.23 15.59 -8.91 10.24 -4.5 5.06 C-2 3 -2 3 0 3 C0 2.01 0 1.02 0 0 Z M707 795 C707 810.18 707 825.36 707 841 C707.33 841 707.66 841 708 841 C708 825.82 708 810.64 708 795 C707.67 795 707.34 795 707 795 Z " fill="#000100" transform="translate(477,0)"/>
<path d="M0 0 C4.68 0.21 7.37 2.52 10.94 5.38 C11.78 6.04 11.78 6.04 12.64 6.72 C13.83 7.66 15.01 8.61 16.2 9.56 C18.54 11.43 20.89 13.28 23.25 15.13 C24.42 16.05 25.59 16.97 26.77 17.89 C31.74 21.8 36.75 25.67 41.77 29.52 C43.98 31.22 46.19 32.92 48.39 34.64 C51.57 37.12 54.78 39.56 58 42 C58.77 42.59 59.53 43.18 60.32 43.79 C73.34 53.19 89.7 55.81 105.36 53.5 C121.88 49.71 134.23 38.7 147.2 28.43 C155.77 21.63 164.38 14.87 173.08 8.24 C174.89 6.85 176.68 5.45 178.45 4.01 C179.15 3.45 179.84 2.89 180.56 2.31 C181.14 1.83 181.72 1.36 182.32 0.86 C184 0 184 0 185.92 0.3 C189.33 1.45 191.73 3.96 194.38 6.31 C195.62 7.41 196.87 8.5 198.12 9.59 C199.08 10.44 199.08 10.44 200.06 11.3 C203.14 14 206.26 16.65 209.38 19.31 C213 22.41 216.61 25.53 220.19 28.69 C223.11 31.26 226.1 33.73 229.12 36.19 C233.48 39.73 237.75 43.34 242 47 C246.12 50.55 250.27 54.07 254.5 57.5 C259.35 61.43 264.08 65.48 268.81 69.56 C272.33 72.59 275.89 75.57 279.5 78.5 C284.9 82.89 290.17 87.41 295.45 91.95 C302.79 98.26 310.17 104.53 317.69 110.62 C321.16 113.45 324.52 116.35 327.81 119.38 C331.71 122.94 335.76 126.21 339.94 129.44 C345.32 133.6 350.37 137.98 355.36 142.61 C358.84 145.77 362.47 148.71 366.13 151.66 C374.47 158.45 382.6 165.51 390.76 172.51 C398.67 179.3 406.59 186.06 414.69 192.62 C418.16 195.45 421.52 198.35 424.81 201.38 C428.71 204.94 432.76 208.21 436.94 211.44 C442.31 215.59 447.37 219.98 452.36 224.6 C456.75 228.59 461.38 232.28 466 236 C472.32 241.1 478.48 246.3 484.48 251.76 C487.9 254.81 491.46 257.67 495.02 260.55 C498.39 263.32 501.7 266.15 505 269 C509.1 272.54 513.23 276.03 517.44 279.44 C522.54 283.58 527.49 287.87 532.44 292.19 C536.19 295.46 539.99 298.64 543.88 301.75 C548.91 305.83 553.65 310.19 558 315 C558 315.33 558 315.66 558 316 C469.65 316.15 381.3 316.29 292.95 316.41 C290.99 316.42 290.99 316.42 288.99 316.42 C261.29 316.46 233.59 316.5 205.89 316.53 C191.98 316.55 178.07 316.57 164.15 316.59 C162.05 316.59 159.95 316.59 157.85 316.6 C125.52 316.64 93.19 316.69 60.86 316.74 C60.16 316.74 59.47 316.74 58.75 316.75 C47.54 316.76 36.32 316.78 25.11 316.8 C-7.18 316.86 -39.47 316.91 -71.75 316.95 C-72.42 316.95 -73.08 316.95 -73.76 316.96 C-87.68 316.97 -101.59 316.99 -115.5 317.01 C-122.01 317.02 -128.52 317.02 -135.04 317.03 C-136.96 317.03 -136.96 317.03 -138.92 317.04 C-159.6 317.06 -180.28 317.1 -200.96 317.14 C-221.72 317.18 -242.49 317.21 -263.25 317.23 C-275.61 317.24 -287.96 317.26 -300.31 317.29 C-308.55 317.31 -316.78 317.32 -325.02 317.32 C-329.72 317.32 -334.43 317.32 -339.13 317.34 C-343.4 317.36 -347.67 317.36 -351.94 317.35 C-353.48 317.35 -355.02 317.36 -356.57 317.37 C-358.65 317.38 -360.73 317.38 -362.81 317.37 C-363.96 317.37 -365.12 317.37 -366.31 317.37 C-367.2 317.25 -368.09 317.13 -369 317 C-369.99 315.51 -369.99 315.51 -371 314 C-368.34 311.66 -365.67 309.33 -363 307 C-362.45 306.52 -361.9 306.03 -361.33 305.54 C-354.24 299.35 -347.12 293.23 -339.81 287.31 C-336.5 284.59 -333.25 281.8 -330 279 C-324.98 274.68 -319.9 270.44 -314.76 266.26 C-307.45 260.27 -300.27 254.12 -293.15 247.9 C-288.2 243.58 -283.28 239.36 -277.94 235.51 C-274.39 232.75 -271.15 229.62 -267.85 226.57 C-264.29 223.36 -260.6 220.35 -256.88 217.34 C-253.76 214.8 -250.69 212.22 -247.62 209.62 C-246.81 208.94 -246.81 208.94 -245.98 208.23 C-244.32 206.82 -242.66 205.41 -241 204 C-238.79 202.12 -236.58 200.25 -234.38 198.38 C-233.84 197.92 -233.3 197.46 -232.74 196.99 C-229.3 194.08 -225.82 191.21 -222.31 188.38 C-217.97 184.84 -213.81 181.15 -209.66 177.39 C-203 171.42 -196.15 165.66 -189.12 160.12 C-180.7 153.45 -172.67 146.26 -164.62 139.12 C-162.09 136.9 -159.49 134.8 -156.81 132.75 C-148.85 126.63 -141.24 120.07 -133.81 113.31 C-129.92 109.78 -125.89 106.48 -121.76 103.23 C-118.47 100.57 -115.26 97.83 -112.06 95.06 C-107.92 91.49 -103.75 87.95 -99.5 84.5 C-91.49 78 -83.68 71.25 -75.94 64.44 C-61.28 51.58 -61.28 51.58 -54.88 46.94 C-50.58 43.8 -46.76 40.17 -42.85 36.57 C-39.3 33.37 -35.61 30.36 -31.89 27.36 C-28.68 24.74 -25.53 22.06 -22.38 19.38 C-18.65 16.2 -14.89 13.1 -11 10.12 C-7.72 7.61 -4.83 5 -2 2 C-1.34 1.34 -0.68 0.68 0 0 Z " fill="#F9DE7C" transform="translate(546,926)"/>
<path d="M0 0 C0.95 -0 1.89 -0 2.87 -0.01 C6.03 -0.01 9.18 -0.01 12.34 -0.01 C14.63 -0.01 16.92 -0.01 19.21 -0.02 C25.5 -0.03 31.79 -0.03 38.07 -0.03 C44.16 -0.03 50.25 -0.04 56.33 -0.04 C72.62 -0.06 88.91 -0.06 105.2 -0.07 C112.91 -0.07 120.61 -0.08 128.32 -0.08 C154.7 -0.09 181.07 -0.1 207.45 -0.11 C209.1 -0.11 210.76 -0.11 212.41 -0.11 C214.07 -0.11 215.73 -0.11 217.38 -0.11 C220.71 -0.11 224.04 -0.11 227.36 -0.11 C228.19 -0.11 229.01 -0.11 229.86 -0.11 C256.64 -0.11 283.41 -0.13 310.19 -0.15 C338.5 -0.18 366.81 -0.19 395.12 -0.19 C398.23 -0.19 401.33 -0.19 404.44 -0.19 C405.2 -0.19 405.97 -0.19 406.75 -0.19 C419.07 -0.19 431.39 -0.2 443.71 -0.22 C456.08 -0.23 468.45 -0.24 480.82 -0.23 C487.52 -0.22 494.22 -0.23 500.93 -0.24 C507.06 -0.25 513.18 -0.25 519.31 -0.24 C521.54 -0.24 523.76 -0.24 525.99 -0.25 C529 -0.26 532 -0.25 535.01 -0.24 C535.89 -0.25 536.77 -0.26 537.67 -0.26 C543.56 -0.21 543.56 -0.21 545.72 1.45 C547.83 4.21 547.37 6.93 547.37 10.33 C547.37 11.05 547.37 11.76 547.37 12.5 C547.37 14.02 547.36 15.54 547.34 17.06 C547.32 19.33 547.32 21.6 547.33 23.87 C547.3 36.61 546.57 49.29 542.25 61.38 C541.99 62.14 541.73 62.9 541.46 63.68 C533.12 86.93 515.33 106.07 493.07 116.63 C481.01 121.82 481.01 121.82 475 121.13 C472.5 118.63 472.81 117.18 472.78 113.77 C472.68 105.7 471.74 99.29 466 93.13 C461.27 90.15 456.53 89.21 451 90.13 C445.49 91.78 441.58 94.82 438.25 99.47 C435.57 105.19 436.2 111.71 436.27 117.91 C436.27 119.5 436.27 121.1 436.26 122.7 C436.24 127.02 436.27 131.34 436.3 135.66 C436.32 140.19 436.32 144.72 436.32 149.24 C436.32 156.85 436.34 164.45 436.39 172.05 C436.43 180.83 436.45 189.61 436.45 198.39 C436.44 207.75 436.46 217.11 436.49 226.48 C436.5 229.17 436.5 231.86 436.5 234.55 C436.51 238.79 436.52 243.02 436.55 247.26 C436.56 248.81 436.57 250.36 436.56 251.91 C436.56 254.03 436.58 256.15 436.6 258.28 C436.61 259.46 436.61 260.65 436.62 261.87 C437.05 265.56 438.09 267.97 440 271.13 C444.3 274.51 449.58 277.43 455.13 277.82 C461.6 276.67 466.25 274.48 470.22 269.16 C472.83 264.27 472.68 259.12 472.75 253.69 C472.78 252.68 472.81 251.66 472.84 250.61 C472.91 248.12 472.97 245.63 473 243.13 C475.71 241.65 477.93 240.84 481 240.49 C481.77 240.39 482.55 240.3 483.35 240.19 C484.18 240.09 485.02 239.99 485.88 239.88 C508.09 236.82 543.48 229.65 560 213.13 C560.76 212.84 561.51 212.55 562.29 212.25 C565.41 210.97 567.75 209.28 570.44 207.26 C573.24 205.16 576.02 203.12 578.95 201.21 C582.29 198.93 585.32 196.45 588.38 193.82 C589.23 193.09 589.23 193.09 590.11 192.34 C591.24 191.37 592.37 190.4 593.49 189.43 C594.73 188.36 595.98 187.32 597.24 186.28 C607.04 178.05 615.17 168.08 622.75 157.82 C623.6 156.68 624.45 155.53 625.31 154.39 C631.14 146.63 635.87 138.94 640 130.13 C640.64 128.88 641.28 127.63 641.93 126.39 C652.12 106.76 658.62 85.99 662 64.13 C662.17 63.14 662.34 62.16 662.51 61.14 C664.52 48.21 664.38 35.25 664.46 22.19 C664.48 19.11 664.52 16.04 664.56 12.96 C664.56 12.02 664.56 11.07 664.56 10.1 C664.58 8.79 664.58 8.79 664.6 7.46 C664.61 6.69 664.61 5.93 664.62 5.14 C665.12 2.54 665.96 1.77 668 0.13 C669.97 -0.24 669.97 -0.24 672.26 -0.24 C673.57 -0.25 673.57 -0.25 674.9 -0.26 C675.86 -0.25 676.82 -0.24 677.81 -0.24 C679.34 -0.24 679.34 -0.24 680.9 -0.25 C684.33 -0.25 687.76 -0.24 691.19 -0.23 C693.65 -0.23 696.1 -0.23 698.56 -0.23 C704.54 -0.24 710.53 -0.23 716.51 -0.21 C723.49 -0.19 730.46 -0.19 737.44 -0.19 C749.9 -0.19 762.35 -0.17 774.81 -0.15 C786.88 -0.13 798.95 -0.11 811.02 -0.11 C811.77 -0.11 812.51 -0.11 813.27 -0.11 C814.77 -0.11 816.26 -0.11 817.76 -0.11 C818.5 -0.11 819.23 -0.11 819.99 -0.11 C821.1 -0.11 821.1 -0.11 822.22 -0.11 C833.74 -0.1 845.26 -0.09 856.78 -0.08 C860.94 -0.07 865.11 -0.07 869.28 -0.07 C876.52 -0.06 883.75 -0.05 890.99 -0.04 C893.39 -0.03 895.79 -0.03 898.19 -0.03 C901.48 -0.03 904.76 -0.02 908.05 -0.01 C908.99 -0.01 909.93 -0.01 910.9 -0.01 C930.24 0.07 930.24 0.07 938 4.13 C938 5.12 938 6.11 938 7.13 C936.06 8.54 934.04 9.86 932 11.13 C929.97 12.66 927.95 14.2 925.94 15.76 C924.79 16.64 923.65 17.53 922.5 18.42 C921.92 18.87 921.34 19.32 920.74 19.78 C918 21.91 915.25 24.02 912.5 26.13 C911.42 26.96 910.34 27.79 909.26 28.62 C907.06 30.32 904.85 32.01 902.65 33.7 C896.93 38.08 891.26 42.5 885.65 47.01 C877.38 53.63 869.02 60.13 860.62 66.57 C857.38 69.06 854.18 71.57 851 74.13 C845.08 78.9 839.04 83.51 833 88.13 C823.95 95.07 814.96 102.07 806 109.13 C798.11 115.35 790.21 121.54 782.23 127.65 C778.14 130.79 774.07 133.96 770 137.13 C752.48 150.78 752.48 150.78 745.25 156.32 C739.05 161.08 732.91 165.9 726.77 170.74 C723.27 173.5 719.76 176.25 716.26 179 C713.32 181.31 710.39 183.61 707.47 185.92 C701.31 190.77 695.12 195.59 688.9 200.36 C684.91 203.42 680.95 206.52 677 209.63 C671.35 214.08 665.67 218.48 659.96 222.86 C654.35 227.17 648.77 231.51 643.25 235.94 C637.79 240.32 632.25 244.58 626.69 248.84 C612.32 259.85 597.97 270.89 583.88 282.26 C579.29 285.94 574.58 289.47 569.87 292.99 C565.87 295.98 561.93 299.05 558 302.13 C557.5 302.53 557 302.92 556.48 303.33 C552.32 306.59 548.16 309.86 544 313.13 C530.99 323.37 517.92 333.53 504.77 343.61 C499.12 347.94 493.48 352.3 487.88 356.69 C487.29 357.15 486.71 357.61 486.1 358.08 C482.41 360.99 478.79 363.98 475.19 367.01 C467.69 373.09 461.97 377.16 451.97 376.67 C446.78 375.73 443.17 373.25 439 370.13 C438.01 369.39 437.01 368.65 435.98 367.89 C432.62 365.36 429.31 362.75 426 360.13 C424.85 359.23 423.7 358.33 422.55 357.43 C419.63 355.14 416.71 352.84 413.79 350.54 C411.98 349.11 410.17 347.69 408.36 346.27 C403.18 342.21 398 338.14 392.88 334.01 C388.31 330.34 383.63 326.84 378.94 323.35 C375.44 320.71 372.03 317.97 368.62 315.22 C364.02 311.55 359.35 307.99 354.68 304.41 C351.95 302.32 349.23 300.23 346.5 298.13 C343.27 295.64 340.03 293.15 336.79 290.67 C330.66 285.97 324.57 281.23 318.51 276.45 C313.9 272.81 309.24 269.25 304.57 265.69 C298.53 261.1 292.58 256.42 286.68 251.66 C281.19 247.25 275.59 242.97 269.99 238.71 C265.5 235.29 261.08 231.81 256.7 228.27 C253.11 225.42 249.46 222.66 245.82 219.88 C240.32 215.7 234.88 211.47 229.5 207.13 C222.1 201.16 214.55 195.39 206.98 189.63 C198.79 183.41 190.68 177.1 182.66 170.66 C173.56 163.37 164.42 156.16 155.07 149.19 C147.85 143.82 140.83 138.24 133.82 132.59 C123.01 123.91 112.02 115.45 100.97 107.07 C93.09 101.09 85.33 95 77.68 88.73 C72.88 84.81 67.97 81.06 62.99 77.37 C59.04 74.41 55.16 71.35 51.28 68.29 C47.38 65.21 43.45 62.16 39.5 59.13 C34.98 55.66 30.48 52.16 26 48.63 C21.08 44.76 16.14 40.91 11.17 37.1 C4.22 31.77 -2.68 26.39 -9.59 21.01 C-13.76 17.76 -17.94 14.51 -22.12 11.26 C-23.65 10.07 -25.17 8.89 -26.69 7.7 C-27.33 7.2 -27.97 6.71 -28.63 6.19 C-29.08 5.84 -29.53 5.49 -30 5.13 C-23.27 -1.59 -8.84 -0.02 0 0 Z " fill="#F8DE7C" transform="translate(184.9971694946289,566.8685722351074)"/>
<path d="M0 0 C4.39 0.54 6.84 2.06 10.31 4.75 C11.87 5.95 11.87 5.95 13.46 7.18 C18.83 11.43 24.14 15.75 29.43 20.08 C34.78 24.46 40.21 28.68 45.75 32.81 C50.79 36.58 55.81 40.37 60.76 44.25 C62.97 45.98 65.2 47.68 67.44 49.38 C73.81 54.25 80.07 59.26 86.27 64.36 C90.14 67.53 94.08 70.6 98.1 73.58 C100.84 75.63 103.54 77.72 106.25 79.81 C111.63 83.97 117.07 88.05 122.54 92.09 C125 94 125 94 126.45 95.46 C127.99 96.99 129.56 98.25 131.3 99.53 C131.94 100.01 132.58 100.48 133.24 100.97 C134.27 101.73 134.27 101.73 135.31 102.5 C141.27 106.93 147.15 111.44 152.97 116.05 C157.76 119.84 162.65 123.5 167.57 127.12 C170 129 170 129 171.44 130.45 C173.02 132.02 174.65 133.31 176.44 134.64 C177.1 135.13 177.76 135.62 178.44 136.12 C179.14 136.64 179.84 137.16 180.56 137.69 C185.95 141.7 191.28 145.76 196.5 150 C200.58 153.27 204.76 156.43 208.92 159.61 C212.01 162.01 215 164.5 218 167 C220.01 168.57 222.03 170.14 224.06 171.69 C225.21 172.57 226.36 173.45 227.5 174.32 C228.08 174.77 228.66 175.21 229.26 175.67 C232.01 177.77 234.76 179.89 237.5 182 C240.74 184.49 243.97 186.98 247.21 189.46 C254.11 194.75 260.96 200.1 267.79 205.48 C273.42 209.9 279.07 214.29 284.75 218.64 C285.3 219.07 285.86 219.5 286.44 219.94 C286.99 220.36 287.54 220.78 288.11 221.22 C292.48 224.58 296.79 228.02 301.07 231.5 C302.93 233.05 302.93 233.05 305 234 C305 234.66 305 235.32 305 236 C305.72 236.25 306.44 236.5 307.19 236.75 C310.3 238.13 312.41 239.79 315 242 C319.04 245.38 323.12 248.68 327.31 251.88 C332.76 256.03 338.15 260.25 343.51 264.51 C346.6 266.99 346.6 266.99 350 269 C350 269.66 350 270.32 350 271 C350.84 271.39 350.84 271.39 351.7 271.79 C360.94 276.66 369.19 284.2 377.35 290.69 C378.88 291.9 380.41 293.1 381.94 294.3 C390.87 301.35 390.87 301.35 394 305 C394 305.99 394 306.98 394 308 C392.09 309.84 392.09 309.84 389.38 311.94 C388.37 312.74 387.36 313.53 386.32 314.36 C385.51 315 385.51 315 384.68 315.65 C381.81 317.95 379.03 320.35 376.25 322.75 C375.38 323.5 375.38 323.5 374.48 324.27 C371.37 326.95 368.26 329.64 365.16 332.34 C358.78 337.89 352.38 343.37 345.81 348.69 C342.5 351.41 339.25 354.2 336 357 C330.99 361.32 325.91 365.55 320.78 369.72 C317.09 372.74 313.47 375.83 309.84 378.91 C306.39 381.84 302.9 384.72 299.38 387.56 C295.64 390.6 292.04 393.74 288.5 397 C284.08 401.06 279.54 404.89 274.88 408.66 C271.76 411.2 268.69 413.78 265.62 416.38 C264.81 417.06 264.81 417.06 263.98 417.77 C262.32 419.18 260.66 420.59 259 422 C256.79 423.88 254.58 425.75 252.38 427.62 C251.84 428.08 251.31 428.53 250.76 429 C246.3 432.77 241.78 436.46 237.24 440.12 C235.03 441.91 235.03 441.91 233.32 443.75 C232 445 232 445 230 445 C230 445.66 230 446.32 230 447 C228.6 448.19 228.6 448.19 226.62 449.56 C223.29 451.98 220.22 454.53 217.19 457.31 C212.91 461.22 208.49 464.9 203.98 468.55 C200.61 471.32 197.3 474.15 194 477 C188.99 481.32 183.91 485.55 178.78 489.72 C171.61 495.59 164.53 501.57 157.69 507.81 C154.28 510.92 150.78 513.71 147.05 516.42 C143.74 518.97 140.71 521.84 137.62 524.66 C134.17 527.74 130.58 530.64 126.98 533.55 C123.61 536.32 120.3 539.15 117 542 C111.99 546.32 106.92 550.54 101.79 554.71 C94.95 560.32 88.21 566.04 81.56 571.88 C80.38 572.92 79.19 573.96 78 575 C77.42 575.51 76.85 576.01 76.25 576.54 C72.23 580 72.23 580 70 580 C70 580.66 70 581.32 70 582 C68.6 583.19 68.6 583.19 66.62 584.56 C63.29 586.98 60.22 589.53 57.19 592.31 C52.91 596.22 48.49 599.9 43.98 603.55 C40.61 606.32 37.3 609.15 34 612 C17.2 626.45 17.2 626.45 11 630 C9.33 628.33 7.67 626.67 6 625 C5.2 624.32 4.39 623.64 3.56 622.94 C-6.81 611.04 -8.47 595.35 -8.38 580.14 C-8.38 578.8 -8.39 577.47 -8.39 576.13 C-8.4 572.51 -8.4 568.88 -8.39 565.25 C-8.38 561.33 -8.39 557.4 -8.4 553.47 C-8.41 546.68 -8.42 539.89 -8.41 533.1 C-8.4 523.27 -8.42 513.45 -8.43 503.62 C-8.46 487.67 -8.48 471.71 -8.49 455.76 C-8.49 454.8 -8.49 453.85 -8.49 452.87 C-8.49 445.13 -8.5 437.39 -8.5 429.65 C-8.5 422.88 -8.51 416.11 -8.51 409.33 C-8.51 408.38 -8.51 407.42 -8.51 406.44 C-8.52 390.53 -8.54 374.63 -8.57 358.72 C-8.59 348.91 -8.59 339.11 -8.59 329.31 C-8.58 322.6 -8.59 315.89 -8.6 309.17 C-8.61 305.3 -8.62 301.43 -8.61 297.56 C-8.59 293.36 -8.61 289.17 -8.62 284.97 C-8.61 283.75 -8.61 282.53 -8.6 281.27 C-8.64 275.03 -9 270.5 -12 265 C-12.52 263.95 -13.03 262.9 -13.56 261.81 C-16.62 258.29 -19.5 257.31 -23.86 255.86 C-26 255 -26 255 -27 253 C-27.09 251.53 -27.13 250.06 -27.13 248.58 C-27.13 247.67 -27.14 246.75 -27.14 245.81 C-27.14 244.82 -27.13 243.83 -27.13 242.81 C-27.13 241.8 -27.13 240.79 -27.14 239.74 C-27.14 237.6 -27.13 235.45 -27.13 233.31 C-27.13 230.01 -27.13 226.72 -27.14 223.43 C-27.14 221.35 -27.13 219.27 -27.13 217.19 C-27.13 216.2 -27.14 215.21 -27.14 214.19 C-27.14 213.27 -27.13 212.36 -27.13 211.42 C-27.13 210.61 -27.13 209.8 -27.13 208.97 C-27 207 -27 207 -26 205 C-24.11 204.32 -24.11 204.32 -21.75 203.69 C-16.21 201.93 -13.35 199.29 -10.39 194.27 C-8.82 190.59 -8.62 188.02 -8.62 184.03 C-8.62 183.36 -8.61 182.68 -8.61 181.98 C-8.6 179.72 -8.61 177.47 -8.62 175.21 C-8.61 173.59 -8.61 171.96 -8.6 170.34 C-8.59 166.85 -8.58 163.36 -8.59 159.87 C-8.6 154.33 -8.58 148.8 -8.56 143.27 C-8.52 131.51 -8.51 119.76 -8.5 108 C-8.49 95.33 -8.47 82.67 -8.43 70 C-8.41 64.51 -8.41 59.03 -8.41 53.54 C-8.42 50.11 -8.4 46.68 -8.39 43.24 C-8.39 41.67 -8.39 40.09 -8.39 38.51 C-8.45 24.74 -7.06 12.11 0 0 Z " fill="#F8DE7C" transform="translate(122,596)"/>
<path d="M0 0 C0.97 2.14 1.92 4.29 2.88 6.44 C3.41 7.63 3.94 8.83 4.49 10.06 C8.27 19.47 8.28 28.7 8.26 38.67 C8.26 40.25 8.26 41.82 8.27 43.4 C8.27 46.77 8.28 50.15 8.27 53.52 C8.27 58.87 8.29 64.21 8.3 69.55 C8.35 84.73 8.37 99.92 8.38 115.1 C8.38 123.5 8.4 131.9 8.44 140.3 C8.46 145.6 8.46 150.91 8.45 156.22 C8.45 159.52 8.46 162.82 8.48 166.13 C8.48 167.66 8.48 169.18 8.47 170.71 C8.43 178.66 8.41 185.22 13 192 C15.64 194.17 15.64 194.17 18.62 195.5 C19.59 195.98 20.55 196.47 21.54 196.97 C23.86 198.13 23.86 198.13 26 198 C27.2 200.4 27.16 201.96 27.21 204.63 C27.23 205.59 27.25 206.55 27.27 207.54 C27.29 209.1 27.29 209.1 27.32 210.7 C27.34 211.76 27.36 212.82 27.38 213.92 C27.44 217.32 27.5 220.72 27.56 224.12 C27.61 226.43 27.65 228.73 27.69 231.04 C27.8 236.69 27.9 242.34 28 248 C27.38 248.2 26.76 248.41 26.13 248.62 C25.32 248.88 24.51 249.15 23.67 249.43 C22.87 249.7 22.07 249.96 21.24 250.23 C15.38 252.24 12.95 254.87 10.08 260.23 C8.02 265.54 8.32 270.96 8.37 276.58 C8.37 277.95 8.36 279.31 8.35 280.68 C8.33 284.41 8.35 288.15 8.36 291.88 C8.38 295.92 8.36 299.95 8.35 303.99 C8.33 310.97 8.33 317.96 8.35 324.95 C8.37 335.06 8.36 345.17 8.34 355.28 C8.31 371.7 8.3 388.13 8.31 404.55 C8.31 420.47 8.31 436.4 8.3 452.32 C8.3 453.3 8.3 454.28 8.3 455.29 C8.3 466 8.29 476.72 8.27 487.43 C8.27 488.37 8.27 489.31 8.27 490.28 C8.27 494.05 8.26 497.82 8.26 501.58 C8.24 512.6 8.24 523.61 8.25 534.63 C8.25 541.54 8.25 548.45 8.24 555.36 C8.24 559.35 8.24 563.33 8.25 567.32 C8.26 570.97 8.26 574.62 8.25 578.27 C8.24 580.21 8.25 582.15 8.26 584.09 C8.2 600.87 3.57 614.71 -7.32 627.5 C-9 629 -9 629 -12 629 C-16.49 626.32 -20.4 623.07 -24.31 619.62 C-29.72 614.93 -35.2 610.34 -40.75 605.81 C-46.19 601.36 -51.5 596.82 -56.69 592.07 C-60.06 589.05 -63.58 586.22 -67.09 583.37 C-75.44 576.56 -83.59 569.5 -91.76 562.49 C-99.59 555.77 -107.43 549.07 -115.44 542.56 C-120.3 538.6 -125.06 534.53 -129.81 530.44 C-133.31 527.43 -136.85 524.47 -140.44 521.56 C-145.49 517.46 -150.4 513.22 -155.3 508.95 C-163.33 501.96 -171.42 495.07 -179.69 488.38 C-183.16 485.55 -186.52 482.65 -189.81 479.62 C-193.71 476.06 -197.76 472.79 -201.94 469.56 C-207.32 465.4 -212.38 461.02 -217.37 456.39 C-220.82 453.26 -224.42 450.34 -228.05 447.41 C-231.41 444.66 -234.71 441.84 -238 439 C-242.2 435.38 -246.44 431.8 -250.75 428.31 C-254.31 425.43 -257.74 422.46 -261.12 419.38 C-264.16 416.61 -267.23 413.99 -270.5 411.5 C-274.68 408.32 -278.53 404.86 -282.4 401.32 C-286.8 397.39 -291.41 393.71 -296 390 C-302.88 384.44 -309.63 378.75 -316.3 372.95 C-324.33 365.96 -332.42 359.07 -340.69 352.38 C-345.1 348.79 -349.32 345.02 -353.53 341.19 C-356.8 338.29 -360.21 335.59 -363.64 332.89 C-366.42 330.66 -369.08 328.34 -371.74 325.98 C-374.63 323.45 -377.56 320.98 -380.5 318.5 C-385.38 314.38 -390.22 310.23 -395 306 C-388.11 298.66 -379.8 292.82 -371.83 286.72 C-367.59 283.47 -363.42 280.14 -359.26 276.79 C-357.22 275.17 -355.16 273.61 -353.06 272.06 C-349.87 269.7 -346.81 267.22 -343.75 264.69 C-338.88 260.68 -333.89 256.87 -328.83 253.11 C-325.65 250.74 -322.52 248.32 -319.4 245.87 C-317.05 244.04 -314.68 242.22 -312.3 240.41 C-307.62 236.82 -302.98 233.2 -298.44 229.44 C-293.79 225.6 -289 221.97 -284.16 218.38 C-280.16 215.37 -276.22 212.27 -272.29 209.16 C-268.3 206.01 -264.29 202.9 -260.25 199.81 C-256.47 196.91 -252.71 193.99 -249 191 C-244.75 187.58 -240.43 184.24 -236.1 180.92 C-232.04 177.81 -228.01 174.66 -224 171.5 C-218.9 167.48 -213.77 163.51 -208.62 159.56 C-205.36 157.06 -202.13 154.52 -198.94 151.94 C-195.37 149.06 -191.74 146.29 -188.06 143.56 C-184.1 140.61 -180.24 137.59 -176.44 134.44 C-172.88 131.49 -169.26 128.69 -165.5 126 C-161.85 123.38 -158.33 120.68 -154.88 117.81 C-148.03 112.14 -140.94 106.8 -133.87 101.43 C-128.61 97.42 -123.41 93.33 -118.25 89.19 C-112.79 84.81 -107.25 80.55 -101.69 76.3 C-87.38 65.35 -87.38 65.35 -73.25 54.19 C-66.69 48.92 -59.99 43.82 -53.31 38.71 C-46.92 33.82 -40.57 28.89 -34.3 23.84 C-27.66 18.52 -20.88 13.37 -14.12 8.19 C-13 7.32 -13 7.32 -11.85 6.44 C-11.14 5.9 -10.43 5.35 -9.7 4.79 C-9.06 4.3 -8.42 3.81 -7.76 3.31 C-3.31 0 -3.31 0 0 0 Z " fill="#F8DE7C" transform="translate(1157,596)"/>
<path d="M0 0 C0.97 2.14 1.92 4.29 2.88 6.44 C3.41 7.63 3.94 8.83 4.49 10.06 C7.6 17.72 8.3 25.19 8.23 33.4 C8.23 34.36 8.23 35.31 8.23 36.3 C8.23 38.3 8.22 40.31 8.21 42.31 C8.19 45.39 8.19 48.46 8.19 51.54 C8.18 53.49 8.17 55.44 8.17 57.4 C8.17 58.32 8.17 59.24 8.16 60.18 C8.16 61.03 8.15 61.89 8.15 62.76 C8.14 63.51 8.14 64.26 8.13 65.03 C8 67 8 67 7 70 C5.38 71.33 5.38 71.33 3.12 72.81 C-8.39 80.62 -19.65 88.87 -30.33 97.79 C-34.12 100.93 -38 103.95 -41.88 106.99 C-45.24 109.61 -48.57 112.26 -51.88 114.94 C-56.1 118.33 -60.41 121.58 -64.75 124.81 C-71.68 129.98 -78.5 135.27 -85.28 140.64 C-95.84 149 -106.47 157.25 -117.18 165.43 C-123.63 170.36 -130 175.38 -136.34 180.46 C-146.59 188.69 -156.96 196.77 -167.39 204.77 C-170.1 206.84 -172.8 208.92 -175.5 211 C-178.74 213.49 -181.97 215.98 -185.21 218.46 C-191.43 223.23 -197.61 228.04 -203.77 232.89 C-207.66 235.96 -211.57 238.99 -215.5 242 C-223.52 248.15 -231.46 254.42 -239.4 260.68 C-246.44 266.24 -253.54 271.72 -260.68 277.16 C-266.94 281.94 -273.14 286.79 -279.32 291.67 C-282.12 293.89 -284.94 296.1 -287.75 298.31 C-288.31 298.76 -288.88 299.2 -289.46 299.66 C-295.16 304.13 -300.88 308.57 -306.6 313.01 C-310.47 316.02 -314.32 319.04 -318.12 322.12 C-321.03 324.47 -323.98 326.74 -326.98 328.97 C-327.69 329.5 -328.41 330.03 -329.14 330.58 C-330.55 331.62 -331.97 332.67 -333.38 333.7 C-337.24 336.56 -340.63 339.55 -344 343 C-345.31 344.03 -346.64 345.04 -348 346 C-349.36 344.82 -349.36 344.82 -350.75 343.62 C-358.61 336.8 -358.61 336.8 -366.75 330.31 C-370.83 327.2 -374.59 323.8 -378.37 320.34 C-382.02 317.1 -385.82 314.07 -389.65 311.04 C-391.81 309.16 -393.4 307.36 -395 305 C-387.25 298.76 -379.48 292.56 -371.58 286.52 C-367.42 283.34 -363.33 280.08 -359.26 276.79 C-357.22 275.17 -355.16 273.61 -353.06 272.06 C-349.87 269.7 -346.81 267.22 -343.75 264.69 C-338.88 260.68 -333.89 256.87 -328.83 253.11 C-325.65 250.74 -322.52 248.32 -319.4 245.87 C-317.05 244.04 -314.68 242.22 -312.3 240.41 C-307.62 236.82 -302.98 233.2 -298.44 229.44 C-293.79 225.6 -289 221.97 -284.16 218.38 C-280.16 215.37 -276.22 212.27 -272.29 209.16 C-268.3 206.01 -264.29 202.9 -260.25 199.81 C-256.47 196.91 -252.71 193.99 -249 191 C-244.75 187.58 -240.43 184.24 -236.1 180.92 C-232.04 177.81 -228.01 174.66 -224 171.5 C-218.9 167.48 -213.77 163.51 -208.62 159.56 C-205.36 157.06 -202.13 154.52 -198.94 151.94 C-195.37 149.06 -191.74 146.29 -188.06 143.56 C-184.1 140.61 -180.24 137.59 -176.44 134.44 C-172.88 131.49 -169.26 128.69 -165.5 126 C-161.85 123.38 -158.33 120.68 -154.88 117.81 C-148.03 112.14 -140.94 106.8 -133.87 101.43 C-128.61 97.42 -123.41 93.33 -118.25 89.19 C-112.79 84.81 -107.25 80.55 -101.69 76.3 C-87.38 65.35 -87.38 65.35 -73.25 54.19 C-66.69 48.92 -59.99 43.82 -53.31 38.71 C-46.92 33.82 -40.57 28.89 -34.3 23.84 C-27.66 18.52 -20.88 13.37 -14.12 8.19 C-13 7.32 -13 7.32 -11.85 6.44 C-11.14 5.9 -10.43 5.35 -9.7 4.79 C-9.06 4.3 -8.42 3.81 -7.76 3.31 C-3.31 0 -3.31 0 0 0 Z " fill="#FAD066" transform="translate(1157,596)"/>
<path d="M0 0 C4.39 0.54 6.84 2.06 10.31 4.75 C11.35 5.55 12.39 6.36 13.46 7.18 C18.83 11.43 24.14 15.75 29.43 20.08 C34.78 24.46 40.21 28.68 45.75 32.81 C50.79 36.58 55.81 40.37 60.76 44.25 C62.97 45.98 65.2 47.68 67.44 49.38 C73.81 54.25 80.07 59.26 86.27 64.36 C90.14 67.53 94.08 70.6 98.1 73.58 C100.84 75.63 103.54 77.72 106.25 79.81 C111.63 83.97 117.07 88.05 122.54 92.09 C125 94 125 94 126.45 95.46 C127.99 96.99 129.56 98.25 131.3 99.53 C131.94 100.01 132.58 100.48 133.24 100.97 C134.27 101.73 134.27 101.73 135.31 102.5 C141.27 106.93 147.15 111.44 152.97 116.05 C157.76 119.84 162.65 123.5 167.57 127.12 C170 129 170 129 171.44 130.45 C173.02 132.02 174.65 133.31 176.44 134.64 C177.1 135.13 177.76 135.62 178.44 136.12 C179.14 136.64 179.84 137.16 180.56 137.69 C185.95 141.7 191.28 145.76 196.5 150 C200.58 153.27 204.76 156.43 208.92 159.61 C212.01 162.01 215 164.5 218 167 C220.01 168.57 222.03 170.14 224.06 171.69 C225.21 172.57 226.36 173.45 227.5 174.32 C228.08 174.77 228.66 175.21 229.26 175.67 C232.01 177.77 234.76 179.89 237.5 182 C240.74 184.49 243.97 186.98 247.21 189.46 C254.11 194.75 260.96 200.1 267.79 205.48 C273.42 209.9 279.07 214.29 284.75 218.64 C285.3 219.07 285.86 219.5 286.44 219.94 C286.99 220.36 287.54 220.78 288.11 221.22 C292.48 224.58 296.79 228.02 301.07 231.5 C302.93 233.05 302.93 233.05 305 234 C305 234.66 305 235.32 305 236 C305.72 236.25 306.44 236.5 307.19 236.75 C310.3 238.13 312.41 239.79 315 242 C319.04 245.38 323.12 248.68 327.31 251.88 C332.76 256.03 338.15 260.25 343.51 264.51 C346.6 266.99 346.6 266.99 350 269 C350 269.66 350 270.32 350 271 C350.84 271.39 350.84 271.39 351.7 271.79 C360.94 276.66 369.19 284.2 377.35 290.69 C378.88 291.9 380.41 293.1 381.94 294.3 C390.87 301.35 390.87 301.35 394 305 C394 305.99 394 306.98 394 308 C392.09 309.84 392.09 309.84 389.38 311.94 C388.37 312.74 387.36 313.53 386.32 314.36 C385.51 315 385.51 315 384.68 315.65 C381.81 317.95 379.03 320.35 376.25 322.75 C375.38 323.5 375.38 323.5 374.5 324.26 C371.3 327 368.12 329.77 364.95 332.55 C364.28 333.14 363.61 333.72 362.92 334.33 C361.63 335.46 360.34 336.59 359.06 337.72 C352.8 343.21 352.8 343.21 349 345 C345.53 343.87 343.57 342.77 341.39 339.81 C338.01 335.84 333.96 333.05 329.75 330 C323.21 325.18 316.77 320.29 310.5 315.12 C305.04 310.63 299.5 306.33 293.81 302.12 C289.95 299.21 286.23 296.12 282.5 293.04 C279.82 290.85 277.07 288.77 274.28 286.71 C271.23 284.42 268.24 282.05 265.25 279.69 C260.82 276.19 256.35 272.74 251.81 269.38 C246.92 265.73 242.2 261.92 237.5 258.04 C235.45 256.37 233.38 254.76 231.25 253.19 C227.3 250.28 223.5 247.2 219.69 244.12 C215.3 240.59 210.9 237.14 206.31 233.88 C201.25 230.26 196.54 226.34 191.82 222.3 C188.99 219.99 186.05 218.02 183 216 C181.36 214.69 179.73 213.36 178.12 212 C173.6 208.25 168.97 204.69 164.25 201.19 C158.21 196.7 152.3 192.09 146.44 187.36 C140.37 182.47 134.19 177.73 128 173 C125.85 171.36 123.71 169.71 121.56 168.06 C121.03 167.65 120.5 167.24 119.95 166.82 C115.32 163.26 110.74 159.65 106.16 156.04 C102.45 153.11 98.68 150.26 94.88 147.44 C90.78 144.39 86.84 141.23 82.94 137.94 C78.36 134.07 73.65 130.53 68.77 127.05 C65.8 124.85 63 122.52 60.19 120.12 C55.31 115.99 50.26 112.28 45.02 108.62 C40.69 105.57 36.76 102.25 32.87 98.66 C30.42 96.49 27.73 94.8 25 93 C22.33 90.86 19.71 88.68 17.07 86.5 C13.85 83.87 10.56 81.34 7.25 78.81 C-1.91 71.8 -1.91 71.8 -6 68 C-6 67.34 -6 66.68 -6 66 C-6.66 66 -7.32 66 -8 66 C-8.08 60.27 -8.13 54.55 -8.16 48.82 C-8.18 46.88 -8.2 44.94 -8.23 43 C-8.43 27.53 -8.01 13.74 0 0 Z " fill="#FAD167" transform="translate(122,596)"/>
<path d="M0 0 C0.99 0 1.98 0 3 0 C3.07 30.44 3.12 60.88 3.15 91.31 C3.16 94.92 3.16 98.52 3.16 102.13 C3.17 102.85 3.17 103.57 3.17 104.3 C3.18 115.88 3.2 127.45 3.23 139.02 C3.26 150.92 3.28 162.83 3.28 174.73 C3.29 181.4 3.3 188.08 3.32 194.75 C3.34 201.05 3.34 207.35 3.34 213.65 C3.34 215.94 3.35 218.24 3.36 220.53 C3.45 239.54 2.36 258.6 -2.81 277 C-3.2 278.42 -3.2 278.42 -3.59 279.86 C-5.82 287.85 -8.58 295.45 -12 303 C-12.39 303.86 -12.77 304.72 -13.17 305.61 C-15.69 310.89 -18.65 315.91 -21.62 320.94 C-22.01 321.59 -22.39 322.24 -22.79 322.91 C-24.63 325.96 -26.45 328.53 -29 331 C-30.01 332.66 -31.01 334.33 -32 336 C-42.24 350.21 -55.48 363.26 -70 373 C-70.99 373.87 -71.98 374.73 -73 375.62 C-77.34 379.06 -82.08 381.47 -87 384 C-87.6 384.31 -88.19 384.63 -88.81 384.95 C-105.89 393.93 -123.58 400.77 -142.81 403.38 C-143.5 403.47 -144.19 403.57 -144.9 403.67 C-146.83 403.9 -146.83 403.9 -150 404 C-153.03 400.97 -152.33 397.48 -152.34 393.41 C-152.35 392.13 -152.35 392.13 -152.36 390.83 C-152.37 389.02 -152.37 387.21 -152.37 385.41 C-152.37 382.64 -152.41 379.88 -152.45 377.12 C-152.46 375.36 -152.46 373.61 -152.46 371.85 C-152.48 371.03 -152.49 370.2 -152.5 369.35 C-152.47 365.59 -152.45 363.63 -150.21 360.51 C-148.05 359.04 -146.68 358.36 -144.13 357.91 C-143.4 357.77 -142.66 357.63 -141.91 357.48 C-141.13 357.34 -140.36 357.2 -139.56 357.06 C-127.38 354.61 -116.72 350.31 -106 344 C-105.32 343.6 -104.63 343.2 -103.93 342.79 C-101.92 341.57 -99.96 340.3 -98 339 C-96.84 338.26 -96.84 338.26 -95.66 337.51 C-83.04 328.97 -70.77 317.17 -63 304 C-62.31 302.87 -62.31 302.87 -61.61 301.73 C-55.04 290.6 -49.29 279.56 -46 267 C-45.72 265.93 -45.72 265.93 -45.43 264.84 C-42.97 255.19 -41.71 245.64 -41.4 235.69 C-41.34 233.99 -41.34 233.99 -41.28 232.25 C-40.77 214.94 -40.85 197.62 -40.87 180.3 C-40.87 176.23 -40.87 172.16 -40.87 168.09 C-40.86 157.35 -40.87 146.61 -40.95 135.87 C-40.99 130.9 -41 125.94 -40.99 120.97 C-40.99 117.56 -41.03 114.15 -41.07 110.74 C-41.05 108.98 -41.05 108.98 -41.04 107.19 C-41.2 99.2 -43.35 93.78 -49 88 C-52.94 85.66 -56.49 85.45 -61 85 C-61.33 84.01 -61.66 83.02 -62 82 C-60.75 79.86 -59.48 77.97 -58 76 C-57.59 75.44 -57.17 74.87 -56.75 74.29 C-53.13 69.4 -49.39 64.6 -45.68 59.79 C-43.39 56.81 -41.11 53.83 -38.88 50.81 C-36.74 47.94 -34.51 45.15 -32.25 42.38 C-29.06 38.42 -26.1 34.35 -23.19 30.19 C-19.32 24.68 -15.19 19.5 -10.75 14.44 C-7.86 11.12 -5.37 7.7 -3 4 C-1.44 1.62 -1.44 1.62 0 0 Z " fill="#E9F3FB" transform="translate(810,367)"/>
<path d="M0 0 C4.68 0.21 7.37 2.52 10.94 5.38 C11.5 5.82 12.06 6.26 12.64 6.72 C13.83 7.66 15.01 8.61 16.2 9.56 C18.54 11.43 20.89 13.28 23.25 15.13 C24.42 16.05 25.59 16.97 26.77 17.89 C31.74 21.8 36.75 25.67 41.77 29.52 C43.98 31.22 46.19 32.92 48.39 34.64 C51.57 37.12 54.78 39.56 58 42 C58.77 42.59 59.53 43.18 60.32 43.79 C73.34 53.19 89.7 55.81 105.36 53.5 C121.88 49.71 134.23 38.7 147.2 28.43 C155.77 21.63 164.38 14.87 173.08 8.24 C174.89 6.85 176.68 5.45 178.45 4.01 C179.15 3.45 179.84 2.89 180.56 2.31 C181.14 1.83 181.72 1.36 182.32 0.86 C184 0 184 0 185.92 0.3 C189.33 1.45 191.73 3.96 194.38 6.31 C195.62 7.41 196.87 8.5 198.12 9.59 C198.76 10.16 199.4 10.72 200.06 11.3 C203.14 14 206.26 16.65 209.38 19.31 C213.73 23.04 218.07 26.79 222.35 30.6 C224.05 32.08 224.05 32.08 226.17 33.55 C228.37 35.29 228.56 36.29 229 39 C229.33 39.66 229.66 40.32 230 41 C227.66 43.64 225.21 45.57 222.25 47.44 C217.61 50.45 213.39 53.86 209.12 57.38 C203.82 61.74 198.45 65.92 192.85 69.91 C187.32 73.97 182.02 78.34 176.68 82.65 C149.43 104.57 119.14 120.23 83.22 116.54 C54.33 113.16 33.99 100.05 11.69 82.33 C5.45 77.41 -0.88 72.61 -7.21 67.8 C-14.41 62.32 -21.53 56.79 -28.49 51 C-31.89 48.29 -35.46 45.88 -39.1 43.51 C-41 42 -41 42 -42 39 C-42 38.01 -42 37.02 -42 36 C-39.94 34 -37.9 32.19 -35.69 30.38 C-35.05 29.84 -34.41 29.31 -33.76 28.76 C-31.85 27.16 -29.92 25.58 -28 24 C-27 23.17 -26 22.34 -24.97 21.49 C-20.56 17.86 -16.11 14.29 -11.62 10.75 C-8.18 8 -5.02 5.21 -2 2 C-1.34 1.34 -0.68 0.68 0 0 Z " fill="#FAD066" transform="translate(546,926)"/>
<path d="M0 0 C11.38 -0.57 24.59 2.52 33.88 9.2 C34.7 9.77 35.52 10.35 36.36 10.94 C42.59 15.62 47.39 20.86 51.88 27.2 C52.44 27.98 53 28.76 53.57 29.56 C62.81 43.65 64.46 61.78 61.22 78.14 C56.66 94.53 45.87 107.97 31.21 116.34 C22.93 120.85 15.41 123.61 5.88 124.2 C5.14 124.26 4.4 124.33 3.64 124.4 C-12.98 125.25 -27.66 118.75 -40.12 108.2 C-40.74 107.7 -41.37 107.21 -42.02 106.7 C-52.51 98.25 -59.39 84.82 -60.95 71.41 C-62.14 55.73 -59.91 41.51 -51.12 28.2 C-50.6 27.42 -50.09 26.64 -49.56 25.84 C-39.52 11.89 -24.65 3.93 -8 0.8 C-5.35 0.4 -2.67 0.25 0 0 Z " fill="#DF7E85" transform="translate(487.1171875,151.8046875)"/>
<path d="M0 0 C2.47 0.26 4.91 0.58 7.38 0.94 C17.95 2.36 29.7 3.43 40 0 C42.59 2.59 42.25 4.37 42.29 7.91 C42.29 8.74 42.29 9.57 42.29 10.43 C42.29 11.76 42.29 11.76 42.3 13.11 C42.32 16.09 42.33 19.06 42.33 22.04 C42.35 24.17 42.36 26.29 42.37 28.42 C42.4 34.21 42.42 40 42.44 45.79 C42.46 51.83 42.49 57.88 42.52 63.92 C42.56 74.08 42.6 84.23 42.63 94.38 C42.67 106.14 42.72 117.89 42.78 129.65 C42.83 140.94 42.88 152.22 42.92 163.51 C42.94 168.33 42.96 173.14 42.98 177.95 C43.01 183.62 43.03 189.28 43.04 194.94 C43.05 197.03 43.06 199.11 43.07 201.19 C43.08 204.03 43.09 206.86 43.1 209.69 C43.1 210.95 43.1 210.95 43.11 212.23 C43.11 214.15 43.06 216.08 43 218 C40.86 220.14 35.97 219.16 33 219.17 C32.1 219.17 31.2 219.17 30.26 219.18 C28.35 219.18 26.43 219.19 24.52 219.19 C21.58 219.19 18.64 219.21 15.7 219.22 C13.84 219.23 11.99 219.23 10.13 219.23 C9.25 219.24 8.36 219.24 7.45 219.25 C1.23 219.23 1.23 219.23 -1 217 C-1.24 214.17 -1.24 214.17 -1.24 210.51 C-1.24 209.84 -1.24 209.17 -1.25 208.48 C-1.25 207.03 -1.25 205.58 -1.24 204.13 C-1.24 201.83 -1.25 199.52 -1.26 197.22 C-1.3 190.66 -1.32 184.11 -1.31 177.55 C-1.3 173.54 -1.32 169.53 -1.35 165.52 C-1.36 164 -1.36 162.48 -1.35 160.96 C-1.29 152.2 -1.46 144.24 -7 137 C-10.22 134.3 -13.11 133.19 -17.1 132.04 C-19.95 130.48 -20.64 128.97 -22 126 C-22.41 122.7 -22.35 119.43 -22.29 116.11 C-22.29 115.16 -22.28 114.21 -22.28 113.23 C-22.26 110.22 -22.23 107.2 -22.19 104.19 C-22.17 102.14 -22.16 100.09 -22.15 98.04 C-22.11 93.03 -22.06 88.01 -22 83 C-21.03 82.68 -20.06 82.36 -19.05 82.03 C-17.77 81.6 -16.49 81.16 -15.21 80.73 C-14.57 80.52 -13.93 80.31 -13.27 80.1 C-7.67 78.17 -5.6 76.21 -3 71 C-1.88 67.64 -1.85 65.06 -1.81 61.52 C-1.8 60.87 -1.79 60.22 -1.79 59.55 C-1.77 58.13 -1.75 56.72 -1.74 55.31 C-1.72 53.07 -1.69 50.83 -1.66 48.6 C-1.59 43.05 -1.53 37.5 -1.47 31.95 C-1.42 27.26 -1.37 22.57 -1.31 17.87 C-1.28 15.67 -1.26 13.46 -1.24 11.25 C-1.22 9.91 -1.21 8.56 -1.19 7.22 C-1.18 6.04 -1.16 4.86 -1.15 3.64 C-1 1 -1 1 0 0 Z " fill="#E9F3FB" transform="translate(467,311)"/>
<path d="M0 0 C0.99 0.33 1.98 0.66 3 1 C3.05 2.94 3.09 4.87 3.12 6.81 C3.15 7.89 3.17 8.97 3.2 10.08 C3 13 3 13 1 16 C0.06 12.84 -0.11 10.03 -0.06 6.75 C-0.05 5.86 -0.04 4.97 -0.04 4.05 C-0.02 3.37 -0.01 2.7 0 2 C-0.66 1.67 -1.32 1.34 -2 1 C-1.34 0.67 -0.68 0.34 0 0 Z " fill="#BAC1C7" transform="translate(451,392)"/>
</svg>
