<?xml version="1.0" encoding="UTF-8"?>
<!-- Generator: visioncortex VTracer 0.6.3 -->
<svg version="1.1" xmlns="http://www.w3.org/2000/svg" width="1280" height="1280">
<path d="M0 0 C2 -0 4.01 -0 6.01 -0.01 C11.41 -0.01 16.8 0.01 22.2 0.03 C27.86 0.05 33.52 0.05 39.18 0.05 C48.68 0.06 58.17 0.08 67.67 0.11 C79.85 0.15 92.04 0.17 104.22 0.18 C114.71 0.19 125.2 0.21 135.7 0.23 C137.95 0.23 140.19 0.23 142.44 0.24 C148.85 0.25 155.25 0.26 161.65 0.28 C163.59 0.29 165.53 0.29 167.47 0.3 C170.12 0.3 172.76 0.31 175.4 0.32 C176.17 0.32 176.94 0.32 177.74 0.32 C189.27 0.39 200.58 5.01 210.65 10.47 C210.98 11.13 211.31 11.79 211.65 12.47 C212.66 13.02 213.68 13.57 214.72 14.13 C219.34 16.68 222.79 20.17 226.46 23.91 C227.13 24.56 227.8 25.22 228.48 25.89 C231.81 29.24 234.22 31.88 235.65 36.47 C236.33 37.29 237.01 38.12 237.71 38.97 C239.79 41.65 240.05 43.22 240.65 46.47 C242.02 48.01 242.02 48.01 243.65 49.47 C245.22 51.82 246.5 53.75 247.09 56.53 C247.53 58.65 247.53 58.65 249.52 60.28 C252.89 63.75 254.53 67.59 254.84 72.41 C254.78 73.09 254.71 73.77 254.65 74.47 C255.64 74.47 256.63 74.47 257.65 74.47 C257.89 74.98 258.13 75.49 258.38 76.01 C260.05 79.42 261.71 82.68 263.9 85.78 C265.65 88.47 265.65 88.47 265.65 91.47 C266.64 92.13 267.63 92.79 268.65 93.47 C269.86 96.09 270.74 98.73 271.65 101.47 C272.47 101.47 273.3 101.47 274.15 101.48 C322.95 101.58 371.76 101.69 420.57 101.8 C426.43 101.81 432.29 101.83 438.15 101.84 C439.32 101.85 440.49 101.85 441.69 101.85 C460.58 101.89 479.47 101.94 498.36 101.97 C517.75 102.02 537.13 102.06 556.52 102.11 C568.48 102.14 580.44 102.16 592.4 102.19 C600.6 102.2 608.81 102.22 617.01 102.24 C621.74 102.26 626.47 102.27 631.2 102.27 C635.54 102.28 639.87 102.29 644.21 102.31 C645.78 102.31 647.34 102.31 648.91 102.31 C656.87 102.32 664.74 102.43 672.65 103.47 C672.65 103.8 672.65 104.13 672.65 104.47 C673.62 104.55 674.59 104.63 675.59 104.72 C679.55 105.27 682.85 106.73 686.44 108.43 C687.96 109.15 689.51 109.81 691.08 110.42 C693.9 111.57 696.53 112.94 699.21 114.41 C700.61 115.16 700.61 115.16 702.03 115.93 C705.33 117.87 708.2 120.1 711.15 122.53 C713.28 124.18 715.2 125.38 717.65 126.47 C717.65 127.13 717.65 127.79 717.65 128.47 C718.23 128.72 718.82 128.96 719.42 129.22 C721.98 130.66 723.49 132.25 725.4 134.47 C726.01 135.17 726.63 135.87 727.26 136.59 C728.65 138.47 728.65 138.47 728.65 140.47 C729.31 140.47 729.97 140.47 730.65 140.47 C730.77 141.89 730.77 141.89 730.9 143.34 C731.15 144.38 731.39 145.41 731.65 146.47 C732.97 147.17 734.3 147.84 735.65 148.47 C736.4 151.09 736.4 151.09 736.65 153.47 C737.31 153.47 737.97 153.47 738.65 153.47 C745.65 169.38 745.65 169.38 745.65 175.47 C745.98 175.47 746.31 175.47 746.65 175.47 C746.65 179.1 746.65 182.73 746.65 186.47 C747.31 186.47 747.97 186.47 748.65 186.47 C749.86 192.15 749.79 197.72 749.78 203.49 C749.78 204.61 749.78 205.73 749.78 206.88 C749.79 210.65 749.79 214.42 749.78 218.19 C749.78 220.91 749.79 223.63 749.79 226.35 C749.8 232.28 749.8 238.21 749.8 244.14 C749.79 252.95 749.8 261.76 749.8 270.58 C749.81 287.23 749.82 303.89 749.82 320.54 C749.82 333.4 749.82 346.25 749.82 359.11 C749.82 362.81 749.82 366.51 749.83 370.21 C749.83 371.12 749.83 372.04 749.83 372.99 C749.83 398.85 749.84 424.71 749.84 450.58 C749.84 451.55 749.84 452.53 749.84 453.53 C749.84 458.47 749.84 463.42 749.84 468.36 C749.84 469.83 749.84 469.83 749.84 471.34 C749.84 473.32 749.84 475.31 749.84 477.29 C749.83 508.2 749.84 539.11 749.86 570.02 C749.87 604.73 749.88 639.43 749.88 674.14 C749.88 677.84 749.88 681.53 749.88 685.23 C749.88 686.6 749.88 686.6 749.88 687.99 C749.88 702.67 749.88 717.34 749.89 732.02 C749.9 746.76 749.9 761.5 749.9 776.23 C749.89 785 749.89 793.76 749.9 802.53 C749.91 808.37 749.91 814.22 749.9 820.06 C749.9 823.4 749.9 826.73 749.91 830.07 C749.91 833.66 749.91 837.24 749.9 840.83 C749.9 841.87 749.91 842.92 749.91 844 C749.91 845.43 749.91 845.43 749.9 846.88 C749.9 847.7 749.9 848.52 749.9 849.37 C749.65 851.47 749.65 851.47 747.65 854.47 C747.28 857.31 747.15 860.12 746.99 862.97 C746.65 865.47 746.65 865.47 744.65 867.47 C744.68 868.61 744.68 868.61 744.71 869.78 C744.63 873.14 743.63 874.8 741.65 877.47 C740.99 877.47 740.33 877.47 739.65 877.47 C739.65 879.78 739.65 882.09 739.65 884.47 C738.66 884.8 737.67 885.13 736.65 885.47 C736.54 886.21 736.42 886.95 736.31 887.71 C734.26 896.31 726.68 902.88 720.59 908.84 C719.8 909.64 719.01 910.43 718.19 911.25 C709.05 920.31 709.05 920.31 703.84 920.66 C702.75 920.56 702.75 920.56 701.65 920.47 C701.4 921.09 701.15 921.71 700.9 922.34 C699.41 924.88 698.43 925.57 695.65 926.47 C693.4 926.09 693.4 926.09 691.65 925.47 C691.46 926.09 691.28 926.71 691.09 927.34 C688.94 930.52 686.26 930.62 682.65 931.47 C682.32 931.8 681.99 932.13 681.65 932.47 C679.98 932.51 678.32 932.51 676.65 932.47 C676.32 931.81 675.99 931.15 675.65 930.47 C675.32 931.79 674.99 933.11 674.65 934.47 C609.55 934.52 544.45 934.57 479.36 934.6 C478.39 934.6 477.43 934.6 476.44 934.6 C455.51 934.61 434.58 934.62 413.65 934.62 C403.38 934.63 393.12 934.63 382.85 934.63 C381.83 934.64 380.81 934.64 379.76 934.64 C346.64 934.65 313.52 934.67 280.4 934.7 C246.37 934.73 212.34 934.75 178.31 934.75 C173.51 934.75 168.71 934.75 163.9 934.75 C162.96 934.75 162.01 934.76 161.04 934.76 C145.8 934.76 130.57 934.77 115.34 934.79 C100.03 934.81 84.72 934.81 69.42 934.81 C60.32 934.81 51.22 934.81 42.12 934.83 C36.05 934.84 29.97 934.84 23.9 934.84 C20.43 934.83 16.97 934.83 13.51 934.84 C9.78 934.86 6.05 934.85 2.32 934.84 C1.24 934.85 0.16 934.85 -0.95 934.86 C-7.16 934.82 -11.66 933.98 -17.35 931.47 C-19.67 930.74 -22 930.11 -24.35 929.47 C-24.35 928.81 -24.35 928.15 -24.35 927.47 C-25.67 927.47 -26.99 927.47 -28.35 927.47 C-28.35 926.81 -28.35 926.15 -28.35 925.47 C-29.28 925.7 -30.21 925.92 -31.16 926.16 C-34.35 926.47 -34.35 926.47 -36.23 925.09 C-37.35 923.47 -37.35 923.47 -37.35 922.47 C-38.01 922.47 -38.67 922.47 -39.35 922.47 C-39.35 921.48 -39.35 920.49 -39.35 919.47 C-40.89 919.16 -40.89 919.16 -42.46 918.85 C-47.01 917.55 -49.53 914.83 -52.66 911.41 C-56.13 907.46 -56.13 907.46 -60.35 904.47 C-60.35 903.81 -60.35 903.15 -60.35 902.47 C-61.01 902.47 -61.67 902.47 -62.35 902.47 C-66.35 898 -66.35 898 -66.35 895.47 C-67.01 895.14 -67.67 894.81 -68.35 894.47 C-71.35 889.97 -71.35 889.97 -71.35 887.47 C-72.01 887.47 -72.67 887.47 -73.35 887.47 C-76.55 880.46 -79.66 873.54 -81.48 866.03 C-81.97 862.67 -81.97 862.67 -83.35 861.47 C-83.56 859.83 -83.72 858.18 -83.85 856.53 C-84.1 852.86 -84.1 852.86 -85.35 849.47 C-85.45 847.74 -85.48 846.01 -85.48 844.28 C-85.48 843.18 -85.48 842.07 -85.49 840.93 C-85.49 839.7 -85.48 838.46 -85.48 837.2 C-85.48 835.89 -85.49 834.59 -85.49 833.25 C-85.49 829.61 -85.49 825.96 -85.49 822.32 C-85.49 818.37 -85.5 814.41 -85.5 810.46 C-85.51 802.6 -85.51 794.75 -85.51 786.89 C-85.51 777.49 -85.52 768.08 -85.52 758.68 C-85.54 735.94 -85.55 713.2 -85.55 690.46 C-85.55 679.7 -85.56 668.94 -85.56 658.18 C-85.57 621.35 -85.58 584.52 -85.59 547.69 C-85.59 545.38 -85.59 543.07 -85.59 540.75 C-85.59 538.43 -85.59 536.12 -85.59 533.8 C-85.59 529.14 -85.59 524.49 -85.59 519.84 C-85.59 518.69 -85.59 517.53 -85.59 516.34 C-85.59 478.97 -85.61 441.6 -85.63 404.22 C-85.66 364.71 -85.67 325.2 -85.67 285.69 C-85.67 281.35 -85.67 277.01 -85.67 272.67 C-85.67 271.07 -85.67 271.07 -85.67 269.43 C-85.67 252.25 -85.69 235.07 -85.7 217.89 C-85.71 200.6 -85.72 183.32 -85.71 166.03 C-85.71 155.77 -85.71 145.51 -85.73 135.25 C-85.74 128.39 -85.73 121.52 -85.72 114.65 C-85.72 110.75 -85.72 106.84 -85.73 102.94 C-85.86 59.17 -85.86 59.17 -79.29 46.41 C-78.34 44.44 -77.81 42.6 -77.35 40.47 C-76.69 40.47 -76.03 40.47 -75.35 40.47 C-75.35 39.81 -75.35 39.15 -75.35 38.47 C-74.69 38.47 -74.03 38.47 -73.35 38.47 C-73.08 37.54 -72.81 36.61 -72.54 35.66 C-71.38 32.55 -70.68 31.62 -68.35 29.47 C-67.96 28.75 -67.57 28.03 -67.16 27.28 C-64.5 23.15 -61.23 19.51 -57.35 16.47 C-56.05 16.23 -56.05 16.23 -54.72 15.99 C-53.94 15.82 -53.15 15.65 -52.35 15.47 C-52.05 14.86 -51.76 14.25 -51.46 13.63 C-49.78 10.35 -46.88 9.41 -43.66 7.97 C-43.08 7.69 -42.5 7.41 -41.9 7.11 C-28.12 0.77 -14.91 -0.11 0 0 Z M244.65 54.47 C245.65 56.47 245.65 56.47 245.65 56.47 Z M733.65 149.47 C734.65 151.47 734.65 151.47 734.65 151.47 Z M746.65 373.47 C746.65 375.12 746.65 376.77 746.65 378.47 C746.98 378.47 747.31 378.47 747.65 378.47 C747.65 376.82 747.65 375.17 747.65 373.47 C747.32 373.47 746.99 373.47 746.65 373.47 Z M739.65 873.47 C739.98 874.46 740.31 875.45 740.65 876.47 C740.98 875.48 741.31 874.49 741.65 873.47 C740.99 873.47 740.33 873.47 739.65 873.47 Z M734.65 886.47 C735.65 889.47 735.65 889.47 735.65 889.47 Z M731.65 891.47 C732.65 893.47 732.65 893.47 732.65 893.47 Z M-6.35 932.47 C-6.35 932.8 -6.35 933.13 -6.35 933.47 C-4.04 933.47 -1.73 933.47 0.65 933.47 C0.65 933.14 0.65 932.81 0.65 932.47 C-1.66 932.47 -3.97 932.47 -6.35 932.47 Z M660.65 932.47 C660.65 932.8 660.65 933.13 660.65 933.47 C664.28 933.47 667.91 933.47 671.65 933.47 C671.65 933.14 671.65 932.81 671.65 932.47 C668.02 932.47 664.39 932.47 660.65 932.47 Z " fill="#E2394D" transform="translate(307.35009765625,171.530029296875)"/>
<path d="M0 0 C1.65 -0.01 1.65 -0.01 3.33 -0.01 C7 -0.02 10.67 -0.02 14.34 -0.01 C17 -0.01 19.66 -0.02 22.32 -0.02 C28.11 -0.03 33.89 -0.04 39.67 -0.03 C48.27 -0.03 56.87 -0.04 65.47 -0.05 C81.72 -0.07 97.98 -0.08 114.23 -0.08 C126.79 -0.08 139.34 -0.08 151.9 -0.09 C155.51 -0.09 159.13 -0.09 162.74 -0.09 C163.64 -0.09 164.54 -0.09 165.47 -0.09 C190.75 -0.11 216.03 -0.12 241.31 -0.11 C242.74 -0.11 242.74 -0.11 244.2 -0.11 C249.03 -0.11 253.86 -0.11 258.69 -0.11 C259.65 -0.11 260.61 -0.11 261.59 -0.11 C263.53 -0.11 265.47 -0.11 267.41 -0.11 C297.58 -0.11 327.75 -0.13 357.93 -0.15 C391.84 -0.19 425.75 -0.2 459.66 -0.2 C463.28 -0.2 466.89 -0.2 470.51 -0.2 C471.4 -0.2 472.29 -0.2 473.21 -0.2 C487.53 -0.2 501.85 -0.21 516.17 -0.23 C530.56 -0.25 544.96 -0.25 559.36 -0.24 C567.9 -0.23 576.45 -0.23 584.99 -0.25 C590.71 -0.26 596.43 -0.26 602.15 -0.25 C605.4 -0.24 608.65 -0.24 611.9 -0.25 C634.71 -0.35 656.27 1.31 673.51 18.1 C674.2 18.81 674.89 19.52 675.61 20.26 C676.14 20.77 676.68 21.29 677.23 21.82 C689.24 34.36 694.6 51.59 694.81 68.58 C694.83 69.62 694.83 69.62 694.84 70.69 C694.87 72.99 694.9 75.3 694.92 77.6 C694.94 79.23 694.96 80.86 694.98 82.49 C695.04 86.83 695.09 91.17 695.14 95.52 C695.17 98.19 695.2 100.87 695.23 103.54 C695.54 128.78 695.77 154.02 695.61 179.26 C694.95 179.59 694.29 179.92 693.61 180.26 C690.09 178.39 686.85 176.09 683.54 173.88 C677.8 170.23 671.98 167.58 665.61 165.26 C664.59 164.89 663.57 164.51 662.52 164.13 C645.45 158.4 627.85 158.97 610.07 159 C607.38 159 604.69 159 602 158.99 C596.18 158.99 590.35 158.99 584.53 158.99 C575.87 159 567.2 159 558.54 158.99 C543.07 158.98 527.6 158.98 512.12 158.99 C498.58 158.99 485.04 158.99 471.5 158.99 C470.6 158.99 469.7 158.99 468.78 158.99 C465.13 158.99 461.47 158.99 457.82 158.99 C423.6 158.98 389.38 158.99 355.16 159 C324.77 159.01 294.38 159.01 264 159 C229.83 158.99 195.67 158.98 161.51 158.99 C157.86 158.99 154.22 158.99 150.58 158.99 C149.23 158.99 149.23 158.99 147.86 158.99 C134.33 158.99 120.8 158.99 107.26 158.98 C91.88 158.98 76.49 158.98 61.1 158.99 C52.49 159 43.89 159 35.28 158.99 C29.52 158.99 23.77 158.99 18.01 159 C14.74 159 11.46 159 8.19 159 C-15.63 158.78 -15.63 158.78 -38.71 164.07 C-39.47 164.34 -40.23 164.6 -41.02 164.88 C-52.49 168.99 -61.66 175.04 -71.39 182.26 C-73.53 179.06 -73.65 178.26 -73.66 174.59 C-73.66 173.63 -73.67 172.67 -73.68 171.68 C-73.67 170.63 -73.67 169.57 -73.67 168.49 C-73.67 167.38 -73.68 166.27 -73.69 165.13 C-73.7 161.45 -73.7 157.76 -73.7 154.08 C-73.7 151.52 -73.7 148.96 -73.71 146.39 C-73.72 141.01 -73.72 135.62 -73.71 130.24 C-73.7 124.05 -73.72 117.86 -73.74 111.66 C-73.76 105.68 -73.76 99.7 -73.76 93.72 C-73.76 91.19 -73.76 88.66 -73.77 86.13 C-73.86 61.78 -71.37 38.51 -53.64 19.94 C-38.67 5.87 -20.28 -0.08 0 0 Z " fill="#FDA71C" transform="translate(328.3948612213135,306.74273109436035)"/>
<path d="M0 0 C25.17 21.32 44.05 51.96 46.9 85.31 C47.55 94.03 47.49 102.73 47.46 111.46 C47.46 113.24 47.46 115.01 47.46 116.79 C47.45 121.42 47.44 126.04 47.43 130.67 C47.42 135.41 47.42 140.15 47.41 144.89 C47.4 154.16 47.39 163.43 47.36 172.69 C48.05 172.68 48.73 172.67 49.44 172.66 C50.78 172.64 50.78 172.64 52.16 172.63 C53.05 172.61 53.94 172.6 54.85 172.59 C58.43 172.74 60.47 173.6 63.36 175.69 C68.99 182.02 69.51 187.27 69.51 195.59 C69.52 196.5 69.52 197.41 69.52 198.35 C69.53 201.4 69.54 204.45 69.54 207.51 C69.55 209.69 69.55 211.88 69.56 214.07 C69.58 220.01 69.59 225.95 69.6 231.9 C69.6 235.61 69.61 239.32 69.61 243.04 C69.63 254.65 69.65 266.26 69.66 277.88 C69.66 279.21 69.66 280.55 69.66 281.89 C69.66 282.55 69.66 283.21 69.66 283.89 C69.67 294.63 69.69 305.37 69.73 316.11 C69.76 327.14 69.78 338.17 69.78 349.2 C69.78 355.39 69.79 361.59 69.82 367.78 C69.84 373.6 69.85 379.42 69.83 385.25 C69.83 387.38 69.84 389.52 69.85 391.66 C69.87 394.58 69.87 397.49 69.85 400.41 C69.87 401.68 69.87 401.68 69.89 402.97 C69.82 408.68 68.64 411.98 65.36 416.69 C61.5 420.19 59.13 421.82 53.96 421.83 C52.56 421.84 52.56 421.84 51.13 421.85 C49.58 421.85 49.58 421.85 48 421.85 C46.91 421.85 45.82 421.86 44.7 421.86 C41.02 421.87 37.34 421.88 33.66 421.89 C31.03 421.89 28.41 421.9 25.78 421.91 C17.88 421.94 9.97 421.95 2.07 421.96 C-0.17 421.97 -2.4 421.97 -4.63 421.97 C-18.49 422 -32.35 422.02 -46.21 422.03 C-49.43 422.04 -52.64 422.04 -55.85 422.04 C-56.65 422.04 -57.45 422.04 -58.27 422.05 C-71.2 422.06 -84.12 422.09 -97.05 422.13 C-110.32 422.18 -123.59 422.2 -136.86 422.2 C-144.32 422.21 -151.77 422.22 -159.22 422.25 C-165.57 422.28 -171.91 422.29 -178.26 422.28 C-181.5 422.28 -184.73 422.28 -187.97 422.3 C-191.49 422.33 -195 422.32 -198.51 422.3 C-199.53 422.32 -200.55 422.33 -201.6 422.34 C-209.13 422.26 -213.71 420.2 -219.29 415.22 C-222.59 411.48 -221.78 406.52 -221.78 401.84 C-221.79 400.93 -221.79 400.01 -221.79 399.07 C-221.81 395.99 -221.81 392.91 -221.81 389.83 C-221.82 387.62 -221.83 385.42 -221.83 383.21 C-221.85 377.21 -221.86 371.22 -221.87 365.22 C-221.87 361.47 -221.88 357.73 -221.89 353.98 C-221.9 343.6 -221.92 333.23 -221.93 322.85 C-221.93 320.16 -221.93 317.47 -221.93 314.78 C-221.93 314.11 -221.93 313.44 -221.93 312.75 C-221.94 301.91 -221.97 291.08 -222 280.24 C-222.03 269.11 -222.05 257.99 -222.05 246.86 C-222.06 240.61 -222.06 234.36 -222.09 228.12 C-222.11 222.24 -222.12 216.36 -222.11 210.48 C-222.11 208.33 -222.11 206.17 -222.13 204.02 C-222.14 201.07 -222.14 198.12 -222.12 195.18 C-222.13 194.33 -222.15 193.48 -222.16 192.6 C-222.09 186.17 -220.51 180.91 -216.16 176.04 C-211.3 171.74 -204.7 172.48 -198.64 172.69 C-199.13 171.7 -199.13 171.7 -199.64 170.69 C-199.75 168.08 -199.8 165.5 -199.81 162.89 C-199.82 162.08 -199.83 161.28 -199.83 160.44 C-199.85 157.76 -199.86 155.07 -199.87 152.39 C-199.88 151.01 -199.88 151.01 -199.89 149.59 C-199.91 144.7 -199.92 139.8 -199.93 134.9 C-199.94 129.89 -199.98 124.88 -200.02 119.87 C-200.04 115.98 -200.05 112.09 -200.05 108.2 C-200.06 106.36 -200.07 104.52 -200.09 102.67 C-200.25 86.01 -198.48 69.48 -191.7 54.07 C-191.17 52.82 -191.17 52.82 -190.64 51.55 C-189.66 49.25 -188.66 46.97 -187.64 44.69 C-187.18 43.66 -186.72 42.63 -186.25 41.57 C-173.3 14.12 -147.44 -7.52 -119.27 -17.97 C-114.77 -19.57 -110.22 -20.97 -105.64 -22.31 C-104.51 -22.65 -103.37 -22.99 -102.21 -23.35 C-67.65 -32.04 -27.65 -22.09 0 0 Z " fill="#FCA61C" transform="translate(715.6357421875,580.306640625)"/>
<path d="M0 0 C8.27 1.66 15.82 6.44 22 12 C22.97 12.46 22.97 12.46 23.95 12.92 C27.82 14.96 30.25 18.67 33 22 C33.64 22.76 34.29 23.51 34.95 24.29 C52 44.83 52 44.83 52 53 C52.66 53 53.32 53 54 53 C54.49 54.94 54.97 56.87 55.44 58.81 C55.84 60.43 55.84 60.43 56.25 62.08 C58.42 73.4 58.14 84.84 58.13 96.32 C58.13 98.28 58.13 100.25 58.13 102.21 C58.14 107.6 58.13 112.98 58.13 118.36 C58.13 124.17 58.13 129.98 58.13 135.79 C58.14 147.17 58.14 158.54 58.14 169.92 C58.13 179.16 58.13 188.41 58.13 197.65 C58.13 199.63 58.13 199.63 58.13 201.64 C58.13 203.65 58.13 205.65 58.14 207.65 C58.14 232.68 58.14 257.71 58.13 282.74 C58.13 304.96 58.13 327.18 58.13 349.41 C58.14 374.39 58.14 399.37 58.13 424.35 C58.13 427.02 58.13 429.68 58.13 432.35 C58.13 433.66 58.13 434.97 58.13 436.32 C58.13 445.55 58.13 454.79 58.14 464.02 C58.14 475.27 58.14 486.53 58.13 497.78 C58.13 503.52 58.13 509.27 58.13 515.01 C58.14 520.26 58.13 525.52 58.13 530.78 C58.13 532.68 58.13 534.58 58.13 536.48 C58.16 558.57 58.16 558.57 57 564 C56.34 564.66 55.68 565.32 55 566 C55.03 567.14 55.03 567.14 55.06 568.31 C54.98 571.67 53.98 573.33 52 576 C51.34 576 50.68 576 50 576 C50 578.31 50 580.62 50 583 C49.01 583.33 48.02 583.66 47 584 C46.89 584.74 46.77 585.48 46.66 586.24 C44.61 594.84 37.03 601.41 30.94 607.38 C30.15 608.17 29.36 608.96 28.54 609.78 C19.4 618.84 19.4 618.84 14.19 619.19 C13.1 619.09 13.1 619.09 12 619 C11.75 619.62 11.5 620.24 11.25 620.88 C9.76 623.41 8.78 624.1 6 625 C3.75 624.62 3.75 624.62 2 624 C1.81 624.62 1.63 625.24 1.44 625.88 C-0.71 629.05 -3.39 629.15 -7 630 C-7.33 630.33 -7.66 630.66 -8 631 C-9.67 631.04 -11.33 631.04 -13 631 C-13.33 630.34 -13.66 629.68 -14 629 C-14.33 630.32 -14.66 631.64 -15 633 C-80.1 633.05 -145.2 633.1 -210.29 633.13 C-211.26 633.13 -212.22 633.13 -213.21 633.13 C-234.14 633.14 -255.07 633.15 -276 633.15 C-286.27 633.16 -296.53 633.16 -306.8 633.16 C-307.82 633.17 -308.84 633.17 -309.89 633.17 C-343.01 633.18 -376.13 633.2 -409.25 633.23 C-443.28 633.26 -477.31 633.28 -511.34 633.28 C-516.14 633.28 -520.94 633.28 -525.75 633.28 C-526.69 633.28 -527.64 633.29 -528.61 633.29 C-543.85 633.29 -559.08 633.3 -574.31 633.32 C-589.62 633.34 -604.93 633.34 -620.23 633.34 C-629.33 633.34 -638.43 633.34 -647.53 633.36 C-653.6 633.37 -659.68 633.37 -665.75 633.37 C-669.22 633.36 -672.68 633.36 -676.14 633.37 C-679.87 633.39 -683.6 633.38 -687.33 633.37 C-688.41 633.38 -689.49 633.38 -690.6 633.39 C-696.81 633.35 -701.31 632.51 -707 630 C-709.32 629.27 -711.65 628.64 -714 628 C-714 627.34 -714 626.68 -714 626 C-715.32 626 -716.64 626 -718 626 C-718 625.34 -718 624.68 -718 624 C-718.93 624.23 -719.86 624.45 -720.81 624.69 C-724 625 -724 625 -725.88 623.62 C-727 622 -727 622 -727 621 C-727.66 621 -728.32 621 -729 621 C-729 620.01 -729 619.02 -729 618 C-730.54 617.69 -730.54 617.69 -732.11 617.38 C-736.66 616.08 -739.18 613.36 -742.31 609.94 C-745.78 605.99 -745.78 605.99 -750 603 C-750 602.34 -750 601.68 -750 601 C-750.66 601 -751.32 601 -752 601 C-756 596.53 -756 596.53 -756 594 C-756.66 593.67 -757.32 593.34 -758 593 C-761 588.5 -761 588.5 -761 586 C-761.66 586 -762.32 586 -763 586 C-764.6 583.45 -765.06 582.39 -764.56 579.36 C-764.37 578.58 -764.19 577.8 -764 577 C-763.46 577.11 -762.93 577.22 -762.38 577.33 C-760.67 577.68 -758.97 578.01 -757.27 578.34 C-755.13 578.77 -752.99 579.24 -750.86 579.76 C-737.66 582.7 -724.52 582.42 -711.05 582.38 C-708.32 582.38 -705.59 582.39 -702.85 582.4 C-696.93 582.41 -691.01 582.41 -685.09 582.4 C-676.28 582.39 -667.47 582.39 -658.66 582.4 C-642.93 582.42 -627.2 582.42 -611.47 582.41 C-597.7 582.4 -583.93 582.4 -570.16 582.4 C-569.25 582.4 -568.33 582.4 -567.39 582.4 C-563.68 582.4 -559.97 582.4 -556.25 582.41 C-521.45 582.41 -486.66 582.41 -451.86 582.39 C-420.96 582.38 -390.06 582.38 -359.17 582.39 C-324.43 582.41 -289.69 582.41 -254.95 582.4 C-251.25 582.4 -247.54 582.4 -243.84 582.4 C-242.47 582.4 -242.47 582.4 -241.08 582.4 C-227.32 582.4 -213.56 582.4 -199.8 582.41 C-184.15 582.42 -168.51 582.42 -152.86 582.4 C-144.11 582.39 -135.36 582.39 -126.61 582.4 C-120.76 582.41 -114.9 582.4 -109.05 582.39 C-105.72 582.38 -102.39 582.38 -99.06 582.39 C-68.84 582.47 -43.45 577.85 -21 556 C-20.22 555.28 -19.44 554.56 -18.63 553.82 C-1.24 537.37 6.44 513.98 7.18 490.52 C7.28 485.55 7.27 480.59 7.26 475.63 C7.26 473.72 7.27 471.81 7.27 469.9 C7.28 464.69 7.28 459.48 7.28 454.28 C7.27 448.65 7.28 443.02 7.29 437.38 C7.3 426.37 7.3 415.35 7.3 404.34 C7.3 395.38 7.3 386.42 7.31 377.46 C7.31 376.18 7.31 374.91 7.31 373.59 C7.31 371 7.31 368.4 7.31 365.8 C7.32 348.39 7.32 330.98 7.32 313.57 C7.32 312.89 7.32 312.21 7.32 311.51 C7.32 308.06 7.32 304.62 7.32 301.17 C7.32 300.49 7.32 299.8 7.32 299.1 C7.32 297.71 7.32 296.33 7.32 294.95 C7.31 273.42 7.32 251.89 7.34 230.37 C7.36 206.15 7.37 181.92 7.36 157.7 C7.36 144.89 7.36 132.08 7.38 119.27 C7.39 108.36 7.39 97.45 7.38 86.55 C7.37 80.99 7.37 75.43 7.38 69.87 C7.4 64.77 7.39 59.68 7.38 54.58 C7.38 52.74 7.38 50.91 7.39 49.08 C7.46 32.17 5.66 16.01 0 0 Z M50 572 C50.33 572.99 50.66 573.98 51 575 C51.33 574.01 51.66 573.02 52 572 C51.34 572 50.68 572 50 572 Z M45 585 C46 588 46 588 46 588 Z M42 590 C43 592 43 592 43 592 Z M-696 631 C-696 631.33 -696 631.66 -696 632 C-693.69 632 -691.38 632 -689 632 C-689 631.67 -689 631.34 -689 631 C-691.31 631 -693.62 631 -696 631 Z M-29 631 C-29 631.33 -29 631.66 -29 632 C-25.37 632 -21.74 632 -18 632 C-18 631.67 -18 631.34 -18 631 C-21.63 631 -25.26 631 -29 631 Z " fill="#CE0228" transform="translate(997,473)"/>
<path d="M0 0 C1.65 -0.01 1.65 -0.01 3.33 -0.01 C7 -0.02 10.67 -0.02 14.34 -0.01 C17 -0.01 19.66 -0.02 22.32 -0.02 C28.11 -0.03 33.89 -0.04 39.67 -0.03 C48.27 -0.03 56.87 -0.04 65.47 -0.05 C81.72 -0.07 97.98 -0.08 114.23 -0.08 C126.79 -0.08 139.34 -0.08 151.9 -0.09 C155.51 -0.09 159.13 -0.09 162.74 -0.09 C163.64 -0.09 164.54 -0.09 165.47 -0.09 C190.75 -0.11 216.03 -0.12 241.31 -0.11 C242.74 -0.11 242.74 -0.11 244.2 -0.11 C249.03 -0.11 253.86 -0.11 258.69 -0.11 C259.65 -0.11 260.61 -0.11 261.59 -0.11 C263.53 -0.11 265.47 -0.11 267.41 -0.11 C297.58 -0.11 327.75 -0.13 357.93 -0.15 C391.84 -0.19 425.75 -0.2 459.66 -0.2 C463.28 -0.2 466.89 -0.2 470.51 -0.2 C471.4 -0.2 472.29 -0.2 473.21 -0.2 C487.53 -0.2 501.85 -0.21 516.17 -0.23 C530.56 -0.25 544.96 -0.25 559.36 -0.24 C567.9 -0.23 576.45 -0.23 584.99 -0.25 C590.71 -0.26 596.43 -0.26 602.15 -0.25 C605.4 -0.24 608.65 -0.24 611.9 -0.25 C634.71 -0.35 656.27 1.31 673.51 18.1 C674.2 18.81 674.89 19.52 675.61 20.26 C676.14 20.77 676.68 21.29 677.23 21.82 C688.99 34.1 694.75 51.31 694.72 68.02 C694.72 69.32 694.72 70.62 694.72 71.96 C694.71 73.36 694.71 74.76 694.7 76.16 C694.7 77.61 694.7 79.05 694.7 80.5 C694.69 84.29 694.68 88.08 694.67 91.87 C694.66 95.74 694.66 99.62 694.65 103.49 C694.64 111.08 694.63 118.67 694.61 126.26 C692.25 123.25 690.57 120.24 688.96 116.78 C680.81 99.41 668.67 87.97 650.61 81.26 C634.62 75.62 616.87 77.11 600.16 77.12 C597.57 77.12 594.98 77.12 592.38 77.12 C586.76 77.11 581.13 77.11 575.51 77.11 C567.15 77.11 558.78 77.11 550.42 77.1 C534.61 77.09 518.8 77.09 502.99 77.09 C490.78 77.09 478.57 77.09 466.36 77.08 C462.84 77.08 459.32 77.08 455.8 77.08 C454.92 77.08 454.05 77.08 453.15 77.08 C428.55 77.08 403.95 77.07 379.35 77.07 C377.96 77.07 377.96 77.07 376.55 77.07 C371.85 77.07 367.15 77.07 362.46 77.07 C361.52 77.07 360.59 77.07 359.63 77.07 C357.74 77.07 355.86 77.07 353.97 77.07 C324.62 77.07 295.28 77.07 265.93 77.05 C232.94 77.04 199.94 77.03 166.95 77.03 C163.43 77.03 159.91 77.03 156.39 77.03 C155.52 77.03 154.66 77.03 153.76 77.03 C139.84 77.03 125.91 77.02 111.98 77.01 C97.98 77.01 83.98 77 69.97 77.01 C61.66 77.01 53.35 77.01 45.04 77 C38.83 77 32.61 77 26.39 77.01 C23.89 77.01 21.38 77.01 18.87 77 C8.02 76.98 -2.78 76.97 -13.58 78.13 C-14.28 78.2 -14.98 78.28 -15.7 78.36 C-22.39 79.19 -28.33 81.38 -34.39 84.26 C-35.61 84.81 -35.61 84.81 -36.84 85.38 C-49.77 91.89 -59.48 103.52 -65.83 116.26 C-66.28 117.13 -66.72 118 -67.18 118.89 C-68.26 121.01 -69.33 123.13 -70.39 125.26 C-71.38 124.93 -72.37 124.6 -73.39 124.26 C-73.46 116.55 -73.52 108.83 -73.55 101.12 C-73.57 97.54 -73.59 93.96 -73.62 90.38 C-73.65 86.91 -73.67 83.44 -73.68 79.97 C-73.69 78.03 -73.71 76.09 -73.73 74.14 C-73.74 54.43 -67.48 34.43 -53.64 19.94 C-38.67 5.87 -20.28 -0.08 0 0 Z " fill="#F5921C" transform="translate(328.3948612213135,306.74273109436035)"/>
<path d="M0 0 C2 -0 4.01 -0 6.01 -0.01 C11.41 -0.01 16.8 0.01 22.2 0.03 C27.86 0.05 33.52 0.05 39.18 0.05 C48.68 0.06 58.17 0.08 67.67 0.11 C79.85 0.15 92.04 0.17 104.22 0.18 C114.71 0.19 125.2 0.21 135.7 0.23 C137.95 0.23 140.19 0.23 142.44 0.24 C148.85 0.25 155.25 0.26 161.65 0.28 C163.59 0.29 165.53 0.29 167.47 0.3 C170.12 0.3 172.76 0.31 175.4 0.32 C176.17 0.32 176.94 0.32 177.74 0.32 C189.27 0.39 200.58 5.01 210.65 10.47 C210.98 11.13 211.31 11.79 211.65 12.47 C212.66 13.02 213.68 13.57 214.72 14.13 C219.34 16.68 222.79 20.17 226.46 23.91 C227.13 24.56 227.8 25.22 228.48 25.89 C231.81 29.24 234.22 31.88 235.65 36.47 C236.33 37.29 237.01 38.12 237.71 38.97 C239.79 41.65 240.05 43.22 240.65 46.47 C242.02 48.01 242.02 48.01 243.65 49.47 C245.22 51.82 246.5 53.75 247.09 56.53 C247.53 58.65 247.53 58.65 249.52 60.28 C252.89 63.75 254.53 67.59 254.84 72.41 C254.78 73.09 254.71 73.77 254.65 74.47 C255.64 74.47 256.63 74.47 257.65 74.47 C257.89 74.98 258.13 75.49 258.38 76.01 C260.05 79.42 261.71 82.68 263.9 85.78 C265.65 88.47 265.65 88.47 265.65 91.47 C266.64 92.13 267.63 92.79 268.65 93.47 C269.6 95.85 269.6 95.85 270.34 98.59 C270.59 99.51 270.84 100.42 271.1 101.35 C271.37 102.4 271.37 102.4 271.65 103.47 C271.11 103.47 270.57 103.47 270.01 103.47 C237.79 103.4 205.57 103.35 173.35 103.32 C169.48 103.31 165.6 103.31 161.72 103.31 C160.95 103.3 160.18 103.3 159.38 103.3 C146.92 103.29 134.46 103.27 122 103.24 C109.19 103.21 96.38 103.19 83.57 103.19 C75.69 103.18 67.8 103.17 59.91 103.15 C53.84 103.13 47.76 103.13 41.69 103.13 C39.22 103.13 36.74 103.12 34.27 103.11 C3.47 102.98 -26.37 106.22 -50.35 127.47 C-50.83 127.89 -51.32 128.31 -51.81 128.74 C-68.7 143.56 -79.89 165.09 -82.35 187.47 C-83.34 186.81 -84.33 186.15 -85.35 185.47 C-85.73 183.57 -85.73 183.57 -85.73 181.2 C-85.74 180.3 -85.75 179.41 -85.76 178.48 C-85.75 177.5 -85.74 176.51 -85.74 175.49 C-85.74 174.46 -85.75 173.42 -85.75 172.35 C-85.77 168.89 -85.76 165.44 -85.75 161.99 C-85.75 159.57 -85.75 157.16 -85.76 154.75 C-85.76 149.68 -85.76 144.6 -85.74 139.53 C-85.72 133.09 -85.73 126.64 -85.75 120.2 C-85.76 115.21 -85.76 110.21 -85.75 105.22 C-85.75 102.85 -85.75 100.48 -85.76 98.11 C-85.85 59.15 -85.85 59.15 -79.29 46.41 C-78.34 44.44 -77.81 42.6 -77.35 40.47 C-76.69 40.47 -76.03 40.47 -75.35 40.47 C-75.35 39.81 -75.35 39.15 -75.35 38.47 C-74.69 38.47 -74.03 38.47 -73.35 38.47 C-73.08 37.54 -72.81 36.61 -72.54 35.66 C-71.38 32.55 -70.68 31.62 -68.35 29.47 C-67.96 28.75 -67.57 28.03 -67.16 27.28 C-64.5 23.15 -61.23 19.51 -57.35 16.47 C-56.05 16.23 -56.05 16.23 -54.72 15.99 C-53.94 15.82 -53.15 15.65 -52.35 15.47 C-52.05 14.86 -51.76 14.25 -51.46 13.63 C-49.78 10.35 -46.88 9.41 -43.66 7.97 C-43.08 7.69 -42.5 7.41 -41.9 7.11 C-28.12 0.77 -14.91 -0.11 0 0 Z M244.65 54.47 C245.65 56.47 245.65 56.47 245.65 56.47 Z " fill="#B4062A" transform="translate(307.35009765625,171.530029296875)"/>
<path d="M0 0 C5.71 1.38 8.47 5.65 12 10 C12.96 11.14 12.96 11.14 13.95 12.29 C31 32.79 31 32.79 31 41 C31.66 41 32.32 41 33 41 C33.49 42.94 33.97 44.87 34.44 46.81 C34.84 48.43 34.84 48.43 35.25 50.08 C37.42 61.4 37.14 72.84 37.13 84.32 C37.13 86.28 37.13 88.25 37.13 90.21 C37.14 95.6 37.13 100.98 37.13 106.36 C37.13 112.17 37.13 117.98 37.13 123.79 C37.14 135.17 37.14 146.54 37.14 157.92 C37.13 167.16 37.13 176.41 37.13 185.65 C37.13 187.63 37.13 187.63 37.13 189.64 C37.13 191.65 37.13 193.65 37.14 195.65 C37.14 220.68 37.14 245.71 37.13 270.74 C37.13 292.96 37.13 315.18 37.13 337.41 C37.14 362.39 37.14 387.37 37.13 412.35 C37.13 415.02 37.13 417.68 37.13 420.35 C37.13 421.66 37.13 422.97 37.13 424.32 C37.13 433.55 37.13 442.79 37.14 452.02 C37.14 463.27 37.14 474.53 37.13 485.78 C37.13 491.52 37.13 497.27 37.13 503.01 C37.14 508.26 37.13 513.52 37.13 518.78 C37.13 520.68 37.13 522.58 37.13 524.48 C37.16 546.57 37.16 546.57 36 552 C35.34 552.66 34.68 553.32 34 554 C34.03 555.14 34.03 555.14 34.06 556.31 C33.98 559.67 32.98 561.33 31 564 C30.34 564 29.68 564 29 564 C29 566.31 29 568.62 29 571 C28.01 571.33 27.02 571.66 26 572 C25.89 572.74 25.77 573.48 25.66 574.24 C23.61 582.84 16.03 589.41 9.94 595.38 C9.15 596.17 8.36 596.96 7.54 597.78 C-1.6 606.84 -1.6 606.84 -6.81 607.19 C-7.9 607.09 -7.9 607.09 -9 607 C-9.25 607.62 -9.5 608.24 -9.75 608.88 C-11.24 611.41 -12.22 612.1 -15 613 C-17.25 612.62 -17.25 612.62 -19 612 C-19.19 612.62 -19.37 613.24 -19.56 613.88 C-21.71 617.05 -24.39 617.15 -28 618 C-28.33 618.33 -28.66 618.66 -29 619 C-30.67 619.04 -32.33 619.04 -34 619 C-34.33 618.34 -34.66 617.68 -35 617 C-35.33 618.32 -35.66 619.64 -36 621 C-101.1 621.05 -166.2 621.1 -231.29 621.13 C-232.26 621.13 -233.22 621.13 -234.21 621.13 C-255.14 621.14 -276.07 621.15 -297 621.15 C-307.27 621.16 -317.53 621.16 -327.8 621.16 C-328.82 621.17 -329.84 621.17 -330.89 621.17 C-364.01 621.18 -397.13 621.2 -430.25 621.23 C-464.28 621.26 -498.31 621.28 -532.34 621.28 C-537.14 621.28 -541.94 621.28 -546.75 621.28 C-547.69 621.28 -548.64 621.29 -549.61 621.29 C-564.85 621.29 -580.08 621.3 -595.31 621.32 C-610.62 621.34 -625.93 621.34 -641.23 621.34 C-650.33 621.34 -659.43 621.34 -668.53 621.36 C-674.6 621.37 -680.68 621.37 -686.75 621.37 C-690.22 621.36 -693.68 621.36 -697.14 621.37 C-700.87 621.39 -704.6 621.38 -708.33 621.37 C-709.41 621.38 -710.49 621.38 -711.6 621.39 C-717.81 621.35 -722.31 620.51 -728 618 C-730.32 617.27 -732.65 616.64 -735 616 C-735 615.34 -735 614.68 -735 614 C-736.32 614 -737.64 614 -739 614 C-739 613.34 -739 612.68 -739 612 C-739.93 612.23 -740.86 612.45 -741.81 612.69 C-745 613 -745 613 -746.88 611.62 C-748 610 -748 610 -748 609 C-748.66 609 -749.32 609 -750 609 C-750 608.01 -750 607.02 -750 606 C-750.97 605.86 -751.94 605.71 -752.94 605.56 C-758.55 603.98 -762.45 599.42 -766 595 C-767.26 592.21 -767.26 592.21 -768 590 C-767.32 590.16 -766.64 590.33 -765.94 590.5 C-762.98 591.1 -762.98 591.1 -759.88 590.91 C-754.6 591.03 -749.76 592.26 -744.64 593.49 C-729.16 597.01 -712.98 596.14 -697.2 596.13 C-694.57 596.13 -691.94 596.13 -689.31 596.13 C-683.6 596.14 -677.89 596.14 -672.18 596.13 C-663.69 596.13 -655.2 596.13 -646.71 596.13 C-631.55 596.14 -616.38 596.14 -601.22 596.14 C-587.95 596.13 -574.67 596.13 -561.4 596.13 C-560.08 596.13 -560.08 596.13 -558.73 596.13 C-555.15 596.13 -551.58 596.13 -548 596.14 C-514.46 596.14 -480.91 596.14 -447.37 596.13 C-417.59 596.13 -387.8 596.13 -358.02 596.13 C-324.54 596.14 -291.06 596.14 -257.58 596.13 C-254.01 596.13 -250.44 596.13 -246.87 596.13 C-245.99 596.13 -245.11 596.13 -244.2 596.13 C-230.94 596.13 -217.68 596.13 -204.42 596.14 C-189.33 596.14 -174.25 596.14 -159.17 596.13 C-150.73 596.13 -142.3 596.13 -133.86 596.13 C-128.22 596.14 -122.58 596.13 -116.93 596.13 C-113.72 596.13 -110.52 596.13 -107.31 596.13 C-73 596.16 -42.66 594.05 -16.37 569.4 C8.68 544.06 12.17 513.26 12.13 479.3 C12.14 477.45 12.14 475.61 12.14 473.76 C12.15 468.72 12.15 463.67 12.15 458.63 C12.15 453.18 12.15 447.73 12.16 442.28 C12.16 431.61 12.17 420.95 12.17 410.28 C12.17 401.61 12.17 392.93 12.17 384.26 C12.18 359.64 12.19 335.03 12.19 310.41 C12.19 309.75 12.19 309.09 12.19 308.4 C12.19 307.07 12.19 305.73 12.19 304.39 C12.18 283.55 12.19 262.71 12.21 241.86 C12.22 218.42 12.23 194.97 12.23 171.52 C12.23 159.11 12.23 146.71 12.24 134.31 C12.25 123.75 12.25 113.19 12.25 102.63 C12.24 97.25 12.24 91.87 12.25 86.49 C12.26 81.55 12.26 76.62 12.25 71.68 C12.25 69.91 12.25 68.13 12.26 66.35 C12.3 51.1 11.4 36.23 7.12 21.5 C6.88 20.6 6.64 19.71 6.39 18.78 C4.92 13.55 3.11 8.69 0.77 3.79 C0 2 0 2 0 0 Z M29 560 C29.33 560.99 29.66 561.98 30 563 C30.33 562.01 30.66 561.02 31 560 C30.34 560 29.68 560 29 560 Z M24 573 C25 576 25 576 25 576 Z M21 578 C22 580 22 580 22 580 Z M-717 619 C-717 619.33 -717 619.66 -717 620 C-714.69 620 -712.38 620 -710 620 C-710 619.67 -710 619.34 -710 619 C-712.31 619 -714.62 619 -717 619 Z M-50 619 C-50 619.33 -50 619.66 -50 620 C-46.37 620 -42.74 620 -39 620 C-39 619.67 -39 619.34 -39 619 C-42.63 619 -46.26 619 -50 619 Z " fill="#B5062B" transform="translate(1018,485)"/>
<path d="M0 0 C17.99 14.48 30.74 32.87 34 56 C34.11 58.87 34.18 61.71 34.21 64.58 C34.22 65.86 34.22 65.86 34.24 67.16 C34.27 69.91 34.29 72.65 34.32 75.4 C34.33 77.1 34.35 78.8 34.37 80.5 C34.44 86.79 34.5 93.08 34.56 99.38 C34.78 120.47 34.78 120.47 35 142 C-18.46 142 -71.92 142 -127 142 C-128.49 139.03 -128.14 136.35 -128.15 133.03 C-128.15 132.32 -128.15 131.6 -128.16 130.86 C-128.16 128.48 -128.17 126.09 -128.17 123.71 C-128.17 122.04 -128.17 120.38 -128.18 118.71 C-128.18 115.21 -128.19 111.71 -128.19 108.2 C-128.19 103.75 -128.2 99.3 -128.22 94.86 C-128.23 91.41 -128.23 87.96 -128.23 84.51 C-128.23 82.87 -128.23 81.24 -128.24 79.6 C-128.36 53 -123.32 28.78 -104 9 C-76.19 -16.96 -31.66 -22.69 0 0 Z " fill="#E33A4E" transform="translate(686,611)"/>
<path d="M0 0 C25.17 21.32 44.06 51.97 46.9 85.33 C47.54 93.97 47.49 102.59 47.46 111.24 C47.46 113 47.46 114.75 47.46 116.5 C47.45 121.07 47.44 125.64 47.43 130.21 C47.42 134.89 47.42 139.57 47.41 144.25 C47.4 153.4 47.39 162.54 47.36 171.69 C41.4 171.72 35.44 171.74 29.47 171.75 C27.44 171.75 25.41 171.76 23.38 171.77 C20.47 171.78 17.56 171.79 14.65 171.79 C13.28 171.8 13.28 171.8 11.88 171.81 C9.71 171.81 7.54 171.76 5.36 171.69 C3.63 169.96 4.23 167.73 4.22 165.42 C4.22 164.28 4.22 164.28 4.22 163.12 C4.22 162.33 4.22 161.54 4.21 160.72 C4.2 158.99 4.2 157.25 4.2 155.52 C4.19 152.76 4.17 150.01 4.15 147.25 C4.1 139.41 4.05 131.57 4.04 123.73 C4.03 118.94 4 114.15 3.96 109.36 C3.94 107.54 3.94 105.73 3.94 103.91 C3.97 78.46 -3.34 57.28 -21.07 38.76 C-36.76 23.75 -57.7 17.04 -79.17 17.41 C-95.74 18.14 -111.18 24.24 -124.64 33.69 C-125.48 34.28 -126.32 34.86 -127.19 35.46 C-143.2 47.33 -151.9 65.5 -155.64 84.69 C-156.97 93.91 -156.86 103.23 -156.95 112.51 C-156.97 114.23 -156.99 115.94 -157.02 117.65 C-157.07 122.12 -157.12 126.6 -157.17 131.07 C-157.22 135.65 -157.27 140.23 -157.33 144.81 C-157.44 153.77 -157.54 162.73 -157.64 171.69 C-163.46 171.72 -169.28 171.74 -175.1 171.75 C-177.08 171.75 -179.06 171.76 -181.04 171.77 C-183.89 171.78 -186.73 171.79 -189.57 171.79 C-190.91 171.8 -190.91 171.8 -192.27 171.81 C-194.39 171.81 -196.51 171.76 -198.64 171.69 C-200.63 169.7 -199.8 165.73 -199.81 163 C-199.82 162.2 -199.83 161.39 -199.83 160.56 C-199.85 157.87 -199.86 155.18 -199.87 152.49 C-199.88 151.56 -199.88 150.64 -199.89 149.69 C-199.91 144.78 -199.92 139.88 -199.93 134.97 C-199.94 129.96 -199.98 124.94 -200.02 119.92 C-200.04 116.03 -200.05 112.13 -200.05 108.24 C-200.06 106.39 -200.07 104.55 -200.09 102.7 C-200.25 86.03 -198.48 69.49 -191.7 54.07 C-191.35 53.24 -191 52.41 -190.64 51.55 C-189.66 49.25 -188.66 46.97 -187.64 44.69 C-186.95 43.15 -186.95 43.15 -186.25 41.57 C-173.3 14.12 -147.44 -7.52 -119.27 -17.97 C-114.77 -19.57 -110.22 -20.97 -105.64 -22.31 C-104.51 -22.65 -103.37 -22.99 -102.21 -23.35 C-67.65 -32.04 -27.65 -22.09 0 0 Z " fill="#E5E5E5" transform="translate(715.6357421875,580.306640625)"/>
<path d="M0 0 C1.27 -0 1.27 -0 2.56 -0.01 C5.37 -0.02 8.18 -0.02 11 -0.02 C13.02 -0.03 15.04 -0.03 17.06 -0.04 C22.55 -0.05 28.03 -0.06 33.51 -0.06 C36.94 -0.06 40.36 -0.07 43.79 -0.07 C54.51 -0.08 65.23 -0.09 75.94 -0.1 C88.32 -0.1 100.69 -0.12 113.06 -0.15 C122.63 -0.17 132.2 -0.18 141.76 -0.18 C147.48 -0.18 153.19 -0.19 158.91 -0.21 C164.28 -0.22 169.65 -0.23 175.02 -0.22 C176.99 -0.22 178.96 -0.22 180.93 -0.23 C183.62 -0.24 186.31 -0.24 189 -0.23 C189.78 -0.24 190.56 -0.24 191.37 -0.25 C196.98 -0.2 200.24 1.01 204.18 4.95 C205.83 7.99 205.92 9.72 205.37 13.14 C203.3 16.57 201.25 18.85 197.37 20.14 C194.66 20.24 191.98 20.28 189.27 20.28 C188.02 20.28 188.02 20.28 186.74 20.29 C183.93 20.3 181.12 20.3 178.31 20.3 C176.3 20.3 174.29 20.31 172.28 20.31 C167.94 20.32 163.61 20.33 159.27 20.34 C152.41 20.35 145.54 20.37 138.68 20.39 C119.16 20.45 99.64 20.51 80.12 20.54 C69.35 20.56 58.57 20.59 47.8 20.63 C42.1 20.65 36.4 20.67 30.7 20.67 C25.33 20.67 19.96 20.69 14.59 20.71 C12.63 20.72 10.66 20.72 8.7 20.72 C-9.94 20.69 -26.26 23.11 -40.31 36.6 C-51.3 48.64 -55.81 62 -55.76 78.16 C-55.76 79.33 -55.76 79.33 -55.76 80.52 C-55.77 83.14 -55.76 85.76 -55.76 88.37 C-55.76 90.27 -55.76 92.17 -55.77 94.06 C-55.77 98.18 -55.77 102.3 -55.77 106.42 C-55.77 113.13 -55.78 119.83 -55.78 126.54 C-55.79 136.27 -55.79 146 -55.8 155.73 C-55.8 171.11 -55.82 186.49 -55.84 201.86 C-55.85 207.12 -55.85 212.38 -55.86 217.64 C-55.86 219.61 -55.86 219.61 -55.86 221.62 C-55.88 236.58 -55.9 251.54 -55.91 266.5 C-55.91 267.18 -55.91 267.87 -55.91 268.57 C-55.94 290.75 -55.95 312.93 -55.96 335.11 C-55.96 358.56 -55.99 382.02 -56.02 405.47 C-56.05 419.51 -56.06 433.56 -56.05 447.61 C-56.05 457.23 -56.06 466.84 -56.08 476.46 C-56.09 482.02 -56.1 487.57 -56.09 493.12 C-56.08 498.2 -56.09 503.28 -56.11 508.36 C-56.11 510.21 -56.11 512.05 -56.1 513.89 C-56.09 516.38 -56.1 518.88 -56.12 521.38 C-56.11 522.1 -56.11 522.82 -56.1 523.56 C-56.15 527.07 -56.56 529.04 -58.45 532.03 C-61.39 534.88 -63.59 535.58 -67.63 536.14 C-71.5 534.95 -73.12 533.95 -75.28 530.5 C-76.82 526.67 -77.05 523.39 -77 519.32 C-77.01 518.55 -77.01 517.77 -77.02 516.98 C-77.03 514.39 -77.01 511.79 -77 509.2 C-77.01 507.33 -77.01 505.45 -77.01 503.57 C-77.03 498.41 -77.02 493.26 -77.01 488.1 C-77 482.54 -77.01 476.97 -77.01 471.41 C-77.02 460.51 -77.01 449.61 -77 438.71 C-76.99 426.01 -76.99 413.31 -76.99 400.62 C-77 377.27 -76.98 353.92 -76.96 330.58 C-76.94 309.28 -76.94 287.99 -76.94 266.69 C-76.94 265.32 -76.95 263.96 -76.95 262.59 C-76.95 261.92 -76.95 261.24 -76.95 260.55 C-76.95 257.15 -76.95 253.74 -76.95 250.34 C-76.95 249.67 -76.95 249 -76.95 248.31 C-76.95 230.51 -76.95 212.7 -76.94 194.89 C-76.94 192.34 -76.94 189.78 -76.94 187.23 C-76.93 185.97 -76.93 184.72 -76.93 183.42 C-76.93 174.58 -76.93 165.73 -76.93 156.89 C-76.93 146.1 -76.93 135.31 -76.91 124.52 C-76.91 119.02 -76.9 113.51 -76.91 108.01 C-76.91 102.97 -76.91 97.92 -76.89 92.88 C-76.89 91.06 -76.89 89.24 -76.9 87.43 C-76.95 62.42 -72.65 40.43 -54.51 21.89 C-39.47 7.51 -20.73 -0.02 0 0 Z " fill="#E6556D" transform="translate(320.6286926269531,485.85955810546875)"/>
<path d="M0 0 C7.61 4.74 13.46 13.01 16.3 21.49 C17.95 30.7 17.61 40.55 12.69 48.68 C7.34 55.85 7.34 55.85 3.69 57.68 C4.24 63.96 5.75 69.32 7.93 75.22 C8.25 76.12 8.57 77.01 8.91 77.93 C9.93 80.76 10.97 83.59 12 86.43 C13.36 90.15 14.71 93.87 16.05 97.6 C16.54 98.93 16.54 98.93 17.03 100.29 C18.77 105.1 20.5 109.9 22.17 114.73 C22.47 115.6 22.77 116.47 23.08 117.37 C24.12 121.31 23.84 123.75 22.69 127.68 C20.59 131.13 18.62 133.37 14.69 134.68 C12.72 134.78 10.74 134.83 8.77 134.85 C6.94 134.87 6.94 134.87 5.08 134.89 C3.76 134.9 2.44 134.91 1.08 134.91 C0.41 134.92 -0.26 134.92 -0.96 134.93 C-4.52 134.95 -8.08 134.96 -11.64 134.97 C-15.31 134.98 -18.97 135.02 -22.64 135.06 C-25.47 135.08 -28.3 135.09 -31.13 135.09 C-33.13 135.1 -35.14 135.13 -37.14 135.15 C-44.06 135.14 -48.75 134.98 -54.31 130.68 C-56.94 127.53 -57.69 125.01 -57.62 120.93 C-56.9 115.72 -54.74 110.82 -52.9 105.92 C-52.22 104.05 -51.53 102.19 -50.85 100.32 C-49.42 96.4 -47.96 92.49 -46.51 88.57 C-45.31 85.34 -44.12 82.1 -42.94 78.86 C-42.05 76.44 -41.15 74.02 -40.24 71.6 C-39.84 70.5 -39.44 69.4 -39.03 68.27 C-38.67 67.31 -38.32 66.35 -37.95 65.36 C-37.23 62.36 -37.41 60.6 -38.31 57.68 C-39.77 55.63 -39.77 55.63 -41.62 53.8 C-47.88 46.96 -51.87 39.47 -51.55 29.91 C-50.44 19.8 -46.53 11.47 -39.18 4.43 C-27.6 -4.65 -13.28 -6.28 0 0 Z " fill="#975223" transform="translate(656.30859375,808.32421875)"/>
<path d="M0 0 C2 2 2 2 2.25 3.98 C2.25 4.79 2.25 5.61 2.25 6.45 C2.25 7.4 2.26 8.34 2.26 9.32 C2.26 10.36 2.25 11.41 2.25 12.49 C2.25 13.6 2.25 14.71 2.25 15.85 C2.26 19.62 2.25 23.38 2.24 27.14 C2.24 29.85 2.24 32.56 2.25 35.27 C2.25 41.18 2.25 47.09 2.24 53 C2.23 61.78 2.23 70.57 2.23 79.36 C2.23 94.14 2.22 108.92 2.21 123.7 C2.2 138.34 2.19 152.98 2.19 167.62 C2.19 168.53 2.19 169.44 2.19 170.38 C2.19 174.99 2.19 179.61 2.19 184.23 C2.18 216.96 2.17 249.69 2.15 282.42 C2.13 314.23 2.12 346.03 2.11 377.84 C2.11 379.31 2.11 379.31 2.11 380.81 C2.11 390.65 2.1 400.48 2.1 410.32 C2.1 430.37 2.09 450.42 2.08 470.46 C2.08 471.38 2.08 472.31 2.08 473.25 C2.07 534.84 2.03 596.42 2 658 C0 657 0 657 -1 655 C-1.09 653.53 -1.13 652.06 -1.13 650.58 C-1.13 649.65 -1.13 648.71 -1.13 647.74 C-1.13 646.71 -1.13 645.67 -1.13 644.6 C-1.13 643.5 -1.13 642.4 -1.13 641.26 C-1.13 637.53 -1.13 633.8 -1.13 630.07 C-1.13 627.39 -1.13 624.7 -1.13 622.02 C-1.14 616.16 -1.14 610.3 -1.13 604.44 C-1.13 595.73 -1.13 587.02 -1.13 578.31 C-1.14 562.75 -1.14 547.2 -1.14 531.64 C-1.13 518.02 -1.13 504.41 -1.13 490.8 C-1.13 489.89 -1.13 488.99 -1.13 488.06 C-1.13 484.4 -1.13 480.74 -1.14 477.08 C-1.14 442.72 -1.14 408.35 -1.13 373.99 C-1.13 343.43 -1.13 312.88 -1.13 282.33 C-1.14 248.03 -1.14 213.73 -1.13 179.44 C-1.13 175.78 -1.13 172.13 -1.13 168.47 C-1.13 167.57 -1.13 166.67 -1.13 165.75 C-1.13 152.14 -1.13 138.53 -1.14 124.92 C-1.14 109.46 -1.14 93.99 -1.13 78.52 C-1.13 69.85 -1.13 61.19 -1.13 52.53 C-1.14 46.75 -1.13 40.97 -1.13 35.19 C-1.13 31.89 -1.13 28.59 -1.13 25.29 C-1.13 21.74 -1.13 18.2 -1.13 14.65 C-1.13 13.62 -1.13 12.59 -1.13 11.52 C-1.13 10.58 -1.13 9.64 -1.13 8.67 C-1.13 7.86 -1.13 7.05 -1.13 6.21 C-1 4.02 -0.61 2.1 0 0 Z " fill="#FA4C61" transform="translate(223,366)"/>
<path d="M0 0 C0.66 -0 1.33 -0 2.01 -0.01 C4.26 -0.01 6.51 -0.01 8.76 -0.01 C10.39 -0.01 12.01 -0.01 13.63 -0.01 C18.1 -0.02 22.57 -0.02 27.04 -0.02 C31.85 -0.02 36.67 -0.02 41.48 -0.03 C50.92 -0.04 60.36 -0.04 69.8 -0.04 C77.47 -0.04 85.14 -0.04 92.81 -0.04 C114.53 -0.05 136.25 -0.06 157.97 -0.06 C159.14 -0.06 160.31 -0.06 161.52 -0.06 C163.28 -0.06 163.28 -0.06 165.07 -0.06 C184.1 -0.06 203.13 -0.07 222.15 -0.08 C241.67 -0.09 261.18 -0.1 280.69 -0.1 C291.66 -0.1 302.62 -0.1 313.59 -0.11 C322.92 -0.12 332.25 -0.12 341.59 -0.12 C346.35 -0.11 351.12 -0.11 355.89 -0.12 C360.24 -0.13 364.6 -0.13 368.96 -0.12 C370.54 -0.12 372.12 -0.12 373.7 -0.13 C375.84 -0.13 377.98 -0.13 380.12 -0.12 C381.91 -0.12 381.91 -0.12 383.73 -0.12 C386.62 0.13 386.62 0.13 389.62 2.13 C387.79 3.97 384.82 3.26 382.36 3.26 C381.36 3.26 381.36 3.26 380.34 3.26 C378.08 3.27 375.82 3.26 373.57 3.26 C371.94 3.26 370.32 3.27 368.7 3.27 C364.21 3.28 359.73 3.28 355.24 3.27 C350.42 3.27 345.59 3.28 340.76 3.28 C331.29 3.29 321.83 3.3 312.36 3.3 C304.67 3.3 296.98 3.3 289.29 3.3 C267.51 3.31 245.72 3.31 223.94 3.31 C222.77 3.31 221.59 3.31 220.38 3.31 C219.2 3.31 218.03 3.31 216.81 3.31 C197.73 3.31 178.65 3.32 159.57 3.34 C140 3.35 120.43 3.36 100.87 3.36 C89.87 3.36 78.87 3.36 67.88 3.37 C58.52 3.38 49.16 3.38 39.79 3.38 C35.01 3.37 30.23 3.37 25.45 3.38 C21.08 3.39 16.71 3.39 12.34 3.38 C10.76 3.38 9.17 3.38 7.58 3.38 C5.44 3.39 3.29 3.39 1.14 3.38 C-0.05 3.38 -1.25 3.38 -2.48 3.38 C-5.38 3.13 -5.38 3.13 -8.38 1.13 C-5.54 -0.29 -3.17 0 0 0 Z " fill="#FB4C61" transform="translate(588.3753423690796,274.8713655471802)"/>
<path d="M0 0 C0.33 0 0.66 0 1 0 C2.21 5.68 2.14 11.25 2.12 17.03 C2.12 18.15 2.13 19.27 2.13 20.42 C2.13 24.2 2.12 27.97 2.12 31.74 C2.12 34.46 2.12 37.19 2.12 39.91 C2.12 45.84 2.12 51.77 2.12 57.71 C2.11 66.53 2.11 75.35 2.11 84.17 C2.12 99 2.11 113.84 2.11 128.68 C2.1 143.37 2.1 158.06 2.09 172.76 C2.09 173.67 2.09 174.58 2.09 175.52 C2.09 180.16 2.09 184.8 2.09 189.44 C2.09 222.29 2.08 255.15 2.08 288.01 C2.07 319.93 2.06 351.85 2.05 383.77 C2.05 384.76 2.05 385.74 2.05 386.76 C2.05 396.64 2.05 406.51 2.05 416.39 C2.05 436.52 2.05 456.65 2.04 476.77 C2.04 477.7 2.04 478.62 2.04 479.58 C2.03 541.38 2.02 603.19 2 665 C1.34 665.33 0.68 665.66 0 666 C-0 664.99 -0 663.98 -0.01 662.94 C-0.08 618.46 -0.16 573.99 -0.24 529.51 C-0.24 528.84 -0.25 528.16 -0.25 527.47 C-0.28 512.83 -0.3 498.19 -0.33 483.55 C-0.34 476.37 -0.36 469.19 -0.37 462.01 C-0.37 461.29 -0.38 460.58 -0.38 459.84 C-0.42 436.69 -0.46 413.55 -0.5 390.4 C-0.54 366.61 -0.59 342.81 -0.63 319.02 C-0.64 315.66 -0.65 312.3 -0.65 308.93 C-0.65 308.27 -0.66 307.61 -0.66 306.93 C-0.68 295.63 -0.7 284.33 -0.72 273.03 C-0.73 262.98 -0.75 252.94 -0.77 242.89 C-0.79 237.09 -0.8 231.29 -0.8 225.49 C-0.81 220.18 -0.82 214.87 -0.84 209.56 C-0.84 207.64 -0.84 205.72 -0.84 203.8 C-0.85 194.94 -0.95 186.2 -1.81 177.37 C-2.04 174.45 -1.9 171.68 -1.58 168.77 C-0.86 161.07 -0.82 153.38 -0.79 145.65 C-0.79 144.06 -0.78 142.46 -0.76 140.86 C-0.74 136.56 -0.72 132.27 -0.7 127.97 C-0.67 123.46 -0.65 118.96 -0.62 114.45 C-0.57 105.94 -0.53 97.43 -0.48 88.91 C-0.43 79.21 -0.38 69.51 -0.32 59.81 C-0.21 39.87 -0.1 19.94 0 0 Z " fill="#E33A4E" transform="translate(1055,358)"/>
<path d="M0 0 C223.74 0 447.48 0 678 0 C678 0.33 678 0.66 678 1 C454.26 1 230.52 1 0 1 C0 0.67 0 0.34 0 0 Z " fill="#000000" transform="translate(301,1107)"/>
<path d="M0 0 C0.33 0 0.66 0 1 0 C1 155.76 1 311.52 1 472 C0.67 472 0.34 472 0 472 C0 316.24 0 160.48 0 0 Z " fill="#000000" transform="translate(1057,550)"/>
<path d="M0 0 C0.33 0 0.66 0 1 0 C1.91 4.62 2.14 9.09 2.12 13.78 C2.12 14.55 2.12 15.31 2.12 16.1 C2.12 18.65 2.12 21.2 2.11 23.76 C2.11 25.59 2.11 27.42 2.11 29.26 C2.11 34.23 2.11 39.2 2.1 44.17 C2.1 49.36 2.09 54.56 2.09 59.76 C2.09 69.6 2.08 79.43 2.07 89.27 C2.06 100.48 2.06 111.68 2.05 122.88 C2.04 145.92 2.02 168.96 2 192 C1.34 192.33 0.68 192.66 0 193 C-1.6 186.38 -2.1 180.16 -1.58 173.38 C-0.98 163.91 -0.86 154.45 -0.79 144.97 C-0.79 144.18 -0.78 143.39 -0.78 142.58 C-0.75 137.51 -0.72 132.43 -0.7 127.36 C-0.67 122.87 -0.65 118.38 -0.62 113.89 C-0.57 105.42 -0.53 96.95 -0.48 88.48 C-0.43 78.82 -0.38 69.17 -0.32 59.51 C-0.21 39.67 -0.1 19.84 0 0 Z " fill="#FC4D62" transform="translate(1055,358)"/>
<path d="M0 0 C0.33 0 0.66 0 1 0 C1.15 14.89 1.3 29.78 1.44 44.67 C1.51 51.59 1.58 58.5 1.65 65.41 C1.72 72.09 1.78 78.76 1.84 85.43 C1.87 87.98 1.89 90.52 1.92 93.07 C1.96 96.63 1.99 100.2 2.02 103.76 C2.03 104.82 2.05 105.87 2.06 106.96 C2.1 111.76 2.02 116.28 1 121 C0.01 120.34 -0.98 119.68 -2 119 C-2.37 117.06 -2.37 117.06 -2.37 114.64 C-2.38 113.73 -2.39 112.81 -2.4 111.87 C-2.39 110.86 -2.38 109.86 -2.37 108.82 C-2.38 107.76 -2.38 106.7 -2.38 105.61 C-2.39 102.09 -2.38 98.58 -2.36 95.06 C-2.36 92.62 -2.36 90.17 -2.36 87.73 C-2.36 82.6 -2.35 77.48 -2.34 72.35 C-2.31 65.78 -2.31 59.22 -2.32 52.66 C-2.32 47.61 -2.32 42.56 -2.31 37.52 C-2.3 35.1 -2.3 32.68 -2.3 30.26 C-2.3 26.87 -2.29 23.48 -2.27 20.09 C-2.28 18.6 -2.28 18.6 -2.28 17.08 C-2.24 11.09 -1.5 5.8 0 0 Z " fill="#CF0228" transform="translate(224,238)"/>
<path d="M0 0 C3.15 2.88 4.75 4.8 5.62 9 C4.75 13.2 3.15 15.12 0 18 C-3.44 19.12 -3.44 19.12 -7 19 C-12.47 16.06 -12.47 16.06 -14 13 C-14.7 5.87 -14.7 5.87 -11.62 2.06 C-7.34 -1.31 -5.36 -1.36 0 0 Z " fill="#E6556D" transform="translate(561,487)"/>
<path d="M0 0 C1.32 0.33 2.64 0.66 4 1 C4 1.66 4 2.32 4 3 C4.58 3.24 5.17 3.49 5.77 3.74 C8.36 5.2 9.84 6.85 11.75 9.12 C12.36 9.85 12.98 10.57 13.61 11.32 C14.3 12.15 14.3 12.15 15 13 C14.67 13.66 14.34 14.32 14 15 C11.66 12.69 9.33 10.38 7 8.06 C6.33 7.4 5.66 6.74 4.98 6.06 C4.34 5.44 3.71 4.81 3.06 4.16 C2.48 3.58 1.89 3 1.29 2.4 C0 1 0 1 0 0 Z " fill="#F14259" transform="translate(1021,297)"/>
<path d="M0 0 C0.99 0 1.98 0 3 0 C3 0.66 3 1.32 3 2 C2.01 1.67 1.02 1.34 0 1 C0 0.67 0 0.34 0 0 Z M-3 3 C-2.34 3.66 -1.68 4.32 -1 5 C-4.47 7.97 -4.47 7.97 -8 11 C-8 8 -8 8 -5.5 5.31 C-4.68 4.55 -3.85 3.79 -3 3 Z " fill="#C41837" transform="translate(250,188)"/>
<path d="M0 0 C0.33 0 0.66 0 1 0 C1 2.64 1 5.28 1 8 C0.67 8 0.34 8 0 8 C0 5.36 0 2.72 0 0 Z " fill="#000000" transform="translate(1055,1026)"/>
<path d="M0 0 C4 1 4 1 4 1 Z " fill="#000000" transform="translate(984,1105)"/>
<path d="M0 0 C4 1 4 1 4 1 Z " fill="#000000" transform="translate(292,1105)"/>
<path d="M0 0 C4 1 4 1 4 1 Z " fill="#000000" transform="translate(992,1102)"/>
<path d="M0 0 C4 1 4 1 4 1 Z " fill="#000000" transform="translate(284,1102)"/>
<path d="M0 0 C1 4 1 4 1 4 Z " fill="#000000" transform="translate(1055,353)"/>
<path d="M0 0 C3 1 3 1 3 1 Z " fill="#000000" transform="translate(998,1100)"/>
<path d="M0 0 C3 1 3 1 3 1 Z " fill="#000000" transform="translate(279,1100)"/>
<path d="" fill="#000000" transform="translate(0,0)"/>
<path d="" fill="#000000" transform="translate(0,0)"/>
<path d="" fill="#000000" transform="translate(0,0)"/>
<path d="M0 0 C2 1 2 1 2 1 Z " fill="#000000" transform="translate(1008,1095)"/>
<path d="M0 0 C2 1 2 1 2 1 Z " fill="#F15167" transform="translate(1010,1093)"/>
<path d="" fill="#000000" transform="translate(0,0)"/>
<path d="" fill="#000000" transform="translate(0,0)"/>
<path d="" fill="#FC4D62" transform="translate(0,0)"/>
<path d="" fill="#460A10" transform="translate(0,0)"/>
<path d="" fill="#000000" transform="translate(0,0)"/>
<path d="" fill="#000000" transform="translate(0,0)"/>
<path d="" fill="#000000" transform="translate(0,0)"/>
<path d="" fill="#000000" transform="translate(0,0)"/>
<path d="" fill="#000000" transform="translate(0,0)"/>
<path d="" fill="#000000" transform="translate(0,0)"/>
<path d="" fill="#000000" transform="translate(0,0)"/>
<path d="" fill="#000000" transform="translate(0,0)"/>
<path d="" fill="#000000" transform="translate(0,0)"/>
<path d="" fill="#000000" transform="translate(0,0)"/>
<path d="" fill="#000000" transform="translate(0,0)"/>
<path d="" fill="#000000" transform="translate(0,0)"/>
<path d="" fill="#FC4D62" transform="translate(0,0)"/>
<path d="" fill="#000000" transform="translate(0,0)"/>
<path d="" fill="#E33A4E" transform="translate(0,0)"/>
<path d="" fill="#E33A4E" transform="translate(0,0)"/>
<path d="" fill="#000000" transform="translate(0,0)"/>
<path d="" fill="#E33A4E" transform="translate(0,0)"/>
</svg>
