<?xml version="1.0" encoding="UTF-8"?>
<!-- Generator: visioncortex VTracer 0.6.3 -->
<svg version="1.1" xmlns="http://www.w3.org/2000/svg" width="1280" height="1280">
<path d="M0 0 C3.63 0.01 7.25 -0 10.88 -0.01 C17.96 -0.03 25.04 -0.02 32.12 -0.01 C37.88 -0.01 43.64 -0.01 49.4 -0.01 C50.22 -0.01 51.05 -0.01 51.89 -0.01 C53.57 -0.01 55.24 -0.01 56.91 -0.01 C72.56 -0.02 88.2 -0.01 103.84 0 C117.24 0.02 130.63 0.01 144.02 0 C159.62 -0.02 175.21 -0.02 190.81 -0.01 C192.47 -0.01 194.14 -0.01 195.8 -0.01 C197.03 -0.01 197.03 -0.01 198.29 -0.01 C204.03 -0.01 209.78 -0.01 215.53 -0.02 C222.54 -0.03 229.55 -0.02 236.56 -0.01 C240.13 0 243.7 0 247.27 -0.01 C265.43 -0.05 280.95 0.68 297.97 7.39 C299.61 7.92 299.61 7.92 301.28 8.45 C309.67 11.38 319.26 16.59 325.47 22.95 C328.12 25.54 330.6 26.9 333.97 28.39 C333.97 29.05 333.97 29.71 333.97 30.39 C334.96 30.72 335.95 31.05 336.97 31.39 C336.97 32.05 336.97 32.71 336.97 33.39 C337.61 33.66 338.25 33.93 338.91 34.2 C340.97 35.39 340.97 35.39 341.97 38.39 C342.96 38.72 343.95 39.05 344.97 39.39 C344.97 40.05 344.97 40.71 344.97 41.39 C345.63 41.39 346.29 41.39 346.97 41.39 C346.97 42.05 346.97 42.71 346.97 43.39 C347.63 43.39 348.29 43.39 348.97 43.39 C349.92 44.78 350.86 46.18 351.77 47.6 C353.07 49.54 354.47 51.34 355.97 53.14 C356.44 53.71 356.92 54.29 357.41 54.88 C358.92 56.5 358.92 56.5 361.03 57.42 C364.03 58.93 365.17 61.61 366.97 64.39 C368.61 66.09 370.28 67.75 371.97 69.39 C373.08 70.49 374.18 71.58 375.29 72.68 C375.89 73.28 376.49 73.87 377.11 74.48 C379.8 77.14 382.48 79.81 385.16 82.48 C386.58 83.89 388 85.29 389.43 86.7 C391.48 88.73 393.53 90.77 395.58 92.81 C396.22 93.44 396.86 94.07 397.52 94.72 C399.04 96.24 400.51 97.81 401.97 99.39 C401.97 100.05 401.97 100.71 401.97 101.39 C402.57 101.62 403.16 101.85 403.78 102.08 C406.56 103.75 407.37 105.6 408.97 108.39 C411.21 110.84 413.19 112.54 415.97 114.39 C417.29 115.96 418.61 117.53 419.93 119.1 C422.52 122.01 425.26 124.74 428.02 127.47 C428.57 128.02 429.12 128.56 429.69 129.12 C431.99 131.4 434.3 133.67 436.62 135.94 C438.32 137.62 440.02 139.3 441.71 140.97 C442.24 141.49 442.77 142 443.31 142.53 C444.57 143.78 445.77 145.08 446.97 146.39 C446.97 147.05 446.97 147.71 446.97 148.39 C447.93 148.79 447.93 148.79 448.91 149.2 C450.97 150.39 450.97 150.39 451.97 153.39 C452.96 153.72 453.95 154.05 454.97 154.39 C454.97 155.05 454.97 155.71 454.97 156.39 C455.63 156.39 456.29 156.39 456.97 156.39 C456.97 157.05 456.97 157.71 456.97 158.39 C457.63 158.39 458.29 158.39 458.97 158.39 C461.06 160.75 462.78 163.05 464.28 165.83 C466.26 168.84 468.57 170.79 471.35 173.06 C473.73 175.02 475.68 177.22 477.66 179.58 C478.76 180.85 479.86 182.12 480.97 183.39 C481.47 183.98 481.98 184.56 482.5 185.16 C490.49 193.82 502.14 199.14 512.97 203.39 C513.96 203.39 514.95 203.39 515.97 203.39 C515.97 204.05 515.97 204.71 515.97 205.39 C518.53 205.56 521.09 205.73 523.66 205.89 C524.38 205.94 525.1 205.99 525.84 206.04 C529.56 206.27 533.25 206.45 536.97 206.39 C536.97 207.05 536.97 207.71 536.97 208.39 C681.84 208.39 826.71 208.39 975.97 208.39 C975.97 209.05 975.97 209.71 975.97 210.39 C976.59 210.42 977.2 210.44 977.84 210.47 C986.46 211.05 992.66 213.97 999.97 218.39 C1001.06 218.83 1002.15 219.26 1003.28 219.7 C1008.26 221.76 1012.74 225.09 1016.48 228.96 C1018.07 230.49 1019.57 231.34 1021.53 232.33 C1024.56 233.98 1025.58 235.2 1026.97 238.39 C1027.58 238.67 1028.19 238.95 1028.82 239.23 C1031.51 240.69 1032.48 242.26 1034.09 244.83 C1034.59 245.61 1035.09 246.39 1035.6 247.2 C1036.05 247.92 1036.5 248.65 1036.97 249.39 C1038.8 252.36 1038.8 252.36 1040.97 254.39 C1044.58 259.47 1046.89 264.54 1048.97 270.39 C1049.63 271.38 1050.29 272.37 1050.97 273.39 C1051.09 276.58 1051.09 276.58 1050.97 279.39 C1051.63 279.39 1052.29 279.39 1052.97 279.39 C1052.97 281.7 1052.97 284.01 1052.97 286.39 C1053.63 286.39 1054.29 286.39 1054.97 286.39 C1055.72 289.76 1056.11 292.92 1056.17 296.37 C1056.19 297.33 1056.21 298.29 1056.23 299.28 C1056.25 300.3 1056.27 301.33 1056.28 302.38 C1056.32 303.97 1056.32 303.97 1056.35 305.59 C1056.41 308.96 1056.47 312.33 1056.53 315.7 C1056.57 317.99 1056.62 320.28 1056.66 322.57 C1056.77 328.18 1056.87 333.79 1056.97 339.39 C1057.53 339.41 1058.09 339.43 1058.66 339.45 C1061.24 339.55 1063.82 339.66 1066.41 339.77 C1067.28 339.8 1068.16 339.83 1069.07 339.86 C1077.31 340.23 1084.84 341.94 1092.72 344.33 C1093.79 344.65 1094.85 344.97 1095.95 345.29 C1101.03 347.14 1104.78 350.04 1108.97 353.39 C1109.79 353.89 1110.62 354.38 1111.47 354.89 C1116.18 357.72 1119.67 361 1123.03 365.33 C1123.68 366.16 1124.33 367 1125 367.86 C1125.98 369.11 1125.98 369.11 1126.97 370.39 C1127.71 371.24 1128.45 372.09 1129.21 372.96 C1130.97 375.39 1130.97 375.39 1130.97 379.39 C1131.63 379.39 1132.29 379.39 1132.97 379.39 C1136.26 386.73 1138.28 393.34 1138.2 401.48 C1138.2 402.59 1138.2 402.59 1138.2 403.73 C1138.19 405.28 1138.19 406.84 1138.17 408.39 C1138.16 410.78 1138.15 413.17 1138.15 415.56 C1138.15 417.07 1138.14 418.59 1138.14 420.1 C1138.14 420.82 1138.13 421.54 1138.13 422.27 C1138.08 427.28 1138.08 427.28 1136.97 428.39 C1136.68 431.36 1136.52 434.33 1136.35 437.31 C1135.97 440.36 1135.13 442.57 1133.97 445.39 C1133.52 448.05 1133.52 448.05 1133.34 450.7 C1133.23 452.03 1133.23 452.03 1133.12 453.38 C1133.07 454.04 1133.02 454.71 1132.97 455.39 C1132.31 455.39 1131.65 455.39 1130.97 455.39 C1131.3 456.38 1131.63 457.37 1131.97 458.39 C1131.75 460.61 1131.45 462.82 1131.09 465.02 C1130.82 466.77 1130.82 466.77 1130.54 468.56 C1129.97 471.39 1129.97 471.39 1128.97 472.39 C1128.76 474.37 1128.6 476.35 1128.47 478.33 C1128.08 484.17 1128.08 484.17 1126.97 486.39 C1126.5 489.61 1126.1 492.84 1125.72 496.07 C1125.07 501.29 1125.07 501.29 1123.97 502.39 C1123.76 504.05 1123.6 505.72 1123.47 507.39 C1123.08 512.28 1123.08 512.28 1121.97 513.39 C1121.68 516.36 1121.52 519.33 1121.35 522.31 C1120.97 525.36 1120.13 527.57 1118.97 530.39 C1118.52 533.05 1118.52 533.05 1118.34 535.7 C1118.27 536.59 1118.19 537.47 1118.12 538.38 C1118.07 539.04 1118.02 539.71 1117.97 540.39 C1117.31 540.39 1116.65 540.39 1115.97 540.39 C1116.3 541.38 1116.63 542.37 1116.97 543.39 C1116.75 545.61 1116.45 547.82 1116.09 550.02 C1115.91 551.19 1115.73 552.35 1115.54 553.56 C1114.97 556.39 1114.97 556.39 1113.97 557.39 C1113.76 559.37 1113.6 561.35 1113.47 563.33 C1113.08 569.17 1113.08 569.17 1111.97 571.39 C1111.5 574.61 1111.1 577.84 1110.72 581.07 C1110.07 586.29 1110.07 586.29 1108.97 587.39 C1108.73 589.24 1108.56 591.1 1108.41 592.95 C1108.32 593.97 1108.24 594.98 1108.15 596.02 C1108.06 597.19 1108.06 597.19 1107.97 598.39 C1107.31 598.39 1106.65 598.39 1105.97 598.39 C1106.3 599.38 1106.63 600.37 1106.97 601.39 C1106.75 603.42 1106.45 605.44 1106.09 607.45 C1105.91 608.52 1105.73 609.58 1105.54 610.68 C1104.97 613.39 1104.97 613.39 1103.97 615.39 C1103.77 617.22 1103.6 619.06 1103.47 620.89 C1103.08 626.17 1103.08 626.17 1101.97 628.39 C1101.5 631.83 1101.1 635.27 1100.72 638.71 C1100.07 644.29 1100.07 644.29 1098.97 645.39 C1098.76 646.87 1098.6 648.35 1098.47 649.83 C1098.08 654.17 1098.08 654.17 1096.97 656.39 C1096.5 659.61 1096.1 662.84 1095.72 666.07 C1095.07 671.29 1095.07 671.29 1093.97 672.39 C1093.87 674.51 1093.85 676.63 1093.85 678.75 C1093.85 679.41 1093.85 680.07 1093.85 680.76 C1093.86 682.96 1093.86 685.16 1093.87 687.36 C1093.87 688.89 1093.87 690.41 1093.88 691.93 C1093.88 695.95 1093.89 699.97 1093.9 703.98 C1093.91 708.08 1093.91 712.17 1093.92 716.27 C1093.93 724.31 1093.95 732.35 1093.97 740.39 C1097.57 742.21 1101.13 743.9 1104.91 745.33 C1115.53 749.54 1123.72 755.98 1131.78 763.95 C1132.34 764.51 1132.91 765.06 1133.49 765.63 C1136.52 768.69 1138.91 771.58 1140.97 775.39 C1141.45 776.18 1141.94 776.97 1142.43 777.78 C1144.24 780.85 1145.9 783.97 1147.53 787.14 C1148.13 788.29 1148.73 789.44 1149.35 790.63 C1153.29 799.18 1153.25 807.9 1153.22 817.17 C1153.22 818.56 1153.22 819.95 1153.22 821.33 C1153.23 825.13 1153.22 828.92 1153.22 832.71 C1153.21 836.81 1153.21 840.91 1153.22 845.01 C1153.22 853.03 1153.22 861.05 1153.21 869.07 C1153.2 878.4 1153.2 887.74 1153.2 897.07 C1153.2 913.73 1153.19 930.38 1153.17 947.03 C1153.16 963.2 1153.15 979.37 1153.15 995.53 C1153.15 996.53 1153.15 997.53 1153.15 998.55 C1153.15 999.55 1153.15 1000.54 1153.15 1001.57 C1153.15 1019.97 1153.15 1038.37 1153.14 1056.77 C1153.14 1063.29 1153.14 1069.8 1153.14 1076.31 C1153.13 1084.24 1153.13 1092.17 1153.12 1100.09 C1153.12 1104.14 1153.11 1108.19 1153.11 1112.23 C1153.12 1115.94 1153.11 1119.64 1153.1 1123.34 C1153.1 1125.32 1153.1 1127.3 1153.11 1129.28 C1153.1 1130.45 1153.1 1131.61 1153.1 1132.82 C1153.1 1134.33 1153.1 1134.33 1153.09 1135.88 C1152.97 1138.39 1152.97 1138.39 1151.97 1141.39 C1151.5 1143.03 1151.5 1143.03 1151.03 1144.7 C1149.66 1149.47 1148.25 1153.98 1145.97 1158.39 C1145.64 1159.38 1145.31 1160.37 1144.97 1161.39 C1143.98 1162.05 1142.99 1162.71 1141.97 1163.39 C1141.57 1164.54 1141.57 1164.54 1141.16 1165.7 C1139.56 1169.32 1137.01 1170.92 1133.97 1173.39 C1132.7 1175.43 1132.7 1175.43 1131.97 1177.39 C1131.31 1178.38 1130.65 1179.37 1129.97 1180.39 C1128.65 1180.39 1127.33 1180.39 1125.97 1180.39 C1125.72 1180.97 1125.47 1181.55 1125.22 1182.14 C1123.76 1184.76 1122.28 1186.48 1119.97 1188.39 C1118.65 1188.39 1117.33 1188.39 1115.97 1188.39 C1115.78 1188.99 1115.6 1189.59 1115.41 1190.2 C1112.42 1194.75 1105.96 1195.79 1100.97 1197.39 C1100.32 1197.64 1099.68 1197.88 1099.02 1198.13 C1093.47 1200.17 1088.67 1200.82 1082.79 1200.76 C1081.91 1200.77 1081.02 1200.77 1080.11 1200.78 C1077.16 1200.78 1074.22 1200.77 1071.27 1200.76 C1069.13 1200.76 1066.99 1200.77 1064.85 1200.77 C1058.97 1200.78 1053.1 1200.77 1047.23 1200.76 C1040.89 1200.74 1034.56 1200.75 1028.22 1200.75 C1017.25 1200.76 1006.28 1200.75 995.3 1200.74 C983.79 1200.73 972.28 1200.72 960.78 1200.72 C960.06 1200.72 959.34 1200.72 958.61 1200.72 C955.7 1200.72 952.79 1200.72 949.89 1200.72 C923.41 1200.71 896.93 1200.7 870.46 1200.67 C845.45 1200.65 820.44 1200.64 795.44 1200.63 C794.66 1200.63 793.89 1200.63 793.1 1200.63 C789.99 1200.63 786.88 1200.63 783.78 1200.63 C782.23 1200.63 780.68 1200.63 779.13 1200.63 C777.58 1200.63 776.04 1200.63 774.49 1200.63 C749.92 1200.63 725.34 1200.61 700.77 1200.6 C693.57 1200.6 686.37 1200.59 679.17 1200.59 C664.03 1200.59 648.89 1200.58 633.76 1200.56 C627.49 1200.56 621.23 1200.55 614.97 1200.55 C609.25 1200.55 603.52 1200.55 597.8 1200.54 C595.72 1200.53 593.64 1200.53 591.56 1200.53 C588.76 1200.54 585.95 1200.53 583.14 1200.52 C582.32 1200.53 581.49 1200.53 580.64 1200.53 C575.08 1200.51 575.08 1200.51 573.97 1199.39 C572.29 1199 570.6 1198.65 568.91 1198.33 C567.99 1198.15 567.07 1197.98 566.12 1197.79 C565.06 1197.6 565.06 1197.6 563.97 1197.39 C563.97 1196.73 563.97 1196.07 563.97 1195.39 C563.26 1195.29 562.55 1195.18 561.82 1195.08 C558.62 1194.31 556.21 1193.07 553.34 1191.45 C551.93 1190.67 551.93 1190.67 550.49 1189.86 C548.61 1188.77 546.78 1187.6 544.97 1186.39 C544.97 1185.4 544.97 1184.41 544.97 1183.39 C543.98 1183.72 542.99 1184.05 541.97 1184.39 C534.42 1177.29 528.12 1170.48 522.97 1161.39 C522.55 1160.72 522.13 1160.05 521.69 1159.36 C519.43 1155.7 518.57 1152.62 517.97 1148.39 C517.31 1148.06 516.65 1147.73 515.97 1147.39 C513.05 1138.64 512.37 1129.54 511.97 1120.39 C511.64 1120.39 511.31 1120.39 510.97 1120.39 C510.97 1057.03 510.97 993.67 510.97 928.39 C484.15 928.41 484.15 928.41 456.78 928.42 C444.84 928.43 432.9 928.44 420.96 928.44 C420.21 928.44 419.45 928.44 418.67 928.44 C393.15 928.46 367.63 928.47 342.11 928.48 C341.27 928.48 340.44 928.48 339.58 928.48 C321.49 928.48 303.4 928.49 285.3 928.49 C276.43 928.5 267.56 928.5 258.69 928.5 C257.8 928.5 256.92 928.5 256.01 928.5 C227.37 928.51 198.74 928.53 170.1 928.54 C140.68 928.56 111.26 928.58 81.84 928.58 C77.69 928.58 73.54 928.58 69.39 928.58 C68.16 928.58 68.16 928.58 66.91 928.58 C53.74 928.58 40.57 928.59 27.39 928.61 C14.16 928.62 0.93 928.62 -12.3 928.62 C-20.17 928.62 -28.04 928.62 -35.91 928.63 C-41.77 928.64 -47.64 928.64 -53.5 928.63 C-55.88 928.63 -58.27 928.64 -60.65 928.64 C-63.87 928.65 -67.09 928.65 -70.31 928.64 C-71.25 928.64 -72.18 928.65 -73.15 928.65 C-74.44 928.65 -74.44 928.65 -75.75 928.64 C-76.48 928.64 -77.22 928.64 -77.98 928.64 C-80.35 928.35 -81.92 927.49 -84.03 926.39 C-85.1 926.27 -86.18 926.14 -87.28 926.02 C-96.85 924.42 -102.86 918.64 -109.03 911.39 C-110.97 908.49 -112.56 905.55 -114.03 902.39 C-114.38 901.81 -114.73 901.23 -115.09 900.63 C-118.09 893.47 -117.17 884.68 -117.16 877.09 C-117.16 875.73 -117.16 874.38 -117.16 873.02 C-117.17 869.3 -117.16 865.58 -117.16 861.85 C-117.16 857.8 -117.16 853.75 -117.16 849.7 C-117.17 842.6 -117.17 835.5 -117.16 828.4 C-117.16 817.84 -117.16 807.28 -117.17 796.72 C-117.17 777.86 -117.17 759 -117.17 740.14 C-117.16 723.64 -117.16 707.13 -117.17 690.62 C-117.17 689.53 -117.17 688.44 -117.17 687.31 C-117.17 682.87 -117.17 678.42 -117.17 673.98 C-117.17 632.3 -117.17 590.61 -117.16 548.92 C-117.16 511.89 -117.16 474.85 -117.16 437.81 C-117.17 396.21 -117.17 354.6 -117.17 313 C-117.17 308.57 -117.17 304.13 -117.17 299.7 C-117.17 298.6 -117.17 297.51 -117.17 296.39 C-117.16 279.89 -117.17 263.4 -117.17 246.91 C-117.17 228.15 -117.17 209.39 -117.16 190.64 C-117.16 180.14 -117.16 169.64 -117.17 159.14 C-117.17 152.13 -117.17 145.12 -117.16 138.11 C-117.16 134.11 -117.16 130.12 -117.16 126.12 C-117.17 122.48 -117.16 118.84 -117.16 115.2 C-117.16 113.29 -117.16 111.37 -117.16 109.46 C-117.12 89.03 -117.12 89.03 -114.03 84.39 C-114.69 84.06 -115.35 83.73 -116.03 83.39 C-115.37 83.39 -114.71 83.39 -114.03 83.39 C-114.11 82.28 -114.2 81.16 -114.28 80.02 C-114.3 75.44 -112.87 71.96 -111.06 67.8 C-109.74 64.72 -108.88 61.63 -108.03 58.39 C-107.37 58.39 -106.71 58.39 -106.03 58.39 C-106.03 56.74 -106.03 55.09 -106.03 53.39 C-105.37 53.39 -104.71 53.39 -104.03 53.39 C-103.7 51.74 -103.37 50.09 -103.03 48.39 C-102.37 48.39 -101.71 48.39 -101.03 48.39 C-101.03 47.73 -101.03 47.07 -101.03 46.39 C-100.37 46.39 -99.71 46.39 -99.03 46.39 C-98.96 45.67 -98.9 44.96 -98.83 44.21 C-97.79 40.53 -96.05 38.92 -93.33 36.23 C-92.62 35.52 -92.62 35.52 -91.9 34.8 C-90.9 33.81 -89.9 32.82 -88.89 31.84 C-87.36 30.34 -85.84 28.83 -84.33 27.32 C-72.28 15.39 -72.28 15.39 -68.03 15.39 C-68.03 14.73 -68.03 14.07 -68.03 13.39 C-66.71 13.39 -65.39 13.39 -64.03 13.39 C-64.03 12.73 -64.03 12.07 -64.03 11.39 C-61.64 10.44 -59.25 9.48 -56.86 8.54 C-55.14 7.84 -53.43 7.11 -51.74 6.34 C-35.44 -0.92 -17.44 -0.05 0 0 Z M-19.82 36.93 C-22.03 37.39 -24.16 37.62 -26.41 37.77 C-32.58 38.37 -40.56 39.92 -45.03 44.39 C-46.36 44.73 -47.7 45.06 -49.03 45.39 C-49.69 46.05 -50.35 46.71 -51.03 47.39 C-52.02 47.06 -53.01 46.73 -54.03 46.39 C-54.03 47.38 -54.03 48.37 -54.03 49.39 C-55.61 51.04 -55.61 51.04 -57.72 52.77 C-58.45 53.38 -59.18 53.99 -59.93 54.63 C-60.62 55.21 -61.32 55.79 -62.03 56.39 C-65.59 59.64 -67.34 61.93 -69.03 66.39 C-70.02 67.05 -71.01 67.71 -72.03 68.39 C-74.01 71.35 -74.48 72.92 -75.09 76.33 C-75.65 79.38 -76.24 82.39 -77.03 85.39 C-77.69 85.39 -78.35 85.39 -79.03 85.39 C-79.05 141.57 -79.06 197.75 -79.07 253.93 C-79.07 254.76 -79.07 255.59 -79.07 256.45 C-79.08 274.5 -79.08 292.56 -79.08 310.62 C-79.08 319.48 -79.09 328.34 -79.09 337.19 C-79.09 338.07 -79.09 338.96 -79.09 339.86 C-79.09 368.44 -79.1 397.03 -79.11 425.61 C-79.12 454.97 -79.12 484.33 -79.13 513.7 C-79.13 517.84 -79.13 521.99 -79.13 526.13 C-79.13 526.95 -79.13 527.76 -79.13 528.6 C-79.13 541.75 -79.13 554.9 -79.14 568.04 C-79.14 581.25 -79.15 594.46 -79.15 607.66 C-79.14 615.52 -79.15 623.37 -79.15 631.22 C-79.16 637.08 -79.16 642.93 -79.15 648.79 C-79.15 651.16 -79.15 653.54 -79.16 655.91 C-79.16 659.13 -79.16 662.35 -79.15 665.56 C-79.16 666.5 -79.16 667.43 -79.16 668.39 C-79.15 672.52 -79.08 676.37 -78.03 680.39 C-77.7 680.39 -77.37 680.39 -77.03 680.39 C-76.7 675.77 -76.37 671.15 -76.03 666.39 C-75.37 666.39 -74.71 666.39 -74.03 666.39 C-74.36 665.73 -74.69 665.07 -75.03 664.39 C-74.7 664.06 -74.37 663.73 -74.03 663.39 C-73.96 662.04 -73.95 660.68 -73.97 659.33 C-73.99 658.03 -74.01 656.73 -74.03 655.39 C-73.37 655.39 -72.71 655.39 -72.03 655.39 C-71.98 654.75 -71.93 654.11 -71.88 653.45 C-71.53 649.41 -71.13 645.73 -69.97 641.83 C-68.81 637.6 -68.85 633.75 -69.03 629.39 C-68.37 629.39 -67.71 629.39 -67.03 629.39 C-66.83 627.96 -66.83 627.96 -66.63 626.51 C-66.36 624.62 -66.36 624.62 -66.09 622.7 C-65.92 621.46 -65.75 620.22 -65.57 618.94 C-65.25 616.85 -64.9 614.75 -64.47 612.67 C-63.87 609.57 -63.97 606.55 -64.03 603.39 C-63.37 603.39 -62.71 603.39 -62.03 603.39 C-61.96 602.56 -61.96 602.56 -61.88 601.7 C-61.5 597.83 -61.04 594.14 -59.97 590.39 C-58.79 586.05 -58.85 581.86 -59.03 577.39 C-58.37 577.39 -57.71 577.39 -57.03 577.39 C-56.98 576.39 -56.93 575.39 -56.88 574.36 C-56.81 573.07 -56.73 571.78 -56.66 570.45 C-56.59 569.17 -56.52 567.88 -56.45 566.55 C-56.31 565.51 -56.17 564.47 -56.03 563.39 C-55.37 563.06 -54.71 562.73 -54.03 562.39 C-54.03 561.73 -54.03 561.07 -54.03 560.39 C-54.03 557.39 -54.03 554.39 -54.03 551.39 C-53.37 551.06 -52.71 550.73 -52.03 550.39 C-51.56 547.35 -51.56 547.35 -51.41 543.83 C-51.33 542.63 -51.26 541.43 -51.18 540.2 C-51.13 539.27 -51.08 538.35 -51.03 537.39 C-50.37 537.39 -49.71 537.39 -49.03 537.39 C-49.03 533.43 -49.03 529.47 -49.03 525.39 C-48.37 525.39 -47.71 525.39 -47.03 525.39 C-46.7 520.77 -46.37 516.15 -46.03 511.39 C-45.37 511.39 -44.71 511.39 -44.03 511.39 C-43.97 510.64 -43.91 509.9 -43.85 509.13 C-43.76 508.14 -43.68 507.16 -43.59 506.14 C-43.51 505.17 -43.43 504.19 -43.35 503.19 C-43.03 500.39 -43.03 500.39 -42.52 498.39 C-41.67 494.91 -41.63 491.32 -41.41 487.76 C-41.29 486.98 -41.16 486.2 -41.03 485.39 C-40.37 485.06 -39.71 484.73 -39.03 484.39 C-38.6 482.2 -38.6 482.2 -38.47 479.64 C-38.19 476.14 -37.72 472.84 -37.03 469.39 C-36.65 466.06 -36.34 462.73 -36.03 459.39 C-35.37 459.39 -34.71 459.39 -34.03 459.39 C-34.03 458.07 -34.03 456.75 -34.03 455.39 C-34.03 453.06 -34.03 450.73 -34.03 448.39 C-33.37 448.39 -32.71 448.39 -32.03 448.39 C-31.98 447.32 -31.93 446.25 -31.88 445.15 C-31.81 443.75 -31.73 442.35 -31.66 440.95 C-31.63 440.25 -31.59 439.54 -31.56 438.81 C-31.46 437 -31.25 435.19 -31.03 433.39 C-30.37 433.06 -29.71 432.73 -29.03 432.39 C-29.03 429.09 -29.03 425.79 -29.03 422.39 C-28.37 422.39 -27.71 422.39 -27.03 422.39 C-26.9 421.25 -26.77 420.11 -26.63 418.93 C-26.45 417.44 -26.27 415.95 -26.09 414.45 C-26.01 413.7 -25.92 412.95 -25.83 412.17 C-25.14 406.51 -25.14 406.51 -24.03 405.39 C-23.96 403.87 -23.95 402.35 -23.97 400.83 C-23.98 400 -23.99 399.18 -24 398.33 C-24.01 397.69 -24.02 397.05 -24.03 396.39 C-23.37 396.06 -22.71 395.73 -22.03 395.39 C-21.57 393.27 -21.57 393.27 -21.41 390.83 C-21.33 390 -21.26 389.18 -21.18 388.33 C-21.13 387.69 -21.08 387.05 -21.03 386.39 C-20.37 386.39 -19.71 386.39 -19.03 386.39 C-19.36 385.73 -19.69 385.07 -20.03 384.39 C-19.7 384.06 -19.37 383.73 -19.03 383.39 C-18.99 381.73 -18.99 380.06 -19.03 378.39 C-18.04 378.39 -17.05 378.39 -16.03 378.39 C-16.03 376.74 -16.03 375.09 -16.03 373.39 C-15.43 373.19 -14.84 372.98 -14.22 372.77 C-11.79 371.51 -11.79 371.51 -10.73 368.67 C-8.86 365.05 -6.53 362.45 -3.66 359.64 C-2.95 358.92 -2.95 358.92 -2.23 358.19 C0.64 355.33 3.14 353.68 6.97 352.39 C7.57 351.94 8.16 351.48 8.78 351.02 C12.72 348.09 17 345.39 21.97 345.39 C21.97 344.73 21.97 344.07 21.97 343.39 C22.92 343.41 23.87 343.43 24.84 343.45 C27.88 343.62 27.88 343.62 29.97 342.39 C38.41 341.09 46.89 341.25 55.41 341.25 C57.1 341.25 58.78 341.25 60.47 341.24 C65.1 341.24 69.74 341.24 74.38 341.23 C79.42 341.23 84.46 341.23 89.51 341.22 C98.35 341.21 107.18 341.2 116.02 341.2 C129.17 341.19 142.31 341.18 155.45 341.16 C177.56 341.14 199.67 341.12 221.78 341.1 C243.68 341.08 265.57 341.07 287.47 341.05 C288.15 341.04 288.83 341.04 289.53 341.04 C295.74 341.04 301.95 341.03 308.16 341.02 C323.6 341.01 339.04 341 354.48 340.98 C355.18 340.98 355.88 340.98 356.61 340.98 C390.81 340.95 425 340.92 459.2 340.89 C471.07 340.88 482.94 340.87 494.8 340.86 C495.54 340.86 496.28 340.86 497.03 340.86 C531.25 340.83 565.47 340.8 599.69 340.77 C601.91 340.76 604.13 340.76 606.35 340.76 C621.07 340.75 635.79 340.73 650.51 340.72 C679.81 340.69 709.1 340.66 738.39 340.64 C739.79 340.64 741.18 340.64 742.58 340.63 C829.45 340.55 916.32 340.48 1020.97 340.39 C1021 336.32 1021.02 332.25 1021.03 328.19 C1021.04 326.81 1021.05 325.43 1021.06 324.05 C1021.21 303.55 1019.28 284 1005.97 267.39 C1004.64 266.72 1003.3 266.05 1001.97 265.39 C1001.27 264.07 1000.61 262.74 999.97 261.39 C998.14 259.46 998.14 259.46 996.03 257.7 C995 256.8 995 256.8 993.94 255.88 C990.9 253.58 987.65 253.09 983.97 252.39 C983.97 251.73 983.97 251.07 983.97 250.39 C982.97 249.99 982.97 249.99 981.96 249.59 C977.63 247.86 973.3 246.12 968.97 244.39 C968.97 244.06 968.97 243.73 968.97 243.39 C967.54 243.39 967.54 243.39 966.07 243.39 C909.53 243.31 852.98 243.22 796.43 243.11 C789.64 243.1 782.86 243.09 776.07 243.07 C775.4 243.07 774.72 243.07 774.03 243.07 C752.13 243.03 730.24 243 708.34 242.97 C685.21 242.94 662.08 242.9 638.95 242.85 C625.09 242.82 611.22 242.8 597.36 242.78 C587.87 242.77 578.37 242.76 568.87 242.73 C563.39 242.72 557.9 242.71 552.42 242.71 C547.4 242.71 542.39 242.7 537.37 242.68 C535.55 242.67 533.73 242.67 531.91 242.67 C529.45 242.68 526.98 242.67 524.52 242.65 C523.81 242.66 523.09 242.66 522.35 242.66 C518.69 242.63 516.11 242.31 512.97 240.39 C510.98 240.02 510.98 240.02 508.97 239.89 C505.85 239.57 503.75 238.88 500.97 237.39 C499.65 237.39 498.33 237.39 496.97 237.39 C496.97 236.73 496.97 236.07 496.97 235.39 C495.32 235.39 493.67 235.39 491.97 235.39 C491.97 234.73 491.97 234.07 491.97 233.39 C490.69 233.31 489.41 233.23 488.09 233.14 C485.86 232.87 485.86 232.87 483.97 232.39 C482.91 230.52 482.91 230.52 481.97 228.39 C480.31 227.7 478.65 227.01 476.97 226.37 C472.21 224.05 468.44 219.9 464.78 216.14 C462.7 214.14 460.44 212.86 457.97 211.39 C457.64 210.73 457.31 210.07 456.97 209.39 C455.98 209.39 454.99 209.39 453.97 209.39 C453.74 208.48 453.51 207.58 453.28 206.64 C451.75 202.86 450.24 201.73 446.97 199.39 C444.47 197.05 442.24 194.56 440.03 191.95 C437.46 188.94 434.89 186.07 431.97 183.39 C431.31 183.39 430.65 183.39 429.97 183.39 C429.7 182.8 429.43 182.21 429.16 181.59 C427.95 179.36 426.73 177.93 424.93 176.16 C424.31 175.55 423.7 174.94 423.07 174.32 C422.41 173.67 421.74 173.03 421.06 172.36 C420.38 171.69 419.7 171.02 419 170.32 C416.83 168.17 414.65 166.03 412.47 163.89 C409.6 161.08 406.73 158.25 403.87 155.42 C403.21 154.78 402.55 154.13 401.87 153.47 C401.26 152.86 400.64 152.25 400.01 151.63 C399.2 150.83 399.2 150.83 398.37 150.02 C396.85 148.26 395.99 146.48 394.97 144.39 C393.64 143.38 392.31 142.39 390.97 141.39 C390.07 140.35 389.2 139.28 388.34 138.2 C387.56 137.28 386.78 136.35 385.97 135.39 C385.31 135.39 384.65 135.39 383.97 135.39 C383.75 134.85 383.53 134.3 383.31 133.74 C381.52 130.6 379.08 128.28 376.52 125.78 C375.71 124.98 375.71 124.98 374.89 124.16 C373.17 122.46 371.44 120.77 369.72 119.08 C367.46 116.86 365.2 114.63 362.95 112.4 C362.42 111.87 361.88 111.34 361.33 110.8 C358.51 108 355.83 105.16 353.3 102.1 C352.53 101.21 351.76 100.31 350.97 99.39 C350.31 99.39 349.65 99.39 348.97 99.39 C348.64 98.4 348.31 97.41 347.97 96.39 C347.31 96.39 346.65 96.39 345.97 96.39 C345.97 95.73 345.97 95.07 345.97 94.39 C345.31 94.39 344.65 94.39 343.97 94.39 C343.6 93.59 343.6 93.59 343.22 92.77 C339.73 86.14 335.14 81.26 329.84 76.02 C328.75 74.91 328.75 74.91 327.64 73.79 C326.94 73.09 326.24 72.4 325.52 71.68 C324.89 71.05 324.25 70.42 323.6 69.77 C322.07 68.18 322.07 68.18 319.97 68.39 C319.7 67.8 319.44 67.21 319.16 66.6 C317.16 62.9 314.12 60.22 311.16 57.27 C310.23 56.32 310.23 56.32 309.29 55.35 C305.98 52.04 303.44 49.95 298.97 48.39 C298.31 47.4 297.65 46.41 296.97 45.39 C294.38 45.14 294.38 45.14 291.97 45.39 C291.97 44.73 291.97 44.07 291.97 43.39 C290.55 42.88 289.14 42.39 287.72 41.89 C286.93 41.61 286.14 41.34 285.33 41.05 C282.73 40.21 282.73 40.21 278.97 40.39 C278.64 39.73 278.31 39.07 277.97 38.39 C271.7 38.06 265.43 37.73 258.97 37.39 C258.97 36.73 258.97 36.07 258.97 35.39 C224.61 35.35 190.26 35.31 155.91 35.29 C151.85 35.29 147.79 35.28 143.73 35.28 C142.52 35.28 142.52 35.28 141.29 35.28 C128.21 35.27 115.14 35.26 102.07 35.24 C88.65 35.22 75.24 35.21 61.82 35.2 C53.54 35.2 45.26 35.19 36.99 35.18 C31.31 35.17 25.63 35.16 19.95 35.17 C16.68 35.17 13.4 35.16 10.13 35.15 C6.57 35.14 3.02 35.15 -0.54 35.15 C-1.57 35.15 -2.59 35.14 -3.65 35.13 C-9.23 35.16 -14.37 35.67 -19.82 36.93 Z M505.97 238.39 C505.97 238.72 505.97 239.05 505.97 239.39 C507.95 239.39 509.93 239.39 511.97 239.39 C511.97 239.06 511.97 238.73 511.97 238.39 C509.99 238.39 508.01 238.39 505.97 238.39 Z M1050.97 280.39 C1051.97 282.39 1051.97 282.39 1051.97 282.39 Z M1127.97 374.39 C1128.97 376.39 1128.97 376.39 1128.97 376.39 Z M-18.03 379.39 C-17.03 381.39 -17.03 381.39 -17.03 381.39 Z M1135.97 393.39 C1135.97 397.02 1135.97 400.65 1135.97 404.39 C1136.3 404.39 1136.63 404.39 1136.97 404.39 C1136.97 400.76 1136.97 397.13 1136.97 393.39 C1136.64 393.39 1136.31 393.39 1135.97 393.39 Z M1135.97 410.39 C1135.97 416 1135.97 421.61 1135.97 427.39 C1136.3 427.39 1136.63 427.39 1136.97 427.39 C1136.97 421.78 1136.97 416.17 1136.97 410.39 C1136.64 410.39 1136.31 410.39 1135.97 410.39 Z M796.97 447.39 C794.52 447.67 792.06 447.88 789.59 448.02 C787.73 448.13 787.73 448.13 785.82 448.24 C784.88 448.29 783.94 448.34 782.97 448.39 C782.97 449.05 782.97 449.71 782.97 450.39 C780 450.39 777.03 450.39 773.97 450.39 C773.97 451.05 773.97 451.71 773.97 452.39 C773.34 452.43 772.71 452.47 772.06 452.51 C767.08 452.89 762.81 453.58 758.19 455.49 C755.33 456.65 752.41 457.61 749.47 458.58 C748.43 458.92 747.39 459.27 746.31 459.62 C745.54 459.88 744.77 460.13 743.97 460.39 C743.97 461.05 743.97 461.71 743.97 462.39 C742.75 462.52 741.53 462.64 740.28 462.77 C736.9 463.18 734.07 463.94 730.97 465.39 C730.97 466.05 730.97 466.71 730.97 467.39 C726.02 468.88 726.02 468.88 720.97 470.39 C720.97 471.05 720.97 471.71 720.97 472.39 C720.25 472.52 719.52 472.64 718.78 472.77 C714.36 473.75 710.93 474.84 707.97 478.39 C707.47 479.38 707.47 479.38 706.97 480.39 C705.98 480.39 704.99 480.39 703.97 480.39 C703.97 481.05 703.97 481.71 703.97 482.39 C703.1 482.62 702.24 482.85 701.34 483.08 C697.46 484.59 695.09 486.67 691.97 489.39 C691.19 489.84 690.4 490.28 689.6 490.74 C686.58 492.63 684.42 494.82 681.97 497.39 C678.8 500.71 675.91 503.08 671.97 505.39 C670.7 506.56 669.47 507.77 668.28 509.02 C665.16 512.3 665.16 512.3 662.97 513.39 C662.7 514.14 662.43 514.88 662.15 515.65 C660.28 520 656.81 522.61 653.38 525.79 C650.86 528.51 649.49 531.03 647.97 534.39 C646.34 536.77 646.34 536.77 644.97 538.39 C643.64 538.39 642.3 538.39 640.97 538.39 C641.17 538.93 641.38 539.46 641.59 540.02 C642.1 543.22 641.12 545.41 639.97 548.39 C639.31 548.39 638.65 548.39 637.97 548.39 C637.7 549.53 637.43 550.66 637.16 551.83 C636.76 553.01 636.37 554.18 635.97 555.39 C634.48 555.89 634.48 555.89 632.97 556.39 C631.94 558.65 631.94 558.65 631.28 561.33 C631.03 562.23 630.78 563.12 630.52 564.04 C629.89 566.31 629.89 566.31 629.97 568.39 C629.31 568.39 628.65 568.39 627.97 568.39 C626.99 570.82 626.02 573.24 625.05 575.67 C624.41 577.28 623.76 578.89 623.11 580.49 C621.28 585.05 620.24 589.55 619.4 594.39 C618.97 596.39 618.97 596.39 617.97 597.39 C617.93 599.39 617.93 601.39 617.97 603.39 C617.31 603.39 616.65 603.39 615.97 603.39 C615.84 604.32 615.7 605.25 615.57 606.2 C615.3 608 615.3 608 615.03 609.83 C614.86 611.02 614.68 612.22 614.5 613.45 C613.97 616.39 613.97 616.39 612.97 617.39 C612.76 619.9 612.59 622.38 612.47 624.89 C612.1 632.26 612.1 632.26 610.97 633.39 C610.87 634.73 610.84 636.07 610.84 637.41 C610.84 638.27 610.84 639.14 610.83 640.03 C610.83 640.99 610.84 641.94 610.84 642.93 C610.84 643.93 610.84 644.93 610.83 645.96 C610.83 649.29 610.83 652.62 610.84 655.95 C610.83 658.25 610.83 660.56 610.83 662.86 C610.83 667.69 610.83 672.53 610.84 677.36 C610.84 683.57 610.84 689.78 610.83 695.99 C610.83 700.75 610.83 705.51 610.83 710.27 C610.84 712.56 610.83 714.85 610.83 717.14 C610.83 720.33 610.83 723.53 610.84 726.73 C610.84 727.68 610.83 728.63 610.83 729.62 C610.84 730.49 610.84 731.35 610.84 732.25 C610.84 733 610.84 733.76 610.84 734.54 C610.86 736.49 610.86 736.49 611.97 738.39 C619.89 738.39 627.81 738.39 635.97 738.39 C636.01 734.19 636.01 734.19 636.04 729.91 C636.13 720.63 636.22 711.36 636.31 702.09 C636.36 696.47 636.42 690.85 636.47 685.23 C636.51 679.81 636.57 674.38 636.62 668.95 C636.64 666.88 636.66 664.82 636.68 662.75 C636.7 659.85 636.73 656.95 636.76 654.04 C636.77 653.2 636.77 652.35 636.78 651.48 C636.85 646.06 637.28 640.76 637.97 635.39 C638.05 634.73 638.13 634.06 638.22 633.38 C638.46 631.46 638.71 629.55 638.97 627.64 C639.13 626.39 639.3 625.14 639.47 623.85 C639.77 621.77 640.11 619.7 640.53 617.65 C641.07 614.87 641.03 612.22 640.97 609.39 C641.63 609.39 642.29 609.39 642.97 609.39 C643.3 605.76 643.63 602.13 643.97 598.39 C644.63 598.39 645.29 598.39 645.97 598.39 C646.11 597.48 646.26 596.58 646.41 595.64 C646.83 593.17 647.34 590.81 647.97 588.39 C648.31 586.73 648.64 585.06 648.97 583.39 C649.63 583.39 650.29 583.39 650.97 583.39 C652.39 579.4 653.37 575.59 653.97 571.39 C654.63 571.39 655.29 571.39 655.97 571.39 C656.24 570.81 656.5 570.24 656.78 569.64 C657.97 567.39 657.97 567.39 659.53 565.39 C661.01 563.33 661.38 561.82 661.97 559.39 C662.63 559.06 663.29 558.73 663.97 558.39 C663.97 556.74 663.97 555.09 663.97 553.39 C664.57 553.19 665.16 552.98 665.78 552.77 C668.19 551.52 668.19 551.52 669.22 548.77 C671.31 544.74 673.97 542.33 677.32 539.32 C679.4 537.31 679.4 537.31 678.97 533.39 C679.52 533.17 680.07 532.95 680.63 532.73 C684.26 530.65 686.88 527.56 689.73 524.56 C692.89 521.29 696.17 518.87 699.97 516.39 C701.19 515.22 702.39 514.02 703.53 512.77 C706.2 510.01 708.27 508.59 711.97 507.39 C713.31 506.4 714.65 505.41 715.97 504.39 C716.96 504.06 717.95 503.73 718.97 503.39 C719.55 502.78 720.13 502.16 720.73 501.53 C723.49 498.89 726.24 497.67 729.72 496.14 C730.89 495.62 732.06 495.1 733.27 494.56 C734.6 493.98 734.6 493.98 735.97 493.39 C735.97 492.73 735.97 492.07 735.97 491.39 C737.3 491.24 737.3 491.24 738.66 491.08 C742.06 490.37 744.06 489.23 746.97 487.39 C749.28 486.7 749.28 486.7 750.97 486.39 C750.97 485.73 750.97 485.07 750.97 484.39 C751.55 484.62 752.12 484.85 752.72 485.08 C753.46 485.18 754.2 485.29 754.97 485.39 C755.57 484.93 756.16 484.46 756.78 483.99 C759.3 482.15 761.16 481.73 764.22 481.2 C765.11 481.05 766 480.89 766.92 480.72 C767.6 480.61 768.27 480.51 768.97 480.39 C768.97 479.73 768.97 479.07 768.97 478.39 C770.48 478.45 770.48 478.45 772.03 478.52 C776.05 478.39 779.14 477.56 782.97 476.39 C785.3 476.02 787.63 475.68 789.97 475.39 C789.97 474.73 789.97 474.07 789.97 473.39 C790.97 473.4 791.97 473.42 793 473.43 C794.29 473.44 795.58 473.45 796.91 473.45 C798.19 473.47 799.48 473.48 800.81 473.49 C803.83 473.76 803.83 473.76 804.97 472.39 C813.81 471.09 822.82 471.24 831.74 471.26 C833.97 471.27 836.19 471.26 838.41 471.26 C858.86 471.24 858.86 471.24 866.97 473.39 C868.8 473.7 870.62 474 872.45 474.29 C885.12 476.36 897.82 479.28 909.63 484.4 C911.66 485.26 913.69 486.02 915.75 486.77 C919.91 488.32 923.83 490.19 927.78 492.2 C928.82 492.73 928.82 492.73 929.88 493.26 C950.28 503.63 950.28 503.63 955.41 508.89 C957.82 511.25 960.06 512.53 963 514.09 C966.41 516.35 969.07 519.39 971.86 522.37 C973.86 524.28 975.51 525.21 977.97 526.39 C978.99 528.04 979.99 529.71 980.97 531.39 C983.22 533.77 985.56 536.02 987.96 538.24 C992.36 542.43 994.95 545.67 996.97 551.39 C997.63 552.38 998.29 553.37 998.97 554.39 C999.3 554.06 999.63 553.73 999.97 553.39 C1007.07 565.1 1014.03 577.23 1017.97 590.39 C1018.34 591.44 1018.71 592.5 1019.09 593.58 C1020 596.51 1020.54 599.36 1020.97 602.39 C1021.63 602.39 1022.29 602.39 1022.97 602.39 C1023.1 603.4 1023.24 604.42 1023.37 605.46 C1023.93 609.13 1024.67 612.7 1025.47 616.33 C1026.78 622.7 1027.42 628.89 1027.68 635.38 C1027.53 638.67 1027.53 638.67 1028.97 641.39 C1030.38 650.8 1030.16 660.48 1030.23 669.97 C1030.25 672.7 1030.28 675.43 1030.31 678.17 C1030.37 684.94 1030.43 691.71 1030.49 698.48 C1030.55 704.23 1030.6 709.99 1030.66 715.74 C1030.69 718.43 1030.71 721.13 1030.73 723.82 C1030.74 725.46 1030.76 727.1 1030.78 728.74 C1030.78 729.49 1030.79 730.24 1030.79 731.01 C1030.77 734.83 1030.77 734.83 1031.97 738.39 C1039.89 738.39 1047.81 738.39 1055.97 738.39 C1055.99 725.5 1056.01 712.61 1056.02 699.72 C1056.03 693.73 1056.03 687.75 1056.04 681.76 C1056.05 675.99 1056.06 670.22 1056.06 664.45 C1056.07 662.25 1056.07 660.04 1056.07 657.83 C1056.08 654.75 1056.08 651.67 1056.08 648.59 C1056.09 647.67 1056.09 646.75 1056.09 645.8 C1056.49 641.78 1056.49 641.78 1054.97 638.39 C1054.77 636.96 1054.62 635.53 1054.5 634.09 C1054.39 632.75 1054.39 632.75 1054.27 631.39 C1054.19 630.44 1054.11 629.5 1054.03 628.52 C1052.69 613.32 1052.69 613.32 1048.53 598.7 C1047.43 595.84 1046.63 593.08 1046.03 590.08 C1044.02 580.46 1039.8 571.4 1035.97 562.39 C1035.31 562.39 1034.65 562.39 1033.97 562.39 C1033.81 561.32 1033.81 561.32 1033.64 560.22 C1031.78 552.39 1026.33 545.11 1021.97 538.39 C1021.45 537.57 1020.93 536.75 1020.39 535.9 C1019.86 535.07 1019.33 534.24 1018.78 533.39 C1018.29 532.63 1017.8 531.87 1017.3 531.08 C1016.86 530.52 1016.42 529.97 1015.97 529.39 C1015.31 529.39 1014.65 529.39 1013.97 529.39 C1013.57 528 1013.57 528 1013.16 526.58 C1012.06 523.63 1011.43 522.24 1008.97 520.39 C1008.31 520.39 1007.65 520.39 1006.97 520.39 C1006.76 519.86 1006.56 519.32 1006.34 518.77 C1004.44 515.47 1001.92 512.8 998.97 510.39 C998.31 510.39 997.65 510.39 996.97 510.39 C996.63 509.56 996.63 509.56 996.28 508.7 C994.59 505.73 992.5 503.67 989.97 501.39 C989.31 501.39 988.65 501.39 987.97 501.39 C987.57 500.43 987.57 500.43 987.16 499.45 C986.08 497.06 986.08 497.06 982.97 496.39 C982.97 495.4 982.97 494.41 982.97 493.39 C981.94 493 980.91 492.61 979.84 492.2 C976.65 490.83 974.2 489.11 971.58 486.79 C969.7 485.16 967.76 483.65 965.78 482.14 C965.13 481.64 964.47 481.14 963.8 480.63 C961.88 479.21 961.88 479.21 958.97 478.39 C956.95 477.09 954.95 475.75 952.97 474.39 C950.17 472.38 950.17 472.38 947.59 471.45 C944.97 470.39 944.97 470.39 942.28 468.77 C940.13 467.22 940.13 467.22 937.97 467.39 C937.64 466.73 937.31 466.07 936.97 465.39 C935.32 465.39 933.67 465.39 931.97 465.39 C931.97 464.73 931.97 464.07 931.97 463.39 C931 463.14 930.03 462.9 929.03 462.64 C925.2 461.56 921.68 459.99 918.08 458.29 C916.05 457.43 914.11 456.89 911.97 456.39 C910.3 455.73 908.64 455.06 906.97 454.39 C903.31 453.41 899.6 452.67 895.89 451.89 C893.97 451.39 893.97 451.39 892.97 450.39 C891.45 450.32 889.93 450.31 888.41 450.33 C887.58 450.34 886.75 450.35 885.9 450.36 C884.94 450.37 884.94 450.37 883.97 450.39 C883.64 449.73 883.31 449.07 882.97 448.39 C880.31 447.94 877.71 447.6 875.03 447.33 C867.2 446.51 867.2 446.51 864.97 445.39 C863.03 445.29 861.09 445.25 859.15 445.25 C857.92 445.24 856.7 445.23 855.44 445.23 C854.1 445.23 852.76 445.22 851.42 445.22 C850.05 445.22 848.68 445.22 847.3 445.21 C844.42 445.21 841.54 445.21 838.66 445.21 C834.97 445.21 831.29 445.19 827.61 445.18 C824.77 445.16 821.93 445.16 819.1 445.16 C817.08 445.16 815.06 445.15 813.05 445.14 C811.82 445.14 810.58 445.15 809.31 445.15 C807.69 445.15 807.69 445.15 806.03 445.14 C802.73 445.41 800.08 446.28 796.97 447.39 Z M705.97 476.39 C706.3 477.05 706.63 477.71 706.97 478.39 C707.3 477.73 707.63 477.07 707.97 476.39 C707.31 476.39 706.65 476.39 705.97 476.39 Z M690.97 487.39 C691.97 489.39 691.97 489.39 691.97 489.39 Z M677.97 496.39 C677.97 497.05 677.97 497.71 677.97 498.39 C677.31 498.39 676.65 498.39 675.97 498.39 C676.3 499.05 676.63 499.71 676.97 500.39 C677.63 500.06 678.29 499.73 678.97 499.39 C678.64 498.4 678.31 497.41 677.97 496.39 Z M657.97 516.39 C658.97 518.39 658.97 518.39 658.97 518.39 Z M669.97 546.39 C670.97 548.39 670.97 548.39 670.97 548.39 Z M583.97 775.39 C583.97 776.05 583.97 776.71 583.97 777.39 C582.14 777.58 582.14 777.58 580.28 777.77 C576.9 778.2 574.01 778.78 570.97 780.39 C569.98 781.88 569.98 781.88 568.97 783.39 C566.84 784.08 566.84 784.08 564.97 784.39 C564.97 785.05 564.97 785.71 564.97 786.39 C564.38 786.62 563.8 786.86 563.19 787.1 C557.62 790.34 553.21 798.49 550.97 804.39 C550.36 807.55 549.84 810.7 549.4 813.88 C548.97 816.39 548.97 816.39 547.97 817.39 C547.87 819.03 547.84 820.67 547.84 822.31 C547.84 823.38 547.83 824.45 547.83 825.56 C547.83 826.75 547.83 827.94 547.83 829.17 C547.83 830.43 547.83 831.68 547.83 832.97 C547.82 836.47 547.82 839.97 547.82 843.47 C547.82 847.24 547.82 851.01 547.81 854.78 C547.8 862.17 547.8 869.56 547.8 876.95 C547.8 882.95 547.8 888.96 547.8 894.96 C547.79 911.98 547.78 928.99 547.78 946 C547.78 946.92 547.78 947.84 547.78 948.78 C547.78 949.7 547.78 950.62 547.78 951.57 C547.78 966.47 547.77 981.36 547.76 996.26 C547.75 1011.54 547.74 1026.82 547.74 1042.1 C547.74 1050.68 547.74 1059.27 547.73 1067.85 C547.72 1075.16 547.72 1082.47 547.72 1089.78 C547.73 1093.52 547.73 1097.25 547.72 1100.98 C547.71 1105.02 547.71 1109.06 547.72 1113.1 C547.72 1114.29 547.71 1115.47 547.71 1116.69 C547.71 1117.77 547.71 1118.85 547.72 1119.97 C547.72 1120.9 547.72 1121.84 547.72 1122.8 C547.99 1125.66 548.82 1127.77 549.97 1130.39 C550.24 1131.44 550.5 1132.5 550.78 1133.58 C554.2 1144.56 560.97 1154.6 571.05 1160.64 C573.22 1161.49 575.37 1162.26 577.59 1162.95 C578.76 1163.33 578.76 1163.33 579.94 1163.71 C590.62 1166.12 601.74 1165.54 612.61 1165.53 C614.62 1165.54 616.64 1165.54 618.65 1165.54 C624.17 1165.55 629.68 1165.55 635.2 1165.55 C641.15 1165.55 647.11 1165.56 653.06 1165.57 C666.75 1165.58 680.44 1165.59 694.12 1165.59 C700.89 1165.6 707.66 1165.6 714.42 1165.6 C737.59 1165.62 760.75 1165.63 783.92 1165.63 C785.37 1165.63 786.82 1165.63 788.28 1165.63 C789.73 1165.63 791.19 1165.63 792.64 1165.63 C795.57 1165.63 798.49 1165.63 801.41 1165.63 C802.49 1165.63 802.49 1165.63 803.6 1165.63 C827.11 1165.64 850.61 1165.65 874.12 1165.68 C898.98 1165.7 923.84 1165.71 948.7 1165.72 C951.43 1165.72 954.15 1165.72 956.88 1165.72 C957.55 1165.72 958.22 1165.72 958.92 1165.72 C969.73 1165.72 980.54 1165.73 991.35 1165.74 C1002.21 1165.76 1013.07 1165.76 1023.93 1165.75 C1029.82 1165.75 1035.7 1165.75 1041.59 1165.76 C1046.97 1165.78 1052.35 1165.77 1057.74 1165.76 C1059.69 1165.76 1061.64 1165.76 1063.59 1165.77 C1066.24 1165.78 1068.88 1165.78 1071.53 1165.76 C1072.29 1165.77 1073.05 1165.78 1073.83 1165.79 C1079.03 1165.74 1082.38 1164.59 1086.97 1162.39 C1088.23 1162.06 1089.48 1161.73 1090.78 1161.39 C1094.23 1160.68 1094.23 1160.68 1095.97 1157.39 C1096.71 1157.31 1097.45 1157.23 1098.22 1157.14 C1101.97 1156.12 1103.3 1153.99 1105.64 1150.99 C1106.97 1149.39 1106.97 1149.39 1108.97 1148.39 C1108.97 1146.74 1108.97 1145.09 1108.97 1143.39 C1109.63 1143.39 1110.29 1143.39 1110.97 1143.39 C1110.97 1142.73 1110.97 1142.07 1110.97 1141.39 C1111.63 1141.39 1112.29 1141.39 1112.97 1141.39 C1114.32 1138.68 1114.03 1136.38 1113.97 1133.39 C1114.63 1133.39 1115.29 1133.39 1115.97 1133.39 C1117.86 1125.74 1118.25 1118.48 1118.22 1110.62 C1118.22 1108.74 1118.22 1108.74 1118.22 1106.82 C1118.23 1103.37 1118.22 1099.91 1118.22 1096.46 C1118.21 1092.73 1118.21 1088.99 1118.22 1085.26 C1118.22 1077.96 1118.22 1070.66 1118.21 1063.36 C1118.2 1054.86 1118.2 1046.36 1118.2 1037.86 C1118.2 1022.7 1118.19 1007.54 1118.17 992.38 C1118.16 977.66 1118.15 962.95 1118.15 948.23 C1118.15 946.87 1118.15 946.87 1118.15 945.48 C1118.15 944.57 1118.15 943.66 1118.15 942.73 C1118.15 925.98 1118.15 909.22 1118.14 892.47 C1118.14 886.54 1118.14 880.61 1118.14 874.68 C1118.13 867.46 1118.13 860.24 1118.12 853.03 C1118.12 849.34 1118.11 845.66 1118.11 841.98 C1118.12 837.99 1118.11 834.01 1118.1 830.02 C1118.1 828.85 1118.11 827.67 1118.11 826.46 C1118.1 824.87 1118.1 824.87 1118.1 823.25 C1118.1 822.33 1118.1 821.41 1118.09 820.46 C1118.2 818.4 1118.2 818.4 1116.97 817.39 C1116.81 815.5 1116.69 813.6 1116.59 811.7 C1116.23 806.9 1115.59 803.52 1112.97 799.39 C1112.49 798.55 1112.02 797.7 1111.53 796.83 C1109.83 794.18 1108.06 791.75 1105.97 789.39 C1105.31 789.39 1104.65 789.39 1103.97 789.39 C1103.97 788.73 1103.97 788.07 1103.97 787.39 C1101.99 785.7 1099.99 784.04 1097.97 782.39 C1097.64 781.73 1097.31 781.07 1096.97 780.39 C1095.32 780.39 1093.67 780.39 1091.97 780.39 C1091.97 779.73 1091.97 779.07 1091.97 778.39 C1088.01 777.9 1088.01 777.9 1083.97 777.39 C1083.97 776.73 1083.97 776.07 1083.97 775.39 C918.97 775.39 753.97 775.39 583.97 775.39 Z M550.97 798.39 C551.97 801.39 551.97 801.39 551.97 801.39 Z M550.97 1137.39 C551.97 1139.39 551.97 1139.39 551.97 1139.39 Z M1145.97 1149.39 C1146.97 1151.39 1146.97 1151.39 1146.97 1151.39 Z M1141.97 1158.39 C1141.97 1159.38 1141.97 1160.37 1141.97 1161.39 C1142.63 1160.73 1143.29 1160.07 1143.97 1159.39 C1143.31 1159.06 1142.65 1158.73 1141.97 1158.39 Z " fill="#53A2F8" transform="translate(121.03158378601074,38.60782599449158)"/>
<path d="M0 0 C1.08 -0 1.08 -0 2.18 -0 C4.58 -0.01 6.98 -0.01 9.38 -0 C11.13 -0 12.88 -0.01 14.62 -0.01 C19.44 -0.01 24.26 -0.01 29.08 -0.01 C34.32 -0.01 39.55 -0.01 44.79 -0.01 C53.97 -0.02 63.15 -0.02 72.34 -0.02 C85.99 -0.02 99.65 -0.02 113.3 -0.03 C139.11 -0.04 164.91 -0.04 190.72 -0.04 C193.56 -0.04 196.41 -0.04 199.25 -0.04 C200.31 -0.04 200.31 -0.04 201.39 -0.04 C217.05 -0.04 232.7 -0.04 248.35 -0.05 C254.79 -0.05 261.24 -0.05 267.68 -0.05 C268.4 -0.05 269.11 -0.05 269.84 -0.05 C310.65 -0.06 351.45 -0.06 392.26 -0.06 C393.79 -0.06 395.31 -0.06 396.84 -0.06 C403.74 -0.06 410.63 -0.06 417.53 -0.06 C420.6 -0.06 423.67 -0.06 426.75 -0.06 C428.29 -0.06 429.83 -0.06 431.37 -0.06 C480.03 -0.06 528.69 -0.07 577.36 -0.08 C589.62 -0.08 601.88 -0.09 614.14 -0.09 C615.27 -0.09 615.27 -0.09 616.43 -0.09 C639.7 -0.1 662.96 -0.1 686.23 -0.1 C686.96 -0.1 687.69 -0.1 688.44 -0.1 C704.48 -0.1 720.52 -0.1 736.55 -0.1 C742.29 -0.1 748.03 -0.1 753.77 -0.1 C755.19 -0.1 756.62 -0.1 758.05 -0.1 C780.8 -0.1 803.54 -0.11 826.29 -0.12 C849.83 -0.13 873.38 -0.13 896.93 -0.12 C910.5 -0.12 924.08 -0.12 937.66 -0.13 C946.72 -0.13 955.79 -0.13 964.85 -0.13 C970.02 -0.12 975.19 -0.12 980.36 -0.13 C985.06 -0.14 989.76 -0.13 994.46 -0.13 C996.15 -0.12 997.84 -0.12 999.53 -0.13 C1027.61 -0.21 1027.61 -0.21 1037.66 9.17 C1045.57 17.63 1048.85 25.41 1048.74 36.92 C1048.3 46.24 1046.22 55.49 1044.56 64.65 C1044.15 66.96 1043.74 69.27 1043.33 71.58 C1042.25 77.66 1041.16 83.73 1040.07 89.81 C1038.98 95.85 1037.91 101.9 1036.84 107.94 C1034.59 120.61 1032.32 133.26 1030.04 145.92 C1029.12 151.05 1028.2 156.17 1027.28 161.3 C1025.68 170.24 1024.07 179.18 1022.47 188.13 C1021.81 188.13 1021.15 188.13 1020.47 188.13 C1020.47 187.47 1020.47 186.81 1020.47 186.13 C1019.81 186.13 1019.15 186.13 1018.47 186.13 C1018.24 185.58 1018.01 185.03 1017.77 184.47 C1009.34 164.65 999 145.94 985.47 129.13 C984.58 127.95 984.58 127.95 983.67 126.76 C974.56 114.9 963.93 103.73 952.47 94.13 C951.69 93.48 950.92 92.83 950.13 92.16 C937.67 81.96 924.69 73.62 910.47 66.13 C909.46 65.59 909.46 65.59 908.43 65.04 C891.56 56.1 873.8 49.4 855.47 44.13 C854.71 43.9 853.94 43.68 853.16 43.45 C829.57 36.66 804.53 33.9 780.03 33.88 C779.31 33.88 778.6 33.88 777.86 33.87 C707.4 33.98 638.23 60.25 588.09 110.13 C580.54 117.7 573.51 125.28 567.47 134.13 C566.52 135.45 565.58 136.78 564.64 138.1 C552.28 155.77 542.89 174.92 535.47 195.13 C535.01 196.32 534.55 197.52 534.08 198.76 C522.37 231.23 520.46 265.95 520.15 300.13 C520.13 302.08 520.11 304.03 520.09 305.98 C520.03 311.04 519.98 316.1 519.93 321.16 C519.88 326.35 519.83 331.53 519.77 336.72 C519.67 346.86 519.57 356.99 519.47 367.13 C518.38 367.52 517.3 367.92 516.19 368.33 C514.74 368.86 513.3 369.39 511.86 369.93 C511.15 370.19 510.44 370.45 509.7 370.71 C490.86 377.71 475.91 391.43 467.15 409.56 C462.24 420.93 459.36 431.85 459.26 444.26 C459.25 445.44 459.25 445.44 459.23 446.63 C459.2 449.19 459.18 451.75 459.15 454.31 C459.13 456.09 459.11 457.88 459.09 459.66 C459.03 464.34 458.98 469.02 458.93 473.69 C458.88 478.47 458.83 483.25 458.77 488.03 C458.67 497.4 458.56 506.76 458.47 516.13 C402.17 516.18 345.86 516.23 289.56 516.25 C288.73 516.25 287.9 516.25 287.04 516.25 C268.94 516.26 250.85 516.27 232.75 516.28 C223.88 516.28 215 516.29 206.13 516.29 C205.25 516.29 204.36 516.29 203.45 516.29 C174.81 516.31 146.17 516.33 117.52 516.36 C88.1 516.38 58.67 516.4 29.25 516.41 C25.1 516.41 20.94 516.41 16.79 516.41 C15.57 516.41 15.57 516.41 14.31 516.41 C1.14 516.42 -12.04 516.43 -25.22 516.45 C-38.45 516.46 -51.68 516.47 -64.92 516.47 C-72.79 516.46 -80.66 516.47 -88.53 516.49 C-94.4 516.5 -100.26 516.5 -106.13 516.49 C-108.51 516.49 -110.89 516.49 -113.27 516.5 C-116.49 516.51 -119.71 516.51 -122.93 516.5 C-123.87 516.5 -124.81 516.51 -125.78 516.52 C-127.06 516.51 -127.06 516.51 -128.37 516.5 C-129.11 516.5 -129.84 516.5 -130.6 516.5 C-133.11 516.02 -134.01 515.14 -135.53 513.13 C-135.99 504.88 -134 496.38 -132.31 488.34 C-132.09 487.25 -131.87 486.17 -131.64 485.05 C-131.17 482.73 -130.69 480.41 -130.21 478.1 C-128.94 471.95 -127.7 465.79 -126.45 459.63 C-126.2 458.4 -125.95 457.16 -125.69 455.89 C-123.44 444.74 -121.33 433.57 -119.28 422.38 C-116.7 408.29 -114.01 394.23 -111.14 380.19 C-109.24 370.87 -107.47 361.52 -105.73 352.17 C-103.65 341.04 -101.54 329.92 -99.38 318.82 C-99.24 318.13 -99.11 317.45 -98.97 316.75 C-98.28 313.2 -97.59 309.66 -96.9 306.12 C-95.37 298.29 -93.84 290.45 -92.32 282.62 C-92.08 281.41 -92.08 281.41 -91.84 280.18 C-88.5 262.99 -85.2 245.79 -81.91 228.59 C-77.23 204.14 -72.53 179.69 -67.78 155.25 C-67.65 154.56 -67.51 153.86 -67.37 153.14 C-63.46 132.96 -59.51 112.79 -55.54 92.61 C-53.48 82.14 -51.43 71.67 -49.47 61.19 C-49.22 59.9 -49.22 59.9 -48.98 58.58 C-48.24 54.63 -47.5 50.69 -46.78 46.74 C-41.15 16.34 -41.15 16.34 -29.53 7.13 C-20.33 1.42 -10.67 0 0 0 Z " fill="#7CEAFF" transform="translate(175.53287386894226,413.8735001683235)"/>
<path d="M0 0 C0.77 -0 1.54 -0.01 2.34 -0.01 C4.92 -0.02 7.51 -0.02 10.09 -0.01 C11.97 -0.02 13.84 -0.02 15.71 -0.03 C20.86 -0.04 26 -0.05 31.15 -0.05 C36.7 -0.05 42.25 -0.06 47.8 -0.07 C59.93 -0.09 72.06 -0.1 84.19 -0.11 C91.77 -0.11 99.34 -0.12 106.91 -0.12 C127.88 -0.14 148.85 -0.16 169.81 -0.16 C170.48 -0.16 171.15 -0.16 171.85 -0.16 C174.56 -0.16 177.28 -0.16 180 -0.16 C182.04 -0.16 184.08 -0.17 186.13 -0.17 C186.8 -0.17 187.48 -0.17 188.18 -0.17 C209.41 -0.17 230.65 -0.19 251.88 -0.23 C275.74 -0.27 299.6 -0.29 323.46 -0.29 C336.09 -0.29 348.73 -0.3 361.36 -0.33 C372.11 -0.35 382.87 -0.36 393.62 -0.35 C399.11 -0.34 404.6 -0.34 410.08 -0.36 C415.11 -0.38 420.13 -0.38 425.15 -0.36 C426.97 -0.36 428.79 -0.36 430.6 -0.38 C448.21 -0.5 448.21 -0.5 454.07 5.26 C454.73 5.82 455.38 6.38 456.06 6.96 C459.81 10.57 461.49 13.43 461.93 18.64 C461.97 20.73 461.96 22.82 461.92 24.91 C461.93 26.07 461.93 27.23 461.94 28.42 C461.95 31.61 461.93 34.81 461.9 38 C461.87 41.45 461.88 44.9 461.89 48.35 C461.9 55.1 461.87 61.85 461.83 68.6 C461.78 76.46 461.77 84.32 461.77 92.18 C461.76 106.2 461.72 120.22 461.65 134.24 C461.59 147.85 461.55 161.46 461.53 175.07 C461.53 175.9 461.53 176.74 461.53 177.61 C461.52 180.98 461.52 184.35 461.51 187.73 C461.49 203.04 461.45 218.35 461.41 233.66 C461.41 234.44 461.41 235.22 461.41 236.02 C461.38 245.74 461.35 255.46 461.31 265.17 C461.3 267.89 461.29 270.6 461.28 273.31 C461.27 277 461.26 280.68 461.24 284.37 C461.24 285.45 461.23 286.54 461.23 287.66 C461.23 288.64 461.22 289.62 461.21 290.63 C461.21 291.48 461.21 292.34 461.2 293.21 C461.07 295.26 461.07 295.26 460.07 297.26 C459.41 297.26 458.75 297.26 458.07 297.26 C457.95 298.04 457.82 298.83 457.7 299.64 C457.07 302.26 457.07 302.26 455.07 304.26 C453.75 304.26 452.43 304.26 451.07 304.26 C450.74 305.25 450.41 306.24 450.07 307.26 C297.61 307.26 145.15 307.26 -11.93 307.26 C-12.42 305.78 -12.42 305.78 -12.93 304.26 C-13.65 304.22 -14.37 304.18 -15.12 304.14 C-19.1 302.9 -20.54 300.58 -22.93 297.26 C-23.9 294.35 -24.06 292.51 -24.06 289.49 C-24.06 288.5 -24.07 287.51 -24.07 286.49 C-24.07 285.4 -24.07 284.31 -24.07 283.19 C-24.07 282.03 -24.08 280.88 -24.08 279.69 C-24.09 276.48 -24.09 273.27 -24.09 270.06 C-24.09 266.6 -24.1 263.14 -24.11 259.68 C-24.12 252.11 -24.13 244.54 -24.13 236.97 C-24.13 232.25 -24.14 227.53 -24.14 222.8 C-24.15 209.73 -24.16 196.65 -24.17 183.58 C-24.17 182.74 -24.17 181.9 -24.17 181.04 C-24.17 180.2 -24.17 179.36 -24.17 178.5 C-24.17 176.8 -24.17 175.1 -24.17 173.4 C-24.17 172.55 -24.17 171.71 -24.17 170.84 C-24.17 157.17 -24.19 143.5 -24.21 129.83 C-24.24 115.8 -24.25 101.77 -24.25 87.74 C-24.25 79.87 -24.26 71.99 -24.28 64.11 C-24.29 57.4 -24.3 50.69 -24.29 43.98 C-24.29 40.56 -24.29 37.14 -24.3 33.71 C-24.31 30 -24.31 26.29 -24.3 22.58 C-24.3 21.5 -24.31 20.42 -24.32 19.3 C-24.26 10.13 -24.26 10.13 -20.93 6.26 C-18.87 5.07 -18.87 5.07 -16.93 4.26 C-16.27 3.6 -15.61 2.94 -14.93 2.26 C-9.91 0.48 -5.28 -0.03 0 0 Z M458.07 11.26 C459.07 13.26 459.07 13.26 459.07 13.26 Z " fill="#7CEAFF" transform="translate(735.929274559021,854.7399377822876)"/>
<path d="M0 0 C2.91 2.6 5.72 5.31 8.52 8.04 C9.15 8.6 9.78 9.17 10.42 9.75 C36.51 33.88 48.62 71.47 50.52 106.04 C50.69 112.99 50.64 119.94 50.62 126.89 C50.62 128.9 50.61 130.9 50.61 132.9 C50.61 138.12 50.6 143.35 50.59 148.58 C50.58 153.93 50.57 159.28 50.57 164.63 C50.56 175.1 50.54 185.57 50.52 196.04 C9.79 196.06 -30.94 196.08 -71.68 196.09 C-76.48 196.09 -81.29 196.09 -86.09 196.09 C-87.05 196.09 -88 196.09 -88.99 196.09 C-104.49 196.1 -120 196.1 -135.5 196.11 C-151.4 196.12 -167.3 196.13 -183.2 196.13 C-193.02 196.13 -202.84 196.13 -212.66 196.14 C-219.38 196.15 -226.1 196.15 -232.83 196.15 C-236.71 196.15 -240.6 196.15 -244.48 196.15 C-248.69 196.16 -252.89 196.16 -257.09 196.16 C-258.95 196.16 -258.95 196.16 -260.85 196.16 C-261.97 196.16 -263.08 196.16 -264.24 196.16 C-265.21 196.16 -266.18 196.16 -267.18 196.16 C-269.48 196.04 -269.48 196.04 -271.48 195.04 C-271.55 182.85 -271.6 170.66 -271.64 158.47 C-271.65 152.81 -271.67 147.15 -271.71 141.48 C-271.74 136.01 -271.76 130.53 -271.77 125.05 C-271.77 122.97 -271.78 120.9 -271.8 118.82 C-271.99 93.09 -267.77 69.28 -256.48 46.04 C-256.18 45.41 -255.89 44.79 -255.58 44.14 C-242.68 17.35 -221.17 -3.91 -194.48 -16.96 C-193.89 -17.26 -193.31 -17.56 -192.7 -17.87 C-132.61 -48.4 -52.28 -45.35 0 0 Z " fill="#7CEAFF" transform="translate(1064.48046875,581.96484375)"/>
<path d="M0 0 C0.77 -0 1.54 -0.01 2.34 -0.01 C4.92 -0.02 7.51 -0.02 10.09 -0.01 C11.97 -0.02 13.84 -0.02 15.71 -0.03 C20.86 -0.04 26 -0.05 31.15 -0.05 C36.7 -0.05 42.25 -0.06 47.8 -0.07 C59.93 -0.09 72.06 -0.1 84.19 -0.11 C91.77 -0.11 99.34 -0.12 106.91 -0.12 C127.88 -0.14 148.85 -0.16 169.81 -0.16 C170.48 -0.16 171.15 -0.16 171.85 -0.16 C174.56 -0.16 177.28 -0.16 180 -0.16 C182.04 -0.16 184.08 -0.17 186.13 -0.17 C186.8 -0.17 187.48 -0.17 188.18 -0.17 C209.41 -0.17 230.65 -0.19 251.88 -0.23 C275.74 -0.27 299.6 -0.29 323.46 -0.29 C336.09 -0.29 348.73 -0.3 361.36 -0.33 C372.11 -0.35 382.87 -0.36 393.62 -0.35 C399.11 -0.34 404.6 -0.34 410.08 -0.36 C415.11 -0.38 420.13 -0.38 425.15 -0.36 C426.97 -0.36 428.79 -0.36 430.6 -0.38 C448.21 -0.5 448.21 -0.5 454.07 5.26 C454.73 5.82 455.38 6.38 456.06 6.96 C459.81 10.57 461.49 13.43 461.93 18.64 C461.97 20.73 461.96 22.82 461.92 24.91 C461.93 26.07 461.93 27.23 461.94 28.42 C461.95 31.61 461.93 34.81 461.9 38 C461.87 41.45 461.88 44.9 461.89 48.35 C461.9 55.1 461.87 61.85 461.83 68.6 C461.78 76.46 461.77 84.32 461.77 92.18 C461.76 106.2 461.72 120.22 461.65 134.24 C461.59 147.85 461.55 161.46 461.53 175.07 C461.53 175.9 461.53 176.74 461.53 177.61 C461.52 180.98 461.52 184.35 461.51 187.73 C461.49 203.04 461.45 218.35 461.41 233.66 C461.41 234.44 461.41 235.22 461.41 236.02 C461.38 245.74 461.35 255.46 461.31 265.17 C461.3 267.89 461.29 270.6 461.28 273.31 C461.27 277 461.26 280.68 461.24 284.37 C461.24 285.45 461.23 286.54 461.23 287.66 C461.23 288.64 461.22 289.62 461.21 290.63 C461.21 291.48 461.21 292.34 461.2 293.21 C461.07 295.26 461.07 295.26 460.07 297.26 C459.41 297.26 458.75 297.26 458.07 297.26 C457.95 298.04 457.82 298.83 457.7 299.64 C457.07 302.26 457.07 302.26 455.07 304.26 C453.75 304.26 452.43 304.26 451.07 304.26 C450.74 305.25 450.41 306.24 450.07 307.26 C297.61 307.26 145.15 307.26 -11.93 307.26 C-12.42 305.78 -12.42 305.78 -12.93 304.26 C-13.65 304.22 -14.37 304.18 -15.12 304.14 C-19.1 302.9 -20.54 300.58 -22.93 297.26 C-23.9 294.35 -24.06 292.51 -24.06 289.49 C-24.06 288.5 -24.07 287.51 -24.07 286.49 C-24.07 285.4 -24.07 284.31 -24.07 283.19 C-24.07 282.03 -24.08 280.88 -24.08 279.69 C-24.09 276.48 -24.09 273.27 -24.09 270.06 C-24.09 266.6 -24.1 263.14 -24.11 259.68 C-24.12 252.11 -24.13 244.54 -24.13 236.97 C-24.13 232.25 -24.14 227.53 -24.14 222.8 C-24.15 209.73 -24.16 196.65 -24.17 183.58 C-24.17 182.74 -24.17 181.9 -24.17 181.04 C-24.17 180.2 -24.17 179.36 -24.17 178.5 C-24.17 176.8 -24.17 175.1 -24.17 173.4 C-24.17 172.55 -24.17 171.71 -24.17 170.84 C-24.17 157.17 -24.19 143.5 -24.21 129.83 C-24.24 115.8 -24.25 101.77 -24.25 87.74 C-24.25 79.87 -24.26 71.99 -24.28 64.11 C-24.29 57.4 -24.3 50.69 -24.29 43.98 C-24.29 40.56 -24.29 37.14 -24.3 33.71 C-24.31 30 -24.31 26.29 -24.3 22.58 C-24.3 21.5 -24.31 20.42 -24.32 19.3 C-24.26 10.13 -24.26 10.13 -20.93 6.26 C-18.87 5.07 -18.87 5.07 -16.93 4.26 C-16.27 3.6 -15.61 2.94 -14.93 2.26 C-9.91 0.48 -5.28 -0.03 0 0 Z M458.07 11.26 C459.07 13.26 459.07 13.26 459.07 13.26 Z M11.07 38.26 C10.87 41.3 10.81 44.26 10.82 47.3 C10.82 48.25 10.82 49.2 10.82 50.18 C10.81 53.37 10.82 56.57 10.83 59.77 C10.83 62.05 10.82 64.34 10.82 66.62 C10.82 72.84 10.82 79.06 10.84 85.28 C10.84 91.77 10.84 98.27 10.84 104.76 C10.84 115.67 10.85 126.57 10.86 137.48 C10.88 148.71 10.89 159.94 10.89 171.17 C10.89 171.87 10.89 172.56 10.89 173.27 C10.89 173.96 10.89 174.65 10.89 175.36 C10.88 187.49 10.89 199.61 10.9 211.74 C10.9 216.91 10.9 222.08 10.9 227.25 C10.9 233.33 10.91 239.42 10.92 245.5 C10.92 247.74 10.93 249.98 10.92 252.22 C10.92 255.26 10.93 258.3 10.94 261.35 C10.94 262.24 10.93 263.14 10.93 264.07 C10.56 267.98 10.56 267.98 12.07 271.26 C14.26 271.36 16.45 271.38 18.64 271.38 C19.34 271.38 20.04 271.39 20.76 271.39 C23.13 271.39 25.5 271.38 27.87 271.38 C29.57 271.38 31.28 271.38 32.98 271.38 C37.69 271.39 42.4 271.38 47.1 271.38 C52.17 271.37 57.24 271.37 62.3 271.37 C71.09 271.37 79.88 271.37 88.66 271.37 C101.37 271.36 114.07 271.36 126.77 271.35 C147.38 271.35 167.99 271.34 188.6 271.34 C208.62 271.33 228.65 271.32 248.67 271.31 C249.91 271.31 251.14 271.31 252.41 271.31 C258.6 271.31 264.78 271.31 270.97 271.31 C322.34 271.3 373.7 271.28 425.07 271.26 C425.09 241.61 425.11 211.96 425.12 182.31 C425.12 178.82 425.12 175.32 425.13 171.82 C425.13 171.13 425.13 170.43 425.13 169.71 C425.13 158.43 425.14 147.14 425.15 135.85 C425.16 124.28 425.16 112.71 425.16 101.13 C425.17 94.63 425.17 88.13 425.18 81.62 C425.18 75.51 425.19 69.39 425.18 63.28 C425.18 61.03 425.19 58.78 425.19 56.53 C425.19 53.47 425.19 50.41 425.19 47.35 C425.19 46.45 425.2 45.54 425.2 44.62 C425.32 40.3 425.32 40.3 424.07 36.26 C371.75 36.21 319.42 36.18 267.1 36.16 C260.92 36.16 254.75 36.15 248.58 36.15 C246.74 36.15 246.74 36.15 244.86 36.15 C224.94 36.14 205.02 36.12 185.1 36.11 C164.68 36.09 144.26 36.08 123.83 36.07 C111.22 36.07 98.61 36.06 85.99 36.04 C77.36 36.03 68.72 36.03 60.08 36.03 C55.09 36.03 50.1 36.03 45.11 36.02 C40.55 36.01 35.99 36.01 31.42 36.02 C29.77 36.02 28.11 36.02 26.45 36.01 C24.21 36 21.98 36.01 19.74 36.01 C18.49 36.01 17.24 36.01 15.95 36.01 C12.94 35.96 12.94 35.96 11.07 38.26 Z " fill="#54A3FA" transform="translate(735.929274559021,854.7399377822876)"/>
<path d="M0 0 C0.77 -0 1.54 -0 2.33 -0.01 C4.93 -0.01 7.53 -0.01 10.13 -0.01 C12 -0.01 13.88 -0.01 15.75 -0.02 C20.92 -0.03 26.09 -0.03 31.25 -0.03 C36.82 -0.03 42.38 -0.04 47.95 -0.04 C60.13 -0.06 72.3 -0.06 84.48 -0.07 C92.08 -0.07 99.68 -0.08 107.27 -0.08 C128.29 -0.09 149.3 -0.1 170.31 -0.11 C171.67 -0.11 173.03 -0.11 174.39 -0.11 C175.75 -0.11 177.12 -0.11 178.48 -0.11 C181.21 -0.11 183.95 -0.11 186.68 -0.11 C187.36 -0.11 188.04 -0.11 188.73 -0.11 C210.73 -0.11 232.72 -0.13 254.71 -0.15 C277.95 -0.18 301.18 -0.19 324.42 -0.19 C337.09 -0.19 349.77 -0.2 362.44 -0.22 C373.23 -0.23 384.01 -0.24 394.8 -0.23 C400.31 -0.22 405.82 -0.23 411.33 -0.24 C416.36 -0.25 421.4 -0.25 426.44 -0.24 C428.27 -0.24 430.09 -0.24 431.92 -0.25 C434.4 -0.26 436.87 -0.25 439.34 -0.24 C440.06 -0.25 440.78 -0.26 441.53 -0.26 C443.51 -0.24 443.51 -0.24 446.67 0.13 C447.33 1.12 447.99 2.11 448.67 3.13 C297.53 3.13 146.39 3.13 -9.33 3.13 C-9.33 2.47 -9.33 1.81 -9.33 1.13 C-6.34 -0.36 -3.28 -0.01 0 0 Z " fill="#63BCFD" transform="translate(735.3307952880859,854.8685722351074)"/>
<path d="M0 0 C0.7 0 1.41 0.01 2.13 0.01 C2.88 0.01 3.62 0.01 4.39 0.01 C6.91 0.02 9.44 0.03 11.96 0.04 C13.78 0.04 15.59 0.04 17.41 0.05 C22.42 0.06 27.44 0.07 32.45 0.09 C37.85 0.11 43.25 0.12 48.65 0.13 C58.01 0.15 67.37 0.17 76.73 0.2 C90.26 0.24 103.8 0.27 117.33 0.3 C139.29 0.36 161.24 0.41 183.2 0.47 C204.53 0.53 225.87 0.59 247.2 0.64 C248.52 0.64 249.83 0.64 251.18 0.65 C257.78 0.66 264.37 0.68 270.96 0.7 C325.69 0.83 380.41 0.97 435.14 1.12 C435.14 1.78 435.14 2.44 435.14 3.12 C436.13 3.45 437.12 3.78 438.14 4.12 C291.95 4.12 145.76 4.12 -4.86 4.12 C-5.19 3.13 -5.52 2.14 -5.86 1.12 C-4.21 -0.54 -2.21 0 0 0 Z " fill="#63BBFC" transform="translate(661.8635242879391,245.87974724173546)"/>
<path d="M0 0 C165.99 0 331.98 0 503 0 C503 0.33 503 0.66 503 1 C337.01 1 171.02 1 0 1 C0 0.67 0 0.34 0 0 Z " fill="#000002" transform="translate(703,1240)"/>
<path d="M0 0 C0.33 0 0.66 0 1 0 C1.33 34.65 1.66 69.3 2 105 C9.92 105 17.84 105 26 105 C25.99 102.17 25.98 99.35 25.97 96.43 C25.94 87.1 25.91 77.77 25.9 68.44 C25.89 62.78 25.87 57.12 25.85 51.46 C25.83 46 25.82 40.54 25.81 35.08 C25.81 33 25.8 30.92 25.79 28.83 C25.77 25.92 25.77 23 25.77 20.08 C25.77 19.22 25.76 18.35 25.75 17.46 C25.75 16.67 25.76 15.87 25.76 15.05 C25.76 14.36 25.76 13.67 25.75 12.96 C26.04 10.65 26.86 9.02 28 7 C28.07 19.87 28.12 32.75 28.16 45.62 C28.17 51.6 28.19 57.57 28.23 63.55 C28.26 69.32 28.28 75.08 28.28 80.84 C28.29 83.05 28.3 85.25 28.32 87.45 C28.34 90.53 28.34 93.61 28.34 96.69 C28.35 97.6 28.36 98.52 28.37 99.47 C28.37 100.72 28.37 100.72 28.36 102 C28.36 102.73 28.37 103.46 28.37 104.21 C28 106 28 106 25 108 C21.18 108.44 17.34 108.32 13.5 108.31 C11.91 108.34 11.91 108.34 10.29 108.36 C9.28 108.36 8.26 108.36 7.22 108.36 C5.83 108.37 5.83 108.37 4.4 108.37 C1.49 107.92 0.79 107.29 -1 105 C-1.35 102.99 -1.35 102.99 -1.32 100.65 C-1.32 99.77 -1.31 98.88 -1.31 97.96 C-1.29 96.99 -1.27 96.02 -1.25 95.02 C-1.24 94 -1.23 92.97 -1.22 91.92 C-1.19 88.52 -1.13 85.13 -1.07 81.74 C-1.05 79.39 -1.02 77.04 -0.99 74.69 C-0.92 68.5 -0.83 62.31 -0.74 56.12 C-0.65 49.81 -0.58 43.49 -0.5 37.18 C-0.35 24.78 -0.18 12.39 0 0 Z " fill="#5DB2F9" transform="translate(731,672)"/>
<path d="M0 0 C0 0.66 0 1.32 0 2 C-104.28 2 -208.56 2 -316 2 C-316 1.34 -316 0.68 -316 0 C-276.32 -0.15 -236.64 -0.3 -196.96 -0.43 C-192.28 -0.45 -187.6 -0.47 -182.92 -0.48 C-181.99 -0.49 -181.05 -0.49 -180.09 -0.49 C-164.99 -0.54 -149.89 -0.6 -134.79 -0.66 C-119.3 -0.72 -103.8 -0.77 -88.31 -0.83 C-78.75 -0.86 -69.19 -0.89 -59.63 -0.93 C-53.07 -0.96 -46.52 -0.98 -39.97 -1 C-36.19 -1.01 -32.4 -1.02 -28.62 -1.04 C-24.52 -1.06 -20.42 -1.07 -16.33 -1.08 C-14.52 -1.09 -14.52 -1.09 -12.68 -1.1 C-11.04 -1.11 -11.04 -1.11 -9.36 -1.11 C-8.42 -1.11 -7.47 -1.11 -6.5 -1.12 C-4.18 -1.01 -2.22 -0.66 0 0 Z " fill="#64BDFE" transform="translate(402,41)"/>
<path d="M0 0 C0.33 0 0.66 0 1 0 C1 104.61 1 209.22 1 317 C0.67 317 0.34 317 0 317 C0 212.39 0 107.78 0 0 Z " fill="#000002" transform="translate(1275,851)"/>
<path d="M0 0 C0.33 0 0.66 0 1 0 C1 101.64 1 203.28 1 308 C0.67 308 0.34 308 0 308 C0 206.36 0 104.72 0 0 Z " fill="#000002" transform="translate(670,856)"/>
<path d="M0 0 C89.1 0 178.2 0 270 0 C270 0.33 270 0.66 270 1 C180.9 1 91.8 1 0 1 C0 0.67 0 0.34 0 0 Z " fill="#000002" transform="translate(109,75)"/>
<path d="M0 0 C0.33 0 0.66 0 1 0 C1.07 12.35 1.12 24.7 1.16 37.06 C1.17 42.79 1.19 48.53 1.23 54.26 C1.26 59.79 1.28 65.32 1.28 70.85 C1.29 72.97 1.3 75.08 1.32 77.19 C1.34 80.15 1.34 83.1 1.34 86.05 C1.35 86.93 1.36 87.81 1.37 88.72 C1.36 91.15 1.36 91.15 1 95 C-2.32 97.21 -3.39 97.26 -7.25 97.27 C-8.78 97.27 -8.78 97.27 -10.34 97.27 C-11.4 97.27 -12.47 97.26 -13.56 97.25 C-14.63 97.26 -15.7 97.27 -16.79 97.27 C-18.32 97.27 -18.32 97.27 -19.88 97.27 C-20.81 97.26 -21.75 97.26 -22.71 97.26 C-25 97 -25 97 -27 95 C-27.19 92.26 -27.25 89.62 -27.23 86.88 C-27.23 86.04 -27.23 85.2 -27.23 84.34 C-27.23 81.55 -27.21 78.77 -27.2 75.99 C-27.19 74.07 -27.19 72.14 -27.19 70.22 C-27.18 65.14 -27.16 60.07 -27.14 55 C-27.12 49.82 -27.11 44.65 -27.1 39.47 C-27.08 29.32 -27.04 19.16 -27 9 C-26.67 9 -26.34 9 -26 9 C-25.67 37.05 -25.34 65.1 -25 94 C-17.08 94 -9.16 94 -1 94 C-0.67 62.98 -0.34 31.96 0 0 Z " fill="#64BEFD" transform="translate(1178,683)"/>
<path d="M0 0 C1.94 0.81 1.94 0.81 4 2 C4.33 2.99 4.66 3.98 5 5 C6.32 5.68 7.66 6.35 9 7 C11.25 9 11.25 9 13 11 C13 11.66 13 12.32 13 13 C13.66 13 14.32 13 15 13 C15 13.66 15 14.32 15 15 C15.66 15 16.32 15 17 15 C17 15.66 17 16.32 17 17 C17.66 17 18.32 17 19 17 C19 17.66 19 18.32 19 19 C20.32 19.66 21.64 20.32 23 21 C23 21.66 23 22.32 23 23 C23.66 23 24.32 23 25 23 C25 23.66 25 24.32 25 25 C25.66 25 26.32 25 27 25 C27 25.66 27 26.32 27 27 C27.66 27 28.32 27 29 27 C29 27.66 29 28.32 29 29 C29.59 29.26 30.18 29.52 30.79 29.79 C33.15 31.08 34.6 32.47 36.44 34.44 C39.1 37.2 41.68 39.05 45 41 C45.33 41.99 45.66 42.98 46 44 C46.99 44.33 47.98 44.66 49 45 C49 45.66 49 46.32 49 47 C49.66 47 50.32 47 51 47 C51 47.66 51 48.32 51 49 C51.66 49 52.32 49 53 49 C52.67 49.99 52.34 50.98 52 52 C51.54 51.6 51.08 51.2 50.61 50.79 C46.88 47.56 46.88 47.56 43 44.5 C37.19 40.15 31.99 35.15 26.86 30.03 C26.21 29.38 25.56 28.74 24.89 28.07 C23.53 26.72 22.18 25.36 20.82 24 C18.75 21.93 16.67 19.87 14.59 17.81 C13.26 16.49 11.93 15.16 10.61 13.84 C9.99 13.23 9.37 12.62 8.73 11.99 C5.05 8.28 2.35 4.7 0 0 Z " fill="#5AACD9" transform="translate(527,148)"/>
<path d="M0 0 C2.31 2.31 4.31 4.81 6.37 7.34 C8.13 9.13 9.78 9.89 12 11 C13.36 12.98 14.69 14.98 16 17 C17.64 18.69 19.31 20.35 21 22 C22.11 23.11 23.22 24.21 24.32 25.32 C24.92 25.92 25.52 26.52 26.14 27.14 C34.43 35.43 42.71 43.71 51 52 C50.5 52.99 50.5 52.99 50 54 C46.3 50.3 42.61 46.6 38.92 42.89 C35.65 39.61 32.37 36.32 29.09 33.03 C27.36 31.3 25.64 29.57 23.91 27.84 C21.41 25.32 18.91 22.82 16.41 20.31 C15.64 19.54 14.87 18.76 14.08 17.97 C10.53 14.41 6.99 11.07 3 8 C0.21 4.92 0 4.38 0 0 Z " fill="#79E4FB" transform="translate(472,86)"/>
<path d="M0 0 C3.48 -0.06 6.96 -0.09 10.44 -0.12 C11.41 -0.14 12.39 -0.16 13.39 -0.18 C19.59 -0.22 25 0.42 31 2 C31 2.66 31 3.32 31 4 C26.58 4.06 22.17 4.09 17.75 4.12 C16.5 4.14 15.24 4.16 13.95 4.18 C12.74 4.18 11.54 4.19 10.3 4.2 C8.63 4.21 8.63 4.21 6.93 4.23 C4.06 4 2.43 3.49 0 2 C0 1.34 0 0.68 0 0 Z " fill="#4C91C7" transform="translate(1176,379)"/>
<path d="M0 0 C3.39 1.45 5.45 3.37 8 6 C8.99 6.66 9.98 7.32 11 8 C12.32 9.56 13.65 11.13 14.96 12.7 C19.67 18.02 24.83 22.93 29.88 27.94 C31.05 29.11 32.23 30.28 33.41 31.46 C36.27 34.31 39.13 37.15 42 40 C41.5 40.99 41.5 40.99 41 42 C40.37 41.36 39.75 40.72 39.1 40.07 C38.28 39.24 37.47 38.41 36.62 37.56 C35.81 36.74 35 35.92 34.16 35.07 C32.18 32.97 32.18 32.97 30 32 C30 31.34 30 30.68 30 30 C29.34 30 28.68 30 28 30 C28 29.34 28 28.68 28 28 C27.34 28 26.68 28 26 28 C26 27.34 26 26.68 26 26 C25.34 26 24.68 26 24 26 C21.88 24.12 21.88 24.12 20 22 C20 21.34 20 20.68 20 20 C19.34 20 18.68 20 18 20 C18 19.34 18 18.68 18 18 C17.34 18 16.68 18 16 18 C16 17.34 16 16.68 16 16 C15.34 16 14.68 16 14 16 C12.67 14.64 12.67 14.64 11.19 12.81 C9.29 10.52 7.42 8.42 5.31 6.31 C3.31 4.31 1.63 2.32 0 0 Z " fill="#79E4FD" transform="translate(526,145)"/>
<path d="M0 0 C0.38 0.49 0.76 0.98 1.15 1.48 C-6.36 1.53 -13.87 1.57 -21.39 1.59 C-24.87 1.6 -28.36 1.61 -31.85 1.64 C-35.86 1.66 -39.86 1.67 -43.87 1.68 C-45.13 1.69 -46.38 1.7 -47.67 1.71 C-49.41 1.71 -49.41 1.71 -51.19 1.71 C-52.72 1.72 -52.72 1.72 -54.29 1.72 C-56.85 1.48 -56.85 1.48 -59.85 -0.52 C-52.34 -0.72 -44.83 -0.9 -37.32 -1.06 C-33.84 -1.14 -30.35 -1.22 -26.86 -1.31 C-22.85 -1.42 -18.84 -1.51 -14.83 -1.59 C-13.58 -1.63 -12.33 -1.66 -11.04 -1.7 C-9.88 -1.72 -8.72 -1.74 -7.52 -1.76 C-5.98 -1.8 -5.98 -1.8 -4.42 -1.84 C-1.85 -1.52 -1.85 -1.52 0 0 Z " fill="#64BDFE" transform="translate(984.8540496826172,511.5155487060547)"/>
<path d="M0 0 C0.66 0 1.32 0 2 0 C2 0.66 2 1.32 2 2 C2.65 1.99 3.3 1.98 3.97 1.97 C6.92 1.93 9.87 1.9 12.81 1.88 C14.35 1.85 14.35 1.85 15.92 1.82 C16.9 1.82 17.88 1.81 18.89 1.8 C19.8 1.79 20.71 1.78 21.64 1.77 C24 2 24 2 27 4 C23 6 17.96 5.27 13.56 5.31 C11.97 5.36 11.97 5.36 10.34 5.4 C8.81 5.41 8.81 5.41 7.25 5.43 C6.32 5.44 5.38 5.45 4.42 5.47 C2 5 2 5 0.17 2.97 C-0.22 2.32 -0.6 1.67 -1 1 C-0.67 0.67 -0.34 0.34 0 0 Z " fill="#63BBFC" transform="translate(731,775)"/>
<path d="M0 0 C0.99 0.33 1.98 0.66 3 1 C-12.27 18.21 -12.27 18.21 -19 21 C-17.54 17.64 -15.69 15.45 -13.09 12.89 C-12.33 12.14 -11.56 11.38 -10.78 10.61 C-9.99 9.83 -9.19 9.05 -8.38 8.25 C-7.57 7.46 -6.77 6.66 -5.95 5.85 C-3.97 3.89 -1.99 1.94 0 0 Z " fill="#5AADED" transform="translate(42,61)"/>
<path d="M0 0 C3.94 0.11 7.88 0.24 11.81 0.38 C12.93 0.41 14.05 0.44 15.21 0.47 C16.81 0.53 16.81 0.53 18.46 0.59 C19.45 0.62 20.44 0.65 21.46 0.68 C24 1 24 1 27 3 C24.44 4.28 22.63 4.11 19.77 4.1 C18.74 4.09 17.71 4.09 16.65 4.09 C15.03 4.08 15.03 4.08 13.38 4.06 C11.74 4.06 11.74 4.06 10.08 4.05 C7.39 4.04 4.69 4.02 2 4 C1.34 2.68 0.68 1.36 0 0 Z " fill="#64BDFE" transform="translate(1151,776)"/>
<path d="M0 0 C4.17 0.51 6.08 1.6 8.99 4.6 C9.69 5.32 10.4 6.03 11.13 6.78 C11.85 7.53 12.57 8.28 13.31 9.06 C14.05 9.82 14.79 10.58 15.56 11.36 C17.38 13.23 19.19 15.11 21 17 C19.26 17.72 19.26 17.72 17 18 C14.99 16.57 14.99 16.57 12.89 14.41 C12.14 13.65 11.38 12.88 10.61 12.09 C9.44 10.87 9.44 10.87 8.25 9.62 C7.46 8.82 6.66 8.01 5.85 7.18 C0 1.18 0 1.18 0 0 Z " fill="#478BCC" transform="translate(478,99)"/>
<path d="M0 0 C3.13 1.38 5.12 2.95 7.44 5.44 C10.1 8.2 12.68 10.05 16 12 C16.33 12.99 16.66 13.98 17 15 C17.99 15.33 18.98 15.66 20 16 C20 16.66 20 17.32 20 18 C20.66 18 21.32 18 22 18 C22 18.66 22 19.32 22 20 C22.66 20 23.32 20 24 20 C23.67 20.99 23.34 21.98 23 23 C17.58 18.48 12.54 13.69 7.56 8.69 C6.83 7.96 6.1 7.23 5.35 6.48 C4.66 5.79 3.97 5.1 3.25 4.39 C2.63 3.76 2 3.13 1.36 2.49 C0 1 0 1 0 0 Z " fill="#397395" transform="translate(556,177)"/>
<path d="M0 0 C0.46 0.41 0.92 0.82 1.39 1.24 C2 1.78 2.62 2.32 3.25 2.88 C3.85 3.41 4.46 3.94 5.08 4.49 C6.93 6.07 6.93 6.07 9.11 6.95 C11.53 8.29 11.78 9.53 13 12 C14.84 13.98 16.69 15.87 18.62 17.75 C19.14 18.26 19.66 18.76 20.19 19.29 C21.45 20.53 22.73 21.76 24 23 C21 23 21 23 19.27 21.59 C18.65 20.95 18.02 20.31 17.38 19.64 C16.35 18.58 16.35 18.58 15.29 17.51 C14.58 16.76 13.86 16.02 13.12 15.25 C11.71 13.79 10.3 12.34 8.88 10.89 C8.22 10.21 7.55 9.52 6.86 8.82 C4.89 6.82 4.89 6.82 1.99 4.67 C1.33 4.12 0.68 3.57 0 3 C0 2.01 0 1.02 0 0 Z " fill="#76E0F6" transform="translate(585,206)"/>
<path d="M0 0 C4.93 0.42 6.98 2.55 10.31 6.06 C11.2 6.98 12.08 7.9 12.99 8.85 C13.65 9.56 14.32 10.27 15 11 C13.36 11.84 13.36 11.84 11 12 C8.86 10.26 7.11 8.62 5.25 6.62 C4.74 6.1 4.24 5.58 3.71 5.05 C0 1.18 0 1.18 0 0 Z " fill="#478BCC" transform="translate(588,214)"/>
<path d="M0 0 C3 0.37 5.96 0.81 8.94 1.31 C9.77 1.44 10.61 1.57 11.47 1.71 C12.68 1.91 12.68 1.91 13.9 2.11 C14.64 2.23 15.38 2.36 16.14 2.48 C18 3 18 3 20 5 C13.4 4.67 6.8 4.34 0 4 C-0.33 3.01 -0.66 2.02 -1 1 C-0.67 0.67 -0.34 0.34 0 0 Z " fill="#519AD4" transform="translate(987,511)"/>
<path d="M0 0 C0.33 0.66 0.66 1.32 1 2 C-0.24 3.18 -1.49 4.34 -2.75 5.5 C-3.79 6.47 -3.79 6.47 -4.86 7.47 C-7 9 -7 9 -11 9 C-8.78 5.6 -6.54 3.95 -3 2 C-2.01 1.34 -1.02 0.68 0 0 Z M-11 9 C-11 9.99 -11 10.98 -11 12 C-11.99 12 -12.98 12 -14 12 C-14.33 12.99 -14.66 13.98 -15 15 C-15.66 14.67 -16.32 14.34 -17 14 C-14.74 9 -14.74 9 -11 9 Z " fill="#6DCFFC" transform="translate(830,548)"/>
<path d="M0 0 C0.88 0.07 1.76 0.14 2.67 0.22 C4.41 0.36 4.41 0.36 6.19 0.5 C7.34 0.59 8.48 0.69 9.67 0.78 C12.46 0.96 15.2 1.04 18 1 C17.34 1.66 16.68 2.32 16 3 C16.33 3.66 16.66 4.32 17 5 C12.71 4.67 8.42 4.34 4 4 C4 3.34 4 2.68 4 2 C2.68 2 1.36 2 0 2 C0 1.34 0 0.68 0 0 Z " fill="#4F97D4" transform="translate(640,244)"/>
<path d="M0 0 C0 0.66 0 1.32 0 2 C-6.27 2 -12.54 2 -19 2 C-19 1.34 -19 0.68 -19 0 C-16.58 -0.2 -14.17 -0.38 -11.75 -0.56 C-11.07 -0.62 -10.39 -0.67 -9.68 -0.73 C-6.26 -0.98 -3.27 -1.14 0 0 Z " fill="#63BBFC" transform="translate(402,41)"/>
<path d="M0 0 C0.5 0.37 0.99 0.74 1.5 1.12 C-2.5 3.96 -5.93 2.89 -10.5 2.12 C-10.5 1.79 -10.5 1.47 -10.5 1.12 C-3.12 -1.09 -3.12 -1.09 0 0 Z M-10.5 3.12 C-7.86 3.12 -5.22 3.12 -2.5 3.12 C-2.5 3.78 -2.5 4.45 -2.5 5.12 C-5.47 5.12 -8.44 5.12 -11.5 5.12 C-11.17 4.47 -10.84 3.8 -10.5 3.12 Z " fill="#4A8ED3" transform="translate(909.5,513.875)"/>
<path d="M0 0 C0.56 1.94 0.56 1.94 1 4 C0 5 0 5 -2.29 5.1 C-3.66 5.08 -3.66 5.08 -5.06 5.06 C-5.98 5.05 -6.9 5.04 -7.85 5.04 C-8.56 5.02 -9.27 5.01 -10 5 C-10.33 4.01 -10.66 3.02 -11 2 C-7.37 2 -3.74 2 0 2 C0 1.34 0 0.68 0 0 Z " fill="#53A0DF" transform="translate(922,510)"/>
<path d="M0 0 C0 3.78 -1.1 5.75 -3 9 C-5.19 10.88 -5.19 10.88 -7 12 C-7.75 10.27 -7.75 10.27 -8 8 C-6.35 5.86 -6.35 5.86 -4.06 3.75 C-3.31 3.04 -2.56 2.34 -1.79 1.61 C-1.2 1.08 -0.61 0.55 0 0 Z " fill="#468AC2" transform="translate(814,559)"/>
<path d="M0 0 C1.94 0.81 1.94 0.81 4 2 C4.33 2.99 4.66 3.98 5 5 C6.32 5.68 7.66 6.35 9 7 C10.37 8.29 11.71 9.62 13 11 C12.67 11.66 12.34 12.32 12 13 C6.19 9.82 3.38 5.61 0 0 Z " fill="#3F7EAC" transform="translate(527,148)"/>
<path d="M0 0 C3.88 0.55 5.6 2.28 8.25 5.06 C8.96 5.8 9.66 6.53 10.39 7.29 C10.92 7.85 11.45 8.42 12 9 C11.34 9.66 10.68 10.32 10 11 C8.33 9.36 6.66 7.71 5 6.06 C4.07 5.15 3.14 4.23 2.19 3.29 C0 1 0 1 0 0 Z " fill="#5CAFE4" transform="translate(653,1212)"/>
<path d="M0 0 C5.21 2.53 8.39 6.62 12 11 C11.67 11.66 11.34 12.32 11 13 C10.24 12.18 9.47 11.35 8.69 10.5 C6.25 7.66 6.25 7.66 3 8 C2.57 6.82 2.57 6.82 2.12 5.62 C1.15 2.9 1.15 2.9 -1 1 C-0.67 0.67 -0.34 0.34 0 0 Z " fill="#78E3FE" transform="translate(1235,396)"/>
<path d="M0 0 C0.66 0.66 1.32 1.32 2 2 C-0.64 4.64 -3.28 7.28 -6 10 C-6.66 9.34 -7.32 8.68 -8 8 C-7.34 8 -6.68 8 -6 8 C-5.91 7.13 -5.91 7.13 -5.81 6.25 C-4.68 3.11 -2.66 1.91 0 0 Z " fill="#529FCF" transform="translate(806,530)"/>
<path d="M0 0 C4.53 3.68 8.39 7.41 12 12 C11.67 12.66 11.34 13.32 11 14 C10.34 12.68 9.68 11.36 9 10 C8.34 10 7.68 10 7 10 C5.27 8.32 5.27 8.32 3.38 6.12 C2.74 5.41 2.11 4.69 1.46 3.95 C0 2 0 2 0 0 Z " fill="#78E3FE" transform="translate(1105,573)"/>
<path d="M0 0 C-4.62 0 -9.24 0 -14 0 C-14 -0.66 -14 -1.32 -14 -2 C-12.23 -2.25 -10.46 -2.47 -8.69 -2.69 C-7.7 -2.82 -6.72 -2.94 -5.7 -3.07 C-3 -3 -3 -3 0 0 Z " fill="#63BBFC" transform="translate(986,513)"/>
<path d="M0 0 C4.69 0.57 9.35 1.19 14 2 C14 2.33 14 2.66 14 3 C9.38 3 4.76 3 0 3 C0 2.01 0 1.02 0 0 Z " fill="#59AAE7" transform="translate(700,1202)"/>
<path d="M0 0 C2.48 0.5 2.48 0.5 5 1 C5 1.66 5 2.32 5 3 C5.66 3 6.32 3 7 3 C7 3.66 7 4.32 7 5 C7.66 5 8.32 5 9 5 C8.67 5.99 8.34 6.98 8 8 C6.85 7.05 5.71 6.09 4.56 5.12 C3.92 4.59 3.29 4.06 2.63 3.51 C1 2 1 2 0 0 Z " fill="#4487A7" transform="translate(461,77)"/>
<path d="M0 0 C0.33 0 0.66 0 1 0 C1 5.94 1 11.88 1 18 C0.67 18 0.34 18 0 18 C0 12.06 0 6.12 0 0 Z " fill="#000002" transform="translate(1260,440)"/>
<path d="M0 0 C0.33 0 0.66 0 1 0 C1 2.31 1 4.62 1 7 C0.67 7 0.34 7 0 7 C0 4.69 0 2.38 0 0 Z " fill="#000002" transform="translate(1150,672)"/>
<path d="M0 0 C1.98 0 3.96 0 6 0 C6 0.33 6 0.66 6 1 C4.02 1 2.04 1 0 1 C0 0.67 0 0.34 0 0 Z " fill="#000002" transform="translate(980,485)"/>
<path d="M0 0 C1.65 0 3.3 0 5 0 C5 0.33 5 0.66 5 1 C3.35 1 1.7 1 0 1 C0 0.67 0 0.34 0 0 Z " fill="#000002" transform="translate(924,485)"/>
<path d="M0 0 C4 1 4 1 4 1 Z " fill="#000002" transform="translate(1200,815)"/>
<path d="M0 0 C1 4 1 4 1 4 Z " fill="#000002" transform="translate(735,656)"/>
<path d="M0 0 C1 4 1 4 1 4 Z " fill="#000002" transform="translate(1235,596)"/>
<path d="M0 0 C1 4 1 4 1 4 Z " fill="#000002" transform="translate(1250,511)"/>
<path d="M0 0 C3 1 3 1 3 1 Z " fill="#000002" transform="translate(34,965)"/>
<path d="M0 0 C3 1 3 1 3 1 Z " fill="#000002" transform="translate(706,815)"/>
<path d="" fill="#000002" transform="translate(0,0)"/>
<path d="" fill="#000002" transform="translate(0,0)"/>
<path d="" fill="#000002" transform="translate(0,0)"/>
<path d="" fill="#000002" transform="translate(0,0)"/>
<path d="" fill="#000002" transform="translate(0,0)"/>
<path d="M0 0 C3 1 3 1 3 1 Z " fill="#000002" transform="translate(1011,490)"/>
<path d="" fill="#000002" transform="translate(0,0)"/>
<path d="M0 0 C3 1 3 1 3 1 Z " fill="#000002" transform="translate(1091,285)"/>
<path d="M0 0 C0.66 0.66 1.32 1.32 2 2 C1.34 2 0.68 2 0 2 C0 1.34 0 0.68 0 0 Z " fill="#468ACA" transform="translate(68,86)"/>
<path d="M0 0 C2 1 2 1 2 1 Z " fill="#000002" transform="translate(1223,1235)"/>
<path d="" fill="#000002" transform="translate(0,0)"/>
<path d="M0 0 C2 1 2 1 2 1 Z " fill="#000002" transform="translate(878,495)"/>
<path d="M0 0 C2 1 2 1 2 1 Z " fill="#000002" transform="translate(896,490)"/>
<path d="M0 0 C2 1 2 1 2 1 Z " fill="#000002" transform="translate(632,280)"/>
<path d="" fill="#000002" transform="translate(0,0)"/>
<path d="" fill="#7CEAFF" transform="translate(0,0)"/>
<path d="" fill="#000002" transform="translate(0,0)"/>
<path d="" fill="#000002" transform="translate(0,0)"/>
<path d="" fill="#000002" transform="translate(0,0)"/>
<path d="" fill="#000002" transform="translate(0,0)"/>
<path d="" fill="#1C4067" transform="translate(0,0)"/>
<path d="" fill="#000002" transform="translate(0,0)"/>
<path d="" fill="#000002" transform="translate(0,0)"/>
<path d="" fill="#000002" transform="translate(0,0)"/>
<path d="" fill="#000002" transform="translate(0,0)"/>
<path d="" fill="#7CEAFF" transform="translate(0,0)"/>
<path d="" fill="#7CEAFF" transform="translate(0,0)"/>
<path d="" fill="#7CEAFF" transform="translate(0,0)"/>
<path d="" fill="#000002" transform="translate(0,0)"/>
<path d="" fill="#000002" transform="translate(0,0)"/>
<path d="" fill="#7CEAFF" transform="translate(0,0)"/>
<path d="" fill="#000002" transform="translate(0,0)"/>
<path d="" fill="#000002" transform="translate(0,0)"/>
<path d="" fill="#54A3FB" transform="translate(0,0)"/>
<path d="" fill="#54A3FB" transform="translate(0,0)"/>
<path d="" fill="#000002" transform="translate(0,0)"/>
<path d="" fill="#000002" transform="translate(0,0)"/>
<path d="" fill="#54A3FB" transform="translate(0,0)"/>
<path d="" fill="#000002" transform="translate(0,0)"/>
<path d="" fill="#54A3FB" transform="translate(0,0)"/>
<path d="" fill="#7CEAFF" transform="translate(0,0)"/>
<path d="" fill="#1C4067" transform="translate(0,0)"/>
<path d="" fill="#000002" transform="translate(0,0)"/>
<path d="" fill="#000002" transform="translate(0,0)"/>
<path d="" fill="#7CEAFF" transform="translate(0,0)"/>
<path d="" fill="#000002" transform="translate(0,0)"/>
<path d="" fill="#000002" transform="translate(0,0)"/>
<path d="" fill="#000002" transform="translate(0,0)"/>
<path d="" fill="#000002" transform="translate(0,0)"/>
<path d="" fill="#000002" transform="translate(0,0)"/>
<path d="" fill="#000002" transform="translate(0,0)"/>
<path d="" fill="#000002" transform="translate(0,0)"/>
<path d="" fill="#000002" transform="translate(0,0)"/>
<path d="" fill="#000002" transform="translate(0,0)"/>
<path d="" fill="#000002" transform="translate(0,0)"/>
<path d="" fill="#000002" transform="translate(0,0)"/>
<path d="" fill="#64BDFE" transform="translate(0,0)"/>
<path d="" fill="#000002" transform="translate(0,0)"/>
<path d="" fill="#000002" transform="translate(0,0)"/>
<path d="" fill="#7CEAFF" transform="translate(0,0)"/>
<path d="" fill="#7CEAFF" transform="translate(0,0)"/>
<path d="" fill="#7CEAFF" transform="translate(0,0)"/>
<path d="" fill="#7CEAFF" transform="translate(0,0)"/>
<path d="" fill="#64BDFE" transform="translate(0,0)"/>
<path d="" fill="#7CEAFF" transform="translate(0,0)"/>
<path d="" fill="#1C4067" transform="translate(0,0)"/>
<path d="" fill="#000002" transform="translate(0,0)"/>
<path d="" fill="#7CEAFF" transform="translate(0,0)"/>
<path d="" fill="#000002" transform="translate(0,0)"/>
<path d="" fill="#000002" transform="translate(0,0)"/>
<path d="" fill="#000002" transform="translate(0,0)"/>
</svg>
