<?xml version="1.0" encoding="UTF-8"?>
<!-- Generator: visioncortex VTracer 0.6.3 -->
<svg version="1.1" xmlns="http://www.w3.org/2000/svg" width="1280" height="1280">
<path d="M0 0 C2.02 1.13 2.02 1.13 4.1 0.99 C4.1 1.65 4.1 2.31 4.1 2.99 C5.32 3.24 6.54 3.48 7.79 3.74 C11.67 4.59 15.39 5.7 19.16 6.93 C26.69 9.31 34.33 10.67 42.1 11.99 C42.1 12.65 42.1 13.31 42.1 13.99 C42.74 13.98 43.39 13.97 44.05 13.95 C49.27 13.9 54.4 14.05 59.6 14.49 C69.57 15.84 69.57 15.84 79.1 13.99 C79.1 14.65 79.1 15.31 79.1 15.99 C79.99 15.77 79.99 15.77 80.9 15.55 C87.39 14.1 93.47 13.76 100.1 13.99 C100.1 13.33 100.1 12.67 100.1 11.99 C100.78 11.93 101.45 11.87 102.15 11.8 C103.04 11.72 103.93 11.64 104.85 11.55 C106.17 11.43 106.17 11.43 107.52 11.3 C110.06 11.06 110.06 11.06 112.3 10.39 C114.1 9.99 114.1 9.99 116.1 10.99 C116.1 10.33 116.1 9.67 116.1 8.99 C123.03 7.5 123.03 7.5 130.1 5.99 C130.1 5.33 130.1 4.67 130.1 3.99 C131.52 3.9 131.52 3.9 132.98 3.8 C137.33 3.2 140.74 1.24 144.59 -0.8 C148.04 -2.46 151.36 -3.25 155.1 -4.01 C155.1 -4.67 155.1 -5.33 155.1 -6.01 C156.75 -6.01 158.4 -6.01 160.1 -6.01 C160.1 -6.67 160.1 -7.33 160.1 -8.01 C168.35 -9.45 173.64 -8.67 181.1 -5.01 C183 -4.15 184.89 -3.3 186.79 -2.45 C187.7 -2.03 188.62 -1.61 189.56 -1.18 C194.66 1.16 199.75 3.28 205.1 4.99 C206.05 5.32 206.05 5.32 207.02 5.67 C212.65 7.63 218.26 8.97 224.1 10.11 C225.79 10.45 227.48 10.78 229.16 11.12 C229.9 11.26 230.63 11.41 231.39 11.56 C233.1 11.99 233.1 11.99 234.1 12.99 C245.27 14.53 256.45 15.17 267.73 15.18 C269.21 15.18 269.21 15.18 270.72 15.18 C276 15.17 276 15.17 281.1 13.99 C282.79 13.81 284.47 13.67 286.16 13.55 C290.88 13.16 295.39 12.42 300.01 11.39 C302.1 10.99 302.1 10.99 305.1 10.99 C305.43 10.33 305.76 9.67 306.1 8.99 C306.1 9.65 306.1 10.31 306.1 10.99 C306.76 10.99 307.42 10.99 308.1 10.99 C308.43 10.33 308.76 9.67 309.1 8.99 C311.08 8.99 313.06 8.99 315.1 8.99 C315.1 8.33 315.1 7.67 315.1 6.99 C317.74 6.66 320.38 6.33 323.1 5.99 C323.1 5.33 323.1 4.67 323.1 3.99 C326.07 3.49 326.07 3.49 329.1 2.99 C329.1 2.66 329.1 2.33 329.1 1.99 C329.91 1.86 330.71 1.74 331.54 1.61 C332.38 1.41 333.23 1.2 334.1 0.99 C334.43 0.33 334.76 -0.33 335.1 -1.01 C337.1 -1.79 337.1 -1.79 339.54 -2.51 C343.2 -3.58 343.2 -3.58 346.1 -6.01 C346.43 -5.68 346.76 -5.35 347.1 -5.01 C347.1 -5.34 347.1 -5.67 347.1 -6.01 C353.04 -8.3 359.02 -9.74 365.29 -8.26 C366.22 -7.85 367.15 -7.44 368.1 -7.01 C369.71 -6.33 369.71 -6.33 371.35 -5.64 C374.29 -3.9 374.8 -3.02 376.1 -0.01 C377.09 0.32 378.08 0.65 379.1 0.99 C379.1 2.31 379.1 3.63 379.1 4.99 C379.76 4.99 380.42 4.99 381.1 4.99 C382.27 8.48 382.19 11.14 382.14 14.83 C382.13 15.52 382.12 16.21 382.11 16.93 C382.09 19.21 382.05 21.49 382.02 23.78 C381.99 25.36 381.97 26.95 381.95 28.53 C381.91 31.85 381.86 35.17 381.8 38.49 C381.74 42.76 381.68 47.02 381.63 51.29 C381.58 54.56 381.54 57.83 381.49 61.11 C381.46 62.68 381.44 64.25 381.42 65.83 C381.39 68.02 381.36 70.21 381.32 72.4 C381.3 73.65 381.29 74.9 381.27 76.19 C381.1 78.99 381.1 78.99 380.1 79.99 C379.89 82.8 379.73 85.61 379.6 88.43 C379.24 96.72 379.24 96.72 378.1 98.99 C377.63 102.21 377.23 105.43 376.85 108.67 C376.2 113.89 376.2 113.89 375.1 114.99 C374.87 116.5 374.69 118.03 374.54 119.55 C374.46 120.38 374.37 121.2 374.29 122.05 C374.22 122.69 374.16 123.33 374.1 123.99 C373.44 123.99 372.78 123.99 372.1 123.99 C372.19 125.63 372.19 125.63 372.29 127.3 C372.1 130.99 372.1 130.99 370.6 132.93 C370.11 133.28 369.61 133.63 369.1 133.99 C369.76 133.99 370.42 133.99 371.1 133.99 C371.1 134.98 371.1 135.97 371.1 136.99 C370.44 136.99 369.78 136.99 369.1 136.99 C369.1 139.3 369.1 141.61 369.1 143.99 C368.44 143.99 367.78 143.99 367.1 143.99 C366.77 147.29 366.44 150.59 366.1 153.99 C365.44 153.99 364.78 153.99 364.1 153.99 C364.13 155.41 364.13 155.41 364.16 156.86 C364.1 159.99 364.1 159.99 363.1 161.99 C362.42 164.32 361.75 166.65 361.1 168.99 C360.44 168.99 359.78 168.99 359.1 168.99 C359.1 170.64 359.1 172.29 359.1 173.99 C358.44 173.99 357.78 173.99 357.1 173.99 C357.13 175.41 357.13 175.41 357.16 176.86 C357.1 179.99 357.1 179.99 356.1 181.99 C355.44 181.99 354.78 181.99 354.1 181.99 C354.1 183.31 354.1 184.63 354.1 185.99 C353.44 185.99 352.78 185.99 352.1 185.99 C352.13 187.41 352.13 187.41 352.16 188.86 C352.1 191.99 352.1 191.99 351.1 193.99 C350.44 193.99 349.78 193.99 349.1 193.99 C348.98 194.71 348.85 195.43 348.73 196.18 C348.11 198.95 347.22 201.39 346.1 203.99 C345.44 203.99 344.78 203.99 344.1 203.99 C344.1 205.64 344.1 207.29 344.1 208.99 C343.44 208.99 342.78 208.99 342.1 208.99 C341.77 210.64 341.44 212.29 341.1 213.99 C340.44 213.99 339.78 213.99 339.1 213.99 C338.98 214.71 338.85 215.43 338.73 216.18 C338.11 218.95 337.22 221.39 336.1 223.99 C335.44 223.99 334.78 223.99 334.1 223.99 C333.98 224.75 333.85 225.51 333.73 226.3 C333.1 228.99 333.1 228.99 331.1 231.99 C330.44 231.99 329.78 231.99 329.1 231.99 C328.98 232.73 328.85 233.47 328.73 234.24 C328.15 236.79 327.36 238.72 326.1 240.99 C325.77 240.33 325.44 239.67 325.1 238.99 C324.11 238.99 323.12 238.99 322.1 238.99 C322.56 239.65 323.01 240.31 323.48 240.99 C324.1 243.99 324.1 243.99 323.11 246.03 C320.02 250.43 317.59 252.94 312.1 253.99 C312.48 254.56 312.85 255.14 313.24 255.73 C314.1 257.99 314.1 257.99 313.31 260.02 C312.85 260.69 312.39 261.36 311.91 262.05 C311.47 262.72 311.02 263.39 310.56 264.09 C309.17 265.9 307.83 267.49 306.1 268.99 C305.44 268.99 304.78 268.99 304.1 268.99 C304.04 269.71 303.98 270.43 303.91 271.17 C302.84 274.91 300.95 276.44 298.1 279.05 C293.91 282.85 293.91 282.85 292.1 287.99 C294.06 288.01 294.06 288.01 296.05 288.03 C300.98 288.09 305.9 288.17 310.82 288.25 C312.94 288.28 315.05 288.31 317.17 288.33 C330.11 288.48 342.44 289.2 355.1 291.99 C355.1 292.65 355.1 293.31 355.1 293.99 C356.09 294.17 357.08 294.34 358.11 294.53 C363.26 296.01 366.4 299.59 370.04 303.36 C370.72 304.04 371.41 304.71 372.11 305.4 C377.1 310.47 377.1 310.47 377.1 314.99 C377.76 314.99 378.42 314.99 379.1 314.99 C380.75 317.89 381.35 319.95 381.35 323.28 C381.35 324.13 381.36 324.98 381.36 325.86 C381.35 326.8 381.35 327.73 381.34 328.69 C381.34 329.69 381.35 330.69 381.35 331.71 C381.35 335.06 381.34 338.4 381.33 341.75 C381.33 344.14 381.33 346.54 381.33 348.93 C381.33 354.77 381.32 360.6 381.31 366.43 C381.29 373.22 381.29 380.01 381.29 386.8 C381.28 398.9 381.27 411.01 381.25 423.11 C381.23 434.87 381.22 446.63 381.21 458.39 C381.21 459.11 381.21 459.84 381.21 460.58 C381.21 464.22 381.2 467.86 381.2 471.49 C381.18 501.66 381.15 531.82 381.1 561.99 C380.44 561.99 379.78 561.99 379.1 561.99 C378.92 563.1 378.92 563.1 378.73 564.24 C378.13 566.86 377.61 568.77 376.1 570.99 C373.98 571.74 373.98 571.74 372.1 571.99 C372.76 572.32 373.42 572.65 374.1 572.99 C369.84 578.35 365.52 583.24 359.1 585.99 C357.78 585.99 356.46 585.99 355.1 585.99 C355.1 586.65 355.1 587.31 355.1 587.99 C354.49 588.04 353.87 588.09 353.24 588.14 C352.43 588.21 351.62 588.29 350.79 588.36 C349.99 588.43 349.19 588.5 348.36 588.57 C345.83 588.88 345.83 588.88 343.1 590.99 C340.48 591.19 337.96 591.27 335.34 591.27 C334.54 591.27 333.74 591.28 332.92 591.28 C330.23 591.3 327.55 591.3 324.86 591.31 C322.94 591.32 321.02 591.33 319.1 591.34 C313.87 591.36 308.65 591.38 303.42 591.39 C297.96 591.41 292.51 591.44 287.05 591.46 C276.71 591.51 266.37 591.54 256.04 591.58 C244.27 591.62 232.5 591.67 220.73 591.72 C196.52 591.82 172.31 591.91 148.1 591.99 C148.1 604.86 148.1 617.73 148.1 630.99 C156.91 630.98 156.91 630.98 165.89 630.97 C185.27 630.96 204.64 630.94 224.01 630.94 C235.76 630.93 247.51 630.92 259.26 630.91 C269.5 630.9 279.74 630.9 289.98 630.89 C295.4 630.89 300.83 630.89 306.25 630.88 C311.35 630.88 316.46 630.87 321.56 630.88 C323.43 630.87 325.31 630.87 327.18 630.87 C329.74 630.86 332.3 630.87 334.86 630.87 C335.6 630.87 336.33 630.86 337.09 630.86 C343.64 630.88 349.5 631.48 355.54 634.05 C356.4 634.41 357.27 634.78 358.16 635.15 C358.8 635.43 359.44 635.7 360.1 635.99 C360.1 636.65 360.1 637.31 360.1 637.99 C361.09 637.66 362.08 637.33 363.1 636.99 C363.1 637.98 363.1 638.97 363.1 639.99 C363.68 640.07 364.27 640.16 364.87 640.25 C367.74 641.2 368.89 642.58 370.85 644.86 C371.47 645.56 372.08 646.26 372.71 646.98 C374.1 648.99 374.1 648.99 374.1 651.99 C374.74 652.15 375.38 652.32 376.04 652.49 C378.1 653.99 378.1 653.99 378.59 655.9 C378.83 657.92 378.97 659.96 379.1 661.99 C379.76 661.99 380.42 661.99 381.1 661.99 C381.89 664.77 382.23 667.23 382.23 670.11 C382.23 670.93 382.23 671.75 382.24 672.59 C382.23 673.48 382.23 674.37 382.23 675.29 C382.23 676.72 382.23 676.72 382.23 678.18 C382.24 681.38 382.23 684.58 382.23 687.78 C382.23 690.07 382.23 692.37 382.24 694.66 C382.24 700.89 382.24 707.12 382.24 713.34 C382.23 719.85 382.24 726.36 382.24 732.88 C382.24 744.51 382.24 756.14 382.23 767.78 C382.23 778.33 382.23 788.88 382.23 799.43 C382.24 811.68 382.24 823.93 382.24 836.18 C382.23 842.67 382.23 849.16 382.24 855.64 C382.24 861.74 382.24 867.83 382.23 873.93 C382.23 876.17 382.23 878.41 382.23 880.66 C382.24 883.71 382.23 886.76 382.23 889.81 C382.23 891.15 382.23 891.15 382.24 892.52 C382.22 895.92 382.19 898.74 381.1 901.99 C380.44 901.99 379.78 901.99 379.1 901.99 C378.95 903.91 378.95 903.91 378.79 905.86 C378.61 908.04 378.61 908.04 378.1 909.99 C377.11 910.65 376.12 911.31 375.1 911.99 C374.42 913.38 374.42 913.38 373.73 914.8 C370.94 920.26 367.73 922.86 362.1 924.99 C361.44 925.98 360.78 926.97 360.1 927.99 C358.19 928.68 358.19 928.68 356.04 929.11 C353.3 929.53 353.3 929.53 351.1 930.99 C349.01 931.09 346.91 931.11 344.81 931.11 C344.15 931.12 343.48 931.12 342.79 931.12 C340.52 931.12 338.24 931.12 335.97 931.12 C334.33 931.12 332.69 931.12 331.05 931.12 C326.5 931.13 321.95 931.13 317.4 931.12 C312.47 931.12 307.53 931.13 302.6 931.13 C293.94 931.13 285.28 931.14 276.61 931.13 C263.74 931.13 250.86 931.14 237.98 931.14 C213.64 931.15 189.3 931.15 164.97 931.16 C162.28 931.16 159.6 931.16 156.91 931.16 C156.24 931.16 155.58 931.16 154.89 931.16 C140.13 931.16 125.38 931.16 110.62 931.16 C104.55 931.16 98.47 931.16 92.4 931.16 C91.73 931.16 91.06 931.16 90.37 931.16 C51.91 931.17 13.45 931.17 -25.01 931.17 C-26.45 931.17 -27.89 931.17 -29.33 931.17 C-35.83 931.17 -42.33 931.17 -48.83 931.17 C-51.73 931.17 -54.63 931.17 -57.53 931.17 C-58.98 931.17 -60.44 931.17 -61.89 931.17 C-107.78 931.17 -153.67 931.18 -199.57 931.19 C-211.13 931.2 -222.69 931.2 -234.25 931.2 C-234.96 931.2 -235.68 931.2 -236.41 931.2 C-258.34 931.21 -280.28 931.21 -302.21 931.22 C-302.9 931.22 -303.59 931.22 -304.29 931.22 C-319.4 931.22 -334.52 931.22 -349.63 931.22 C-355.03 931.22 -360.44 931.22 -365.85 931.22 C-367.19 931.22 -368.54 931.22 -369.88 931.22 C-390.67 931.22 -411.45 931.22 -432.24 931.23 C-455.11 931.24 -477.98 931.24 -500.85 931.23 C-513.66 931.23 -526.47 931.23 -539.28 931.24 C-547.82 931.25 -556.37 931.25 -564.91 931.24 C-569.79 931.24 -574.66 931.24 -579.54 931.24 C-583.97 931.25 -588.4 931.25 -592.83 931.24 C-594.43 931.24 -596.03 931.24 -597.63 931.25 C-599.79 931.25 -601.95 931.25 -604.11 931.24 C-605.31 931.24 -606.51 931.24 -607.74 931.24 C-610.92 930.99 -613.11 930.52 -615.9 928.99 C-616.23 928 -616.56 927.01 -616.9 925.99 C-617.23 926.65 -617.56 927.31 -617.9 927.99 C-618.56 927.99 -619.22 927.99 -619.9 927.99 C-621.23 926.65 -622.57 925.32 -623.9 923.99 C-625.11 923.31 -625.11 923.31 -626.34 922.61 C-629.6 920.54 -631.53 918.03 -633.9 914.99 C-634.6 914.18 -635.3 913.38 -636.02 912.55 C-641.78 904.69 -643.2 895.83 -643.15 886.37 C-643.16 885.42 -643.16 884.46 -643.16 883.49 C-643.17 880.31 -643.16 877.14 -643.16 873.96 C-643.16 871.68 -643.16 869.4 -643.17 867.12 C-643.18 860.93 -643.17 854.75 -643.17 848.56 C-643.16 842.09 -643.17 835.62 -643.17 829.15 C-643.17 817.59 -643.17 806.03 -643.16 794.47 C-643.15 783.99 -643.15 773.51 -643.16 763.03 C-643.17 750.85 -643.17 738.67 -643.17 726.5 C-643.16 720.05 -643.16 713.61 -643.17 707.16 C-643.18 701.11 -643.17 695.05 -643.16 689 C-643.16 686.77 -643.16 684.55 -643.16 682.32 C-643.17 679.29 -643.16 676.26 -643.15 673.23 C-643.16 672.34 -643.16 671.46 -643.17 670.54 C-643.16 669.73 -643.16 668.92 -643.15 668.08 C-643.15 667.38 -643.15 666.69 -643.15 665.96 C-642.85 663.63 -641.99 662.06 -640.9 659.99 C-640.59 658.79 -640.28 657.6 -639.96 656.36 C-638.9 652.99 -638.9 652.99 -635.9 650.99 C-635.65 650.27 -635.4 649.54 -635.15 648.8 C-633.35 644.75 -630.48 641.61 -626.9 638.99 C-625.58 638.99 -624.26 638.99 -622.9 638.99 C-622.63 638.35 -622.36 637.71 -622.09 637.05 C-620.34 634.02 -617.97 634.01 -614.71 632.99 C-607.98 631.22 -601.44 630.84 -594.53 630.87 C-593.73 630.87 -592.93 630.87 -592.1 630.87 C-589.43 630.86 -586.76 630.87 -584.09 630.87 C-582.17 630.88 -580.25 630.87 -578.32 630.87 C-573.12 630.87 -567.92 630.88 -562.71 630.89 C-557.27 630.89 -551.82 630.89 -546.38 630.89 C-536.08 630.9 -525.77 630.91 -515.47 630.92 C-503.74 630.93 -492.01 630.93 -480.28 630.94 C-456.15 630.95 -432.02 630.97 -407.9 630.99 C-407.9 618.12 -407.9 605.25 -407.9 591.99 C-413.79 591.97 -419.68 591.95 -425.75 591.93 C-445.17 591.86 -464.6 591.78 -484.02 591.7 C-495.8 591.65 -507.58 591.6 -519.36 591.57 C-529.62 591.53 -539.89 591.49 -550.15 591.45 C-555.59 591.42 -561.03 591.4 -566.47 591.38 C-571.58 591.37 -576.7 591.35 -581.81 591.32 C-583.69 591.31 -585.57 591.31 -587.45 591.3 C-590.01 591.3 -592.57 591.29 -595.13 591.27 C-595.88 591.27 -596.63 591.27 -597.41 591.27 C-601.12 591.23 -602.73 591.1 -605.9 588.99 C-608.18 588.53 -608.18 588.53 -610.59 588.36 C-611.39 588.29 -612.2 588.21 -613.04 588.14 C-613.65 588.09 -614.26 588.04 -614.9 587.99 C-614.9 587.33 -614.9 586.67 -614.9 585.99 C-615.56 585.91 -616.22 585.82 -616.9 585.74 C-623.71 584.04 -628.26 581.18 -632.58 575.66 C-633.97 573.82 -633.97 573.82 -636.21 571.8 C-638.12 569.75 -638.29 568.67 -638.9 565.99 C-639.38 564.65 -639.88 563.31 -640.4 561.99 C-641.99 557.91 -643.02 554.29 -643.02 549.89 C-643.02 549.08 -643.03 548.26 -643.03 547.43 C-643.02 546.54 -643.02 545.65 -643.02 544.74 C-643.02 543.79 -643.02 542.84 -643.02 541.87 C-643.02 538.69 -643.02 535.51 -643.01 532.33 C-643.01 530.05 -643.01 527.78 -643.01 525.5 C-643.01 519.31 -643.01 513.12 -643 506.94 C-642.99 500.47 -642.99 494.01 -642.99 487.55 C-642.99 476.7 -642.98 465.84 -642.97 454.99 C-642.96 443.82 -642.96 432.64 -642.95 421.46 C-642.95 420.77 -642.95 420.08 -642.95 419.37 C-642.95 415.92 -642.95 412.46 -642.95 409.01 C-642.94 380.33 -642.92 351.66 -642.9 322.99 C-642.24 322.99 -641.58 322.99 -640.9 322.99 C-641.1 322.43 -641.31 321.87 -641.52 321.3 C-642.01 318.33 -641.16 316.67 -639.9 313.99 C-639.24 313.99 -638.58 313.99 -637.9 313.99 C-637.86 312.97 -637.86 312.97 -637.82 311.94 C-636.44 307.51 -633.48 304.99 -630.21 301.8 C-629.6 301.17 -628.99 300.54 -628.35 299.9 C-624.81 296.38 -621.97 293.96 -616.9 292.99 C-616.24 293.32 -615.58 293.65 -614.9 293.99 C-614.9 293.33 -614.9 292.67 -614.9 291.99 C-606.47 289.56 -606.47 289.56 -601.9 290.99 C-601.9 290.33 -601.9 289.67 -601.9 288.99 C-388.39 288.99 -174.88 288.99 45.1 288.99 C42.03 282.24 42.03 282.24 37.66 277.49 C34.51 274.54 32.37 271.53 30.24 267.79 C29.16 265.91 29.16 265.91 27.46 264.44 C26.1 262.99 26.1 262.99 26.1 259.99 C25.11 259.66 24.12 259.33 23.1 258.99 C21.67 256.91 21.67 256.91 20.23 254.3 C18.46 251.23 16.76 248.4 14.41 245.74 C11.78 242.61 9.1 239.23 9.1 234.99 C8.44 234.99 7.78 234.99 7.1 234.99 C6.77 233.01 6.44 231.03 6.1 228.99 C5.44 228.99 4.78 228.99 4.1 228.99 C1.1 223.24 1.1 223.24 1.1 220.99 C0.44 220.66 -0.22 220.33 -0.9 219.99 C-8.9 206.21 -8.9 206.21 -8.9 200.99 C-9.56 200.66 -10.22 200.33 -10.9 199.99 C-11.95 197.68 -12.94 195.34 -13.9 192.99 C-14.29 192.25 -14.68 191.5 -15.09 190.74 C-15.9 188.99 -15.9 188.99 -15.9 185.99 C-16.56 185.99 -17.22 185.99 -17.9 185.99 C-18.02 185.03 -18.02 185.03 -18.15 184.05 C-18.82 181.3 -19.69 179.21 -20.9 176.68 C-22.35 173.55 -23.19 170.92 -23.52 167.49 C-23.71 165.76 -23.71 165.76 -23.9 163.99 C-24.56 163.66 -25.22 163.33 -25.9 162.99 C-26.64 161.02 -27.29 159.01 -27.9 156.99 C-28.24 155.9 -28.58 154.82 -28.93 153.7 C-29.27 152.6 -29.61 151.5 -29.96 150.36 C-30.3 149.26 -30.64 148.15 -31 147.01 C-31.69 144.67 -32.33 142.36 -32.9 139.99 C-33.12 139.1 -33.35 138.21 -33.58 137.29 C-35.12 131.21 -36.57 125.12 -37.9 118.99 C-38.14 117.94 -38.37 116.89 -38.62 115.81 C-41.23 104.08 -42.94 92.44 -43.65 80.44 C-43.63 78.04 -43.63 78.04 -44.9 76.99 C-45.14 74.66 -45.32 72.36 -45.45 70.02 C-45.49 69.27 -45.53 68.52 -45.57 67.75 C-46.07 57.81 -46.12 47.85 -46.14 37.89 C-46.15 34.53 -46.18 31.17 -46.21 27.81 C-46.22 25.64 -46.22 23.47 -46.23 21.3 C-46.24 20.32 -46.25 19.33 -46.26 18.31 C-46.24 10.49 -45.53 2.46 -40.02 -3.51 C-27.88 -14.1 -12.18 -6.39 0 0 Z M370.1 120.99 C370.43 121.65 370.76 122.31 371.1 122.99 C371.76 122.99 372.42 122.99 373.1 122.99 C373.1 122.33 373.1 121.67 373.1 120.99 C372.11 120.99 371.12 120.99 370.1 120.99 Z M355.1 170.99 C355.43 171.65 355.76 172.31 356.1 172.99 C356.43 172.33 356.76 171.67 357.1 170.99 C356.44 170.99 355.78 170.99 355.1 170.99 Z M330.1 227.99 C331.1 229.99 331.1 229.99 331.1 229.99 Z M319.1 244.99 C319.43 245.98 319.76 246.97 320.1 247.99 C320.43 247 320.76 246.01 321.1 244.99 C320.44 244.99 319.78 244.99 319.1 244.99 Z M304.1 265.99 C305.1 267.99 305.1 267.99 305.1 267.99 Z M300.1 270.99 C300.76 271.65 301.42 272.31 302.1 272.99 C302.1 272.33 302.1 271.67 302.1 270.99 C301.44 270.99 300.78 270.99 300.1 270.99 Z M299.1 271.99 C300.1 273.99 300.1 273.99 300.1 273.99 Z M377.1 563.99 C378.1 565.99 378.1 565.99 378.1 565.99 Z M-363.9 591.99 C-363.92 597.38 -363.94 602.78 -363.95 608.17 C-363.96 610 -363.97 611.84 -363.97 613.68 C-363.99 616.31 -363.99 618.94 -364 621.58 C-364 622.4 -364.01 623.23 -364.01 624.08 C-364.01 626.05 -363.96 628.02 -363.9 629.99 C-362.19 631.69 -360.04 631.11 -357.77 631.12 C-356.65 631.12 -356.65 631.12 -355.51 631.11 C-354.73 631.11 -353.94 631.11 -353.13 631.11 C-350.46 631.12 -347.79 631.11 -345.12 631.11 C-343.21 631.11 -341.29 631.11 -339.37 631.11 C-334.07 631.11 -328.77 631.11 -323.47 631.1 C-317.77 631.1 -312.06 631.1 -306.36 631.1 C-296.46 631.1 -286.57 631.1 -276.68 631.09 C-262.37 631.09 -248.07 631.08 -233.77 631.08 C-210.56 631.08 -187.36 631.07 -164.15 631.06 C-141.61 631.05 -119.06 631.05 -96.51 631.04 C-95.47 631.04 -95.47 631.04 -94.41 631.04 C-87.43 631.04 -80.46 631.04 -73.48 631.04 C-14.95 631.03 43.57 631.01 102.1 630.99 C102.1 617.79 102.1 604.59 102.1 590.99 C43.02 590.97 -16.05 590.95 -75.13 590.94 C-82.1 590.94 -89.06 590.93 -96.03 590.93 C-96.72 590.93 -97.42 590.93 -98.13 590.93 C-120.62 590.93 -143.11 590.92 -165.6 590.91 C-189.36 590.9 -213.12 590.9 -236.88 590.89 C-251.12 590.89 -265.36 590.89 -279.6 590.88 C-289.35 590.88 -299.1 590.87 -308.85 590.87 C-314.49 590.88 -320.12 590.87 -325.76 590.87 C-330.91 590.86 -336.06 590.86 -341.21 590.87 C-343.08 590.87 -344.95 590.87 -346.82 590.86 C-349.35 590.86 -351.88 590.86 -354.41 590.87 C-355.15 590.86 -355.88 590.86 -356.65 590.86 C-360.4 590.81 -360.4 590.81 -363.9 591.99 Z M103.1 591.99 C103.1 604.86 103.1 617.73 103.1 630.99 C103.43 630.99 103.76 630.99 104.1 630.99 C104.1 618.12 104.1 605.25 104.1 591.99 C103.77 591.99 103.44 591.99 103.1 591.99 Z M146.1 592.99 C146.1 605.2 146.1 617.41 146.1 629.99 C146.43 629.99 146.76 629.99 147.1 629.99 C147.1 617.78 147.1 605.57 147.1 592.99 C146.77 592.99 146.44 592.99 146.1 592.99 Z " fill="#EC5D59" transform="translate(769.8984375,178.01171875)"/>
<path d="M0 0 C0.33 0.99 0.66 1.98 1 3 C7.11 2.88 13.21 2.76 19.32 2.63 C21.4 2.58 23.47 2.54 25.55 2.5 C28.53 2.45 31.52 2.38 34.5 2.32 C35.43 2.3 36.37 2.28 37.33 2.27 C38.19 2.25 39.05 2.23 39.94 2.21 C41.08 2.18 41.08 2.18 42.25 2.16 C44.03 2.19 44.03 2.19 45 1 C47.48 0.9 49.92 0.86 52.4 0.86 C53.19 0.86 53.98 0.86 54.79 0.85 C57.46 0.84 60.14 0.84 62.81 0.84 C64.73 0.84 66.66 0.83 68.58 0.83 C73.89 0.81 79.2 0.81 84.51 0.8 C90.23 0.79 95.95 0.78 101.66 0.76 C111.58 0.74 121.49 0.72 131.41 0.71 C145.74 0.69 160.08 0.66 174.41 0.63 C197.66 0.58 220.92 0.54 244.17 0.5 C266.77 0.46 289.36 0.42 311.96 0.37 C312.65 0.37 313.35 0.37 314.07 0.37 C321.06 0.35 328.05 0.34 335.04 0.33 C393.69 0.21 452.35 0.1 511 0 C511.33 0.66 511.66 1.32 512 2 C526.19 2.33 540.38 2.66 555 3 C555 2.34 555 1.68 555 1 C580.43 0.98 605.87 0.96 631.3 0.95 C643.11 0.94 654.92 0.94 666.73 0.92 C677.02 0.91 687.32 0.91 697.61 0.91 C703.06 0.9 708.51 0.9 713.96 0.89 C719.09 0.89 724.22 0.89 729.35 0.89 C731.24 0.89 733.12 0.88 735 0.88 C737.57 0.88 740.14 0.88 742.72 0.88 C743.46 0.88 744.2 0.87 744.97 0.87 C751.52 0.89 757.39 1.49 763.44 4.06 C764.73 4.61 764.73 4.61 766.06 5.16 C766.7 5.44 767.34 5.71 768 6 C768 6.66 768 7.32 768 8 C769.49 7.5 769.49 7.5 771 7 C771 7.99 771 8.98 771 10 C771.87 10.13 771.87 10.13 772.77 10.26 C775.64 11.21 776.79 12.59 778.75 14.88 C779.36 15.57 779.98 16.27 780.61 16.99 C782 19 782 19 782 22 C782.96 22.25 782.96 22.25 783.94 22.5 C786 24 786 24 786.49 25.91 C786.73 27.94 786.87 29.97 787 32 C787.66 32 788.32 32 789 32 C789.78 34.78 790.13 37.24 790.13 40.12 C790.13 40.94 790.13 41.76 790.13 42.6 C790.13 43.49 790.13 44.39 790.13 45.31 C790.13 46.74 790.13 46.74 790.13 48.19 C790.14 51.39 790.13 54.59 790.13 57.8 C790.13 60.09 790.13 62.38 790.13 64.67 C790.14 70.9 790.14 77.13 790.13 83.36 C790.13 89.87 790.13 96.38 790.14 102.89 C790.14 114.52 790.13 126.15 790.13 137.79 C790.12 148.34 790.13 158.89 790.13 169.45 C790.14 181.7 790.14 193.95 790.13 206.2 C790.13 212.68 790.13 219.17 790.14 225.65 C790.14 231.75 790.14 237.85 790.13 243.94 C790.13 246.18 790.13 248.43 790.13 250.67 C790.14 253.72 790.13 256.77 790.13 259.82 C790.13 260.72 790.13 261.61 790.13 262.53 C790.12 265.94 790.08 268.75 789 272 C788.34 272 787.68 272 787 272 C786.9 273.28 786.79 274.56 786.69 275.88 C786.51 278.05 786.51 278.05 786 280 C785.01 280.66 784.02 281.32 783 282 C782.32 283.39 782.32 283.39 781.62 284.81 C778.84 290.27 775.63 292.87 770 295 C769.34 295.99 768.68 296.98 768 298 C766.09 298.7 766.09 298.7 763.94 299.12 C761.2 299.54 761.2 299.54 759 301 C756.91 301.1 754.81 301.13 752.71 301.13 C752.04 301.13 751.38 301.13 750.69 301.13 C748.41 301.14 746.14 301.13 743.87 301.13 C742.23 301.13 740.59 301.13 738.95 301.13 C734.4 301.14 729.85 301.14 725.3 301.13 C720.36 301.13 715.43 301.14 710.5 301.14 C701.84 301.15 693.17 301.15 684.51 301.15 C671.63 301.14 658.75 301.15 645.88 301.15 C621.54 301.16 597.2 301.17 572.87 301.17 C570.18 301.17 567.49 301.17 564.81 301.17 C564.14 301.17 563.47 301.17 562.79 301.17 C548.03 301.17 533.27 301.17 518.52 301.17 C512.44 301.17 506.37 301.17 500.3 301.18 C499.63 301.18 498.96 301.18 498.27 301.18 C459.81 301.18 421.35 301.19 382.89 301.19 C381.45 301.19 380.01 301.19 378.57 301.19 C372.07 301.19 365.57 301.19 359.06 301.19 C356.16 301.19 353.26 301.19 350.37 301.19 C348.91 301.19 347.46 301.19 346.01 301.19 C300.12 301.18 254.23 301.19 208.33 301.21 C196.77 301.21 185.21 301.21 173.65 301.22 C172.93 301.22 172.22 301.22 171.49 301.22 C149.56 301.22 127.62 301.23 105.69 301.23 C105 301.23 104.31 301.23 103.6 301.23 C88.49 301.23 73.38 301.23 58.27 301.23 C52.87 301.23 47.46 301.23 42.05 301.23 C40.71 301.23 39.36 301.23 38.02 301.23 C17.23 301.23 -3.56 301.23 -24.34 301.24 C-47.21 301.25 -70.08 301.25 -92.95 301.25 C-105.76 301.24 -118.57 301.24 -131.38 301.25 C-139.92 301.26 -148.47 301.26 -157.01 301.25 C-161.89 301.25 -166.76 301.25 -171.64 301.26 C-176.07 301.26 -180.5 301.26 -184.93 301.25 C-186.53 301.25 -188.13 301.25 -189.73 301.26 C-191.89 301.26 -194.05 301.26 -196.21 301.25 C-197.41 301.25 -198.61 301.25 -199.85 301.25 C-203.02 301 -205.21 300.53 -208 299 C-208.33 298.01 -208.66 297.02 -209 296 C-209.33 296.66 -209.66 297.32 -210 298 C-210.66 298 -211.32 298 -212 298 C-213.33 296.67 -214.67 295.33 -216 294 C-217.21 293.32 -217.21 293.32 -218.44 292.62 C-221.7 290.55 -223.63 288.04 -226 285 C-226.7 284.2 -227.4 283.39 -228.12 282.56 C-233.88 274.7 -235.3 265.84 -235.25 256.38 C-235.26 255.43 -235.26 254.48 -235.26 253.5 C-235.27 250.32 -235.27 247.15 -235.26 243.97 C-235.26 241.69 -235.27 239.41 -235.27 237.13 C-235.28 230.95 -235.27 224.76 -235.27 218.57 C-235.26 212.1 -235.27 205.63 -235.27 199.16 C-235.28 187.6 -235.27 176.04 -235.26 164.48 C-235.25 154 -235.25 143.52 -235.26 133.04 C-235.27 120.86 -235.28 108.68 -235.27 96.51 C-235.27 90.06 -235.27 83.62 -235.27 77.17 C-235.28 71.12 -235.27 65.06 -235.26 59.01 C-235.26 56.78 -235.26 54.56 -235.27 52.33 C-235.27 49.3 -235.26 46.27 -235.25 43.24 C-235.26 42.36 -235.26 41.47 -235.27 40.56 C-235.26 39.74 -235.26 38.93 -235.25 38.1 C-235.25 37.4 -235.25 36.7 -235.25 35.98 C-234.95 33.64 -234.1 32.07 -233 30 C-232.69 28.8 -232.38 27.61 -232.06 26.38 C-231 23 -231 23 -228 21 C-227.75 20.28 -227.5 19.56 -227.25 18.81 C-225.45 14.76 -222.58 11.62 -219 9 C-217.68 9 -216.36 9 -215 9 C-214.73 8.36 -214.46 7.72 -214.19 7.06 C-212.44 4.03 -210.07 4.02 -206.81 3 C-200.1 1.24 -193.54 0.85 -186.64 0.84 C-185.83 0.84 -185.03 0.83 -184.2 0.83 C-181.53 0.81 -178.86 0.8 -176.19 0.79 C-174.27 0.79 -172.35 0.78 -170.42 0.76 C-165.22 0.74 -160.02 0.72 -154.81 0.7 C-149.37 0.67 -143.92 0.65 -138.48 0.62 C-128.18 0.57 -117.88 0.53 -107.57 0.48 C-95.84 0.43 -84.11 0.38 -72.38 0.32 C-48.25 0.21 -24.13 0.1 0 0 Z " fill="#EC5D59" transform="translate(362,808)"/>
<path d="M0 0 C2.02 1.13 2.02 1.13 4.1 0.99 C4.1 1.65 4.1 2.31 4.1 2.99 C5.32 3.24 6.54 3.48 7.79 3.74 C11.67 4.59 15.39 5.7 19.16 6.93 C26.69 9.31 34.33 10.67 42.1 11.99 C42.1 12.65 42.1 13.31 42.1 13.99 C42.74 13.98 43.39 13.97 44.05 13.95 C49.27 13.9 54.4 14.05 59.6 14.49 C69.57 15.84 69.57 15.84 79.1 13.99 C79.1 14.65 79.1 15.31 79.1 15.99 C79.7 15.84 80.29 15.7 80.9 15.55 C87.39 14.1 93.47 13.76 100.1 13.99 C100.1 13.33 100.1 12.67 100.1 11.99 C100.78 11.93 101.45 11.87 102.15 11.8 C103.49 11.68 103.49 11.68 104.85 11.55 C106.17 11.43 106.17 11.43 107.52 11.3 C110.06 11.06 110.06 11.06 112.3 10.39 C114.1 9.99 114.1 9.99 116.1 10.99 C116.1 10.33 116.1 9.67 116.1 8.99 C123.03 7.5 123.03 7.5 130.1 5.99 C130.1 5.33 130.1 4.67 130.1 3.99 C131.05 3.93 132 3.86 132.98 3.8 C137.33 3.2 140.74 1.24 144.59 -0.8 C148.04 -2.46 151.36 -3.25 155.1 -4.01 C155.1 -4.67 155.1 -5.33 155.1 -6.01 C156.75 -6.01 158.4 -6.01 160.1 -6.01 C160.1 -6.67 160.1 -7.33 160.1 -8.01 C168.35 -9.45 173.64 -8.67 181.1 -5.01 C183 -4.15 184.89 -3.3 186.79 -2.45 C187.7 -2.03 188.62 -1.61 189.56 -1.18 C194.66 1.16 199.75 3.28 205.1 4.99 C205.74 5.21 206.37 5.44 207.02 5.67 C212.65 7.63 218.26 8.97 224.1 10.11 C225.79 10.45 227.48 10.78 229.16 11.12 C229.9 11.26 230.63 11.41 231.39 11.56 C233.1 11.99 233.1 11.99 234.1 12.99 C245.27 14.53 256.45 15.17 267.73 15.18 C269.21 15.18 269.21 15.18 270.72 15.18 C276 15.17 276 15.17 281.1 13.99 C282.79 13.81 284.47 13.67 286.16 13.55 C290.88 13.16 295.39 12.42 300.01 11.39 C302.1 10.99 302.1 10.99 305.1 10.99 C305.43 10.33 305.76 9.67 306.1 8.99 C306.1 9.65 306.1 10.31 306.1 10.99 C306.76 10.99 307.42 10.99 308.1 10.99 C308.43 10.33 308.76 9.67 309.1 8.99 C311.08 8.99 313.06 8.99 315.1 8.99 C315.1 8.33 315.1 7.67 315.1 6.99 C317.74 6.66 320.38 6.33 323.1 5.99 C323.1 5.33 323.1 4.67 323.1 3.99 C325.08 3.66 327.06 3.33 329.1 2.99 C329.1 2.66 329.1 2.33 329.1 1.99 C329.91 1.86 330.71 1.74 331.54 1.61 C332.38 1.41 333.23 1.2 334.1 0.99 C334.43 0.33 334.76 -0.33 335.1 -1.01 C337.1 -1.79 337.1 -1.79 339.54 -2.51 C343.2 -3.58 343.2 -3.58 346.1 -6.01 C346.43 -5.68 346.76 -5.35 347.1 -5.01 C347.1 -5.34 347.1 -5.67 347.1 -6.01 C353.04 -8.3 359.02 -9.74 365.29 -8.26 C366.22 -7.85 367.15 -7.44 368.1 -7.01 C369.71 -6.33 369.71 -6.33 371.35 -5.64 C374.29 -3.9 374.8 -3.02 376.1 -0.01 C377.09 0.32 378.08 0.65 379.1 0.99 C379.1 2.31 379.1 3.63 379.1 4.99 C379.76 4.99 380.42 4.99 381.1 4.99 C382.27 8.48 382.19 11.14 382.14 14.83 C382.13 15.52 382.12 16.21 382.11 16.93 C382.09 19.21 382.05 21.49 382.02 23.78 C381.99 25.36 381.97 26.95 381.95 28.53 C381.91 31.85 381.86 35.17 381.8 38.49 C381.74 42.76 381.68 47.02 381.63 51.29 C381.58 54.56 381.54 57.83 381.49 61.11 C381.46 62.68 381.44 64.25 381.42 65.83 C381.39 68.02 381.36 70.21 381.32 72.4 C381.3 73.65 381.29 74.9 381.27 76.19 C381.1 78.99 381.1 78.99 380.1 79.99 C379.89 82.8 379.73 85.61 379.6 88.43 C379.24 96.72 379.24 96.72 378.1 98.99 C377.63 102.21 377.23 105.43 376.85 108.67 C376.2 113.89 376.2 113.89 375.1 114.99 C374.87 116.5 374.69 118.03 374.54 119.55 C374.46 120.38 374.37 121.2 374.29 122.05 C374.22 122.69 374.16 123.33 374.1 123.99 C373.44 123.99 372.78 123.99 372.1 123.99 C372.19 125.63 372.19 125.63 372.29 127.3 C372.1 130.99 372.1 130.99 370.6 132.93 C370.11 133.28 369.61 133.63 369.1 133.99 C369.76 133.99 370.42 133.99 371.1 133.99 C371.1 134.98 371.1 135.97 371.1 136.99 C370.44 136.99 369.78 136.99 369.1 136.99 C369.1 139.3 369.1 141.61 369.1 143.99 C368.44 143.99 367.78 143.99 367.1 143.99 C366.77 147.29 366.44 150.59 366.1 153.99 C365.44 153.99 364.78 153.99 364.1 153.99 C364.13 155.41 364.13 155.41 364.16 156.86 C364.1 159.99 364.1 159.99 363.1 161.99 C362.42 164.32 361.75 166.65 361.1 168.99 C360.44 168.99 359.78 168.99 359.1 168.99 C359.1 170.64 359.1 172.29 359.1 173.99 C358.44 173.99 357.78 173.99 357.1 173.99 C357.13 175.41 357.13 175.41 357.16 176.86 C357.1 179.99 357.1 179.99 356.1 181.99 C355.44 181.99 354.78 181.99 354.1 181.99 C354.1 183.31 354.1 184.63 354.1 185.99 C353.44 185.99 352.78 185.99 352.1 185.99 C352.13 187.41 352.13 187.41 352.16 188.86 C352.1 191.99 352.1 191.99 351.1 193.99 C350.44 193.99 349.78 193.99 349.1 193.99 C348.98 194.71 348.85 195.43 348.73 196.18 C348.11 198.95 347.22 201.39 346.1 203.99 C345.44 203.99 344.78 203.99 344.1 203.99 C344.1 205.64 344.1 207.29 344.1 208.99 C343.44 208.99 342.78 208.99 342.1 208.99 C341.77 210.64 341.44 212.29 341.1 213.99 C340.44 213.99 339.78 213.99 339.1 213.99 C338.98 214.71 338.85 215.43 338.73 216.18 C338.11 218.95 337.22 221.39 336.1 223.99 C335.44 223.99 334.78 223.99 334.1 223.99 C333.98 224.75 333.85 225.51 333.73 226.3 C333.1 228.99 333.1 228.99 331.1 231.99 C330.44 231.99 329.78 231.99 329.1 231.99 C328.98 232.73 328.85 233.47 328.73 234.24 C328.15 236.79 327.36 238.72 326.1 240.99 C325.77 240.33 325.44 239.67 325.1 238.99 C324.11 238.99 323.12 238.99 322.1 238.99 C322.56 239.65 323.01 240.31 323.48 240.99 C324.1 243.99 324.1 243.99 323.11 246.03 C320.02 250.43 317.59 252.94 312.1 253.99 C312.48 254.56 312.85 255.14 313.24 255.73 C314.1 257.99 314.1 257.99 313.31 260.02 C312.85 260.69 312.39 261.36 311.91 262.05 C311.47 262.72 311.02 263.39 310.56 264.09 C309.17 265.9 307.83 267.49 306.1 268.99 C305.44 268.99 304.78 268.99 304.1 268.99 C304.04 269.71 303.97 270.43 303.91 271.18 C302.85 274.87 301.03 276.39 298.23 278.99 C294.58 282.34 294.58 282.34 291.78 286.36 C289.75 289.54 287.32 291.51 284.45 293.93 C278.83 298.86 273.72 304.37 268.5 309.72 C262.35 315.94 255.94 321.54 249.1 326.99 C248 327.92 246.9 328.86 245.82 329.82 C227.9 345.44 207.85 358.06 187.16 369.68 C186.07 370.29 186.07 370.29 184.96 370.92 C178.59 374.43 172.54 377.07 165.1 375.99 C158.33 373.78 152 370.56 145.79 367.11 C144.94 366.64 144.09 366.17 143.21 365.69 C124.07 354.91 106.11 341.86 89.1 327.99 C88.24 327.32 87.39 326.65 86.5 325.95 C80.46 321.16 74.97 316.03 69.6 310.51 C66.59 307.41 63.49 304.68 60.1 301.99 C58.82 300.67 57.56 299.32 56.35 297.93 C55.76 297.25 55.17 296.58 54.55 295.89 C53.1 293.99 53.1 293.99 52.1 290.99 C50.46 290.65 50.46 290.65 48.79 290.3 C45.1 288.99 45.1 288.99 44 287.33 C43.38 285.94 42.78 284.54 42.19 283.13 C40.63 280.06 38.34 278.12 35.84 275.79 C33.5 273.37 31.9 270.7 30.24 267.79 C29.16 265.91 29.16 265.91 27.46 264.44 C26.1 262.99 26.1 262.99 26.1 259.99 C25.11 259.66 24.12 259.33 23.1 258.99 C21.67 256.91 21.67 256.91 20.23 254.3 C18.46 251.23 16.76 248.4 14.41 245.74 C11.78 242.61 9.1 239.23 9.1 234.99 C8.44 234.99 7.78 234.99 7.1 234.99 C6.77 233.01 6.44 231.03 6.1 228.99 C5.44 228.99 4.78 228.99 4.1 228.99 C1.1 223.24 1.1 223.24 1.1 220.99 C0.44 220.66 -0.22 220.33 -0.9 219.99 C-8.9 206.21 -8.9 206.21 -8.9 200.99 C-9.56 200.66 -10.22 200.33 -10.9 199.99 C-11.95 197.68 -12.94 195.34 -13.9 192.99 C-14.29 192.25 -14.68 191.5 -15.09 190.74 C-15.9 188.99 -15.9 188.99 -15.9 185.99 C-16.56 185.99 -17.22 185.99 -17.9 185.99 C-18.02 185.03 -18.02 185.03 -18.15 184.05 C-18.82 181.3 -19.69 179.21 -20.9 176.68 C-22.35 173.55 -23.19 170.92 -23.52 167.49 C-23.65 166.33 -23.77 165.18 -23.9 163.99 C-24.56 163.66 -25.22 163.33 -25.9 162.99 C-26.64 161.02 -27.29 159.01 -27.9 156.99 C-28.41 155.36 -28.41 155.36 -28.93 153.7 C-29.27 152.6 -29.61 151.5 -29.96 150.36 C-30.47 148.7 -30.47 148.7 -31 147.01 C-31.69 144.67 -32.33 142.36 -32.9 139.99 C-33.12 139.1 -33.35 138.21 -33.58 137.29 C-35.12 131.21 -36.57 125.12 -37.9 118.99 C-38.14 117.94 -38.37 116.89 -38.62 115.81 C-41.23 104.08 -42.94 92.44 -43.65 80.44 C-43.63 78.04 -43.63 78.04 -44.9 76.99 C-45.14 74.66 -45.32 72.36 -45.45 70.02 C-45.51 68.9 -45.51 68.9 -45.57 67.75 C-46.07 57.81 -46.12 47.85 -46.14 37.89 C-46.15 34.53 -46.18 31.17 -46.21 27.81 C-46.22 25.64 -46.22 23.47 -46.23 21.3 C-46.24 20.32 -46.25 19.33 -46.26 18.31 C-46.24 10.49 -45.53 2.46 -40.02 -3.51 C-27.88 -14.1 -12.18 -6.39 0 0 Z M370.1 120.99 C370.43 121.65 370.76 122.31 371.1 122.99 C371.76 122.99 372.42 122.99 373.1 122.99 C373.1 122.33 373.1 121.67 373.1 120.99 C372.11 120.99 371.12 120.99 370.1 120.99 Z M355.1 170.99 C355.43 171.65 355.76 172.31 356.1 172.99 C356.43 172.33 356.76 171.67 357.1 170.99 C356.44 170.99 355.78 170.99 355.1 170.99 Z M330.1 227.99 C331.1 229.99 331.1 229.99 331.1 229.99 Z M319.1 244.99 C319.43 245.98 319.76 246.97 320.1 247.99 C320.43 247 320.76 246.01 321.1 244.99 C320.44 244.99 319.78 244.99 319.1 244.99 Z M304.1 265.99 C305.1 267.99 305.1 267.99 305.1 267.99 Z M300.1 270.99 C300.76 271.65 301.42 272.31 302.1 272.99 C302.1 272.33 302.1 271.67 302.1 270.99 C301.44 270.99 300.78 270.99 300.1 270.99 Z M299.1 271.99 C300.1 273.99 300.1 273.99 300.1 273.99 Z " fill="#A6D06F" transform="translate(769.8984375,178.01171875)"/>
<path d="M0 0 C1.25 -0.01 2.5 -0.01 3.79 -0.02 C7.24 -0.04 10.68 -0.03 14.13 -0.02 C17.86 -0.02 21.59 -0.03 25.31 -0.04 C32.61 -0.07 39.9 -0.07 47.19 -0.06 C53.12 -0.05 59.05 -0.05 64.97 -0.06 C66.24 -0.06 66.24 -0.06 67.54 -0.06 C69.25 -0.06 70.97 -0.07 72.69 -0.07 C88.77 -0.08 104.85 -0.08 120.94 -0.06 C135.64 -0.04 150.35 -0.06 165.05 -0.09 C180.16 -0.12 195.28 -0.13 210.39 -0.12 C212.1 -0.12 213.81 -0.12 215.52 -0.12 C216.36 -0.12 217.2 -0.11 218.07 -0.11 C223.99 -0.11 229.91 -0.12 235.83 -0.14 C243.04 -0.15 250.26 -0.15 257.48 -0.13 C261.16 -0.12 264.83 -0.12 268.51 -0.14 C272.51 -0.16 276.5 -0.14 280.5 -0.11 C282.23 -0.13 282.23 -0.13 283.99 -0.15 C291.35 -0.06 297.16 1.2 303.25 5.51 C309.21 11.97 310.62 16.5 310.52 25.25 C309.95 32.13 306.24 35.92 301.13 40.25 C288.93 48.45 266.68 44.66 252.7 44.66 C249.91 44.66 247.12 44.67 244.34 44.67 C237.57 44.68 230.81 44.68 224.05 44.68 C218.55 44.68 213.05 44.68 207.55 44.69 C191.93 44.7 176.31 44.7 160.69 44.7 C159.85 44.7 159.01 44.7 158.14 44.7 C157.3 44.7 156.46 44.7 155.59 44.7 C141.95 44.7 128.32 44.71 114.68 44.72 C100.64 44.74 86.61 44.74 72.58 44.74 C64.71 44.74 56.84 44.75 48.98 44.76 C42.28 44.77 35.59 44.77 28.89 44.76 C25.48 44.76 22.07 44.76 18.66 44.77 C14.95 44.77 11.24 44.77 7.54 44.76 C5.94 44.77 5.94 44.77 4.32 44.78 C-16.9 44.68 -16.9 44.68 -23.75 38.51 C-28.64 33.41 -30.78 29.1 -31.06 22.08 C-30.9 15.83 -28.56 10.52 -24.37 5.86 C-17.4 0.07 -8.6 -0.06 0 0 Z " fill="#E3403A" transform="translate(734.752197265625,596.4853363037109)"/>
<path d="M0 0 C3.98 0 7.97 0 11.95 0 C12.96 0 12.96 0 13.98 0 C15.34 -0 16.7 -0 18.06 -0 C30.71 -0 43.36 -0 56.01 0 C66.79 0.01 77.56 0.01 88.33 0 C100.95 -0 113.56 -0 126.18 -0 C127.54 -0 128.89 0 130.25 0 C130.91 0 131.58 0 132.26 0 C136.88 0 141.49 0 146.1 -0 C193.42 -0.02 193.42 -0.02 211.1 0.41 C213.06 0.45 215.01 0.49 216.97 0.52 C224.74 0.76 230.15 1.8 235.78 7.51 C236.36 8.07 236.93 8.64 237.52 9.22 C241.97 14.85 241.63 21.29 241.03 28.13 C238.9 34.3 234.4 38.56 229.03 42.13 C226.13 43.1 224.04 43.33 221.01 43.45 C219.99 43.49 218.96 43.53 217.91 43.57 C216.24 43.63 216.24 43.63 214.54 43.69 C213.38 43.73 212.22 43.77 211.02 43.82 C198.3 44.24 185.59 44.28 172.86 44.26 C170.25 44.27 167.65 44.27 165.04 44.27 C158.77 44.27 152.51 44.27 146.24 44.27 C141.14 44.27 136.04 44.27 130.93 44.27 C129.84 44.27 129.84 44.27 128.72 44.27 C127.23 44.27 125.74 44.27 124.25 44.27 C110.37 44.27 96.5 44.27 82.63 44.26 C70.76 44.26 58.9 44.26 47.04 44.26 C33.19 44.27 19.35 44.27 5.5 44.27 C4.02 44.27 2.54 44.27 1.06 44.27 C0.33 44.27 -0.39 44.27 -1.14 44.27 C-6.23 44.27 -11.32 44.27 -16.41 44.27 C-23.27 44.27 -30.14 44.27 -37 44.27 C-39.5 44.26 -42.01 44.26 -44.51 44.27 C-52 44.27 -59.48 44.25 -66.97 44.13 C-67.87 44.12 -68.78 44.11 -69.71 44.09 C-72.2 44.05 -74.68 43.97 -77.16 43.88 C-77.86 43.86 -78.56 43.85 -79.28 43.84 C-85.26 43.55 -89.48 41.39 -93.89 37.39 C-98.42 31.87 -100.44 27.7 -100.2 20.46 C-99.41 12.63 -96.04 8.74 -90.12 3.7 C-84.83 -0.14 -78.05 0.76 -71.77 0.58 C-70.71 0.55 -70.71 0.55 -69.63 0.52 C-46.43 -0.15 -23.21 -0.01 0 0 Z " fill="#E3403A" transform="translate(803.9667465686798,937.865674495697)"/>
<path d="M0 0 C0.91 0 1.82 0.01 2.76 0.02 C11.22 0.23 18.09 2.04 25.81 5.5 C27.29 6.15 27.29 6.15 28.79 6.82 C43.32 14 54.48 27.19 60.31 42.25 C65.89 60.12 64.92 77.72 57.25 94.75 C48.56 110.85 34.08 121 17.12 126.75 C-1.15 130.89 -18.79 127.95 -34.81 118.25 C-49.7 108.33 -59.34 95.17 -63.68 77.7 C-66.83 57.85 -61.65 39.93 -49.88 23.69 C-43.81 16.37 -36.59 11.45 -28.19 7.19 C-27.55 6.86 -26.91 6.54 -26.25 6.2 C-17.7 2.06 -9.51 -0.07 0 0 Z " fill="#F5D436" transform="translate(490.1875,553.5)"/>
<path d="M0 0 C0.67 0.52 1.35 1.03 2.04 1.57 C3.02 2.26 3.02 2.26 4.02 2.98 C17.28 13.3 24.65 30.4 27.04 46.57 C28.64 63.64 23.62 80.08 13.35 93.75 C2.59 106.45 -12.21 115.25 -28.98 116.75 C-49.66 118.04 -66.29 112.25 -81.96 98.57 C-82.6 98.02 -83.24 97.48 -83.89 96.92 C-94.3 87.4 -100.35 72.58 -101.2 58.63 C-101.65 40.46 -96.55 23.94 -84.52 10.07 C-62.25 -12.81 -26.94 -19.54 0 0 Z " fill="#F5D436" transform="translate(526.9609375,906.43359375)"/>
<path d="M0 0 C12.94 9.67 23.27 24.91 26 41 C27.68 61.06 25.93 77.85 13 94 C1.42 107.39 -12.98 115.42 -30.69 116.88 C-52.33 117.62 -68.92 110.81 -84.9 96.27 C-91 90 -94.48 81.91 -98 74 C-98.58 72.72 -98.58 72.72 -99.17 71.41 C-104.4 57.37 -101.35 39.77 -95.46 26.54 C-86.85 9.66 -74.67 -1.12 -57 -8 C-56.14 -8.34 -55.29 -8.68 -54.4 -9.03 C-36.27 -15.08 -15.52 -10.53 0 0 Z " fill="#A6D170" transform="translate(335,565)"/>
<path d="M0 0 C13.08 10.38 22.47 24.59 26 41 C27.57 62.2 25.5 79.71 11.22 96.29 C0.11 108.55 -14.52 116.26 -31.18 117.31 C-50.34 118.07 -66.39 112.62 -81 100 C-81.69 99.41 -82.38 98.81 -83.09 98.2 C-94.49 87.63 -100.87 72.4 -101.59 56.97 C-101.85 38.28 -95.22 21.81 -82.3 8.24 C-60.36 -13.18 -25.76 -17.93 0 0 Z " fill="#A6D170" transform="translate(335,906)"/>
<path d="M0 0 C5.39 3 9.63 8.84 11.55 14.67 C12.56 20.68 12.48 26.06 9.47 31.46 C6.66 35.28 3.25 38.47 -0.18 41.72 C-3.07 44.5 -5.67 47.49 -8.29 50.52 C-11.38 54.06 -14.59 57.46 -17.81 60.88 C-18.51 61.61 -19.2 62.35 -19.92 63.11 C-24.59 68.05 -29.34 72.89 -34.18 77.66 C-36.73 80.19 -39.18 82.76 -41.5 85.5 C-45.4 90.09 -49.72 94.25 -54 98.48 C-57.7 102.16 -61.24 105.91 -64.62 109.9 C-66.73 112.32 -69.02 114.53 -71.31 116.77 C-72.96 118.45 -74.47 120.18 -75.99 121.98 C-81.05 127.79 -86.52 133.21 -91.97 138.65 C-93.82 140.51 -95.67 142.38 -97.52 144.24 C-98.7 145.43 -99.89 146.62 -101.07 147.8 C-101.62 148.36 -102.17 148.92 -102.73 149.49 C-107.83 154.55 -110.78 155.92 -117.94 156 C-125.51 155.88 -129.03 154.61 -134.51 149.33 C-141.52 142.08 -147.66 134.04 -153.66 125.94 C-156.54 122.05 -159.49 118.22 -162.44 114.38 C-163.55 112.92 -164.65 111.47 -165.76 110.02 C-167.45 107.82 -169.13 105.61 -170.83 103.42 C-172.48 101.28 -174.11 99.14 -175.75 97 C-176.25 96.36 -176.74 95.72 -177.26 95.07 C-181.69 89.22 -184.85 83.56 -184.53 76.02 C-183.58 70.38 -181.29 65.56 -177 61.73 C-171.08 57.62 -165.57 54.74 -158.18 56.05 C-148.97 58.61 -144.1 66.24 -138.67 73.55 C-136.46 76.52 -134.21 79.45 -131.96 82.39 C-130.85 83.84 -129.74 85.3 -128.63 86.76 C-127.61 88.1 -126.59 89.44 -125.56 90.77 C-124.63 91.97 -123.71 93.19 -122.81 94.42 C-120.96 96.84 -119.4 98.49 -116.67 99.87 C-112.64 99.48 -110.83 96.69 -108.38 93.75 C-107.32 92.54 -106.25 91.33 -105.19 90.12 C-104.67 89.52 -104.15 88.92 -103.62 88.31 C-101.61 86.04 -99.48 83.93 -97.31 81.81 C-94.01 78.56 -90.95 75.18 -87.94 71.66 C-85.27 68.67 -82.41 65.88 -79.53 63.09 C-77.59 61.1 -75.78 59.08 -73.97 56.97 C-68.8 51.01 -63.12 45.58 -57.51 40.05 C-53.11 35.69 -48.86 31.29 -44.83 26.59 C-41.69 22.97 -38.4 19.49 -35.12 16 C-34.45 15.28 -33.78 14.55 -33.09 13.8 C-24.09 4.22 -14.08 -5.75 0 0 Z " fill="#F6E381" transform="translate(1024.125,265.375)"/>
<path d="M0 0 C14.19 0 28.38 0 43 0 C44.69 3.38 44.14 7.2 44.13 10.91 C44.13 11.79 44.13 12.68 44.14 13.58 C44.14 15.45 44.13 17.32 44.13 19.19 C44.13 22.05 44.13 24.92 44.14 27.79 C44.14 29.6 44.13 31.41 44.13 33.22 C44.13 34.09 44.14 34.95 44.14 35.84 C44.11 41.89 44.11 41.89 43 43 C41.65 43.09 40.29 43.12 38.94 43.11 C38.08 43.11 37.22 43.11 36.33 43.11 C35.4 43.11 34.46 43.1 33.5 43.1 C32.54 43.1 31.59 43.09 30.61 43.09 C27.55 43.09 24.49 43.08 21.44 43.06 C19.37 43.06 17.3 43.05 15.24 43.05 C10.16 43.04 5.08 43.02 0 43 C-1.29 39.14 -1.14 35.49 -1.13 31.46 C-1.13 30.63 -1.13 29.8 -1.14 28.94 C-1.14 27.17 -1.13 25.41 -1.13 23.65 C-1.13 20.94 -1.13 18.24 -1.14 15.54 C-1.14 13.83 -1.13 12.11 -1.13 10.4 C-1.13 9.59 -1.14 8.78 -1.14 7.94 C-1.11 2.23 -1.11 2.23 0 0 Z " fill="#6B8A92" transform="translate(363,768)"/>
<path d="M0 0 C0.76 0 1.52 0 2.31 0.01 C3.17 0.01 4.03 0.01 4.92 0.01 C5.85 0.01 6.79 0.02 7.75 0.02 C8.7 0.02 9.66 0.03 10.64 0.03 C13.7 0.03 16.75 0.05 19.81 0.06 C21.88 0.06 23.94 0.07 26.01 0.07 C31.09 0.08 36.17 0.1 41.25 0.12 C42.53 3.98 42.39 7.63 42.38 11.66 C42.38 12.49 42.38 13.32 42.38 14.18 C42.38 15.95 42.38 17.71 42.38 19.47 C42.37 22.18 42.38 24.88 42.38 27.58 C42.38 29.29 42.38 31.01 42.38 32.72 C42.38 33.53 42.38 34.34 42.39 35.18 C42.36 40.89 42.36 40.89 41.25 43.12 C27.06 43.12 12.87 43.12 -1.75 43.12 C-3.44 39.75 -2.89 35.92 -2.89 32.21 C-2.89 31.33 -2.89 30.44 -2.89 29.54 C-2.89 27.67 -2.89 25.8 -2.88 23.93 C-2.88 21.07 -2.88 18.2 -2.89 15.33 C-2.89 13.52 -2.89 11.71 -2.89 9.9 C-2.89 9.03 -2.89 8.17 -2.89 7.28 C-2.86 0.2 -2.86 0.2 0 0 Z M40.25 3.12 C40.25 15.33 40.25 27.54 40.25 40.12 C40.58 40.12 40.91 40.12 41.25 40.12 C41.25 27.91 41.25 15.7 41.25 3.12 C40.92 3.12 40.59 3.12 40.25 3.12 Z " fill="#68888F" transform="translate(875.7527008056641,767.8797454833984)"/>
<path d="M0 0 C312.18 0 624.36 0 946 0 C946 0.33 946 0.66 946 1 C633.82 1 321.64 1 0 1 C0 0.67 0 0.34 0 0 Z " fill="#000000" transform="translate(167,1110)"/>
<path d="M0 0 C0.33 0 0.66 0 1 0 C1 76.56 1 153.12 1 232 C0.67 232 0.34 232 0 232 C0 155.44 0 78.88 0 0 Z " fill="#000000" transform="translate(1152,844)"/>
<path d="M0 0 C0.33 0 0.66 0 1 0 C1 76.23 1 152.46 1 231 C0.67 231 0.34 231 0 231 C0 154.77 0 78.54 0 0 Z " fill="#000000" transform="translate(1152,503)"/>
<path d="M0 0 C0.33 0 0.66 0 1 0 C1 19.8 1 39.6 1 60 C0.67 60 0.34 60 0 60 C0 40.2 0 20.4 0 0 Z " fill="#000000" transform="translate(1152,186)"/>
<path d="M0 0 C4.98 -0.1 9.9 0.06 14.88 0.38 C15.99 0.44 17.1 0.51 18.24 0.59 C21 1 21 1 23 3 C15.41 3 7.82 3 0 3 C0 2.01 0 1.02 0 0 Z " fill="#CDC16D" transform="translate(815,192)"/>
<path d="M0 0 C-2.4 1.2 -3.89 1.11 -6.57 1.1 C-7.47 1.09 -8.36 1.09 -9.29 1.09 C-10.22 1.08 -11.16 1.07 -12.12 1.06 C-13.07 1.06 -14.01 1.05 -14.99 1.05 C-17.33 1.04 -19.66 1.02 -22 1 C-16.32 -2.78 -5.93 -3.79 0 0 Z " fill="#CDC26D" transform="translate(870,194)"/>
<path d="M0 0 C0.74 0.25 1.49 0.5 2.25 0.75 C0.93 1.08 -0.39 1.41 -1.75 1.75 C-1.75 2.74 -1.75 3.73 -1.75 4.75 C-2.74 4.75 -3.73 4.75 -4.75 4.75 C-5.08 6.07 -5.41 7.39 -5.75 8.75 C-6.5 6.5 -6.5 6.5 -6.75 3.75 C-4.65 0.68 -3.79 -0.34 0 0 Z " fill="#D6DB7A" transform="translate(734.75,173.25)"/>
<path d="M0 0 C1.98 0 3.96 0 6 0 C6 0.33 6 0.66 6 1 C4.02 1 2.04 1 0 1 C0 0.67 0 0.34 0 0 Z " fill="#000000" transform="translate(1116,767)"/>
<path d="M0 0 C1.98 0 3.96 0 6 0 C6 0.33 6 0.66 6 1 C4.02 1 2.04 1 0 1 C0 0.67 0 0.34 0 0 Z " fill="#000000" transform="translate(158,767)"/>
<path d="M0 0 C0.33 0 0.66 0 1 0 C1 1.65 1 3.3 1 5 C0.67 5 0.34 5 0 5 C0 3.35 0 1.7 0 0 Z " fill="#000000" transform="translate(1150,259)"/>
<path d="M0 0 C0.99 0.5 0.99 0.5 2 1 C1.01 1.5 1.01 1.5 0 2 C0 1.34 0 0.68 0 0 Z " fill="#F6E381" transform="translate(1085,432)"/>
<path d="M0 0 C3 1 3 1 3 1 Z " fill="#A6D170" transform="translate(1039,192)"/>
<path d="M0 0 C2 1 2 1 2 1 Z " fill="#000000" transform="translate(1124,1107)"/>
<path d="M0 0 C2 1 2 1 2 1 Z " fill="#000000" transform="translate(154,1107)"/>
<path d="M0 0 C2 1 2 1 2 1 Z " fill="#000000" transform="translate(1131,762)"/>
<path d="M0 0 C2 1 2 1 2 1 Z " fill="#000000" transform="translate(147,762)"/>
<path d="M0 0 C2 1 2 1 2 1 Z " fill="#88AE81" transform="translate(1140,310)"/>
<path d="" fill="#000000" transform="translate(0,0)"/>
<path d="" fill="#000000" transform="translate(0,0)"/>
<path d="" fill="#000000" transform="translate(0,0)"/>
<path d="" fill="#000000" transform="translate(0,0)"/>
<path d="" fill="#000000" transform="translate(0,0)"/>
<path d="" fill="#000000" transform="translate(0,0)"/>
<path d="" fill="#000000" transform="translate(0,0)"/>
<path d="" fill="#ED5E5A" transform="translate(0,0)"/>
<path d="" fill="#000000" transform="translate(0,0)"/>
<path d="" fill="#000000" transform="translate(0,0)"/>
<path d="" fill="#000000" transform="translate(0,0)"/>
<path d="" fill="#F6E381" transform="translate(0,0)"/>
<path d="" fill="#6B8B93" transform="translate(0,0)"/>
<path d="" fill="#000000" transform="translate(0,0)"/>
<path d="" fill="#F6E381" transform="translate(0,0)"/>
<path d="" fill="#F6E381" transform="translate(0,0)"/>
<path d="" fill="#6B8B93" transform="translate(0,0)"/>
<path d="" fill="#000000" transform="translate(0,0)"/>
<path d="" fill="#000000" transform="translate(0,0)"/>
<path d="" fill="#000000" transform="translate(0,0)"/>
<path d="" fill="#000000" transform="translate(0,0)"/>
<path d="" fill="#000000" transform="translate(0,0)"/>
<path d="" fill="#000000" transform="translate(0,0)"/>
<path d="" fill="#A6D170" transform="translate(0,0)"/>
<path d="" fill="#A6D170" transform="translate(0,0)"/>
<path d="" fill="#000000" transform="translate(0,0)"/>
<path d="" fill="#000000" transform="translate(0,0)"/>
</svg>
