<?xml version="1.0" encoding="UTF-8"?>
<!-- Generator: visioncortex VTracer 0.6.3 -->
<svg version="1.1" xmlns="http://www.w3.org/2000/svg" width="1280" height="1280">
<path d="M0 0 C12.44 -0.72 12.44 -0.72 18 4 C19.33 4.68 20.66 5.35 22 6 C22.74 6.45 23.49 6.91 24.25 7.38 C27.2 9.12 30.23 10.58 33.33 12.04 C35 13 35 13 36 15 C37.76 16.08 39.56 17.09 41.38 18.06 C42.35 18.59 43.33 19.12 44.34 19.66 C47 21.08 47 21.08 50 22 C50 22.66 50 23.32 50 24 C50.56 24.12 51.11 24.25 51.69 24.38 C55.37 25.37 58.28 26.28 61 29 C63.32 30.04 65.65 31.04 68 32 C68 32.66 68 33.32 68 34 C69.09 34.31 70.19 34.62 71.31 34.94 C73.55 35.58 75.79 36.26 78 37 C78 37.66 78 38.32 78 39 C79.03 39.27 80.06 39.54 81.12 39.81 C84.66 40.82 87.75 42.27 91 44 C92.64 44.77 92.64 44.77 94.31 45.56 C97 47 97 47 98 49 C99.97 49.74 99.97 49.74 102.38 50.31 C108.16 51.95 113.72 54.1 119 57 C119.33 57.66 119.66 58.32 120 59 C122.17 59.74 122.17 59.74 124.81 60.31 C131.16 61.94 137.01 64.37 143 67 C147.28 68.86 151.58 70.63 155.96 72.24 C157.34 72.75 158.71 73.28 160.07 73.82 C164.05 75.38 167.73 76.47 172 77 C172 77.66 172 78.32 172 79 C172.57 79.12 173.14 79.24 173.72 79.37 C174.49 79.53 175.27 79.7 176.06 79.88 C176.82 80.04 177.57 80.2 178.35 80.37 C181.6 81.14 184.79 82.07 188 83 C191.42 83.98 194.84 84.95 198.27 85.93 C200.65 86.61 203.04 87.31 205.42 88.01 C213.84 90.47 222.31 92.54 230.85 94.5 C232.92 94.98 234.99 95.49 237.05 96 C246.47 98.32 255.93 100.12 265.51 101.69 C266.45 101.85 267.4 102.01 268.37 102.17 C269.22 102.3 270.06 102.44 270.93 102.58 C273 103 273 103 275 104 C276.7 104.28 278.42 104.51 280.13 104.72 C281.16 104.85 282.2 104.97 283.27 105.11 C284.35 105.24 285.44 105.37 286.56 105.5 C287.62 105.63 288.68 105.76 289.78 105.89 C294.56 106.48 299.35 107.04 304.15 107.53 C308 108 308 108 310 109 C311.4 109.21 312.81 109.37 314.22 109.5 C315.49 109.62 315.49 109.62 316.8 109.75 C317.69 109.83 318.58 109.92 319.5 110 C321.24 110.17 322.98 110.33 324.72 110.5 C325.58 110.58 326.44 110.66 327.33 110.75 C331.56 111.15 335.78 111.57 340 112 C340 112.66 340 113.32 340 114 C340.95 114.06 341.9 114.12 342.88 114.19 C343.91 114.46 344.94 114.72 346 115 C347.25 117.5 347.25 117.5 348 120 C348.66 120.33 349.32 120.66 350 121 C352.76 128.65 352.25 136.63 352.2 144.66 C352.19 146.17 352.19 147.68 352.19 149.2 C352.18 153.15 352.16 157.11 352.14 161.07 C352.12 165.12 352.11 169.17 352.1 173.22 C352.08 181.15 352.04 189.07 352 197 C351.67 197 351.34 197 351 197 C350.43 201.88 349.93 206.7 350 211.62 C350.11 222.33 350.11 222.33 347 227 C346 230.06 345.81 233 345.68 236.2 C345.64 237.18 345.6 238.16 345.56 239.17 C345.5 240.7 345.5 240.7 345.44 242.25 C345.39 243.28 345.35 244.31 345.31 245.38 C345.2 247.92 345.1 250.46 345 253 C344.34 253 343.68 253 343 253 C343 255.31 343 257.62 343 260 C342.34 260 341.68 260 341 260 C341.33 260.66 341.66 261.32 342 262 C342.17 264.02 342.17 264.02 342.19 266.38 C342.2 267.15 342.22 267.92 342.23 268.71 C341.91 271.94 340.52 274.14 338.88 276.88 C337.73 279.65 337.86 282.03 338 285 C337.34 285 336.68 285 336 285 C336.33 285.99 336.66 286.98 337 288 C336.67 288.33 336.34 288.66 336 289 C335.84 290.66 335.72 292.33 335.62 294 C335.13 300.07 333.73 305.54 331 311 C330.85 312.35 330.73 313.71 330.62 315.06 C330.06 320.67 328.52 325.96 326 331 C325.87 332.35 325.77 333.71 325.69 335.06 C325.25 339.52 323.86 342.91 321.92 346.91 C320.75 349.56 320.29 352.13 320 355 C319.34 355 318.68 355 318 355 C318 357.31 318 359.62 318 362 C317.34 362 316.68 362 316 362 C316.06 363.05 316.12 364.1 316.19 365.19 C315.99 369.22 315.18 370.72 313 374 C313 374.99 313 375.98 313 377 C312.34 377 311.68 377 311 377 C311.12 378.55 311.12 378.55 311.25 380.12 C310.96 384.67 309.57 386.34 307 390 C306.26 393.02 306.26 393.02 306 396 C305.67 397.67 305.34 399.34 305 401 C304.01 401.33 303.02 401.66 302 402 C301.81 403.67 301.81 403.67 301.62 405.38 C301 409 301 409 299 411 C298.6 412.99 298.26 414.99 298 417 C297.34 417 296.68 417 296 417 C295.88 418.28 295.75 419.56 295.62 420.88 C295.25 424.75 295.25 424.75 293 427 C291.52 429.61 290.63 432.07 290 435 C289.34 435 288.68 435 288 435 C288 435.66 288 436.32 288 437 C287.34 437 286.68 437 286 437 C286.33 437.99 286.66 438.98 287 440 C286.06 442.69 286.06 442.69 285 445 C284.34 445 283.68 445 283 445 C283 445.66 283 446.32 283 447 C282.34 447 281.68 447 281 447 C281.33 447.99 281.66 448.98 282 450 C281.22 452.3 281.22 452.3 280 455 C279.6 456.02 279.2 457.03 278.78 458.08 C278.36 459.12 277.94 460.17 277.5 461.25 C277.08 462.31 276.65 463.36 276.22 464.45 C275 467 275 467 273 468 C272.34 467.67 271.68 467.34 271 467 C271.33 467.99 271.66 468.98 272 470 C271.06 472.69 271.06 472.69 270 475 C269.34 475 268.68 475 268 475 C268 475.66 268 476.32 268 477 C267.34 477 266.68 477 266 477 C266.33 477.99 266.66 478.98 267 480 C266.06 482.69 266.06 482.69 265 485 C264.34 485 263.68 485 263 485 C263 485.66 263 486.32 263 487 C262.34 487 261.68 487 261 487 C261.33 487.99 261.66 488.98 262 490 C260.63 492 260.63 492 259 494 C258.67 494.99 258.34 495.98 258 497 C257.34 497 256.68 497 256 497 C256 497.99 256 498.98 256 500 C255.34 500.66 254.68 501.32 254 502 C252.41 505.58 251.21 509.28 250 513 C248.68 512.67 247.36 512.34 246 512 C246.33 512.99 246.66 513.98 247 515 C246.06 517.69 246.06 517.69 245 520 C244.34 520 243.68 520 243 520 C242.67 521.98 242.34 523.96 242 526 C241.01 526.33 240.02 526.66 239 527 C238.67 527.99 238.34 528.98 238 530 C237.34 530 236.68 530 236 530 C236.33 531.32 236.66 532.64 237 534 C235.68 534.33 234.36 534.66 233 535 C233 535.66 233 536.32 233 537 C232.34 537 231.68 537 231 537 C230.67 538.32 230.34 539.64 230 541 C229.34 540.67 228.68 540.34 228 540 C228.33 540.99 228.66 541.98 229 543 C228.34 543.66 227.68 544.32 227 545 C226.29 546.65 225.62 548.32 225 550 C224.34 550 223.68 550 223 550 C223 550.66 223 551.32 223 552 C222.34 552 221.68 552 221 552 C221 552.99 221 553.98 221 555 C220.34 555.66 219.68 556.32 219 557 C218.67 557.99 218.34 558.98 218 560 C217.34 560 216.68 560 216 560 C216.33 560.99 216.66 561.98 217 563 C215.68 563.99 214.36 564.98 213 566 C212.34 565.67 211.68 565.34 211 565 C211.33 566.65 211.66 568.3 212 570 C211.34 570 210.68 570 210 570 C209.67 570.99 209.34 571.98 209 573 C208.34 573.33 207.68 573.66 207 574 C204.78 575.93 204.78 575.93 204 579 C203.01 579 202.02 579 201 579 C201.33 579.99 201.66 580.98 202 582 C200.69 583.5 200.69 583.5 199 585 C198.01 585 197.02 585 196 585 C195.67 586.65 195.34 588.3 195 590 C194.34 590 193.68 590 193 590 C193 590.66 193 591.32 193 592 C192.34 592 191.68 592 191 592 C191.33 592.99 191.66 593.98 192 595 C189.69 596.98 187.38 598.96 185 601 C184.34 600.67 183.68 600.34 183 600 C183.37 600.8 183.37 600.8 183.75 601.62 C184.14 605.34 182.19 607.06 180 610 C178.16 611.8 176.26 613.56 174.31 615.25 C170.66 618.23 170.66 618.23 168 622 C167.34 622 166.68 622 166 622 C165.34 623.98 164.68 625.96 164 628 C163.01 627.67 162.02 627.34 161 627 C161.33 627.99 161.66 628.98 162 630 C159.03 634.18 155.58 637.36 151.64 640.61 C149.83 642.1 149.83 642.1 147.69 644.38 C146 646 146 646 144 646 C143.03 652.07 142.67 658.08 142.39 664.21 C142.1 669.9 142.1 669.9 141 671 C140.87 672.44 140.8 673.89 140.75 675.34 C140.72 676.24 140.69 677.14 140.65 678.06 C140.59 679.94 140.54 681.82 140.48 683.71 C140.28 689.21 139.67 694.35 138.42 699.71 C137.97 702.19 137.93 704.49 138 707 C137.34 707 136.68 707 136 707 C136.33 707.99 136.66 708.98 137 710 C136.67 710.33 136.34 710.66 136 711 C135.71 714.49 135.55 717.98 135.38 721.48 C135.03 724.76 134.26 727 133 730 C132.83 732.11 132.83 732.11 133 734.12 C133 738 133 738 131 741 C130.61 743.4 130.61 743.4 130.5 746.06 C130.1 751.49 129.19 756.69 128 762 C127.34 762 126.68 762 126 762 C125.94 763.25 125.94 763.25 125.89 764.53 C125.54 770.5 125.02 775.8 122.9 781.4 C121.65 785.02 120.74 788.72 119.81 792.44 C119.63 793.15 119.45 793.86 119.27 794.59 C118.33 798.25 118.33 798.25 118 802 C117.34 802 116.68 802 116 802 C115.97 802.92 115.95 803.83 115.92 804.77 C115.87 805.96 115.81 807.15 115.75 808.38 C115.68 810.15 115.68 810.15 115.61 811.96 C115 815 115 815 112.95 816.41 C111.99 816.7 111.99 816.7 111 817 C111.33 817.99 111.66 818.98 112 820 C111.73 821.68 111.38 823.34 111 825 C110.66 827 110.33 829 110 831 C109.01 831.33 108.02 831.66 107 832 C106.94 832.59 106.88 833.18 106.82 833.79 C106.38 837.91 105.91 841.96 105 846 C104.01 846.33 103.02 846.66 102 847 C101.95 847.6 101.9 848.21 101.85 848.83 C101.78 849.63 101.7 850.43 101.62 851.25 C101.56 852.04 101.49 852.83 101.41 853.64 C100.98 856.1 100.22 857.83 99 860 C96.14 865.53 93.76 870.77 93 877 C92.34 877 91.68 877 91 877 C90.67 879.64 90.34 882.28 90 885 C89.34 885 88.68 885 88 885 C88 885.66 88 886.32 88 887 C87.34 887 86.68 887 86 887 C86.33 887.99 86.66 888.98 87 890 C86.34 890.66 85.68 891.32 85 892 C84.1 894.32 84.1 894.32 83.38 896.94 C82.98 898.25 82.98 898.25 82.59 899.59 C81.88 902.07 81.88 902.07 82 905 C81.34 905 80.68 905 80 905 C80 905.66 80 906.32 80 907 C79.34 907 78.68 907 78 907 C77.88 907.6 77.76 908.21 77.63 908.83 C77.47 909.63 77.3 910.43 77.12 911.25 C76.96 912.04 76.8 912.83 76.63 913.64 C76 915.99 75.15 917.87 74 920 C73.26 921.52 73.26 921.52 72.5 923.06 C71 926 71 926 69 929 C68.69 929.97 68.38 930.94 68.06 931.94 C67.04 934.87 65.9 936.6 64 939 C63.67 939.99 63.34 940.98 63 942 C62.34 942 61.68 942 61 942 C60.9 942.64 60.79 943.28 60.69 943.94 C60.09 946.59 59.42 949.15 58.62 951.75 C58.39 952.53 58.16 953.31 57.91 954.11 C57.46 955.05 57.46 955.05 57 956 C56.01 956.33 55.02 956.66 54 957 C52.83 959.41 52.07 961.62 51.56 964.25 C51.38 964.83 51.19 965.4 51 966 C50.01 966.33 49.02 966.66 48 967 C47.88 968.89 47.88 968.89 47.75 970.81 C47.29 974.72 47.29 974.72 44.94 977 C44.3 977.33 43.66 977.66 43 978 C42.34 977.67 41.68 977.34 41 977 C41.33 977.99 41.66 978.98 42 980 C41.06 982.69 41.06 982.69 40 985 C39.34 985 38.68 985 38 985 C38 985.66 38 986.32 38 987 C37.34 987 36.68 987 36 987 C36.33 988.65 36.66 990.3 37 992 C36.67 991.34 36.34 990.68 36 990 C33.74 992.26 33.02 994 32 997 C32 997.99 32 998.98 32 1000 C31.34 1000 30.68 1000 30 1000 C29.67 1000.99 29.34 1001.98 29 1003 C28.01 1002.67 27.02 1002.34 26 1002 C26.33 1002.99 26.66 1003.98 27 1005 C26.31 1007.56 26.31 1007.56 25 1010 C24.32 1010.31 23.64 1010.62 22.94 1010.94 C22.3 1011.29 21.66 1011.64 21 1012 C20.18 1015.06 20.18 1015.06 20 1018 C18.68 1017.67 17.36 1017.34 16 1017 C16.33 1017.99 16.66 1018.98 17 1020 C16.31 1022.56 16.31 1022.56 15 1025 C14.32 1025.31 13.64 1025.62 12.94 1025.94 C12.3 1026.29 11.66 1026.64 11 1027 C10.18 1030.06 10.18 1030.06 10 1033 C8.68 1032.67 7.36 1032.34 6 1032 C6.33 1032.99 6.66 1033.98 7 1035 C6.06 1037.69 6.06 1037.69 5 1040 C3.68 1040 2.36 1040 1 1040 C0.88 1041.13 0.75 1042.27 0.62 1043.44 C0.42 1044.61 0.21 1045.79 0 1047 C-0.66 1047.33 -1.32 1047.66 -2 1048 C-2.66 1047.67 -3.32 1047.34 -4 1047 C-3.67 1048.32 -3.34 1049.64 -3 1051 C-3.99 1051.33 -4.98 1051.66 -6 1052 C-6 1052.66 -6 1053.32 -6 1054 C-6.99 1054 -7.98 1054 -9 1054 C-8.67 1055.32 -8.34 1056.64 -8 1058 C-9.32 1058.99 -10.64 1059.98 -12 1061 C-12.66 1060.67 -13.32 1060.34 -14 1060 C-14.33 1061.65 -14.66 1063.3 -15 1065 C-15.66 1065 -16.32 1065 -17 1065 C-17 1065.66 -17 1066.32 -17 1067 C-17.66 1067 -18.32 1067 -19 1067 C-18.67 1068.32 -18.34 1069.64 -18 1071 C-19.98 1071.33 -21.96 1071.66 -24 1072 C-23.67 1072.99 -23.34 1073.98 -23 1075 C-24.19 1079.53 -26.63 1081.85 -30 1085 C-31.82 1086.88 -33.64 1088.76 -35.45 1090.64 C-37 1092 -37 1092 -39 1092 C-38.67 1092.99 -38.34 1093.98 -38 1095 C-49 1106 -49 1106 -51.06 1106.94 C-53.35 1107.9 -53.35 1107.9 -54 1111 C-54.66 1111 -55.32 1111 -56 1111 C-56.07 1111.72 -56.15 1112.43 -56.22 1113.17 C-57.21 1116.78 -58.91 1118.58 -61.44 1121.31 C-62.64 1122.64 -62.64 1122.64 -63.87 1123.99 C-66 1126 -66 1126 -68 1126 C-68.24 1126.58 -68.48 1127.16 -68.73 1127.76 C-70.24 1130.42 -71.97 1131.91 -74.31 1133.88 C-77.99 1137.04 -80.98 1140.22 -84 1144 C-85.64 1145.69 -87.31 1147.35 -89 1149 C-90.27 1150.27 -91.54 1151.54 -92.81 1152.81 C-93.88 1153.88 -94.94 1154.94 -96 1156 C-96.99 1155.67 -97.98 1155.34 -99 1155 C-98.67 1155.99 -98.34 1156.98 -98 1158 C-99.54 1158.8 -99.54 1158.8 -101.11 1159.62 C-105.13 1161.92 -108.13 1164.79 -111.31 1168.12 C-112.1 1168.93 -112.1 1168.93 -112.9 1169.75 C-114.27 1171.16 -115.64 1172.58 -117 1174 C-119 1176 -119 1176 -121.5 1176.38 C-122.33 1176.58 -123.15 1176.79 -124 1177 C-124.69 1178.32 -125.35 1179.66 -126 1181 C-127.66 1182.92 -127.66 1182.92 -129.5 1184.75 C-130.11 1185.36 -130.72 1185.98 -131.34 1186.61 C-133 1188 -133 1188 -135 1188 C-135.33 1188.99 -135.66 1189.98 -136 1191 C-136.99 1190.67 -137.98 1190.34 -139 1190 C-139 1190.66 -139 1191.32 -139 1192 C-142.79 1195.91 -147.12 1199.56 -152 1202 C-152.66 1202 -153.32 1202 -154 1202 C-154.33 1202.99 -154.66 1203.98 -155 1205 C-156.32 1205 -157.64 1205 -159 1205 C-159 1205.66 -159 1206.32 -159 1207 C-160.57 1208.69 -160.57 1208.69 -162.69 1210.56 C-163.37 1211.18 -164.06 1211.8 -164.76 1212.44 C-167.22 1214.15 -169.06 1214.62 -172 1215 C-172 1215.66 -172 1216.32 -172 1217 C-172.66 1217 -173.32 1217 -174 1217 C-174.66 1218.32 -175.32 1219.64 -176 1221 C-176.99 1220.67 -177.98 1220.34 -179 1220 C-178.67 1220.99 -178.34 1221.98 -178 1223 C-181.67 1224.96 -184.87 1226.39 -189 1227 C-189.33 1227.99 -189.66 1228.98 -190 1230 C-191.32 1230 -192.64 1230 -194 1230 C-194.33 1230.99 -194.66 1231.98 -195 1233 C-195.66 1232.67 -196.32 1232.34 -197 1232 C-196.67 1233.32 -196.34 1234.64 -196 1236 C-196.99 1236.33 -197.98 1236.66 -199 1237 C-199 1236.34 -199 1235.68 -199 1235 C-201.05 1236.84 -201.05 1236.84 -202 1239 C-204.44 1240.19 -204.44 1240.19 -207 1241 C-207.66 1240.67 -208.32 1240.34 -209 1240 C-209.33 1241.32 -209.66 1242.64 -210 1244 C-210.89 1243.81 -211.77 1243.63 -212.69 1243.44 C-215.88 1243.02 -217.92 1243.23 -221 1244 C-221.66 1244 -222.32 1244 -223 1244 C-223.58 1243.4 -224.15 1242.8 -224.75 1242.19 C-227.3 1239.71 -229.79 1238.5 -233 1237 C-233.99 1236.34 -234.98 1235.68 -236 1235 C-236 1234.67 -236 1234.34 -236 1234 C-236.62 1233.71 -237.24 1233.42 -237.88 1233.12 C-240 1232 -240 1232 -242 1230 C-242.99 1229.75 -242.99 1229.75 -244 1229.5 C-246 1229 -246 1229 -248 1227 C-248.99 1226.34 -249.98 1225.68 -251 1225 C-251 1224.67 -251 1224.34 -251 1224 C-251.99 1223.67 -252.98 1223.34 -254 1223 C-254.33 1222.34 -254.66 1221.68 -255 1221 C-255.87 1220.59 -256.73 1220.17 -257.62 1219.75 C-261.03 1217.98 -263.43 1216.02 -266.27 1213.48 C-268.68 1211.41 -271.35 1209.75 -274 1208 C-275 1207 -276 1206 -277 1205 C-277.76 1204.55 -278.53 1204.09 -279.31 1203.62 C-282.55 1201.67 -285.2 1199.54 -288 1197 C-288 1196.34 -288 1195.68 -288 1195 C-288.99 1195.33 -289.98 1195.66 -291 1196 C-291.48 1195.48 -291.97 1194.96 -292.47 1194.43 C-296.47 1190.27 -300.27 1187.04 -305.25 1184.15 C-307.73 1182.52 -309.24 1180.36 -311 1178 C-313.17 1176.14 -315.39 1174.43 -317.73 1172.78 C-323.13 1168.89 -327.7 1164.47 -332.31 1159.69 C-333.7 1158.25 -335.09 1156.82 -336.49 1155.39 C-337.09 1154.76 -337.7 1154.13 -338.32 1153.49 C-340.04 1151.77 -340.04 1151.77 -343 1151 C-343 1150.34 -343 1149.68 -343 1149 C-343.96 1148.6 -343.96 1148.6 -344.94 1148.19 C-347 1147 -347 1147 -348 1144 C-348.66 1144 -349.32 1144 -350 1144 C-350 1143.34 -350 1142.68 -350 1142 C-350.84 1141.64 -350.84 1141.64 -351.71 1141.28 C-354.5 1139.72 -356.44 1137.83 -358.69 1135.56 C-359.48 1134.78 -360.26 1134 -361.07 1133.19 C-363 1131 -363 1131 -364 1128 C-365.32 1127.31 -366.66 1126.65 -368 1126 C-369.7 1124.34 -369.7 1124.34 -371.25 1122.5 C-372.03 1121.59 -372.03 1121.59 -372.83 1120.66 C-374 1119 -374 1119 -374 1117 C-374.99 1116.67 -375.98 1116.34 -377 1116 C-378.36 1114.62 -378.36 1114.62 -379.75 1112.88 C-382.52 1109.5 -385.51 1106.48 -388.68 1103.48 C-390 1102 -390 1102 -390 1100 C-390.99 1099.67 -391.98 1099.34 -393 1099 C-393.7 1097.35 -394.37 1095.68 -395 1094 C-395.66 1093.67 -396.32 1093.34 -397 1093 C-397.97 1091.94 -398.9 1090.86 -399.81 1089.75 C-401.7 1087.49 -403.57 1085.44 -405.69 1083.38 C-408 1081 -408 1081 -409.38 1078.69 C-411.4 1075.34 -413.92 1072.64 -416.57 1069.77 C-418 1068 -418 1068 -418 1066 C-418.66 1066 -419.32 1066 -420 1066 C-420 1065.01 -420 1064.02 -420 1063 C-420.99 1063 -421.98 1063 -423 1063 C-423 1061.68 -423 1060.36 -423 1059 C-423.66 1058.67 -424.32 1058.34 -425 1058 C-426.62 1056.56 -426.62 1056.56 -428 1055 C-428 1054.34 -428 1053.68 -428 1053 C-428.66 1053 -429.32 1053 -430 1053 C-430.29 1052.38 -430.58 1051.76 -430.88 1051.12 C-431.94 1048.87 -431.94 1048.87 -434 1047 C-445 1033.26 -445 1033.26 -445 1029 C-445.66 1028.67 -446.32 1028.34 -447 1028 C-450 1024.42 -450 1024.42 -450 1022 C-450.66 1022 -451.32 1022 -452 1022 C-455 1016.25 -455 1016.25 -455 1014 C-455.66 1013.67 -456.32 1013.34 -457 1013 C-460 1009.42 -460 1009.42 -460 1007 C-460.66 1007 -461.32 1007 -462 1007 C-465 1001.25 -465 1001.25 -465 999 C-465.66 998.67 -466.32 998.34 -467 998 C-467.93 996.51 -468.8 994.98 -469.62 993.44 C-470.07 992.61 -470.52 991.78 -470.98 990.93 C-471.31 990.3 -471.65 989.66 -472 989 C-472.66 989 -473.32 989 -474 989 C-474.33 986.69 -474.66 984.38 -475 982 C-475.66 982 -476.32 982 -477 982 C-478.46 979.25 -479.92 976.5 -481.38 973.75 C-481.79 972.97 -482.2 972.2 -482.62 971.39 C-483.02 970.64 -483.42 969.89 -483.84 969.11 C-484.2 968.42 -484.57 967.73 -484.95 967.01 C-485.67 965.64 -486.37 964.26 -487.06 962.87 C-488.08 960.85 -489.23 958.97 -490.44 957.06 C-490.88 956.37 -491.31 955.67 -491.77 954.95 C-492.38 953.99 -492.38 953.99 -493 953 C-494.49 950.62 -495.83 948.44 -496.85 945.82 C-498.29 942.28 -500.02 938.9 -501.75 935.5 C-505.33 928.4 -508.74 921.25 -512 914 C-512.51 912.88 -512.51 912.88 -513.04 911.75 C-514.29 908.96 -515 907.1 -515 904 C-515.66 903.67 -516.32 903.34 -517 903 C-518.07 901.07 -518.07 901.07 -519.12 898.69 C-519.48 897.91 -519.83 897.13 -520.2 896.32 C-521 894 -521 894 -521 890 C-521.66 890 -522.32 890 -523 890 C-524.32 886.7 -525.64 883.4 -527 880 C-528.65 880.33 -530.3 880.66 -532 881 C-532.66 880.67 -533.32 880.34 -534 880 C-534.33 880.66 -534.66 881.32 -535 882 C-538.72 881.49 -541.73 880.88 -545 879 C-545 878.34 -545 877.68 -545 877 C-545.99 877.33 -546.98 877.66 -548 878 C-549.94 876.75 -549.94 876.75 -552 875 C-554.3 873.26 -556.6 871.6 -559 870 C-559.62 869.53 -560.24 869.05 -560.88 868.56 C-563.04 866.9 -563.04 866.9 -565.75 865.44 C-566.86 864.73 -566.86 864.73 -568 864 C-568 863.34 -568 862.68 -568 862 C-569.32 862 -570.64 862 -572 862 C-572 861.34 -572 860.68 -572 860 C-572.54 859.77 -573.07 859.55 -573.62 859.31 C-576.75 857.59 -579.26 855.28 -582 853 C-583.32 852.31 -584.66 851.65 -586 851 C-587.37 850.21 -588.72 849.39 -590.06 848.56 C-590.73 848.15 -591.41 847.74 -592.1 847.32 C-593.97 846.02 -595.41 844.62 -597 843 C-598.8 841.68 -600.63 840.43 -602.48 839.18 C-604 838 -604 838 -605 836 C-605.85 835.63 -606.69 835.26 -607.56 834.88 C-610.71 833.16 -612.33 831.79 -614.75 829.25 C-619.05 824.76 -623.87 821.46 -629 818 C-632 815.8 -634.08 813.9 -636.44 811 C-639.08 807.91 -641.58 806.16 -645 804 C-649.3 800.71 -652.64 797.17 -656.14 793.05 C-658.63 790.31 -661.4 787.98 -664.22 785.59 C-666.45 783.6 -668.19 781.37 -670 779 C-671.65 777.32 -673.32 775.66 -675 774 C-683.33 765.67 -691.67 757.33 -700 749 C-700.58 748.44 -701.16 747.88 -701.76 747.3 C-703 746 -703 746 -704.38 743.62 C-705.97 740.83 -705.97 740.83 -708.69 738.31 C-709.45 737.55 -710.21 736.79 -711 736 C-711 735.34 -711 734.68 -711 734 C-711.66 734 -712.32 734 -713 734 C-713 733.01 -713 732.02 -713 731 C-713.66 731 -714.32 731 -715 731 C-716.35 729.01 -717.68 727.01 -719 725 C-719.74 724.26 -720.49 723.51 -721.25 722.75 C-722.12 721.88 -722.12 721.88 -723 721 C-723 720.34 -723 719.68 -723 719 C-723.66 718.67 -724.32 718.34 -725 718 C-728.73 715.32 -730.79 712.99 -733 709 C-736.01 704.23 -738.93 699.93 -743 696 C-744.04 694.36 -745.04 692.69 -746 691 C-748.62 686.84 -748.62 686.84 -751.88 683.19 C-755.61 679.34 -760 674.51 -760 669 C-760.66 668.67 -761.32 668.34 -762 668 C-765 664.42 -765 664.42 -765 662 C-765.66 661.67 -766.32 661.34 -767 661 C-770 656.5 -770 656.5 -770 654 C-770.66 654 -771.32 654 -772 654 C-772.12 653.2 -772.25 652.39 -772.38 651.56 C-772.58 650.72 -772.79 649.87 -773 649 C-773.66 648.67 -774.32 648.34 -775 648 C-775.98 646.26 -776.96 644.53 -777.92 642.77 C-779.02 640.8 -779.02 640.8 -781.19 638.81 C-783.18 636.82 -783.44 635.69 -784 633 C-784.66 632.67 -785.32 632.34 -786 632 C-786.29 631.14 -786.57 630.28 -786.87 629.39 C-788.39 624.84 -790.78 621.03 -793.25 616.95 C-796 612.31 -796 612.31 -796 609 C-796.99 608.67 -797.98 608.34 -799 608 C-799.19 606.55 -799.19 606.55 -799.38 605.06 C-799.68 603.55 -799.68 603.55 -800 602 C-800.66 601.67 -801.32 601.34 -802 601 C-805 594.65 -805 594.65 -805 592 C-805.66 592 -806.32 592 -807 592 C-809 586.25 -809 586.25 -809 584 C-809.66 583.67 -810.32 583.34 -811 583 C-813.06 579.37 -814.39 576.13 -815 572 C-815.66 572 -816.32 572 -817 572 C-817.43 570.82 -817.87 569.65 -818.31 568.44 C-820.11 563.66 -822.07 558.99 -824.23 554.36 C-830 541.96 -830 541.96 -830 537 C-830.66 536.67 -831.32 536.34 -832 536 C-832.75 533.89 -832.75 533.89 -833.44 531.25 C-834.53 527.37 -835.88 524.44 -838 521 C-839.12 518.04 -840.06 515.02 -841 512 C-842.33 507.85 -843.65 503.79 -845.44 499.81 C-847.42 495.33 -848.59 490.6 -849.9 485.88 C-851.01 481.89 -852.25 477.95 -853.5 474 C-858.14 459.27 -862.26 444.38 -865.5 429.27 C-865.9 427.47 -866.32 425.68 -866.75 423.89 C-868.11 418.24 -869.23 412.76 -869.76 406.97 C-870.14 403.88 -871.13 400.98 -872 398 C-873.94 388.85 -875.22 379.53 -876.65 370.29 C-876.96 368.24 -877.28 366.2 -877.6 364.16 C-878.67 357.1 -879.35 350.09 -879.75 342.96 C-879.89 340.19 -879.89 340.19 -880.47 338.33 C-881.26 334.85 -881.48 331.34 -881.75 327.79 C-881.82 326.97 -881.89 326.15 -881.95 325.3 C-883.26 308.55 -884.34 291.78 -884.53 274.97 C-884.55 273.29 -884.58 271.62 -884.62 269.95 C-884.98 254.4 -884.98 254.4 -879.67 247.6 C-874.75 242.88 -869.44 241.58 -862.79 241.18 C-860.98 241.19 -860.98 241.19 -860 240 C-857.39 239.81 -854.8 239.67 -852.19 239.56 C-845.91 239.25 -839.85 238.62 -833.67 237.47 C-831.05 237.01 -828.46 236.7 -825.81 236.44 C-822.22 236.43 -822.22 236.43 -821 235 C-817.64 234.67 -814.28 234.49 -810.91 234.28 C-808.11 234.32 -808.11 234.32 -807 233 C-803.38 232.42 -799.76 231.97 -796.12 231.5 C-793.14 231.34 -793.14 231.34 -792 230 C-790.3 229.81 -788.59 229.68 -786.88 229.56 C-781.12 229.09 -776.09 227.7 -770.62 225.88 C-766.32 224.84 -762.4 224.82 -758 225 C-758 224.34 -758 223.68 -758 223 C-757.29 222.87 -756.58 222.73 -755.85 222.6 C-754.47 222.33 -754.47 222.33 -753.06 222.06 C-752.15 221.89 -751.23 221.71 -750.29 221.54 C-748.05 221.22 -748.05 221.22 -747 220 C-745.48 219.93 -743.96 219.92 -742.44 219.94 C-741.61 219.95 -740.78 219.96 -739.93 219.96 C-739.3 219.98 -738.66 219.99 -738 220 C-738 219.34 -738 218.68 -738 218 C-720.86 212 -720.86 212 -713 212 C-713 211.34 -713 210.68 -713 210 C-711.51 209.85 -711.51 209.85 -710 209.69 C-705.72 209.09 -702 207.61 -698 206 C-698 205.67 -698 205.34 -698 205 C-697.07 204.72 -696.15 204.45 -695.19 204.16 C-693.99 203.8 -692.8 203.44 -691.56 203.06 C-690.37 202.7 -689.17 202.34 -687.94 201.97 C-685.14 201.29 -685.14 201.29 -684 200 C-682 199.96 -680 199.96 -678 200 C-678 199.34 -678 198.68 -678 198 C-674.53 197.01 -674.53 197.01 -671 196 C-671 195.67 -671 195.34 -671 195 C-668.94 194.35 -666.88 193.71 -664.81 193.06 C-663.66 192.7 -662.52 192.34 -661.33 191.97 C-658.56 191.16 -655.84 190.51 -653 190 C-653 189.34 -653 188.68 -653 188 C-652.32 187.8 -651.64 187.61 -650.94 187.41 C-640.25 184.11 -630.61 179.06 -620.82 173.74 C-620.15 173.37 -619.47 173.01 -618.78 172.63 C-617.5 171.94 -616.23 171.24 -614.96 170.53 C-611.66 168.72 -608.74 167.5 -605 167 C-605 166.34 -605 165.68 -605 165 C-604.41 164.78 -603.81 164.56 -603.2 164.34 C-591.59 160.53 -591.59 160.53 -583 153 C-576.77 150 -576.77 150 -573 150 C-573 149.34 -573 148.68 -573 148 C-572.17 147.61 -571.35 147.22 -570.5 146.81 C-563.25 143.51 -563.25 143.51 -558 138 C-557.22 137.69 -556.43 137.38 -555.62 137.06 C-553.02 136.22 -553.02 136.22 -551.62 134.56 C-547.9 130.98 -543.53 129.81 -538.5 129.69 C-534.39 129.82 -530.88 130.68 -527 132 C-527 132.66 -527 133.32 -527 134 C-524.69 134.66 -522.38 135.32 -520 136 C-520 136.66 -520 137.32 -520 138 C-518.35 138.33 -516.7 138.66 -515 139 C-515 139.66 -515 140.32 -515 141 C-514.34 141.25 -513.68 141.5 -513 141.75 C-509.24 143.32 -505.63 145.15 -502 147 C-502 147.66 -502 148.32 -502 149 C-499.36 149.33 -496.72 149.66 -494 150 C-493.67 150.99 -493.34 151.98 -493 153 C-491.04 154.07 -489.03 155.06 -487 156 C-485.81 156.68 -484.62 157.36 -483.44 158.06 C-480.65 159.64 -478 160.91 -475 162 C-475 162.66 -475 163.32 -475 164 C-474.15 164.27 -473.31 164.54 -472.44 164.81 C-456.91 170.18 -456.91 170.18 -455 174 C-451.72 175.24 -448.41 176.21 -445 177 C-445 177.66 -445 178.32 -445 179 C-444.14 179.28 -443.28 179.56 -442.4 179.85 C-434.68 182.46 -427.11 185.32 -419.89 189.1 C-417.1 190.43 -414.2 191.3 -411.27 192.23 C-409.04 192.99 -406.95 193.89 -404.81 194.88 C-399.76 197.19 -394.55 199 -389.3 200.84 C-386.71 201.75 -384.13 202.7 -381.56 203.69 C-378.06 204.98 -374.6 206.03 -371 207 C-371 207.66 -371 208.32 -371 209 C-369.58 209.15 -369.58 209.15 -368.12 209.31 C-364.27 209.87 -360.68 210.94 -356.97 212.1 C-353.33 213.2 -349.67 214.2 -346 215.19 C-345.34 215.37 -344.68 215.55 -344 215.73 C-340.55 216.68 -340.55 216.68 -337 217 C-337.08 216.17 -337.08 216.17 -337.17 215.33 C-338.34 203.49 -339.27 191.69 -339.66 179.8 C-339.71 178.48 -339.71 178.48 -339.75 177.14 C-339.78 176.36 -339.8 175.58 -339.83 174.78 C-339.81 172.98 -339.81 172.98 -341 172 C-341.05 170.52 -341.04 169.04 -341 167.56 C-340.95 163.23 -341.11 158.97 -341.41 154.65 C-342.07 145 -341.79 135.63 -341 126 C-340.34 126 -339.68 126 -339 126 C-338.94 125.3 -338.88 124.6 -338.81 123.88 C-337.41 118.9 -334.44 115.95 -330.25 113.19 C-326.75 111.91 -323.65 111.48 -319.95 111.21 C-317.92 111.11 -317.92 111.11 -316 110 C-313.37 109.81 -310.76 109.67 -308.12 109.56 C-301.87 109.25 -295.83 108.62 -289.67 107.47 C-287.05 107.01 -284.46 106.7 -281.81 106.44 C-278.22 106.43 -278.22 106.43 -277 105 C-275.15 104.93 -273.29 104.92 -271.44 104.94 C-269.92 104.95 -269.92 104.95 -268.37 104.96 C-267.59 104.98 -266.81 104.99 -266 105 C-265.67 104.34 -265.34 103.68 -265 103 C-263.68 103 -262.36 103 -261 103 C-258.95 102.56 -256.91 102.07 -254.88 101.56 C-249.84 100.35 -244.99 99.56 -239.83 99.21 C-237.98 99.19 -237.98 99.19 -237 98 C-233.91 97.42 -230.8 96.97 -227.69 96.5 C-225.09 96.28 -225.09 96.28 -224 95 C-222.06 94.77 -220.13 94.53 -218.19 94.31 C-213.97 93.71 -210 92.35 -206 90.94 C-202.68 89.9 -199.44 89.49 -196 89 C-193.17 88.17 -190.65 87.39 -188.12 85.88 C-184.77 84.49 -181.61 84.88 -178 85 C-178 84.34 -178 83.68 -178 83 C-172.9 81.09 -168.54 79.57 -163 80 C-163 79.34 -163 78.68 -163 78 C-157.9 76.09 -153.54 74.57 -148 75 C-148 74.34 -148 73.68 -148 73 C-146.85 72.63 -145.69 72.26 -144.5 71.88 C-122.8 65.89 -122.8 65.89 -104 55 C-102 54.96 -100 54.96 -98 55 C-98 54.34 -98 53.68 -98 53 C-94.7 52.01 -91.4 51.02 -88 50 C-88 49.34 -88 48.68 -88 48 C-87.37 47.76 -86.74 47.52 -86.09 47.27 C-81.18 45.34 -76.43 43.29 -71.74 40.87 C-70 40 -70 40 -67.31 38.94 C-64.87 38.02 -64.87 38.02 -62.31 36.38 C-60 35 -60 35 -58 35 C-58 34.34 -58 33.68 -58 33 C-54.7 32.01 -51.4 31.02 -48 30 C-48 29.34 -48 28.68 -48 28 C-47.17 27.59 -46.34 27.18 -45.48 26.76 C-44.39 26.22 -43.31 25.68 -42.19 25.12 C-41.11 24.59 -40.03 24.06 -38.92 23.51 C-35.92 22.03 -35.92 22.03 -33 20 C-32.01 20 -31.02 20 -30 20 C-30 19.34 -30 18.68 -30 18 C-29.11 17.5 -28.23 17.01 -27.31 16.5 C-22.44 13.73 -17.72 10.71 -12.99 7.71 C-10.53 6.3 -8.75 5.45 -6 5 C-6 4.34 -6 3.68 -6 3 C-3.03 2.5 -3.03 2.5 0 2 C0 1.34 0 0.68 0 0 Z M-340 170 C-339 172 -339 172 -339 172 Z M348 208 C348 210.31 348 212.62 348 215 C348.33 215 348.66 215 349 215 C349 212.69 349 210.38 349 208 C348.67 208 348.34 208 348 208 Z " fill="#0B1D2C" transform="translate(906,17)"/>
<path d="M0 0 C2.08 1.08 2.08 1.08 4.17 2.45 C4.97 2.96 5.76 3.47 6.58 4 C7.87 4.83 7.87 4.83 9.19 5.69 C20.48 12.85 32.15 19.17 43.97 25.4 C46.73 26.85 49.47 28.33 52.21 29.82 C60.76 34.45 69.37 38.56 78.37 42.24 C82.68 44.01 86.86 45.86 91 48 C95.99 50.57 101.08 52.82 106.25 55 C106.98 55.31 107.7 55.62 108.45 55.93 C168.21 80.9 231.4 96.7 295.46 105.4 C316.51 108.26 316.51 108.26 320 110 C320.91 188.07 305.66 271.07 277.75 344.03 C276.93 346.19 276.14 348.35 275.35 350.52 C270.45 363.96 265.05 377.03 259 390 C258.08 392 257.16 394 256.25 396 C255.86 396.85 255.48 397.69 255.08 398.56 C254.38 400.14 253.71 401.74 253.09 403.35 C251.67 406.8 250 410.11 248.31 413.44 C247.59 414.87 246.86 416.31 246.14 417.75 C245.78 418.47 245.42 419.18 245.04 419.92 C243.54 422.92 242.05 425.93 240.56 428.94 C237.91 434.24 235.2 439.5 232.44 444.75 C232.09 445.42 231.73 446.1 231.37 446.79 C228.45 452.32 225.24 457.65 222 463 C221 464.68 220 466.36 219 468.04 C218 469.71 217 471.39 216 473.06 C215.26 474.31 215.26 474.31 214.5 475.59 C211.55 480.53 208.47 485.35 205.2 490.09 C203.84 492.09 203.84 492.09 203 495 C202.01 495.5 202.01 495.5 201 496 C200.11 497.56 199.23 499.12 198.36 500.69 C185.14 523.12 167.79 544.25 150.72 563.85 C148.3 566.63 145.99 569.49 143.69 572.38 C139.22 577.89 134.38 583.03 129.49 588.17 C126.51 591.3 123.59 594.45 120.79 597.73 C116.32 602.88 111.48 607.67 106.66 612.47 C105.07 614.06 103.48 615.65 101.89 617.24 C96.97 622.17 92.01 627 86.72 631.53 C84.14 633.74 81.67 636.06 79.19 638.38 C74.56 642.65 69.8 646.69 64.89 650.63 C62.24 652.81 59.64 655.03 57.06 657.29 C49.6 663.79 41.83 669.73 33.87 675.6 C31.13 677.65 28.44 679.76 25.75 681.88 C20.08 686.25 14.28 690.43 8.44 694.56 C7.57 695.18 6.7 695.8 5.8 696.44 C4.57 697.31 4.57 697.31 3.31 698.19 C2.21 698.97 2.21 698.97 1.08 699.76 C-1 701 -2.6 701.68 -5 702 C-7.13 700.84 -7.13 700.84 -9.56 698.94 C-11 697.84 -11 697.84 -12.46 696.72 C-13.29 696.08 -13.29 696.08 -14.12 695.43 C-17.91 692.54 -21.78 689.75 -25.62 686.94 C-31.83 682.39 -37.94 677.74 -44 673 C-45.48 671.85 -46.96 670.71 -48.44 669.56 C-60.85 659.9 -72.92 649.92 -84.51 639.27 C-86.7 637.27 -88.93 635.31 -91.19 633.38 C-94.54 630.47 -97.67 627.38 -100.75 624.19 C-102.7 622.29 -104.69 620.52 -106.75 618.75 C-111.03 615.02 -115.06 611.09 -119.06 607.06 C-119.73 606.4 -120.4 605.73 -121.09 605.05 C-124.99 601.14 -128.7 597.12 -132.31 592.94 C-134.97 589.89 -137.74 586.95 -140.5 584 C-145.09 579.07 -149.63 574.12 -154 569 C-154.82 568.05 -155.63 567.1 -156.48 566.12 C-162.68 558.88 -168.65 551.47 -174.49 543.93 C-176.1 541.87 -177.72 539.83 -179.35 537.78 C-187.25 527.8 -194.58 517.54 -201.67 506.96 C-203.26 504.61 -204.91 502.3 -206.56 500 C-216.74 485.49 -225.55 470.07 -234.4 454.74 C-235.96 452.06 -237.56 449.41 -239.17 446.76 C-241.6 442.73 -243.81 438.66 -245.88 434.44 C-246.37 433.43 -246.37 433.43 -246.88 432.4 C-249.69 426.71 -252.38 420.98 -255.06 415.23 C-257.2 410.66 -259.41 406.13 -261.69 401.62 C-300.59 324.34 -319.56 235.11 -328 110 C-323.06 108.15 -318.33 107.36 -313.13 106.7 C-311.36 106.47 -309.59 106.23 -307.81 106 C-306.88 105.88 -305.96 105.75 -305 105.63 C-248.13 98.13 -190.2 85.97 -137 64 C-135.73 63.49 -134.47 62.98 -133.2 62.47 C-131.39 61.74 -129.57 61.02 -127.76 60.29 C-123.65 58.64 -119.52 57.06 -115.38 55.5 C-106.96 52.28 -98.84 48.46 -90.81 44.38 C-87.69 42.79 -84.59 41.42 -81.31 40.19 C-76.27 38.23 -71.57 35.72 -66.82 33.14 C-62.47 30.77 -58.07 28.51 -53.62 26.31 C-49.09 24.06 -44.61 21.75 -40.21 19.25 C-38.11 18.06 -36 16.9 -33.88 15.74 C-28.74 12.89 -23.71 9.86 -18.69 6.81 C-16.94 5.76 -15.2 4.7 -13.45 3.64 C-12.69 3.18 -11.93 2.72 -11.15 2.25 C-10.44 1.84 -9.73 1.42 -9 1 C-8.35 0.59 -7.7 0.19 -7.03 -0.23 C-4.29 -1.27 -2.78 -0.86 0 0 Z " fill="#63C2F3" transform="translate(692,515)"/>
<path d="M0 0 C5.73 2.77 11.16 6.05 16.5 9.5 C21.86 12.96 27.37 16.01 33 19 C34.22 19.66 35.44 20.32 36.66 20.99 C47.66 26.93 58.89 32.33 70.19 37.67 C72.84 38.92 75.49 40.2 78.13 41.49 C86.65 45.62 95.16 49.37 104.09 52.52 C107.19 53.64 110.15 54.97 113.14 56.36 C119.42 59.24 125.82 61.69 132.31 64.06 C132.94 64.29 133.57 64.53 134.23 64.76 C151.62 71.11 169.28 76.65 187 82 C187.66 82.2 188.32 82.4 189 82.6 C220.21 92.04 252.22 97.94 284.47 102.5 C288.08 103.01 291.69 103.53 295.3 104.07 C296.35 104.23 297.4 104.38 298.48 104.54 C301 105 301 105 303 106 C303.17 117.92 302.71 129.68 301.75 141.56 C301.65 142.83 301.65 142.83 301.55 144.12 C298.22 185.54 291.81 226.84 281 267 C280.82 267.66 280.64 268.33 280.46 269.01 C272.21 299.72 262.21 329.62 250 359 C249.36 360.56 249.36 360.56 248.71 362.15 C246.6 367.28 244.45 372.33 241.88 377.25 C240.23 380.4 238.79 383.51 237.59 386.85 C236.01 391.16 233.95 395.1 231.75 399.12 C228.96 404.29 226.25 409.47 223.69 414.75 C220.64 420.89 217.33 426.86 213.94 432.81 C213.44 433.68 212.95 434.56 212.44 435.45 C209.58 440.44 206.54 445.24 203.32 449.99 C201.67 452.5 200.25 455.09 198.88 457.75 C196.87 461.52 194.74 464.71 192 468 C191.1 469.6 190.2 471.19 189.32 472.8 C181.32 486.18 171.39 498.6 162 511 C161.21 512.05 160.41 513.11 159.59 514.19 C154.82 520.48 149.91 526.6 144.67 532.51 C141.81 535.79 139.79 539.04 138 543 C137.34 541.68 136.68 540.36 136 539 C135.34 539 134.68 539 134 539 C132.46 537.05 131.11 535.01 129.73 532.95 C126.52 529.34 122.33 528.75 117.7 528.24 C116.13 528.06 116.13 528.06 114.54 527.88 C113.41 527.76 112.28 527.64 111.12 527.52 C108.69 527.24 106.25 526.97 103.81 526.69 C102.54 526.55 101.26 526.41 99.95 526.26 C75.74 523.53 51.81 520.22 28 515 C26.85 514.75 25.7 514.5 24.52 514.24 C7.52 510.46 -9.26 505.79 -26 501 C-27.01 500.71 -28.03 500.42 -29.07 500.12 C-53.64 493.02 -77.48 484.04 -101.07 474.21 C-103.66 473.14 -106.26 472.09 -108.87 471.07 C-116.91 467.88 -124.56 464.31 -132.12 460.11 C-136.05 457.94 -139.93 456.23 -144.16 454.72 C-146.79 453.69 -149.1 452.3 -151.5 450.81 C-156.18 448.01 -160.91 445.51 -165.81 443.12 C-172.64 439.79 -179.13 436.06 -185.6 432.08 C-188.37 430.38 -191.17 428.75 -193.99 427.15 C-196.44 425.75 -198.86 424.31 -201.29 422.87 C-202.23 422.31 -203.17 421.75 -204.14 421.17 C-206.09 420.01 -208.04 418.85 -209.99 417.69 C-214.59 414.96 -219.16 412.29 -224 410 C-223.79 409.22 -223.58 408.43 -223.37 407.62 C-209.64 354.32 -201.51 299.41 -200.09 244.37 C-200.03 242.04 -199.96 239.72 -199.88 237.39 C-199.77 233.76 -199.69 230.13 -199.62 226.5 C-199.59 225.4 -199.55 224.29 -199.51 223.16 C-199.42 214.55 -201.56 208.17 -207.06 201.5 C-215.43 197.23 -226.42 197.44 -235.67 196.43 C-248.08 195.05 -260.43 193.44 -272.75 191.44 C-273.98 191.24 -275.21 191.04 -276.47 190.84 C-299.46 187.03 -299.46 187.03 -304 184 C-304.58 181.98 -304.58 181.98 -304.88 179.47 C-305.05 178.06 -305.05 178.06 -305.23 176.61 C-305.34 175.59 -305.45 174.56 -305.56 173.5 C-305.69 172.43 -305.81 171.36 -305.94 170.26 C-307.81 153.4 -308.98 136.51 -309.69 119.56 C-309.76 117.89 -309.76 117.89 -309.83 116.19 C-309.87 115.16 -309.91 114.13 -309.95 113.07 C-309.98 112.16 -310.02 111.25 -310.05 110.31 C-310 108 -310 108 -309 105 C-307.87 104.84 -306.74 104.69 -305.57 104.53 C-272.66 100.03 -272.66 100.03 -240 94 C-238.78 93.75 -237.56 93.49 -236.31 93.23 C-192.17 83.84 -148.49 69.72 -107 52 C-106.17 51.65 -105.34 51.3 -104.49 50.93 C-94.16 46.53 -83.87 42.1 -73.87 36.97 C-68.68 34.31 -63.41 31.84 -58.12 29.38 C-52.32 26.66 -46.75 23.83 -41.32 20.4 C-38.58 18.75 -35.75 17.35 -32.88 15.94 C-28.03 13.56 -23.51 10.95 -19 8 C-17.09 6.77 -15.17 5.54 -13.25 4.31 C-12.35 3.73 -11.45 3.15 -10.52 2.55 C-3.94 -1.5 -3.94 -1.5 0 0 Z " fill="#EC6561" transform="translate(914,61)"/>
<path d="M0 0 C3.49 1.88 6.8 4.03 10.12 6.19 C16.79 10.42 23.34 14.38 30.48 17.76 C32.95 18.98 35.23 20.34 37.56 21.81 C43.86 25.68 50.58 28.66 57.27 31.77 C61.22 33.62 65.12 35.57 69 37.56 C75.23 40.71 81.59 43.42 88.04 46.09 C92.64 47.99 97.18 49.98 101.69 52.12 C108.19 55.16 114.85 57.68 121.59 60.13 C124.23 61.08 126.86 62.05 129.49 63.03 C183.06 82.71 237.36 96.54 293.94 104.1 C299.79 104.9 299.79 104.9 302 106 C302.21 120.39 301.67 134.55 300.38 148.88 C300.29 149.86 300.2 150.85 300.11 151.86 C295.94 198.34 286.76 244.06 273.81 288.88 C273.49 290 273.17 291.13 272.84 292.3 C270.32 300.81 267.98 306.39 259.94 310.88 C258.89 311.47 257.85 312.07 256.78 312.68 C254 314 254 314 251 314 C251 314.66 251 315.32 251 316 C250.33 316.24 249.67 316.49 248.98 316.74 C244.57 318.6 240.45 320.95 236.26 323.25 C231.21 326 231.21 326 229 326 C227.61 323.21 227.92 320.98 227.97 317.87 C227.99 316.6 228 315.33 228.01 314.02 C228.02 313.34 228.03 312.67 228.04 311.97 C228.34 284.79 225.4 259.15 218 233 C217.66 231.79 217.32 230.58 216.96 229.33 C210.68 208.03 199.87 188.03 187 170 C186 168.57 186 168.57 184.99 167.1 C174.81 152.68 162.72 138.16 149 127 C148.25 126.38 147.51 125.76 146.74 125.12 C141.02 120.43 135.07 116.18 128.95 112.03 C126.77 110.53 124.66 108.99 122.56 107.38 C117.7 103.88 112.13 101.47 106.76 98.86 C105.16 98.08 103.57 97.26 101.99 96.43 C93.91 92.22 85.59 88.98 77 86 C75.89 85.61 75.89 85.61 74.75 85.22 C45.28 74.56 45.28 74.56 15.56 76.56 C10.03 81.82 7.25 86.2 6.75 93.88 C6.83 97.93 7.72 100.58 10 104 C15.48 109.24 20.95 112.03 28.37 113.43 C29.57 113.66 30.78 113.9 32.03 114.14 C33.93 114.51 33.93 114.51 35.88 114.88 C55.52 118.75 74.3 124.46 92 134 C93.53 134.79 93.53 134.79 95.09 135.6 C118.76 148.37 140.83 168.79 156 191 C156.82 192.15 157.63 193.3 158.45 194.45 C186.92 235.12 194.21 280.22 191.19 328.88 C191.08 330.75 191.08 330.75 190.98 332.66 C190.85 334.4 190.85 334.4 190.73 336.18 C190.66 337.21 190.59 338.24 190.52 339.3 C189.92 342.4 189.24 343.77 187 346 C184.52 347.3 184.52 347.3 181.6 348.39 C180.54 348.79 179.49 349.19 178.4 349.6 C176.75 350.2 176.75 350.2 175.06 350.81 C173.96 351.23 172.87 351.65 171.74 352.08 C162.8 355.4 162.8 355.4 159 354 C159.06 353.41 159.11 352.83 159.17 352.23 C162.04 321.55 162.04 321.55 161.25 290.81 C161.14 289.5 161.14 289.5 161.03 288.15 C160.2 280.23 158 273.36 153 267 C148.33 264.05 143.33 264.42 138 265 C131.63 266.72 127.64 269.54 124 275 C122.76 278.56 122.84 282.08 122.79 285.82 C122.76 287.22 122.74 288.62 122.71 290.02 C122.7 290.76 122.68 291.5 122.67 292.26 C122.17 318.3 120.21 344.28 116 370 C110.47 372.13 104.93 374.02 99.25 375.69 C98.51 375.91 97.77 376.14 97 376.37 C93.5 377.4 90.69 378 87 378 C86.9 372.51 87.06 367.42 88 362 C88.93 354.29 86.24 348.43 82 342 C78.16 338.37 75.5 337.24 70.33 336.91 C64.55 337.13 60.4 339.19 56.25 343.19 C51.46 349.19 50.41 356.65 49 364 C48.82 364.9 48.65 365.81 48.46 366.74 C47.41 372.15 46.39 377.56 45.42 382.99 C45 385 45 385 44 388 C41.48 388.88 41.48 388.88 38.2 389.57 C37.01 389.81 35.83 390.06 34.61 390.32 C29.38 391.31 24.14 392.18 18.88 392.94 C17.75 393.1 16.62 393.27 15.47 393.44 C8.57 394.43 1.67 395.28 -5.25 396.04 C-6.04 396.13 -6.82 396.21 -7.63 396.3 C-11.49 396.72 -15.35 397.13 -19.22 397.52 C-31.51 398.56 -31.51 398.56 -41.88 404.69 C-46.06 411.21 -46.33 417.97 -46.25 425.5 C-46.24 426.47 -46.24 427.44 -46.23 428.44 C-45.21 506.75 -32.79 585.63 -8 660 C-22.61 653.31 -35.87 641.22 -48.4 631.27 C-49.79 630.17 -51.19 629.07 -52.59 627.98 C-59.72 622.36 -66.54 616.4 -73.37 610.43 C-74.67 609.29 -75.97 608.16 -77.28 607.03 C-82.51 602.51 -87.57 597.81 -92.64 593.11 C-94.77 591.13 -96.92 589.16 -99.08 587.2 C-108.92 578.29 -118.39 569.12 -127 559 C-132.09 553.16 -132.09 553.16 -137.44 547.56 C-143.73 541.27 -149.47 534.54 -154.98 527.55 C-157.08 524.9 -159.22 522.29 -161.38 519.69 C-174.4 503.77 -186.52 487.12 -197.76 469.9 C-199.05 467.93 -200.34 465.96 -201.64 463.99 C-210.56 450.4 -219.5 436.65 -226.52 421.96 C-228.33 418.33 -230.35 414.83 -232.38 411.31 C-237.06 403.08 -241.1 394.63 -245 386 C-245.44 385.03 -245.88 384.06 -246.34 383.07 C-263.46 345.54 -277.8 306.99 -288 267 C-288.3 265.85 -288.59 264.7 -288.9 263.51 C-302.09 212.12 -311.42 158.21 -310 105 C-309.02 104.87 -308.04 104.75 -307.03 104.62 C-258.81 98.42 -212.09 88.27 -165.81 73.25 C-164.95 72.97 -164.08 72.69 -163.19 72.4 C-151.1 68.47 -151.1 68.47 -139.24 63.91 C-135.85 62.53 -132.41 61.33 -128.96 60.11 C-120.8 57.21 -112.86 54.19 -105.06 50.43 C-101.62 48.82 -98.1 47.43 -94.56 46.06 C-88.46 43.68 -82.65 40.92 -76.82 37.93 C-71.56 35.24 -66.19 32.77 -60.83 30.28 C-55.42 27.75 -50.2 24.95 -45 22 C-43.52 21.19 -42.04 20.37 -40.56 19.56 C-37.37 17.79 -34.24 15.95 -31.12 14.06 C-26.72 11.39 -22.22 8.95 -17.67 6.53 C-14.31 4.6 -11.23 2.37 -8.17 0 C-4.91 -1.51 -3.45 -1.07 0 0 Z " fill="#F9FCFE" transform="translate(372,191)"/>
<path d="M0 0 C2.08 1.08 2.08 1.08 4.17 2.45 C4.97 2.96 5.76 3.47 6.58 4 C7.87 4.83 7.87 4.83 9.19 5.69 C20.48 12.85 32.15 19.17 43.97 25.4 C46.73 26.85 49.47 28.33 52.21 29.82 C60.76 34.45 69.37 38.56 78.37 42.24 C82.68 44.01 86.86 45.86 91 48 C95.99 50.57 101.08 52.82 106.25 55 C106.98 55.31 107.7 55.62 108.45 55.93 C168.21 80.9 231.4 96.7 295.46 105.4 C316.51 108.26 316.51 108.26 320 110 C320.91 188.07 305.66 271.07 277.75 344.03 C276.93 346.19 276.14 348.35 275.35 350.52 C270.45 363.96 265.05 377.03 259 390 C258.08 392 257.16 394 256.25 396 C255.86 396.85 255.48 397.69 255.08 398.56 C254.38 400.14 253.71 401.74 253.09 403.35 C251.67 406.8 250 410.11 248.31 413.44 C247.59 414.87 246.86 416.31 246.14 417.75 C245.78 418.47 245.42 419.18 245.04 419.92 C243.54 422.92 242.05 425.93 240.56 428.94 C237.91 434.24 235.2 439.5 232.44 444.75 C232.09 445.42 231.73 446.1 231.37 446.79 C228.45 452.32 225.24 457.65 222 463 C221 464.68 220 466.36 219 468.04 C218 469.71 217 471.39 216 473.06 C215.26 474.31 215.26 474.31 214.5 475.59 C211.55 480.53 208.47 485.35 205.2 490.09 C203.84 492.09 203.84 492.09 203 495 C202.01 495.5 202.01 495.5 201 496 C200.11 497.56 199.23 499.12 198.36 500.69 C185.14 523.12 167.79 544.25 150.72 563.85 C148.3 566.63 145.99 569.49 143.69 572.38 C139.22 577.89 134.38 583.03 129.49 588.17 C126.51 591.3 123.59 594.45 120.79 597.73 C116.32 602.88 111.48 607.67 106.66 612.47 C105.07 614.06 103.48 615.65 101.89 617.24 C96.97 622.17 92.01 627 86.72 631.53 C84.14 633.74 81.67 636.06 79.19 638.38 C74.56 642.65 69.8 646.69 64.89 650.63 C62.24 652.81 59.64 655.03 57.06 657.29 C49.6 663.79 41.83 669.73 33.87 675.6 C31.13 677.65 28.44 679.76 25.75 681.88 C20.08 686.25 14.28 690.43 8.44 694.56 C7.57 695.18 6.7 695.8 5.8 696.44 C4.57 697.31 4.57 697.31 3.31 698.19 C2.21 698.97 2.21 698.97 1.08 699.76 C-1 701 -2.6 701.68 -5 702 C-7.13 700.84 -7.13 700.84 -9.56 698.94 C-11 697.84 -11 697.84 -12.46 696.72 C-13.29 696.08 -13.29 696.08 -14.12 695.43 C-17.91 692.54 -21.78 689.75 -25.62 686.94 C-31.83 682.39 -37.94 677.74 -44 673 C-45.48 671.85 -46.96 670.71 -48.44 669.56 C-60.85 659.9 -72.92 649.92 -84.51 639.27 C-86.7 637.27 -88.93 635.31 -91.19 633.38 C-94.54 630.47 -97.67 627.38 -100.75 624.19 C-102.7 622.29 -104.69 620.52 -106.75 618.75 C-111.03 615.02 -115.06 611.09 -119.06 607.06 C-119.73 606.4 -120.4 605.73 -121.09 605.05 C-124.99 601.14 -128.7 597.12 -132.31 592.94 C-134.97 589.89 -137.74 586.95 -140.5 584 C-145.09 579.07 -149.63 574.12 -154 569 C-154.82 568.05 -155.63 567.1 -156.48 566.12 C-162.68 558.88 -168.65 551.47 -174.49 543.93 C-176.1 541.87 -177.72 539.83 -179.35 537.78 C-187.25 527.8 -194.58 517.54 -201.67 506.96 C-203.26 504.61 -204.91 502.3 -206.56 500 C-216.74 485.49 -225.55 470.07 -234.4 454.74 C-235.96 452.06 -237.56 449.41 -239.17 446.76 C-241.6 442.73 -243.81 438.66 -245.88 434.44 C-246.37 433.43 -246.37 433.43 -246.88 432.4 C-249.69 426.71 -252.38 420.98 -255.06 415.23 C-257.2 410.66 -259.41 406.13 -261.69 401.62 C-300.59 324.34 -319.56 235.11 -328 110 C-323.06 108.15 -318.33 107.36 -313.13 106.7 C-311.36 106.47 -309.59 106.23 -307.81 106 C-306.88 105.88 -305.96 105.75 -305 105.63 C-248.13 98.13 -190.2 85.97 -137 64 C-135.73 63.49 -134.47 62.98 -133.2 62.47 C-131.39 61.74 -129.57 61.02 -127.76 60.29 C-123.65 58.64 -119.52 57.06 -115.38 55.5 C-106.96 52.28 -98.84 48.46 -90.81 44.38 C-87.69 42.79 -84.59 41.42 -81.31 40.19 C-76.27 38.23 -71.57 35.72 -66.82 33.14 C-62.47 30.77 -58.07 28.51 -53.62 26.31 C-49.09 24.06 -44.61 21.75 -40.21 19.25 C-38.11 18.06 -36 16.9 -33.88 15.74 C-28.74 12.89 -23.71 9.86 -18.69 6.81 C-16.94 5.76 -15.2 4.7 -13.45 3.64 C-12.69 3.18 -11.93 2.72 -11.15 2.25 C-10.44 1.84 -9.73 1.42 -9 1 C-8.35 0.59 -7.7 0.19 -7.03 -0.23 C-4.29 -1.27 -2.78 -0.86 0 0 Z M-20.86 50.62 C-25.09 53.35 -29.57 55.63 -34 58 C-35.67 58.91 -35.67 58.91 -37.37 59.84 C-50.92 67.22 -64.92 73.7 -79 80 C-79 80.66 -79 81.32 -79 82 C-79.71 82.12 -80.43 82.24 -81.16 82.36 C-84.12 83.03 -86.65 83.99 -89.44 85.19 C-90.45 85.62 -91.46 86.05 -92.5 86.5 C-94.71 87.45 -96.92 88.4 -99.13 89.37 C-108.13 93.29 -117.23 96.84 -126.44 100.25 C-127.19 100.53 -127.94 100.81 -128.71 101.09 C-139.59 105.12 -150.52 108.94 -161.56 112.5 C-162.75 112.88 -163.94 113.27 -165.17 113.67 C-183.67 119.53 -202.43 124.13 -221.3 128.6 C-224.53 129.37 -227.75 130.14 -230.97 130.92 C-243.32 133.86 -255.62 136.7 -268.16 138.67 C-276.85 140.1 -282.52 143.15 -287.75 150.44 C-290.22 155.51 -290.07 160.22 -289.43 165.72 C-289.32 166.69 -289.32 166.69 -289.21 167.68 C-288.96 169.81 -288.7 171.93 -288.44 174.06 C-288.3 175.18 -288.3 175.18 -288.16 176.31 C-283.12 217.67 -274.92 258.07 -263 298 C-262.73 298.91 -262.46 299.82 -262.18 300.75 C-259.04 311.24 -255.48 321.58 -251.94 331.94 C-251.53 333.15 -251.11 334.36 -250.69 335.6 C-248.07 343.2 -245.18 350.62 -242 358 C-241.59 358.95 -241.19 359.9 -240.77 360.88 C-235.99 371.99 -231.16 383.06 -226 394 C-225.27 395.56 -224.54 397.12 -223.81 398.69 C-223.02 400.38 -222.23 402.06 -221.44 403.75 C-221.07 404.53 -220.71 405.31 -220.33 406.12 C-218.11 410.82 -215.72 415.39 -213.16 419.92 C-211.58 422.75 -210.11 425.63 -208.62 428.5 C-203.09 439.02 -196.82 449.12 -190.66 459.27 C-189.35 461.41 -188.06 463.57 -186.78 465.72 C-173.24 488.26 -157.39 509.47 -141 530 C-140.32 530.87 -139.63 531.73 -138.93 532.62 C-131.13 542.48 -123 552.03 -114.48 561.27 C-112.58 563.36 -110.73 565.47 -108.89 567.62 C-104.87 572.21 -100.61 576.54 -96.29 580.85 C-95.47 581.66 -94.66 582.48 -93.82 583.32 C-92.1 585.03 -90.39 586.74 -88.68 588.45 C-86.07 591.06 -83.47 593.66 -80.87 596.27 C-79.2 597.94 -77.52 599.61 -75.85 601.29 C-75.08 602.06 -74.31 602.83 -73.52 603.62 C-68.84 608.28 -64.02 612.71 -59 617 C-57.87 617.97 -56.74 618.95 -55.61 619.92 C-52.68 622.44 -49.74 624.95 -46.79 627.46 C-45.1 628.91 -43.42 630.37 -41.73 631.83 C-36.03 636.76 -30.2 641.46 -24.12 645.94 C-23.52 646.39 -22.91 646.83 -22.29 647.3 C-14.58 653.1 -14.58 653.1 -5.56 655.94 C-4.88 656.03 -4.2 656.12 -3.5 656.21 C3.31 655.63 8.55 652.27 13.69 648 C14.58 647.28 14.58 647.28 15.49 646.54 C20.7 642.31 25.83 637.97 30.93 633.61 C33.7 631.24 36.53 628.96 39.38 626.69 C45.28 621.88 50.8 616.68 56.33 611.45 C59.39 608.56 62.5 605.74 65.62 602.94 C71.51 597.56 77.17 591.94 82.81 586.31 C83.71 585.42 84.6 584.53 85.53 583.61 C90 579.13 94.34 574.59 98.46 569.78 C100.7 567.19 103.04 564.69 105.38 562.19 C109.67 557.54 113.74 552.76 117.7 547.82 C119.73 545.34 121.79 542.9 123.88 540.47 C135.22 527.27 145.4 513.19 155.51 499.05 C157.02 496.97 158.57 494.94 160.13 492.91 C162.77 489.42 164.87 485.82 167 482 C168.52 479.64 170.1 477.32 171.69 475 C176.34 468.1 180.66 461.05 184.88 453.88 C186.01 451.98 187.16 450.1 188.32 448.21 C192.61 441.21 196.54 434.16 200.14 426.76 C201.84 423.27 203.66 419.85 205.49 416.42 C214.85 398.89 223.79 380.89 231.06 362.38 C231.95 360.13 232.86 357.9 233.79 355.67 C258.35 296.02 275.68 230.46 281 166 C281.15 164.39 281.15 164.39 281.31 162.75 C281.66 155.19 280.04 149.77 275 144 C267.12 138.6 256.78 137.89 247.53 136.37 C202.91 128.98 159.31 114.71 117 99 C116.05 98.65 115.11 98.3 114.13 97.95 C104.1 94.25 94.26 90.36 84.62 85.72 C80.69 83.83 76.69 82.1 72.69 80.38 C66.68 77.77 60.82 74.98 55 72 C53.23 71.12 51.45 70.24 49.67 69.36 C42.45 65.78 35.28 62.1 28.12 58.38 C27.27 57.93 26.41 57.49 25.53 57.03 C20.33 54.31 15.29 51.41 10.3 48.31 C-0.97 41.91 -10.37 43.7 -20.86 50.62 Z " fill="#F9FCFE" transform="translate(692,515)"/>
<path d="M0 0 C5.61 3.2 11.41 6 17.21 8.84 C20.25 10.34 23.28 11.86 26.31 13.38 C27.44 13.94 28.58 14.51 29.74 15.09 C32.11 16.27 34.47 17.47 36.82 18.67 C42.63 21.62 48.41 24.42 54.5 26.75 C57.07 27.77 59.59 28.89 62.1 30.03 C81.56 38.78 101.78 45.77 121.94 52.69 C122.72 52.96 123.51 53.23 124.32 53.51 C134.55 57.03 144.83 60.28 155.24 63.26 C157.07 63.78 158.9 64.31 160.72 64.84 C185.05 71.87 209.67 77.9 234.76 81.49 C240.72 82.38 245.95 83.19 250.05 88.01 C250.53 88.79 251.01 89.57 251.5 90.38 C251.99 91.16 252.48 91.95 252.99 92.76 C258.42 102.08 254.47 116.21 253.06 126.5 C252.95 127.33 252.84 128.16 252.73 129.01 C244.07 193.22 226.37 255.14 201.19 314.82 C200.73 315.9 200.73 315.9 200.27 317 C193.95 331.88 186.58 346.16 179.04 360.46 C177.06 364.22 175.1 367.98 173.23 371.79 C170.78 376.72 168.05 381.48 165.31 386.25 C164.81 387.14 164.3 388.03 163.79 388.95 C160.86 394.07 157.8 399.03 154.47 403.9 C152.97 406.14 151.68 408.47 150.37 410.82 C148.16 414.56 145.67 418.12 143.25 421.72 C141.42 424.47 139.67 427.25 137.94 430.07 C133.56 437 128.54 443.44 123.58 449.96 C121.73 452.43 119.92 454.93 118.12 457.44 C104.41 476.4 89.25 494.5 73.17 511.49 C70.37 514.45 67.64 517.44 64.98 520.54 C60.64 525.54 55.96 530.19 51.27 534.86 C49.75 536.38 48.24 537.9 46.72 539.42 C41.93 544.22 37.08 548.91 31.92 553.32 C29.34 555.54 26.87 557.87 24.38 560.19 C19.75 564.46 15 568.5 10.09 572.44 C7.39 574.65 4.76 576.92 2.14 579.21 C-3.18 583.86 -8.59 588.3 -14.31 592.44 C-14.88 592.86 -15.44 593.27 -16.02 593.7 C-21.66 597.69 -26.59 599.49 -33.41 598.46 C-46.55 594.92 -58.7 581.89 -68.78 573.15 C-72.17 570.21 -75.61 567.36 -79.12 564.57 C-83.78 560.78 -88.17 556.76 -92.54 552.64 C-93.64 551.6 -93.64 551.6 -94.77 550.54 C-102.53 543.19 -110.12 535.66 -117.66 528.1 C-119.97 525.79 -122.28 523.48 -124.59 521.18 C-126.08 519.68 -127.58 518.19 -129.07 516.69 C-129.75 516.02 -130.42 515.34 -131.12 514.65 C-135.55 510.2 -139.73 505.58 -143.81 500.82 C-144.76 499.72 -145.71 498.63 -146.66 497.54 C-152.08 491.27 -157.4 484.93 -162.62 478.5 C-163.14 477.87 -163.65 477.24 -164.18 476.59 C-176.01 461.97 -187.16 446.85 -197.75 431.32 C-198.35 430.43 -198.95 429.55 -199.57 428.64 C-206.52 418.39 -213.03 407.89 -219.38 397.25 C-220.33 395.67 -220.33 395.67 -221.29 394.04 C-222.54 391.96 -223.79 389.88 -225.03 387.79 C-226.19 385.85 -227.36 383.91 -228.53 381.97 C-229.06 381.1 -229.59 380.22 -230.13 379.32 C-230.6 378.56 -231.06 377.8 -231.54 377.01 C-233.29 373.99 -234.82 370.88 -236.35 367.75 C-237.82 364.81 -239.36 361.91 -240.91 359.02 C-251.08 340.09 -259.42 320.47 -267.64 300.65 C-268.32 298.99 -269.01 297.34 -269.7 295.69 C-271.48 291.43 -273.17 287.13 -274.81 282.82 C-275.16 281.91 -275.5 281.01 -275.86 280.08 C-287.31 249.73 -296.01 218.51 -302.81 186.82 C-303.04 185.76 -303.27 184.71 -303.51 183.62 C-308.46 160.59 -312.11 137.28 -314.81 113.88 C-314.96 112.7 -315.11 111.51 -315.26 110.29 C-315.99 103.53 -315.98 97.97 -312.81 91.82 C-308.51 86.6 -303.77 83.81 -297.23 82.27 C-296.17 82.03 -295.11 81.78 -294.03 81.52 C-289.1 80.44 -284.16 79.46 -279.2 78.51 C-267.02 76.12 -254.93 73.39 -242.85 70.53 C-239.52 69.74 -236.19 68.97 -232.86 68.19 C-222.39 65.73 -212.03 63.19 -201.81 59.82 C-200.39 59.37 -198.96 58.92 -197.54 58.47 C-175.96 51.68 -154.71 44.49 -133.81 35.82 C-132.24 35.17 -132.24 35.17 -130.63 34.51 C-124.19 31.85 -117.9 29 -111.62 25.95 C-108.81 24.82 -108.81 24.82 -104.81 24.82 C-104.81 24.16 -104.81 23.5 -104.81 22.82 C-103.73 22.35 -102.65 21.89 -101.54 21.42 C-90.73 16.73 -80.31 11.52 -69.94 5.94 C-67.87 4.85 -65.79 3.8 -63.69 2.77 C-60 0.94 -56.44 -1.06 -52.88 -3.12 C-51.66 -3.82 -50.44 -4.52 -49.23 -5.21 C-47.18 -6.4 -45.13 -7.58 -43.09 -8.78 C-42.32 -9.22 -41.54 -9.66 -40.75 -10.12 C-40.1 -10.5 -39.45 -10.88 -38.78 -11.27 C-25.23 -17.55 -11.25 -6.69 0 0 Z M-36.81 31.69 C-37.72 32.15 -37.72 32.15 -38.65 32.63 C-44.67 35.71 -50.64 38.88 -56.62 42.04 C-61.85 44.8 -67.1 47.53 -72.38 50.19 C-72.98 50.5 -73.59 50.81 -74.21 51.13 C-78.49 53.27 -82.87 55.06 -87.32 56.81 C-90.3 58.02 -93.21 59.35 -96.12 60.71 C-119.53 71.59 -143.88 80.54 -168.35 88.67 C-170.61 89.42 -172.87 90.18 -175.13 90.94 C-204.62 100.92 -234.82 108.86 -265.28 115.27 C-268.81 116.03 -272.31 116.91 -275.81 117.82 C-275.94 123.45 -275.54 128.68 -274.6 134.23 C-274.47 135.03 -274.34 135.82 -274.2 136.64 C-273.77 139.24 -273.32 141.84 -272.88 144.44 C-272.72 145.34 -272.57 146.24 -272.41 147.16 C-267.79 173.96 -261.6 200.46 -253.55 226.44 C-252.89 228.56 -252.25 230.68 -251.62 232.8 C-249.09 241.16 -246.29 249.42 -243.47 257.69 C-242.83 259.57 -242.19 261.46 -241.55 263.35 C-239.3 269.89 -236.84 276.21 -233.9 282.47 C-232.58 285.33 -231.46 288.23 -230.38 291.19 C-228.08 297.24 -225.48 303.09 -222.7 308.93 C-221.72 311.01 -220.75 313.1 -219.78 315.19 C-214.83 325.82 -209.55 336.24 -204.01 346.58 C-202.85 348.75 -201.69 350.92 -200.54 353.1 C-189.92 373.12 -177.92 392.32 -164.81 410.82 C-163.99 411.99 -163.16 413.17 -162.34 414.34 C-150.69 430.83 -138.39 446.74 -125.28 462.09 C-123.8 463.83 -122.33 465.58 -120.86 467.34 C-115.48 473.74 -109.93 479.85 -103.95 485.71 C-101.35 488.26 -98.85 490.84 -96.5 493.63 C-88.94 502.49 -80.39 510.85 -71.49 518.36 C-69.73 519.89 -68.12 521.51 -66.5 523.19 C-62.78 526.98 -58.69 530.24 -54.56 533.57 C-52.12 535.57 -49.77 537.63 -47.44 539.75 C-41.84 544.8 -35.82 549.28 -29.81 553.82 C-25.27 550.92 -21.19 547.73 -17.12 544.19 C-16.52 543.67 -15.91 543.14 -15.28 542.6 C-10.54 538.49 -5.88 534.28 -1.25 530.04 C0.83 528.14 2.93 526.28 5.06 524.44 C17.03 514.02 28.93 503.17 39.22 491.06 C41.38 488.6 43.61 486.22 45.85 483.83 C51.1 478.23 56.16 472.57 60.96 466.57 C62.95 464.1 65 461.69 67.07 459.29 C73.54 451.75 79.59 443.91 85.56 435.97 C87.14 433.87 88.74 431.79 90.33 429.7 C96.15 422.05 101.68 414.27 106.93 406.22 C108.89 403.23 110.95 400.32 113.06 397.43 C114.57 395.27 115.82 392.98 117.1 390.68 C118.33 388.57 119.68 386.58 121.06 384.57 C123.81 380.49 126.18 376.3 128.48 371.96 C130.24 368.72 132.07 365.52 133.92 362.33 C137.99 355.25 141.82 348.07 145.56 340.82 C145.88 340.2 146.2 339.58 146.54 338.94 C152.12 328.12 157.3 317.16 162.21 306.01 C163.48 303.15 164.84 300.33 166.19 297.5 C188.59 249.02 218 173.24 214.19 118.82 C210.12 115.22 204.73 114.7 199.56 113.69 C174.42 108.49 149.6 101.75 125.19 93.82 C123.77 93.36 122.35 92.9 120.93 92.44 C103.5 86.82 86.32 80.96 69.46 73.76 C65.93 72.29 62.34 70.99 58.75 69.69 C52.2 67.3 45.95 64.47 39.69 61.43 C37.19 60.28 34.78 59.27 32.2 58.33 C28.32 56.91 24.67 55.15 21 53.25 C14.68 50.03 8.3 46.96 1.88 43.94 C-6.17 40.16 -14.06 36.14 -21.86 31.86 C-22.6 31.46 -23.34 31.06 -24.1 30.65 C-24.75 30.3 -25.39 29.94 -26.06 29.58 C-30.24 27.76 -33.05 29.77 -36.81 31.69 Z " fill="#0A1D2C" transform="translate(717.8125,572.18359375)"/>
<path d="M0 0 C1.14 0.99 1.14 0.99 2.29 2.01 C19.45 17.98 32.89 43.66 34.18 67.26 C34.72 98.33 34.72 98.33 30 112 C29.79 112.64 29.57 113.29 29.35 113.95 C24.73 127.58 16.36 142.97 4.67 151.75 C2.47 154.71 3.04 156.57 3.51 160.09 C4.57 166.42 5.98 172.68 7.35 178.94 C7.69 180.51 8.03 182.08 8.37 183.65 C9.27 187.79 10.17 191.92 11.08 196.06 C11.79 199.34 12.51 202.62 13.22 205.9 C13.92 209.13 14.62 212.36 15.33 215.59 C15.85 218 16.37 220.41 16.9 222.83 C18.42 229.85 19.96 236.87 21.57 243.88 C22.24 246.78 22.9 249.69 23.55 252.6 C24.01 254.58 24.47 256.55 24.94 258.52 C29.06 276.79 29.06 276.79 25.31 284.44 C24.55 285.28 23.79 286.13 23 287 C22.2 287.91 21.39 288.81 20.56 289.75 C16.02 293.74 12.13 294.25 6.18 294.26 C5.17 294.27 5.17 294.27 4.14 294.27 C1.89 294.28 -0.35 294.28 -2.6 294.27 C-4.22 294.28 -5.83 294.28 -7.45 294.29 C-11.83 294.3 -16.21 294.3 -20.59 294.3 C-24.26 294.3 -27.92 294.31 -31.58 294.31 C-40.21 294.32 -48.85 294.32 -57.49 294.32 C-66.39 294.31 -75.3 294.32 -84.2 294.34 C-91.85 294.36 -99.5 294.37 -107.15 294.36 C-111.72 294.36 -116.29 294.36 -120.86 294.38 C-125.15 294.39 -129.45 294.39 -133.74 294.38 C-135.32 294.37 -136.89 294.38 -138.47 294.38 C-140.62 294.4 -142.77 294.39 -144.93 294.37 C-146.73 294.37 -146.73 294.37 -148.58 294.37 C-154.19 293.76 -158.83 291.74 -162.81 287.62 C-163.38 287.06 -163.94 286.5 -164.52 285.91 C-168.32 281.01 -168.11 276.86 -167.44 270.97 C-166.73 266.18 -165.72 261.48 -164.63 256.77 C-164.39 255.71 -164.15 254.65 -163.91 253.56 C-163.4 251.3 -162.88 249.04 -162.37 246.77 C-160.99 240.76 -159.64 234.73 -158.29 228.71 C-158.02 227.49 -157.74 226.26 -157.46 225 C-154.91 213.65 -152.44 202.28 -150.02 190.9 C-149.59 188.91 -149.17 186.91 -148.74 184.91 C-147.62 179.67 -146.52 174.43 -145.45 169.17 C-145.04 167.19 -144.59 165.2 -144.15 163.22 C-142.81 157.44 -142.81 157.44 -144.53 151.99 C-145.32 151.29 -146.12 150.59 -146.94 149.88 C-151.74 145.26 -155.38 140.58 -159 135 C-159.57 134.17 -160.15 133.33 -160.74 132.48 C-174.7 110.82 -178.28 82.17 -173.04 57.22 C-166.26 28.22 -149.23 4.1 -123.98 -11.71 C-85.21 -34.74 -33.44 -30.06 0 0 Z " fill="#0A1D2C" transform="translate(981,194)"/>
<path d="M0 0 C9.39 6.92 16.5 16.85 18.34 28.49 C19.43 42.82 16.53 52.63 7.34 63.49 C3.25 67.88 -0.98 72.11 -5.23 76.35 C-6.49 77.62 -7.76 78.9 -9.02 80.17 C-12.44 83.6 -15.86 87.03 -19.29 90.46 C-21.43 92.6 -23.57 94.75 -25.71 96.9 C-33.2 104.4 -40.68 111.89 -48.18 119.38 C-55.14 126.35 -62.1 133.33 -69.05 140.31 C-75.04 146.32 -81.03 152.32 -87.03 158.32 C-90.6 161.89 -94.17 165.47 -97.74 169.06 C-101.09 172.43 -104.45 175.79 -107.82 179.15 C-109.05 180.37 -110.28 181.6 -111.5 182.84 C-122.39 193.83 -132.98 202.31 -149.09 202.87 C-167.04 202.23 -178.3 192.49 -190.37 180.42 C-191.55 179.25 -192.73 178.07 -193.92 176.9 C-196.38 174.46 -198.83 172.01 -201.28 169.55 C-204.4 166.43 -207.54 163.33 -210.69 160.24 C-213.14 157.83 -215.57 155.4 -217.99 152.98 C-219.14 151.83 -220.3 150.68 -221.46 149.55 C-230.6 140.59 -237.5 130.93 -238.03 117.68 C-237.9 105.84 -233.15 94.86 -224.77 86.64 C-216.14 79.14 -205.2 75.56 -193.82 76.07 C-178.57 78.09 -169.94 86.9 -159.75 97.57 C-159.03 98.3 -158.32 99.03 -157.58 99.79 C-156.95 100.45 -156.31 101.12 -155.66 101.8 C-153.43 103.68 -151.36 104.47 -148.66 105.49 C-147.89 104.72 -147.89 104.72 -147.1 103.93 C-134.62 91.38 -122.12 78.83 -109.62 66.3 C-103.57 60.23 -97.52 54.17 -91.49 48.1 C-86.22 42.8 -80.95 37.51 -75.68 32.23 C-72.88 29.43 -70.1 26.64 -67.31 23.83 C-64.69 21.19 -62.06 18.55 -59.42 15.92 C-58 14.5 -56.59 13.07 -55.19 11.65 C-39.84 -3.62 -20.29 -11.52 0 0 Z " fill="#FAFDFF" transform="translate(816.65625,766.5078125)"/>
<path d="M0 0 C0.63 0.53 1.27 1.06 1.92 1.61 C2.56 2.08 3.19 2.56 3.84 3.05 C17.5 13.9 25.59 30.61 27.92 47.61 C29.38 66.69 24.43 83.67 11.97 98.36 C7.93 102.79 3.9 107.11 -0.89 110.73 C-3.84 113.25 -4.84 114.88 -6.08 118.61 C-6.71 127.4 -5.62 135.59 -3.73 144.16 C-3.49 145.32 -3.24 146.48 -2.99 147.68 C-2.2 151.43 -1.39 155.17 -0.58 158.92 C-0.03 161.51 0.52 164.1 1.07 166.69 C2.16 171.87 3.26 177.06 4.37 182.24 C6.36 191.64 8.27 201.05 10.16 210.47 C10.66 213 11.17 215.53 11.69 218.06 C11.99 219.57 12.29 221.09 12.59 222.6 C12.85 223.89 13.11 225.18 13.38 226.51 C13.92 229.61 13.92 229.61 13.92 232.61 C11.63 233.75 10.36 233.73 7.81 233.73 C6.95 233.73 6.09 233.73 5.2 233.73 C4.25 233.73 3.31 233.72 2.33 233.72 C0.84 233.72 0.84 233.72 -0.68 233.72 C-3.98 233.72 -7.29 233.71 -10.59 233.7 C-12.87 233.7 -15.15 233.7 -17.44 233.7 C-23.46 233.7 -29.48 233.69 -35.5 233.67 C-41.64 233.66 -47.78 233.66 -53.92 233.65 C-65.97 233.64 -78.02 233.63 -90.08 233.61 C-92.57 229.31 -91.71 226.22 -90.61 221.57 C-90.43 220.76 -90.25 219.96 -90.06 219.12 C-89.46 216.45 -88.84 213.78 -88.22 211.11 C-87.8 209.25 -87.38 207.38 -86.96 205.51 C-85.84 200.59 -84.72 195.67 -83.58 190.74 C-82.44 185.78 -81.32 180.82 -80.19 175.86 C-78.92 170.25 -77.65 164.65 -76.37 159.05 C-74.66 151.61 -72.96 144.18 -71.33 136.73 C-71.1 135.67 -70.87 134.62 -70.63 133.53 C-69.11 125.49 -69.15 119.3 -73.77 112.34 C-77.36 108.08 -81.48 104.44 -85.6 100.71 C-97.69 89.7 -103.29 75.33 -104.3 59.08 C-104.76 40.21 -99.5 23.88 -87.08 9.61 C-65.26 -12.69 -25.89 -20.97 0 0 Z " fill="#F9FCFE" transform="translate(949.078125,216.39453125)"/>
<path d="M0 0 C0.83 0.73 1.66 1.46 2.52 2.21 C3.38 2.94 4.24 3.67 5.13 4.42 C11.04 9.53 15.88 14.95 20.52 21.21 C21.28 22.22 21.28 22.22 22.05 23.25 C39.58 46.67 39.58 46.67 39 56.82 C37.62 63.63 33.06 68.37 27.52 72.21 C22.76 74.49 18.56 74.61 13.52 73.21 C6.46 70.43 2.59 66.47 -1.48 60.21 C-6.33 53.01 -11.49 46.51 -17.48 40.21 C-18.18 39.47 -18.18 39.47 -18.89 38.72 C-25.26 32.01 -31.63 26.19 -39.48 21.21 C-40.39 20.57 -40.39 20.57 -41.32 19.93 C-50.6 13.62 -61.42 9.41 -72.29 6.84 C-72.95 6.68 -73.61 6.53 -74.28 6.36 C-98.44 1.12 -129.67 2.16 -151.7 14.29 C-153.55 15.25 -155.37 15.88 -157.36 16.52 C-162.69 18.46 -166.95 21.87 -171.48 25.21 C-172.36 25.81 -173.24 26.41 -174.14 27.02 C-193.16 40.16 -205.33 58.25 -214.48 79.21 C-215.22 80.78 -215.22 80.78 -215.97 82.39 C-222.22 97.11 -222.97 114.05 -223.82 129.78 C-225.7 164.48 -231.81 202.25 -252.17 231.33 C-254.94 235.31 -257.22 239.47 -259.04 243.96 C-260.3 246.81 -261.03 248.38 -263.48 250.21 C-268.22 251.79 -272.55 252.12 -277.48 251.21 C-282.89 248.08 -289.21 243.41 -291.1 237.17 C-292.27 227.38 -288.56 220.92 -283.25 212.91 C-280.77 209.13 -278.58 205.22 -276.48 201.21 C-276.18 200.66 -275.88 200.12 -275.57 199.55 C-272.61 193.96 -270.73 188.22 -268.98 182.15 C-268.68 181.1 -268.38 180.06 -268.07 178.98 C-262.43 158.82 -259.87 138.02 -259.04 117.15 C-258.43 102.38 -255.59 88.38 -251.48 74.21 C-251.23 73.3 -250.99 72.39 -250.73 71.45 C-248.96 65.06 -246.35 59.18 -243.48 53.21 C-242.82 53.21 -242.16 53.21 -241.48 53.21 C-241.39 52.52 -241.31 51.82 -241.22 51.11 C-240.3 47.51 -238.67 44.96 -236.67 41.84 C-234.55 38.51 -232.49 35.22 -230.61 31.76 C-228.31 27.7 -225.38 24.31 -222.29 20.84 C-221.72 20.18 -221.14 19.52 -220.55 18.85 C-207.17 3.75 -192.11 -7.98 -174.48 -17.79 C-173.73 -18.22 -172.97 -18.65 -172.2 -19.09 C-118.65 -47.94 -45.92 -39.24 0 0 Z " fill="#0A1D2C" transform="translate(473.48046875,364.7890625)"/>
<path d="M0 0 C1.4 0.32 1.4 0.32 2.84 0.66 C25.33 6.62 43.08 24.64 54.84 43.94 C62.86 58.21 68.47 78.37 64.34 94.58 C62.17 99.48 58.41 103.04 54 106 C48.2 107.93 42.19 107.91 36.62 105.25 C31.49 102.27 28.65 99.34 26.64 93.59 C25.83 90.31 25.46 87.05 25.06 83.69 C23.16 68.1 15.9 55.47 3.95 45.24 C-6.39 37.71 -18.46 35.7 -31 37 C-43.72 39.56 -54.51 45.17 -63 55 C-63.71 55.76 -63.71 55.76 -64.43 56.54 C-74.25 68.4 -73.88 85.04 -74.76 99.53 C-77.81 144.4 -87.31 201.06 -117.81 236.38 C-120.07 238.8 -120.07 238.8 -120.94 241.44 C-122.93 246.24 -126.13 250.02 -130.75 252.44 C-138.41 253.76 -144.28 253.81 -151.02 249.54 C-155.76 245.86 -158.1 242.14 -159.06 236.19 C-159.5 225.82 -153.46 218.6 -147.65 210.61 C-126.13 180.78 -117.88 141.73 -115.29 105.64 C-115.2 104.38 -115.2 104.38 -115.11 103.09 C-114.8 98.85 -114.52 94.62 -114.27 90.38 C-112.29 59.7 -102.11 35.97 -78.74 15.25 C-56.54 -2.97 -27.13 -6.38 0 0 Z " fill="#0A1D2C" transform="translate(396,404)"/>
<path d="M0 0 C4.67 5.36 7.38 9.32 7.28 16.49 C6.65 22.2 4.23 26.54 0.56 30.88 C-4.2 34.34 -10.35 34.89 -16 36 C-32.67 39.6 -47.88 43.98 -63 52 C-65.06 53 -67.12 54 -69.19 55 C-75.07 57.96 -80.56 61.29 -86 65 C-86.56 65.38 -87.11 65.75 -87.68 66.14 C-106.66 79.17 -122.79 95.37 -135.82 114.31 C-137.07 116.1 -138.34 117.86 -139.62 119.63 C-160.56 148.91 -168.97 187.29 -171 222.56 C-174.02 274.84 -174.02 274.84 -190.38 290.81 C-194.3 293.62 -198.2 294.74 -203 294 C-208.44 291.64 -213.05 288.43 -217 284 C-219.91 276.29 -219.27 270.03 -216.69 262.38 C-211.98 247.27 -210.88 232.04 -210.4 216.3 C-210.06 206.05 -208.81 196.09 -207 186 C-206.83 185.04 -206.66 184.07 -206.48 183.08 C-203.23 165.13 -198.29 148.23 -190.32 131.79 C-189.14 129.3 -188.18 126.84 -187.25 124.25 C-184.44 117.05 -180.2 110.53 -176.19 103.96 C-175.2 102.32 -174.22 100.67 -173.25 99.02 C-165.79 86.67 -155.9 75.46 -146 65 C-145.1 64.05 -144.2 63.09 -143.27 62.11 C-136.65 55.23 -129.61 49.17 -121.96 43.46 C-120.6 42.45 -119.25 41.43 -117.9 40.4 C-107.42 32.45 -96.83 25.74 -85 20 C-84.37 19.69 -83.74 19.38 -83.09 19.06 C-78.77 16.93 -74.41 14.92 -70 13 C-69.35 12.71 -68.69 12.43 -68.02 12.13 C-14.97 -10.64 -14.97 -10.64 0 0 Z " fill="#0A1D2C" transform="translate(355,266)"/>
<path d="M0 0 C0.91 -0 1.81 -0 2.75 -0.01 C5.75 -0.01 8.76 -0.01 11.77 -0 C13.85 -0 15.94 -0.01 18.03 -0.01 C22.41 -0.01 26.8 -0.01 31.18 -0 C36.79 0 42.4 0 48.02 -0 C52.33 -0.01 56.65 -0.01 60.96 -0 C63.03 -0 65.1 -0 67.17 -0.01 C70.07 -0.01 72.96 -0.01 75.86 0 C77.14 -0 77.14 -0 78.44 -0.01 C83.15 0.01 87.61 0.34 92.26 1.13 C89.42 2.73 87.39 3.38 84.15 3.38 C83.34 3.39 82.53 3.39 81.7 3.4 C80.82 3.4 79.94 3.39 79.04 3.39 C78.1 3.39 77.17 3.4 76.21 3.4 C73.13 3.41 70.05 3.4 66.97 3.4 C64.83 3.4 62.69 3.4 60.55 3.4 C56.07 3.4 51.59 3.4 47.1 3.39 C41.35 3.38 35.6 3.39 29.84 3.4 C25.43 3.4 21.01 3.4 16.59 3.4 C14.47 3.4 12.35 3.4 10.23 3.4 C7.27 3.41 4.31 3.4 1.34 3.39 C0.46 3.39 -0.42 3.4 -1.32 3.4 C-7.4 3.36 -7.4 3.36 -10.74 1.13 C-7.41 -0.54 -3.67 -0.01 0 0 Z " fill="#000102" transform="translate(868.744873046875,449.87060546875)"/>
<path d="M0 0 C0.33 0 0.66 0 1 0 C1 10.23 1 20.46 1 31 C0.67 31 0.34 31 0 31 C0 20.77 0 10.54 0 0 Z " fill="#000102" transform="translate(1259,146)"/>
<path d="M0 0 C0.33 0 0.66 0 1 0 C1.22 1.96 1.43 3.92 1.62 5.88 C1.74 6.97 1.86 8.06 1.98 9.18 C1.98 10.11 1.99 11.04 2 12 C1.34 12.66 0.68 13.32 0 14 C-0.2 12.42 -0.38 10.83 -0.56 9.25 C-0.67 8.37 -0.77 7.49 -0.88 6.58 C-0.99 4.12 -0.74 2.33 0 0 Z " fill="#000102" transform="translate(283,493)"/>
<path d="M0 0 C0.33 0 0.66 0 1 0 C1 3.96 1 7.92 1 12 C0.67 12 0.34 12 0 12 C0 8.04 0 4.08 0 0 Z " fill="#000102" transform="translate(1047,688)"/>
<path d="M0 0 C0.33 0 0.66 0 1 0 C1 3.3 1 6.6 1 10 C0.67 10 0.34 10 0 10 C0 6.7 0 3.4 0 0 Z " fill="#000102" transform="translate(1252,248)"/>
<path d="M0 0 C0.93 2.61 1.15 3.64 0.06 6.25 C-0.46 7.12 -0.46 7.12 -1 8 C-0.67 5.36 -0.34 2.72 0 0 Z " fill="#000102" transform="translate(1245,293)"/>
<path d="M0 0 C0.33 0 0.66 0 1 0 C1 2.64 1 5.28 1 8 C0.67 8 0.34 8 0 8 C0 5.36 0 2.72 0 0 Z " fill="#000102" transform="translate(1042,728)"/>
<path d="M0 0 C0.33 0 0.66 0 1 0 C1 2.64 1 5.28 1 8 C0.67 8 0.34 8 0 8 C0 5.36 0 2.72 0 0 Z " fill="#000102" transform="translate(1049,670)"/>
<path d="M0 0 C0.33 0 0.66 0 1 0 C1 2.31 1 4.62 1 7 C0.67 7 0.34 7 0 7 C0 4.69 0 2.38 0 0 Z " fill="#000102" transform="translate(1242,306)"/>
<path d="M0 0 C0.33 0 0.66 0 1 0 C1 1.98 1 3.96 1 6 C0.67 6 0.34 6 0 6 C0 4.02 0 2.04 0 0 Z " fill="#000102" transform="translate(1032,781)"/>
<path d="M0 0 C0.33 0 0.66 0 1 0 C1 1.98 1 3.96 1 6 C0.67 6 0.34 6 0 6 C0 4.02 0 2.04 0 0 Z " fill="#000102" transform="translate(1037,758)"/>
<path d="M0 0 C0.33 0 0.66 0 1 0 C1 1.98 1 3.96 1 6 C0.67 6 0.34 6 0 6 C0 4.02 0 2.04 0 0 Z " fill="#000102" transform="translate(1237,328)"/>
<path d="M0 0 C0.33 0 0.66 0 1 0 C1 1.65 1 3.3 1 5 C0.67 5 0.34 5 0 5 C0 3.35 0 1.7 0 0 Z " fill="#000102" transform="translate(1022,821)"/>
<path d="M0 0 C0.33 0 0.66 0 1 0 C1 1.65 1 3.3 1 5 C0.67 5 0.34 5 0 5 C0 3.35 0 1.7 0 0 Z " fill="#000102" transform="translate(1039,747)"/>
<path d="M0 0 C0.33 0 0.66 0 1 0 C1 1.65 1 3.3 1 5 C0.67 5 0.34 5 0 5 C0 3.35 0 1.7 0 0 Z " fill="#000102" transform="translate(1249,270)"/>
<path d="M0 0 C1 4 1 4 1 4 Z " fill="#000102" transform="translate(1007,868)"/>
<path d="M0 0 C1 4 1 4 1 4 Z " fill="#000102" transform="translate(1012,853)"/>
<path d="M0 0 C1 4 1 4 1 4 Z " fill="#000102" transform="translate(1017,838)"/>
<path d="M0 0 C1 4 1 4 1 4 Z " fill="#000102" transform="translate(1027,803)"/>
<path d="M0 0 C1 4 1 4 1 4 Z " fill="#000102" transform="translate(1040,743)"/>
<path d="M0 0 C1 4 1 4 1 4 Z " fill="#000102" transform="translate(1045,711)"/>
<path d="M0 0 C1 4 1 4 1 4 Z " fill="#000102" transform="translate(1222,381)"/>
<path d="M0 0 C0 3 0 3 0 3 Z " fill="#000102" transform="translate(1225,373)"/>
<path d="M0 0 C1 4 1 4 1 4 Z " fill="#000102" transform="translate(1232,348)"/>
<path d="M0 0 C3 1 3 1 3 1 Z " fill="#000102" transform="translate(376,897)"/>
<path d="" fill="#000102" transform="translate(0,0)"/>
<path d="" fill="#000102" transform="translate(0,0)"/>
<path d="" fill="#000102" transform="translate(0,0)"/>
<path d="" fill="#000102" transform="translate(0,0)"/>
<path d="M0 0 C2 1 2 1 2 1 Z " fill="#000102" transform="translate(677,1257)"/>
<path d="M0 0 C2 1 2 1 2 1 Z " fill="#000102" transform="translate(662,1247)"/>
<path d="" fill="#000102" transform="translate(0,0)"/>
<path d="" fill="#000102" transform="translate(0,0)"/>
<path d="" fill="#000102" transform="translate(0,0)"/>
<path d="" fill="#404250" transform="translate(0,0)"/>
<path d="" fill="#000102" transform="translate(0,0)"/>
<path d="" fill="#000102" transform="translate(0,0)"/>
<path d="" fill="#404250" transform="translate(0,0)"/>
<path d="" fill="#000102" transform="translate(0,0)"/>
<path d="" fill="#404250" transform="translate(0,0)"/>
<path d="" fill="#000102" transform="translate(0,0)"/>
<path d="" fill="#0B1E2D" transform="translate(0,0)"/>
<path d="" fill="#000102" transform="translate(0,0)"/>
<path d="M0 0 C2 1 2 1 2 1 Z " fill="#000102" transform="translate(362,897)"/>
<path d="" fill="#000102" transform="translate(0,0)"/>
<path d="" fill="#000102" transform="translate(0,0)"/>
<path d="" fill="#000102" transform="translate(0,0)"/>
<path d="" fill="#000102" transform="translate(0,0)"/>
<path d="" fill="#404250" transform="translate(0,0)"/>
<path d="" fill="#000102" transform="translate(0,0)"/>
<path d="" fill="#404250" transform="translate(0,0)"/>
<path d="" fill="#000102" transform="translate(0,0)"/>
<path d="" fill="#000102" transform="translate(0,0)"/>
<path d="" fill="#000102" transform="translate(0,0)"/>
<path d="" fill="#000102" transform="translate(0,0)"/>
<path d="" fill="#000102" transform="translate(0,0)"/>
<path d="" fill="#000102" transform="translate(0,0)"/>
<path d="" fill="#000102" transform="translate(0,0)"/>
<path d="" fill="#000102" transform="translate(0,0)"/>
<path d="" fill="#000102" transform="translate(0,0)"/>
<path d="" fill="#000102" transform="translate(0,0)"/>
<path d="" fill="#000102" transform="translate(0,0)"/>
<path d="" fill="#000102" transform="translate(0,0)"/>
<path d="" fill="#000102" transform="translate(0,0)"/>
<path d="" fill="#404250" transform="translate(0,0)"/>
<path d="" fill="#646777" transform="translate(0,0)"/>
<path d="" fill="#000102" transform="translate(0,0)"/>
<path d="" fill="#404250" transform="translate(0,0)"/>
<path d="" fill="#404250" transform="translate(0,0)"/>
<path d="" fill="#646777" transform="translate(0,0)"/>
<path d="" fill="#000102" transform="translate(0,0)"/>
<path d="" fill="#404250" transform="translate(0,0)"/>
<path d="" fill="#0B1E2D" transform="translate(0,0)"/>
<path d="" fill="#404250" transform="translate(0,0)"/>
<path d="" fill="#404250" transform="translate(0,0)"/>
<path d="" fill="#404250" transform="translate(0,0)"/>
<path d="" fill="#000102" transform="translate(0,0)"/>
<path d="" fill="#000102" transform="translate(0,0)"/>
<path d="" fill="#646777" transform="translate(0,0)"/>
<path d="" fill="#000102" transform="translate(0,0)"/>
<path d="" fill="#404250" transform="translate(0,0)"/>
<path d="" fill="#0B1E2D" transform="translate(0,0)"/>
<path d="" fill="#404250" transform="translate(0,0)"/>
<path d="" fill="#0B1E2D" transform="translate(0,0)"/>
<path d="" fill="#000102" transform="translate(0,0)"/>
<path d="" fill="#000102" transform="translate(0,0)"/>
<path d="" fill="#000102" transform="translate(0,0)"/>
<path d="" fill="#000102" transform="translate(0,0)"/>
<path d="" fill="#000102" transform="translate(0,0)"/>
<path d="" fill="#404250" transform="translate(0,0)"/>
<path d="" fill="#0B1E2D" transform="translate(0,0)"/>
<path d="" fill="#404250" transform="translate(0,0)"/>
<path d="" fill="#000102" transform="translate(0,0)"/>
<path d="" fill="#000102" transform="translate(0,0)"/>
<path d="" fill="#000102" transform="translate(0,0)"/>
<path d="" fill="#646777" transform="translate(0,0)"/>
<path d="" fill="#404250" transform="translate(0,0)"/>
<path d="" fill="#404250" transform="translate(0,0)"/>
<path d="" fill="#000102" transform="translate(0,0)"/>
<path d="" fill="#404250" transform="translate(0,0)"/>
<path d="" fill="#0B1E2D" transform="translate(0,0)"/>
<path d="" fill="#404250" transform="translate(0,0)"/>
<path d="" fill="#646777" transform="translate(0,0)"/>
<path d="" fill="#000102" transform="translate(0,0)"/>
<path d="" fill="#0B1E2D" transform="translate(0,0)"/>
<path d="" fill="#404250" transform="translate(0,0)"/>
<path d="" fill="#404250" transform="translate(0,0)"/>
<path d="" fill="#404250" transform="translate(0,0)"/>
<path d="" fill="#404250" transform="translate(0,0)"/>
<path d="" fill="#000102" transform="translate(0,0)"/>
<path d="" fill="#646777" transform="translate(0,0)"/>
<path d="" fill="#000102" transform="translate(0,0)"/>
<path d="" fill="#404250" transform="translate(0,0)"/>
<path d="" fill="#000102" transform="translate(0,0)"/>
<path d="" fill="#000102" transform="translate(0,0)"/>
<path d="" fill="#404250" transform="translate(0,0)"/>
<path d="" fill="#000102" transform="translate(0,0)"/>
<path d="" fill="#000102" transform="translate(0,0)"/>
<path d="" fill="#404250" transform="translate(0,0)"/>
<path d="" fill="#404250" transform="translate(0,0)"/>
<path d="" fill="#404250" transform="translate(0,0)"/>
<path d="" fill="#000102" transform="translate(0,0)"/>
<path d="" fill="#404250" transform="translate(0,0)"/>
<path d="" fill="#404250" transform="translate(0,0)"/>
<path d="" fill="#000102" transform="translate(0,0)"/>
<path d="" fill="#404250" transform="translate(0,0)"/>
<path d="" fill="#404250" transform="translate(0,0)"/>
<path d="" fill="#000102" transform="translate(0,0)"/>
<path d="" fill="#646777" transform="translate(0,0)"/>
<path d="" fill="#404250" transform="translate(0,0)"/>
<path d="" fill="#000102" transform="translate(0,0)"/>
<path d="" fill="#404250" transform="translate(0,0)"/>
<path d="" fill="#000102" transform="translate(0,0)"/>
<path d="" fill="#000102" transform="translate(0,0)"/>
<path d="" fill="#000102" transform="translate(0,0)"/>
<path d="" fill="#000102" transform="translate(0,0)"/>
<path d="" fill="#404250" transform="translate(0,0)"/>
<path d="" fill="#646777" transform="translate(0,0)"/>
<path d="" fill="#000102" transform="translate(0,0)"/>
<path d="" fill="#404250" transform="translate(0,0)"/>
<path d="" fill="#000102" transform="translate(0,0)"/>
<path d="" fill="#000102" transform="translate(0,0)"/>
<path d="" fill="#000102" transform="translate(0,0)"/>
<path d="" fill="#646777" transform="translate(0,0)"/>
<path d="" fill="#000102" transform="translate(0,0)"/>
<path d="" fill="#000102" transform="translate(0,0)"/>
<path d="" fill="#000102" transform="translate(0,0)"/>
<path d="" fill="#404250" transform="translate(0,0)"/>
<path d="" fill="#000102" transform="translate(0,0)"/>
<path d="" fill="#000102" transform="translate(0,0)"/>
<path d="" fill="#000102" transform="translate(0,0)"/>
<path d="" fill="#404250" transform="translate(0,0)"/>
<path d="" fill="#000102" transform="translate(0,0)"/>
<path d="" fill="#404250" transform="translate(0,0)"/>
<path d="" fill="#000102" transform="translate(0,0)"/>
<path d="" fill="#404250" transform="translate(0,0)"/>
<path d="" fill="#000102" transform="translate(0,0)"/>
<path d="" fill="#404250" transform="translate(0,0)"/>
<path d="" fill="#000102" transform="translate(0,0)"/>
<path d="" fill="#404250" transform="translate(0,0)"/>
<path d="" fill="#000102" transform="translate(0,0)"/>
<path d="" fill="#404250" transform="translate(0,0)"/>
<path d="" fill="#000102" transform="translate(0,0)"/>
<path d="" fill="#000102" transform="translate(0,0)"/>
<path d="" fill="#404250" transform="translate(0,0)"/>
<path d="" fill="#000102" transform="translate(0,0)"/>
<path d="" fill="#000102" transform="translate(0,0)"/>
<path d="" fill="#000102" transform="translate(0,0)"/>
<path d="" fill="#0B1E2D" transform="translate(0,0)"/>
<path d="" fill="#404250" transform="translate(0,0)"/>
<path d="" fill="#404250" transform="translate(0,0)"/>
<path d="" fill="#000102" transform="translate(0,0)"/>
<path d="" fill="#0B1E2D" transform="translate(0,0)"/>
<path d="" fill="#404250" transform="translate(0,0)"/>
<path d="" fill="#0B1E2D" transform="translate(0,0)"/>
<path d="" fill="#404250" transform="translate(0,0)"/>
<path d="" fill="#404250" transform="translate(0,0)"/>
<path d="" fill="#404250" transform="translate(0,0)"/>
<path d="" fill="#404250" transform="translate(0,0)"/>
<path d="" fill="#000102" transform="translate(0,0)"/>
<path d="" fill="#404250" transform="translate(0,0)"/>
<path d="" fill="#000102" transform="translate(0,0)"/>
<path d="" fill="#646777" transform="translate(0,0)"/>
<path d="" fill="#000102" transform="translate(0,0)"/>
<path d="" fill="#000102" transform="translate(0,0)"/>
<path d="" fill="#404250" transform="translate(0,0)"/>
<path d="" fill="#646777" transform="translate(0,0)"/>
<path d="" fill="#000102" transform="translate(0,0)"/>
<path d="" fill="#000102" transform="translate(0,0)"/>
<path d="" fill="#404250" transform="translate(0,0)"/>
<path d="" fill="#000102" transform="translate(0,0)"/>
<path d="" fill="#404250" transform="translate(0,0)"/>
<path d="" fill="#000102" transform="translate(0,0)"/>
<path d="" fill="#404250" transform="translate(0,0)"/>
<path d="" fill="#000102" transform="translate(0,0)"/>
<path d="" fill="#646777" transform="translate(0,0)"/>
<path d="" fill="#404250" transform="translate(0,0)"/>
<path d="" fill="#404250" transform="translate(0,0)"/>
<path d="" fill="#000102" transform="translate(0,0)"/>
<path d="" fill="#000102" transform="translate(0,0)"/>
<path d="" fill="#404250" transform="translate(0,0)"/>
<path d="" fill="#000102" transform="translate(0,0)"/>
<path d="" fill="#404250" transform="translate(0,0)"/>
<path d="" fill="#000102" transform="translate(0,0)"/>
<path d="" fill="#000102" transform="translate(0,0)"/>
<path d="" fill="#404250" transform="translate(0,0)"/>
<path d="" fill="#000102" transform="translate(0,0)"/>
<path d="" fill="#404250" transform="translate(0,0)"/>
<path d="" fill="#000102" transform="translate(0,0)"/>
<path d="" fill="#000102" transform="translate(0,0)"/>
<path d="" fill="#000102" transform="translate(0,0)"/>
<path d="" fill="#000102" transform="translate(0,0)"/>
<path d="" fill="#404250" transform="translate(0,0)"/>
<path d="" fill="#000102" transform="translate(0,0)"/>
<path d="" fill="#000102" transform="translate(0,0)"/>
<path d="" fill="#404250" transform="translate(0,0)"/>
<path d="" fill="#000102" transform="translate(0,0)"/>
<path d="" fill="#000102" transform="translate(0,0)"/>
<path d="" fill="#000102" transform="translate(0,0)"/>
<path d="" fill="#404250" transform="translate(0,0)"/>
<path d="" fill="#000102" transform="translate(0,0)"/>
<path d="" fill="#404250" transform="translate(0,0)"/>
<path d="" fill="#000102" transform="translate(0,0)"/>
<path d="" fill="#404250" transform="translate(0,0)"/>
<path d="" fill="#000102" transform="translate(0,0)"/>
<path d="" fill="#000102" transform="translate(0,0)"/>
<path d="" fill="#646777" transform="translate(0,0)"/>
<path d="" fill="#000102" transform="translate(0,0)"/>
<path d="" fill="#000102" transform="translate(0,0)"/>
<path d="" fill="#0B1E2D" transform="translate(0,0)"/>
<path d="" fill="#000102" transform="translate(0,0)"/>
</svg>
