<?xml version="1.0" encoding="UTF-8"?>
<!-- Generator: visioncortex VTracer 0.6.3 -->
<svg version="1.1" xmlns="http://www.w3.org/2000/svg" width="1280" height="1280">
<path d="M0 0 C1.52 -0 3.04 -0.01 4.56 -0.02 C8.73 -0.04 12.89 -0.02 17.06 -0.01 C21.6 0.01 26.13 -0.01 30.67 -0.02 C38.62 -0.03 46.57 -0.03 54.51 -0.01 C66.33 0.01 78.15 0.01 89.97 -0.01 C111.08 -0.02 132.18 -0.01 153.29 0.01 C171.76 0.03 190.23 0.03 208.7 0.03 C209.92 0.03 211.15 0.03 212.41 0.03 C217.38 0.03 222.35 0.03 227.32 0.03 C273.96 0.03 320.6 0.05 367.25 0.08 C408.7 0.12 450.15 0.13 491.59 0.12 C494.26 0.12 496.92 0.12 499.58 0.12 C500.9 0.12 502.21 0.12 503.57 0.12 C510.19 0.12 516.82 0.12 523.44 0.12 C524.75 0.12 526.05 0.12 527.4 0.12 C562.03 0.11 596.65 0.12 631.27 0.14 C633.12 0.14 633.12 0.14 635.01 0.14 C636.24 0.14 637.46 0.14 638.73 0.14 C640.57 0.14 640.57 0.14 642.45 0.14 C644.92 0.14 647.39 0.14 649.86 0.15 C667.1 0.15 684.34 0.16 701.57 0.15 C723.78 0.15 745.99 0.16 768.2 0.19 C779.95 0.2 791.7 0.2 803.45 0.2 C811.29 0.19 819.13 0.2 826.98 0.22 C831.45 0.23 835.92 0.23 840.39 0.22 C844.46 0.21 848.53 0.22 852.6 0.23 C854.06 0.24 855.52 0.24 856.98 0.23 C864.89 0.2 871.39 0.59 878.73 3.62 C878.73 4.28 878.73 4.94 878.73 5.62 C879.49 5.75 880.25 5.87 881.04 6 C883.73 6.62 883.73 6.62 886.73 8.62 C886.73 9.28 886.73 9.94 886.73 10.62 C887.69 11.03 887.69 11.03 888.66 11.44 C890.73 12.62 890.73 12.62 891.73 15.62 C892.39 15.62 893.05 15.62 893.73 15.62 C894.91 17.09 894.91 17.09 896.16 19.12 C896.58 19.77 896.99 20.42 897.41 21.09 C900.78 27.57 902.17 32.94 902.16 40.15 C902.17 40.96 902.18 41.77 902.19 42.61 C902.22 45.26 902.23 47.91 902.24 50.56 C902.26 52.41 902.27 54.26 902.29 56.11 C902.34 60.96 902.37 65.8 902.4 70.65 C902.43 75.6 902.47 80.56 902.52 85.51 C902.6 95.21 902.67 104.92 902.73 114.62 C904.27 114.62 904.27 114.62 905.84 114.61 C909.71 114.59 913.58 114.58 917.45 114.57 C919.11 114.56 920.78 114.56 922.44 114.55 C940.44 114.46 955.48 114.78 970.73 125.62 C970.73 126.28 970.73 126.94 970.73 127.62 C971.72 127.95 972.71 128.28 973.73 128.62 C973.73 129.28 973.73 129.94 973.73 130.62 C974.72 130.95 975.71 131.28 976.73 131.62 C976.73 132.28 976.73 132.94 976.73 133.62 C977.39 133.62 978.05 133.62 978.73 133.62 C980.35 135.86 980.35 135.86 982.16 138.94 C982.76 139.92 983.36 140.91 983.97 141.92 C989.93 153.74 989.13 166.19 989.07 179.08 C989.07 181.35 989.07 183.63 989.07 185.91 C989.07 192.07 989.05 198.23 989.03 204.38 C989.01 210.83 989.01 217.27 989.01 223.72 C989 234.53 988.98 245.34 988.95 256.15 C988.93 267.28 988.9 278.41 988.89 289.53 C988.89 290.22 988.89 290.91 988.89 291.62 C988.89 295.06 988.88 298.51 988.88 301.96 C988.85 330.51 988.79 359.07 988.73 387.62 C989.64 387.76 990.56 387.9 991.5 388.04 C994.65 388.61 997.45 389.56 1000.43 390.73 C1003.18 391.8 1005.95 392.81 1008.73 393.81 C1009.68 394.16 1010.62 394.5 1011.6 394.85 C1012.3 395.11 1013 395.36 1013.73 395.62 C1013.73 396.28 1013.73 396.94 1013.73 397.62 C1014.72 397.95 1015.71 398.28 1016.73 398.62 C1016.73 399.28 1016.73 399.94 1016.73 400.62 C1017.39 400.62 1018.05 400.62 1018.73 400.62 C1019.14 401.47 1019.55 402.31 1019.97 403.18 C1020.51 404.27 1021.05 405.37 1021.6 406.5 C1022.4 408.13 1022.4 408.13 1023.22 409.8 C1024.57 412.66 1024.57 412.66 1026.73 414.62 C1026.73 415.61 1026.73 416.6 1026.73 417.62 C1027.39 417.62 1028.05 417.62 1028.73 417.62 C1029.08 418.36 1029.43 419.1 1029.79 419.86 C1032.94 426.34 1036.36 432.39 1040.41 438.35 C1041.73 440.62 1041.73 440.62 1041.73 443.62 C1042.39 443.62 1043.05 443.62 1043.73 443.62 C1044.1 444.4 1044.48 445.17 1044.86 445.97 C1047.45 451.23 1050.06 456.38 1053.25 461.3 C1057.96 468.69 1062.42 476.27 1066.79 483.87 C1067.17 484.54 1067.56 485.2 1067.95 485.89 C1068.73 487.62 1068.73 487.62 1068.73 490.62 C1069.39 490.62 1070.05 490.62 1070.73 490.62 C1071.06 492.27 1071.39 493.92 1071.73 495.62 C1072.39 495.62 1073.05 495.62 1073.73 495.62 C1074.27 496.77 1074.27 496.77 1074.83 497.93 C1077.6 503.62 1080.49 508.95 1084.09 514.15 C1087.6 519.46 1090.61 525.08 1093.73 530.62 C1094.53 532.01 1094.53 532.01 1095.35 533.42 C1095.8 534.21 1096.26 535 1096.73 535.81 C1097.12 536.49 1097.51 537.16 1097.91 537.85 C1098.73 539.62 1098.73 539.62 1098.73 542.62 C1099.39 542.62 1100.05 542.62 1100.73 542.62 C1101.06 544.27 1101.39 545.92 1101.73 547.62 C1102.39 547.62 1103.05 547.62 1103.73 547.62 C1104.06 548.33 1104.38 549.03 1104.72 549.76 C1107.57 555.66 1110.62 561.17 1114.23 566.62 C1117.72 571.9 1120.66 577.26 1123.41 582.97 C1124.85 585.88 1126.48 588.57 1128.24 591.3 C1130.33 594.56 1132.34 597.87 1134.35 601.19 C1134.74 601.81 1135.12 602.44 1135.52 603.08 C1139.8 610.17 1142.63 616.18 1141.73 624.62 C1141.09 626.96 1140.42 629.3 1139.73 631.62 C1139.58 633.12 1139.45 634.62 1139.35 636.12 C1138.92 641.28 1137.63 646.12 1136.24 651.09 C1135.03 655.44 1134.06 659.78 1133.23 664.22 C1132.66 666.96 1131.92 669.62 1131.16 672.31 C1130.01 676.41 1129.31 680.4 1128.73 684.62 C1128.07 686.63 1127.4 688.63 1126.73 690.62 C1125.77 693.76 1124.85 696.91 1123.91 700.06 C1115.22 729.23 1104.84 758.1 1090.9 785.21 C1090.01 787.03 1089.2 788.89 1088.41 790.77 C1086.35 795.63 1083.87 800.27 1081.41 804.94 C1080.95 805.82 1080.49 806.71 1080.02 807.62 C1077.2 812.99 1074.22 818.22 1071.06 823.41 C1069.47 826.04 1067.99 828.72 1066.54 831.44 C1062.52 838.93 1062.52 838.93 1060.73 841.62 C1060.07 841.62 1059.41 841.62 1058.73 841.62 C1058.62 842.18 1058.52 842.74 1058.41 843.32 C1057.59 846.1 1056.31 848.12 1054.73 850.56 C1054.11 851.52 1053.48 852.47 1052.84 853.46 C1050.16 857.47 1047.43 861.44 1044.66 865.38 C1042.54 868.41 1042.54 868.41 1040.73 871.62 C1040.07 871.62 1039.41 871.62 1038.73 871.62 C1038.26 872.8 1038.26 872.8 1037.79 874 C1036.73 876.62 1036.73 876.62 1035.73 878.62 C1035.07 878.62 1034.41 878.62 1033.73 878.62 C1033.42 879.61 1033.42 879.61 1033.1 880.62 C1031.24 884.7 1028.75 888.31 1025.73 891.62 C1025.07 891.62 1024.41 891.62 1023.73 891.62 C1023.48 892.34 1023.23 893.05 1022.98 893.79 C1021.59 896.94 1019.88 899.26 1017.73 901.94 C1017.03 902.82 1016.32 903.7 1015.6 904.61 C1014.98 905.28 1014.36 905.94 1013.73 906.62 C1013.07 906.62 1012.41 906.62 1011.73 906.62 C1011.46 907.2 1011.19 907.77 1010.91 908.36 C1009.69 910.7 1008.3 912.75 1006.73 914.87 C1005.95 915.93 1005.95 915.93 1005.16 917.01 C1004.69 917.55 1004.22 918.08 1003.73 918.62 C1003.07 918.62 1002.41 918.62 1001.73 918.62 C1001.4 919.61 1001.07 920.6 1000.73 921.62 C1000.07 921.62 999.41 921.62 998.73 921.62 C998.33 922.49 998.33 922.49 997.91 923.37 C996.7 925.68 995.42 927.64 993.73 929.62 C993.07 929.62 992.41 929.62 991.73 929.62 C991.73 930.28 991.73 930.94 991.73 931.62 C991.07 931.62 990.41 931.62 989.73 931.62 C989.51 932.17 989.29 932.72 989.06 933.28 C987.31 936.36 984.94 938.63 982.41 941.06 C981.94 941.53 981.47 941.99 980.98 942.47 C979.56 943.86 978.15 945.24 976.73 946.62 C973.59 949.74 970.48 952.89 967.37 956.05 C965.76 957.68 964.15 959.31 962.54 960.94 C961.72 961.77 960.9 962.61 960.06 963.47 C959.27 964.26 958.49 965.05 957.68 965.86 C956.97 966.58 956.26 967.31 955.53 968.05 C953.73 969.62 953.73 969.62 951.73 969.62 C951.73 970.28 951.73 970.94 951.73 971.62 C946.25 976.62 946.25 976.62 943.73 976.62 C943.4 977.61 943.07 978.6 942.73 979.62 C942.07 979.62 941.41 979.62 940.73 979.62 C940.73 980.28 940.73 980.94 940.73 981.62 C939.01 983.21 937.23 984.72 935.41 986.19 C933.94 987.39 933.94 987.39 932.43 988.63 C929.73 990.62 929.73 990.62 926.73 991.62 C926.73 992.28 926.73 992.94 926.73 993.62 C924.51 995.54 922.3 997.34 919.98 999.12 C919.03 999.87 919.03 999.87 918.06 1000.64 C915.04 1002.98 912.2 1004.99 908.73 1006.62 C908.73 1007.28 908.73 1007.94 908.73 1008.62 C907.12 1009.98 905.43 1011.26 903.73 1012.5 C902.64 1013.3 901.54 1014.09 900.45 1014.89 C899.86 1015.33 899.27 1015.76 898.65 1016.2 C896.57 1017.74 894.5 1019.31 892.44 1020.89 C891.72 1021.43 891 1021.98 890.26 1022.54 C888.83 1023.63 887.41 1024.72 885.99 1025.81 C885.33 1026.31 884.68 1026.8 884 1027.32 C883.42 1027.76 882.83 1028.21 882.23 1028.66 C880.73 1029.62 880.73 1029.62 878.73 1029.62 C878.73 1030.28 878.73 1030.94 878.73 1031.62 C874.34 1034.62 874.34 1034.62 871.73 1034.62 C871.73 1035.28 871.73 1035.94 871.73 1036.62 C870.74 1036.62 869.75 1036.62 868.73 1036.62 C868.73 1037.28 868.73 1037.94 868.73 1038.62 C864.34 1041.62 864.34 1041.62 861.73 1041.62 C861.73 1042.28 861.73 1042.94 861.73 1043.62 C859.78 1045.03 859.78 1045.03 857.04 1046.69 C852.67 1049.39 848.38 1052.18 844.16 1055.12 C843.62 1055.5 843.07 1055.88 842.51 1056.27 C839.97 1058.04 837.45 1059.82 834.93 1061.61 C827.84 1066.64 827.84 1066.64 824.16 1068.69 C820.52 1070.74 817.15 1073.04 813.74 1075.45 C811.73 1076.62 811.73 1076.62 808.73 1076.62 C808.73 1077.28 808.73 1077.94 808.73 1078.62 C807.18 1079.78 807.18 1079.78 804.99 1081.06 C804.17 1081.54 803.36 1082.01 802.53 1082.51 C801.65 1083.02 800.76 1083.53 799.85 1084.06 C798.01 1085.14 796.17 1086.23 794.34 1087.31 C793.4 1087.86 792.46 1088.41 791.5 1088.98 C788.1 1090.99 784.74 1093.06 781.39 1095.15 C777.85 1097.33 774.29 1099.49 770.73 1101.62 C769.25 1102.51 769.25 1102.51 767.74 1103.42 C762.07 1106.56 757.18 1107.85 750.73 1106.62 C743.91 1104.26 737.97 1099.93 731.97 1096 C727.61 1093.15 723.15 1090.62 718.55 1088.17 C715.16 1086.31 711.84 1084.37 708.54 1082.37 C707.43 1081.71 706.33 1081.04 705.18 1080.36 C704.37 1079.79 703.56 1079.21 702.73 1078.62 C702.73 1077.96 702.73 1077.3 702.73 1076.62 C702.19 1076.53 701.65 1076.44 701.09 1076.34 C687.33 1072.18 673.07 1059.48 661.56 1051.02 C657.74 1048.25 653.83 1045.93 649.73 1043.62 C647.27 1042.05 645.04 1040.42 642.73 1038.62 C642.73 1037.96 642.73 1037.3 642.73 1036.62 C642.01 1036.36 641.28 1036.09 640.54 1035.81 C637.73 1034.62 635.24 1033.35 632.73 1031.62 C632.73 1030.96 632.73 1030.3 632.73 1029.62 C631.94 1029.27 631.94 1029.27 631.14 1028.91 C627.96 1027.22 625.08 1025.16 622.16 1023.06 C621.55 1022.62 620.93 1022.18 620.29 1021.72 C615.46 1018.22 610.83 1014.53 606.24 1010.71 C603.92 1008.78 601.56 1006.91 599.16 1005.06 C598.45 1004.51 597.74 1003.96 597.01 1003.39 C595.32 1002.08 593.64 1000.78 591.95 999.48 C591.03 998.77 590.11 998.05 589.16 997.31 C587.89 996.33 587.89 996.33 586.6 995.32 C585.98 994.76 585.36 994.2 584.73 993.62 C584.73 992.96 584.73 992.3 584.73 991.62 C584.15 991.36 583.58 991.09 582.99 990.81 C580.65 989.58 578.6 988.2 576.48 986.62 C575.42 985.85 575.42 985.85 574.34 985.06 C573.81 984.59 573.27 984.11 572.73 983.62 C572.73 982.96 572.73 982.3 572.73 981.62 C572.14 981.37 571.56 981.11 570.95 980.85 C568.53 979.52 567 978.06 565.1 976.06 C562.68 973.48 562.68 973.48 559.73 971.62 C559.73 970.96 559.73 970.3 559.73 969.62 C559.15 969.37 558.58 969.11 557.99 968.84 C555.52 967.51 553.59 965.97 551.48 964.12 C550.77 963.52 550.06 962.91 549.34 962.28 C547.73 960.62 547.73 960.62 547.73 958.62 C547.09 958.36 546.45 958.09 545.79 957.81 C543.73 956.62 543.73 956.62 542.73 953.62 C542.07 953.62 541.41 953.62 540.73 953.62 C540.73 952.96 540.73 952.3 540.73 951.62 C539.74 951.29 538.75 950.96 537.73 950.62 C537.73 949.96 537.73 949.3 537.73 948.62 C537.07 948.62 536.41 948.62 535.73 948.62 C535.73 947.96 535.73 947.3 535.73 946.62 C534.74 946.29 533.75 945.96 532.73 945.62 C532.73 944.96 532.73 944.3 532.73 943.62 C532.07 943.62 531.41 943.62 530.73 943.62 C529.02 942 527.35 940.33 525.73 938.62 C523.94 936.84 521.29 937.5 518.87 937.49 C517.59 937.49 516.31 937.49 514.99 937.48 C513.56 937.48 512.12 937.48 510.68 937.49 C509.16 937.48 507.65 937.48 506.13 937.48 C501.95 937.47 497.77 937.47 493.59 937.47 C489.08 937.47 484.58 937.46 480.08 937.45 C472.27 937.44 464.46 937.43 456.65 937.42 C444.31 937.41 431.97 937.39 419.64 937.37 C415.42 937.36 411.2 937.36 406.98 937.35 C405.93 937.35 404.87 937.35 403.79 937.34 C391.78 937.32 379.77 937.3 367.75 937.29 C366.66 937.28 365.56 937.28 364.43 937.28 C346.63 937.25 328.83 937.24 311.03 937.22 C292.77 937.2 274.51 937.17 256.26 937.13 C244.99 937.11 233.72 937.1 222.45 937.09 C214.72 937.09 207 937.08 199.28 937.06 C194.82 937.05 190.36 937.04 185.9 937.05 C181.82 937.05 177.74 937.04 173.66 937.02 C172.18 937.02 170.71 937.02 169.23 937.02 C167.22 937.03 165.22 937.02 163.21 937.01 C162.09 937 160.98 937 159.83 937 C156.27 936.57 153.82 935.38 150.73 933.62 C150.73 932.96 150.73 932.3 150.73 931.62 C149.74 931.29 148.75 930.96 147.73 930.62 C142.68 923.83 143.54 915.56 143.45 907.48 C143.43 906.31 143.41 905.15 143.39 903.95 C143.31 898.97 143.24 893.99 143.17 889.01 C143.12 885.38 143.07 881.74 143.01 878.1 C142.99 876.97 142.98 875.83 142.97 874.66 C142.95 873.62 142.93 872.58 142.92 871.51 C142.9 870.13 142.9 870.13 142.88 868.72 C142.96 866.64 142.96 866.64 141.73 865.62 C139.7 865.52 137.66 865.49 135.63 865.49 C134.99 865.49 134.34 865.49 133.68 865.49 C131.51 865.48 129.33 865.48 127.16 865.48 C125.61 865.48 124.06 865.48 122.5 865.47 C119.15 865.46 115.8 865.46 112.45 865.45 C107.15 865.45 101.84 865.43 96.54 865.41 C94.72 865.41 92.91 865.4 91.09 865.39 C90.18 865.39 89.28 865.39 88.34 865.39 C75.99 865.34 63.64 865.31 51.28 865.3 C42.96 865.29 34.63 865.27 26.31 865.23 C21.9 865.21 17.5 865.2 13.09 865.2 C8.94 865.21 4.79 865.19 0.64 865.16 C-0.87 865.16 -2.39 865.16 -3.91 865.16 C-14.63 865.21 -22.65 863.93 -31.21 857.12 C-31.94 856.56 -32.67 855.99 -33.43 855.4 C-35.27 853.62 -35.27 853.62 -36.34 851.47 C-37.18 849.26 -37.18 849.26 -40.27 848.62 C-41.59 846.77 -41.59 846.77 -42.84 844.44 C-43.25 843.68 -43.66 842.92 -44.09 842.14 C-46.71 836.56 -47.57 831.64 -47.59 825.51 C-47.6 824.72 -47.61 823.93 -47.62 823.11 C-47.65 820.51 -47.67 817.92 -47.69 815.32 C-47.71 813.51 -47.73 811.7 -47.75 809.9 C-47.8 805.15 -47.84 800.41 -47.87 795.66 C-47.91 790.82 -47.96 785.97 -48.01 781.12 C-48.11 771.62 -48.2 762.12 -48.27 752.62 C-50.12 752.62 -50.12 752.62 -52.01 752.61 C-56.65 752.59 -61.29 752.53 -65.93 752.47 C-67.93 752.45 -69.92 752.43 -71.92 752.43 C-87.31 752.38 -99.44 750.93 -112.27 741.62 C-112.27 740.96 -112.27 740.3 -112.27 739.62 C-113.26 739.29 -114.25 738.96 -115.27 738.62 C-115.27 737.96 -115.27 737.3 -115.27 736.62 C-115.93 736.62 -116.59 736.62 -117.27 736.62 C-117.27 735.96 -117.27 735.3 -117.27 734.62 C-117.93 734.62 -118.59 734.62 -119.27 734.62 C-120.86 732.64 -120.86 732.64 -122.65 729.87 C-123.53 728.55 -123.53 728.55 -124.42 727.2 C-130.95 715.32 -130.84 703.69 -130.77 690.52 C-130.78 688.39 -130.78 686.27 -130.79 684.15 C-130.8 678.42 -130.79 672.68 -130.78 666.95 C-130.76 660.94 -130.77 654.92 -130.77 648.9 C-130.78 638.81 -130.76 628.71 -130.74 618.61 C-130.71 606.95 -130.71 595.3 -130.72 583.64 C-130.73 572.4 -130.73 561.16 -130.71 549.92 C-130.71 545.15 -130.71 540.38 -130.71 535.61 C-130.72 529.98 -130.71 524.36 -130.69 518.74 C-130.68 516.68 -130.68 514.62 -130.68 512.56 C-130.72 495.82 -129.36 481.43 -117.27 468.62 C-110.08 462.62 -110.08 462.62 -107.27 462.62 C-107.27 461.96 -107.27 461.3 -107.27 460.62 C-92.09 453.31 -78.85 452.46 -62.15 452.56 C-57.24 452.58 -52.33 452.6 -47.27 452.62 C-47.6 440.08 -47.93 427.54 -48.27 414.62 C-60.28 414.41 -60.28 414.41 -72.29 414.24 C-90.06 413.91 -104.63 410.02 -117.79 397.33 C-130.39 383.6 -130.72 369.31 -130.66 351.63 C-130.67 349.51 -130.67 347.39 -130.68 345.26 C-130.69 339.53 -130.69 333.79 -130.68 328.05 C-130.67 322.03 -130.68 316.02 -130.68 310 C-130.69 299.89 -130.68 289.79 -130.66 279.69 C-130.65 268.02 -130.65 256.36 -130.67 244.69 C-130.68 234.66 -130.68 224.62 -130.68 214.59 C-130.67 208.61 -130.67 202.62 -130.68 196.64 C-130.69 191.01 -130.68 185.38 -130.67 179.76 C-130.66 177.7 -130.66 175.64 -130.67 173.58 C-130.74 149.58 -130.74 149.58 -124.59 139.44 C-124.15 138.7 -123.71 137.96 -123.26 137.21 C-122.93 136.68 -122.61 136.16 -122.27 135.62 C-121.61 135.62 -120.95 135.62 -120.27 135.62 C-120.03 135.05 -119.78 134.47 -119.52 133.87 C-118.09 131.29 -116.49 129.56 -114.27 127.62 C-113.61 127.62 -112.95 127.62 -112.27 127.62 C-112.27 126.96 -112.27 126.3 -112.27 125.62 C-110.07 124.33 -107.86 123.03 -105.65 121.75 C-104.72 121.2 -104.72 121.2 -103.78 120.64 C-91.3 113.42 -77.57 114.48 -63.59 114.56 C-62 114.57 -60.41 114.57 -58.82 114.57 C-54.97 114.59 -51.12 114.6 -47.27 114.62 C-47.28 113.62 -47.3 112.62 -47.31 111.59 C-47.41 102.12 -47.48 92.64 -47.53 83.17 C-47.56 78.3 -47.59 73.43 -47.65 68.56 C-47.7 63.86 -47.73 59.15 -47.75 54.44 C-47.76 52.65 -47.77 50.87 -47.8 49.08 C-48.03 33.58 -45.34 22.2 -34.27 10.62 C-24.72 1.61 -12.6 -0.12 0 0 Z M-91.27 156.62 C-93.86 160.44 -93.56 164.49 -93.55 168.92 C-93.55 169.77 -93.56 170.61 -93.56 171.48 C-93.58 174.32 -93.58 177.15 -93.58 179.98 C-93.59 182.01 -93.6 184.04 -93.6 186.08 C-93.63 191.59 -93.64 197.11 -93.64 202.63 C-93.64 206.08 -93.65 209.52 -93.66 212.97 C-93.68 224.99 -93.69 237.01 -93.7 249.04 C-93.7 260.25 -93.73 271.46 -93.77 282.67 C-93.81 292.29 -93.82 301.91 -93.82 311.53 C-93.83 317.28 -93.83 323.03 -93.86 328.78 C-93.89 334.18 -93.89 339.59 -93.87 344.99 C-93.87 346.98 -93.88 348.96 -93.9 350.95 C-93.92 353.65 -93.91 356.36 -93.89 359.07 C-93.9 359.86 -93.91 360.64 -93.93 361.45 C-93.84 367.16 -92.36 369.62 -88.27 373.62 C-84.39 376.21 -81.17 375.88 -76.67 375.82 C-75.83 375.82 -74.99 375.81 -74.12 375.81 C-71.44 375.8 -68.77 375.77 -66.09 375.75 C-64.27 375.74 -62.45 375.73 -60.63 375.72 C-56.18 375.7 -51.73 375.66 -47.27 375.62 C-47.26 374.34 -47.25 373.05 -47.24 371.73 C-47.2 366.92 -47.14 362.12 -47.07 357.32 C-47.04 355.25 -47.02 353.17 -47 351.1 C-46.98 348.11 -46.93 345.12 -46.88 342.13 C-46.88 340.75 -46.88 340.75 -46.88 339.35 C-46.69 330.82 -43.63 324.81 -39.27 317.62 C-39.27 316.96 -39.27 316.3 -39.27 315.62 C-38.61 315.62 -37.95 315.62 -37.27 315.62 C-34.61 313.29 -34.61 313.29 -32.27 310.62 C-32.27 309.96 -32.27 309.3 -32.27 308.62 C-30.94 307.96 -29.61 307.29 -28.27 306.62 C-27.46 306.21 -26.65 305.79 -25.82 305.36 C-17.32 301.35 -9.54 300.91 -0.33 300.98 C1.24 300.97 2.8 300.96 4.37 300.95 C8.59 300.93 12.8 300.94 17.02 300.95 C21.44 300.95 25.86 300.93 30.28 300.91 C38.64 300.88 46.99 300.87 55.35 300.87 C67.64 300.88 79.94 300.84 92.23 300.81 C94.04 300.8 95.85 300.8 97.67 300.79 C98.55 300.79 99.43 300.79 100.34 300.78 C105.61 300.77 110.87 300.76 116.13 300.76 C119.4 300.76 122.66 300.76 125.92 300.75 C127.43 300.75 128.95 300.75 130.47 300.75 C132.53 300.76 134.59 300.75 136.65 300.75 C137.81 300.75 138.96 300.75 140.15 300.75 C142.66 300.92 142.66 300.92 143.73 299.62 C143.82 297.18 143.84 294.76 143.82 292.31 C143.82 291.58 143.82 290.85 143.82 290.09 C143.81 287.75 143.8 285.4 143.79 283.06 C143.78 281.48 143.78 279.89 143.78 278.31 C143.76 274.41 143.75 270.52 143.73 266.62 C142.55 266.62 142.55 266.62 141.35 266.62 C122.26 266.56 103.16 266.48 84.06 266.39 C74.82 266.34 65.59 266.3 56.35 266.28 C48.3 266.25 40.25 266.22 32.19 266.17 C27.93 266.15 23.67 266.13 19.41 266.13 C15.39 266.12 11.37 266.1 7.36 266.07 C5.89 266.06 4.42 266.06 2.95 266.06 C-12.15 266.07 -25.1 263.29 -36.27 252.62 C-46.01 240.98 -47.02 229.04 -46.98 214.51 C-46.99 212.69 -47.01 210.87 -47.03 209.05 C-47.07 204.3 -47.08 199.54 -47.08 194.79 C-47.09 189.92 -47.13 185.05 -47.16 180.19 C-47.23 170.67 -47.26 161.14 -47.27 151.62 C-52.25 151.5 -57.23 151.41 -62.21 151.35 C-63.91 151.32 -65.6 151.29 -67.29 151.25 C-80.41 150.37 -80.41 150.37 -91.27 156.62 Z M901.73 152.62 C901.62 155.16 901.58 157.67 901.59 160.21 C901.58 161.01 901.58 161.8 901.57 162.62 C901.57 164.36 901.56 166.09 901.56 167.83 C901.55 170.58 901.54 173.33 901.52 176.07 C901.46 183.9 901.42 191.72 901.4 199.54 C901.39 204.32 901.36 209.1 901.32 213.88 C901.31 215.7 901.3 217.51 901.3 219.33 C901.32 236.59 901.32 236.59 897.68 242.93 C896.63 244.8 896.17 246.53 895.73 248.62 C895.07 248.62 894.41 248.62 893.73 248.62 C892.68 249.79 891.69 251.01 890.73 252.25 C883.03 261.22 872.85 264.97 861.23 265.91 C857.32 266.03 853.41 266.06 849.5 266.06 C848.01 266.07 846.52 266.08 845.04 266.09 C841.03 266.11 837.02 266.12 833.02 266.13 C828.82 266.14 824.62 266.17 820.42 266.19 C812.48 266.23 804.55 266.26 796.61 266.29 C787.57 266.31 778.53 266.36 769.48 266.4 C750.9 266.49 732.31 266.56 713.73 266.62 C713.73 277.84 713.73 289.06 713.73 300.62 C718.44 300.62 723.15 300.61 728.01 300.6 C743.61 300.59 759.21 300.61 774.8 300.65 C784.26 300.68 793.71 300.69 803.17 300.67 C811.41 300.65 819.66 300.66 827.9 300.7 C832.26 300.71 836.62 300.72 840.99 300.7 C845.1 300.68 849.22 300.69 853.33 300.73 C854.83 300.73 856.33 300.73 857.83 300.71 C870.4 300.58 880.75 303.54 890.04 312.44 C891.61 314.16 892.68 315.54 893.73 317.62 C894.39 317.62 895.05 317.62 895.73 317.62 C895.92 318.23 896.11 318.83 896.31 319.45 C896.57 320.25 896.83 321.05 897.1 321.87 C897.36 322.66 897.61 323.45 897.88 324.26 C898.62 326.58 898.62 326.58 899.77 328.29 C901.13 331.6 900.99 334.82 900.97 338.35 C900.98 339.87 901 341.39 901.01 342.91 C901.03 345.31 901.04 347.7 901.03 350.09 C901.03 352.41 901.06 354.72 901.09 357.03 C901.08 358.11 901.08 358.11 901.06 359.2 C901.05 361.47 901.05 361.47 901.73 364.62 C905.07 367.35 908.06 368.07 912.29 368.62 C919.63 369.71 926.71 371.53 933.87 373.48 C934.89 373.76 935.92 374.03 936.98 374.31 C937.89 374.56 938.8 374.81 939.74 375.07 C942.27 375.54 944.37 375.68 946.91 375.66 C948.17 375.65 949.43 375.64 950.73 375.62 C950.82 347.55 950.89 319.47 950.93 291.39 C950.96 278.36 950.98 265.32 951.03 252.29 C951.07 240.93 951.09 229.57 951.1 218.21 C951.11 212.19 951.12 206.17 951.15 200.15 C951.18 194.49 951.19 188.83 951.18 183.17 C951.18 181.09 951.19 179.01 951.2 176.93 C951.22 174.1 951.22 171.26 951.21 168.43 C951.23 167.19 951.23 167.19 951.24 165.92 C951.2 162 951.02 160.08 948.87 156.69 C943.64 151.65 938.76 151.19 931.86 151.3 C931.03 151.3 930.2 151.3 929.34 151.3 C927.59 151.31 925.84 151.32 924.09 151.34 C921.41 151.37 918.72 151.38 916.03 151.39 C914.33 151.4 912.63 151.41 910.93 151.42 C910.12 151.42 909.31 151.43 908.48 151.43 C904.8 151.14 904.8 151.14 901.73 152.62 Z M-91.27 495.62 C-93.89 499.4 -93.55 503.48 -93.53 507.89 C-93.53 508.73 -93.53 509.57 -93.54 510.44 C-93.54 513.26 -93.54 516.09 -93.53 518.91 C-93.53 520.93 -93.54 522.95 -93.54 524.97 C-93.55 530.47 -93.55 535.97 -93.54 541.46 C-93.54 547.21 -93.54 552.96 -93.54 558.7 C-93.55 568.36 -93.54 578.01 -93.53 587.66 C-93.52 598.83 -93.53 609.99 -93.54 621.16 C-93.55 630.74 -93.55 640.32 -93.54 649.9 C-93.54 655.62 -93.54 661.34 -93.55 667.07 C-93.55 672.45 -93.55 677.83 -93.54 683.21 C-93.53 685.19 -93.53 687.17 -93.54 689.14 C-93.54 691.84 -93.54 694.53 -93.53 697.23 C-93.53 698.01 -93.54 698.8 -93.54 699.61 C-93.51 703.71 -93.2 706.97 -91.27 710.62 C-83.63 717.43 -73.14 716.2 -63.65 715.94 C-62.06 715.91 -60.46 715.89 -58.87 715.87 C-55 715.81 -51.14 715.73 -47.27 715.62 C-47.27 714.6 -47.27 713.57 -47.27 712.52 C-47.25 702.81 -47.21 693.1 -47.14 683.39 C-47.11 678.4 -47.08 673.41 -47.08 668.42 C-47.07 663.59 -47.04 658.77 -47 653.95 C-46.99 652.11 -46.98 650.28 -46.99 648.45 C-47.01 637.78 -46.49 629.23 -41.27 619.62 C-40.6 618.29 -39.94 616.96 -39.27 615.62 C-38.61 615.62 -37.95 615.62 -37.27 615.62 C-36.53 614.61 -35.79 613.6 -35.02 612.56 C-29.65 606.19 -21.58 602.35 -13.44 600.98 C-9.28 600.74 -5.18 600.7 -1.01 600.75 C0.56 600.75 2.14 600.74 3.72 600.73 C7.95 600.7 12.19 600.72 16.42 600.74 C20.87 600.76 25.31 600.74 29.75 600.73 C38.15 600.7 46.54 600.71 54.94 600.73 C67.29 600.76 79.65 600.74 92 600.72 C93.82 600.71 95.64 600.71 97.46 600.71 C98.8 600.7 98.8 600.7 100.16 600.7 C105.45 600.69 110.73 600.7 116.02 600.71 C119.3 600.71 122.57 600.71 125.85 600.72 C127.37 600.72 128.89 600.72 130.42 600.73 C132.49 600.73 134.56 600.73 136.63 600.73 C137.79 600.74 138.95 600.74 140.14 600.74 C142.66 600.92 142.66 600.92 143.73 599.62 C143.83 597.19 143.87 594.78 143.86 592.34 C143.86 591.61 143.86 590.89 143.86 590.13 C143.86 588.59 143.86 587.05 143.86 585.5 C143.85 583.13 143.86 580.76 143.86 578.39 C143.86 576.9 143.86 575.4 143.86 573.9 C143.86 572.83 143.86 572.83 143.87 571.74 C144.14 568.4 144.14 568.4 142.73 565.62 C140.76 565.52 138.79 565.49 136.82 565.48 C135.54 565.47 134.25 565.47 132.93 565.46 C131.49 565.46 130.06 565.45 128.62 565.45 C127.12 565.44 125.61 565.44 124.11 565.43 C120.87 565.42 117.62 565.4 114.38 565.39 C109.24 565.38 104.1 565.35 98.97 565.33 C84.36 565.26 69.75 565.2 55.15 565.15 C47.09 565.12 39.03 565.08 30.96 565.04 C25.86 565.01 20.77 565 15.67 564.98 C12.48 564.97 9.3 564.96 6.11 564.94 C4.64 564.93 3.17 564.93 1.7 564.93 C-16.84 564.92 -16.84 564.92 -24.71 560.5 C-27.34 558.98 -27.34 558.98 -30.27 558.62 C-30.27 557.96 -30.27 557.3 -30.27 556.62 C-31.06 556.38 -31.84 556.13 -32.65 555.87 C-35.74 554.4 -35.97 553.67 -37.27 550.62 C-37.9 549.86 -38.52 549.09 -39.16 548.3 C-47.72 537.45 -47.02 525.05 -47.02 511.94 C-47.04 509.03 -47.07 506.13 -47.11 503.22 C-47.12 501.43 -47.13 499.63 -47.14 497.83 C-46.76 493.91 -46.76 493.91 -48.27 490.62 C-50.48 490.52 -52.69 490.49 -54.91 490.49 C-55.58 490.49 -56.25 490.49 -56.94 490.49 C-58.36 490.49 -59.78 490.49 -61.21 490.49 C-63.37 490.5 -65.53 490.49 -67.69 490.49 C-69.07 490.49 -70.46 490.49 -71.84 490.49 C-73.1 490.49 -74.35 490.49 -75.65 490.49 C-82.09 490.72 -86.57 490.92 -91.27 495.62 Z " fill="#000102" transform="translate(134.27280712127686,86.37638092041016)"/>
<path d="M0 0 C1.49 -0.01 2.98 -0.01 4.47 -0.02 C9.21 -0.04 13.95 -0.04 18.68 -0.05 C19.49 -0.05 20.29 -0.05 21.12 -0.05 C45.6 -0.07 69.78 0.46 94.12 3.2 C96.35 3.42 98.58 3.64 100.82 3.86 C142.88 8.11 184.4 16.45 225.03 28.05 C228.7 29.09 232.4 30.07 236.1 31.05 C251.38 35.22 251.38 35.22 255.25 40.33 C256.25 42.26 257.2 44.23 258.12 46.2 C259.43 48.55 260.79 50.86 262.15 53.18 C263.73 55.9 265.28 58.64 266.82 61.38 C270.15 67.28 273.57 73.12 277 78.95 C281.88 87.3 286.66 95.69 291.37 104.14 C298.13 116.27 305.05 128.28 312.37 140.08 C315.18 144.61 317.79 149.19 320.31 153.89 C329.99 171.61 340.31 189.01 350.52 206.42 C352.89 210.47 355.24 214.52 357.59 218.58 C358.9 220.83 360.24 223.05 361.6 225.27 C362.25 226.36 362.89 227.45 363.56 228.58 C364.09 229.45 364.63 230.33 365.18 231.23 C367.91 239.86 363.96 250.46 362.06 259.02 C361.9 259.71 361.75 260.41 361.59 261.12 C354.69 292.23 345.43 322.62 333.43 352.14 C333.17 352.79 332.91 353.44 332.63 354.11 C327.53 366.64 322.03 379 315.56 390.89 C313.01 395.62 310.53 400.36 308.18 405.2 C304.26 413.12 299.69 420.65 295.12 428.2 C294.7 428.9 294.28 429.59 293.85 430.3 C288.68 438.82 283.23 447.07 277.35 455.12 C275.94 457.07 274.56 459.06 273.23 461.08 C270.55 465.05 267.64 468.81 264.68 472.58 C264.07 473.36 263.46 474.15 262.83 474.96 C246.33 496.02 246.33 496.02 237.32 505.8 C235.45 507.85 233.62 509.92 231.8 512.01 C219.37 526.25 206.26 540.54 191.8 552.74 C190.04 554.28 188.43 555.9 186.81 557.58 C183.11 561.34 179.05 564.58 174.95 567.88 C172.26 570.09 169.68 572.36 167.12 574.7 C153.23 587.32 138.04 598.55 123.06 609.83 C122.32 610.39 121.58 610.95 120.81 611.53 C107 621.88 92.74 631.59 78.37 641.14 C77.59 641.66 76.81 642.18 76 642.72 C64.64 650.28 53.22 657.71 41.52 664.74 C38.87 666.36 36.25 668.03 33.62 669.71 C31.81 670.86 30 672 28.18 673.14 C27.36 673.68 26.54 674.22 25.69 674.78 C19.99 678.31 19.99 678.31 16.03 677.81 C12.44 675.82 8.94 673.76 5.5 671.52 C0.84 668.52 -3.85 665.62 -8.65 662.85 C-14.85 659.25 -20.91 655.45 -26.94 651.58 C-28.02 650.88 -29.11 650.19 -30.22 649.47 C-39.91 643.23 -49.44 636.8 -58.88 630.2 C-59.61 629.7 -60.33 629.19 -61.08 628.67 C-70.83 621.89 -80.41 614.89 -89.88 607.71 C-91.92 606.18 -93.96 604.65 -96.02 603.13 C-103.24 597.78 -110.28 592.32 -117.14 586.5 C-119.73 584.33 -122.35 582.23 -125 580.14 C-129.28 576.75 -133.31 573.15 -137.33 569.46 C-139.84 567.24 -142.43 565.16 -145.07 563.08 C-150.6 558.61 -155.55 553.65 -160.53 548.58 C-164.2 544.86 -167.93 541.32 -171.92 537.93 C-178.48 532.13 -184.54 525.74 -190.21 519.09 C-191.98 517.09 -193.84 515.25 -195.75 513.39 C-199.67 509.53 -203.08 505.35 -206.52 501.07 C-209.64 497.27 -212.97 493.69 -216.32 490.1 C-224.26 481.1 -231.14 471.16 -238.21 461.48 C-239.63 459.55 -241.05 457.62 -242.48 455.7 C-254.69 439.04 -266.24 421.03 -275.32 402.45 C-275.9 401.27 -276.47 400.09 -277.07 398.88 C-277.51 397.97 -277.51 397.97 -277.97 397.05 C-278.89 395.19 -279.83 393.34 -280.78 391.5 C-285.99 381.36 -290.53 370.98 -294.93 360.47 C-295.69 358.66 -296.46 356.85 -297.24 355.04 C-298.5 352.11 -299.7 349.16 -300.88 346.2 C-301.18 345.44 -301.49 344.69 -301.8 343.9 C-334.49 261.42 -334.49 261.42 -329.88 236.2 C-327.75 232.83 -327.75 232.83 -326.37 231.14 C-323.33 227.19 -321.22 222.6 -318.88 218.2 C-315.08 211.29 -311.22 204.42 -307.16 197.66 C-303.88 192.21 -300.62 186.74 -297.38 181.27 C-296.56 179.9 -296.56 179.9 -295.73 178.5 C-291.97 172.14 -288.39 165.7 -284.88 159.2 C-280.6 151.4 -276.33 143.67 -271.28 136.34 C-268.52 132.13 -266.24 127.64 -263.88 123.2 C-261.33 118.52 -258.71 113.89 -255.94 109.33 C-253.83 105.83 -251.82 102.3 -249.88 98.7 C-248.04 95.29 -246.15 91.95 -244.13 88.64 C-241.25 83.9 -238.56 79.06 -235.88 74.2 C-232.85 68.71 -229.81 63.24 -226.49 57.91 C-225.12 55.61 -223.86 53.3 -222.61 50.93 C-221.98 49.78 -221.98 49.78 -221.34 48.61 C-220.51 47.08 -219.7 45.55 -218.92 44 C-216.72 40.03 -215.04 37.87 -210.66 36.4 C-209.07 35.99 -207.48 35.59 -205.88 35.2 C-204.33 34.7 -202.78 34.19 -201.24 33.66 C-146.18 15.61 -88.58 5.53 -30.88 1.2 C-29.22 1.07 -29.22 1.07 -27.53 0.94 C-18.34 0.27 -9.21 0.03 0 0 Z " fill="#FA9003" transform="translate(871.87890625,474.796875)"/>
<path d="M0 0 C1.26 -0.01 2.51 -0.03 3.81 -0.04 C5.2 -0.03 6.59 -0.01 7.99 -0 C9.47 -0.01 10.96 -0.02 12.45 -0.02 C16.55 -0.04 20.66 -0.03 24.76 -0.02 C29.22 -0 33.68 -0.02 38.13 -0.03 C45.95 -0.05 53.77 -0.05 61.59 -0.04 C73.22 -0.02 84.85 -0.03 96.48 -0.04 C117.24 -0.07 138 -0.07 158.77 -0.05 C176.94 -0.04 195.11 -0.04 213.28 -0.04 C214.48 -0.04 215.68 -0.04 216.92 -0.04 C221.81 -0.05 226.7 -0.05 231.58 -0.05 C277.45 -0.06 323.31 -0.05 369.18 -0.02 C409.95 0 450.73 -0 491.51 -0.03 C537.29 -0.05 583.07 -0.06 628.85 -0.05 C633.73 -0.05 638.6 -0.04 643.48 -0.04 C644.68 -0.04 645.88 -0.04 647.12 -0.04 C665.28 -0.04 683.44 -0.04 701.61 -0.05 C722.25 -0.07 742.89 -0.07 763.54 -0.04 C775.1 -0.02 786.66 -0.02 798.23 -0.04 C805.94 -0.05 813.65 -0.05 821.37 -0.02 C825.77 -0.01 830.17 -0.01 834.57 -0.03 C838.57 -0.04 842.57 -0.04 846.57 -0.01 C848.01 -0.01 849.45 -0.01 850.9 -0.02 C852.85 -0.04 854.8 -0.02 856.75 0 C858.37 0 858.37 0 860.03 0 C862.81 0.63 862.81 0.63 865.16 2.95 C867.29 6.41 867.37 9.33 867.32 13.27 C867.33 14.03 867.33 14.79 867.34 15.58 C867.35 18.13 867.34 20.67 867.33 23.22 C867.33 25.05 867.34 26.88 867.35 28.71 C867.37 33.67 867.36 38.63 867.35 43.59 C867.34 48.78 867.35 53.97 867.35 59.16 C867.36 67.88 867.35 76.59 867.33 85.31 C867.31 95.39 867.32 105.47 867.34 115.55 C867.36 124.2 867.36 132.86 867.35 141.51 C867.34 146.68 867.34 151.85 867.36 157.02 C867.37 161.87 867.36 166.73 867.34 171.59 C867.33 173.37 867.33 175.16 867.34 176.94 C867.35 179.38 867.34 181.81 867.32 184.24 C867.33 184.95 867.34 185.66 867.35 186.39 C867.27 191.16 867.27 191.16 865.16 193.31 C862.17 194.99 860.17 195 856.75 195 C854.87 195.02 854.87 195.02 852.95 195.03 C851.55 195.02 850.16 195.01 848.76 195.01 C847.28 195.01 845.79 195.02 844.31 195.02 C840.2 195.03 836.1 195.03 831.99 195.02 C827.53 195.01 823.08 195.02 818.62 195.03 C810.8 195.04 802.98 195.04 795.16 195.04 C783.54 195.03 771.91 195.04 760.28 195.05 C739.52 195.07 718.75 195.07 697.99 195.07 C679.82 195.06 661.65 195.06 643.48 195.07 C641.05 195.07 638.61 195.07 636.18 195.07 C632.51 195.07 628.84 195.07 625.18 195.07 C591.06 195.08 556.95 195.09 522.83 195.08 C521.54 195.08 520.26 195.08 518.93 195.08 C508.48 195.08 498.03 195.07 487.58 195.07 C446.8 195.06 406.02 195.07 365.25 195.09 C319.47 195.12 273.69 195.13 227.91 195.13 C223.03 195.12 218.15 195.12 213.28 195.12 C211.47 195.12 211.47 195.12 209.64 195.12 C191.48 195.12 173.31 195.13 155.15 195.14 C134.51 195.16 113.86 195.16 93.22 195.14 C81.66 195.13 70.09 195.13 58.53 195.15 C50.82 195.16 43.1 195.15 35.39 195.14 C30.99 195.13 26.58 195.13 22.18 195.14 C18.18 195.16 14.18 195.15 10.18 195.13 C8.74 195.13 7.3 195.13 5.86 195.14 C3.9 195.16 1.95 195.14 0 195.13 C-1.08 195.13 -2.17 195.13 -3.28 195.13 C-6.93 194.5 -8.61 193.24 -11.19 190.63 C-11.69 187.93 -11.87 185.85 -11.82 183.16 C-11.83 182.4 -11.84 181.65 -11.85 180.87 C-11.87 178.33 -11.85 175.8 -11.84 173.27 C-11.84 171.45 -11.85 169.64 -11.86 167.82 C-11.88 162.89 -11.88 157.96 -11.86 153.03 C-11.85 147.87 -11.86 142.71 -11.87 137.55 C-11.88 128.89 -11.86 120.22 -11.84 111.56 C-11.81 101.54 -11.82 91.52 -11.85 81.5 C-11.87 72.9 -11.88 64.3 -11.86 55.71 C-11.85 50.57 -11.85 45.43 -11.87 40.29 C-11.88 35.46 -11.87 30.63 -11.85 25.8 C-11.84 24.03 -11.84 22.26 -11.85 20.48 C-11.87 18.06 -11.85 15.64 -11.82 13.22 C-11.83 12.52 -11.85 11.82 -11.86 11.1 C-11.78 7.47 -11.32 5.8 -9.04 2.95 C-5.68 0.21 -4.27 0 0 0 Z " fill="#64CBFC" transform="translate(133.18844324350357,121.37325417995453)"/>
<path d="M0 0 C1.25 -0 2.5 -0.01 3.79 -0.01 C5.2 -0.01 6.61 -0.01 8.01 -0.01 C9.5 -0.01 10.98 -0.01 12.47 -0.01 C16.59 -0.02 20.71 -0.02 24.83 -0.02 C29.3 -0.02 33.77 -0.02 38.23 -0.03 C47.11 -0.04 55.99 -0.04 64.87 -0.05 C75.49 -0.05 86.12 -0.06 96.75 -0.07 C122.44 -0.09 148.12 -0.1 173.81 -0.11 C185.96 -0.11 198.1 -0.11 210.24 -0.12 C251.79 -0.14 293.33 -0.15 334.87 -0.16 C337.48 -0.16 340.09 -0.16 342.7 -0.16 C343.99 -0.16 345.29 -0.16 346.62 -0.16 C353.18 -0.16 359.73 -0.17 366.29 -0.17 C368.24 -0.17 368.24 -0.17 370.23 -0.17 C412.44 -0.17 454.65 -0.2 496.86 -0.23 C541.46 -0.27 586.05 -0.28 630.64 -0.29 C635.53 -0.29 640.42 -0.29 645.31 -0.29 C646.52 -0.29 647.72 -0.29 648.96 -0.29 C668.38 -0.29 687.8 -0.31 707.22 -0.33 C726.72 -0.35 746.22 -0.35 765.72 -0.34 C777.32 -0.34 788.92 -0.35 800.52 -0.37 C808.26 -0.38 815.99 -0.38 823.73 -0.37 C828.14 -0.36 832.56 -0.36 836.97 -0.38 C840.98 -0.39 844.99 -0.39 849 -0.37 C850.45 -0.37 851.9 -0.37 853.35 -0.38 C855.3 -0.4 857.26 -0.38 859.22 -0.37 C860.84 -0.37 860.84 -0.37 862.51 -0.37 C865.17 0.13 865.17 0.13 867.02 2.01 C868.41 4.57 868.52 6.21 868.46 9.11 C868.45 10.52 868.45 10.52 868.43 11.95 C868.41 12.91 868.38 13.88 868.36 14.88 C868.34 15.86 868.33 16.85 868.32 17.86 C868.28 20.28 868.23 22.71 868.17 25.13 C866.61 24.96 866.61 24.96 865.03 24.8 C853.48 23.6 841.92 22.56 830.36 21.57 C829.62 21.5 828.88 21.44 828.12 21.37 C825.94 21.18 823.77 21 821.59 20.81 C819.7 20.65 819.7 20.65 817.77 20.49 C816.24 20.36 814.7 20.25 813.17 20.13 C812.09 20.04 811 19.96 809.89 19.87 C800.46 19.18 791.08 18.95 781.64 18.93 C780.08 18.92 778.52 18.91 776.96 18.9 C772.01 18.89 767.06 18.88 762.11 18.88 C761.27 18.88 760.42 18.88 759.56 18.88 C735.88 18.86 712.36 19.06 688.8 21.72 C685.29 22.11 681.78 22.46 678.26 22.79 C648.29 25.69 618.55 30.95 589.21 37.66 C587.14 38.14 585.07 38.6 583 39.07 C563.42 43.54 544.26 48.83 525.17 55.13 C524.14 55.46 523.12 55.8 522.06 56.14 C519.26 57.06 516.46 58 513.67 58.94 C512.87 59.21 512.07 59.47 511.24 59.75 C504.03 62.26 500.21 65.42 496.55 72.25 C495.86 73.5 495.17 74.75 494.48 76 C493.93 77 493.93 77 493.37 78.02 C491.2 81.84 488.86 85.57 486.55 89.32 C483.02 95.03 479.65 100.77 476.49 106.69 C475.12 109.22 473.66 111.67 472.17 114.13 C470.2 117.38 468.33 120.65 466.55 124 C463.59 129.49 460.39 134.8 457.17 140.13 C453.51 146.19 449.92 152.26 446.58 158.5 C441.68 167.62 436.4 176.5 430.93 185.29 C429.14 188.03 429.14 188.03 428 190.77 C426.17 193.13 426.17 193.13 423.03 193.75 C421.72 193.75 420.41 193.75 419.07 193.75 C417.97 193.76 417.97 193.76 416.85 193.77 C414.38 193.79 411.91 193.77 409.44 193.75 C407.65 193.75 405.87 193.76 404.09 193.77 C399.18 193.79 394.27 193.77 389.36 193.75 C384.07 193.74 378.78 193.75 373.49 193.76 C363.12 193.78 352.75 193.76 342.38 193.74 C330.31 193.72 318.24 193.72 306.17 193.72 C284.65 193.73 263.12 193.7 241.59 193.67 C220.69 193.64 199.78 193.62 178.88 193.63 C156.13 193.64 133.39 193.63 110.65 193.61 C108.84 193.61 108.84 193.61 107 193.61 C104.59 193.61 102.18 193.61 99.76 193.6 C91.34 193.6 82.92 193.6 74.51 193.6 C64.25 193.6 54 193.59 43.74 193.57 C38.5 193.55 33.27 193.55 28.03 193.55 C23.24 193.56 18.46 193.55 13.67 193.53 C11.93 193.53 10.19 193.53 8.46 193.53 C6.1 193.54 3.75 193.53 1.4 193.51 C0.09 193.51 -1.22 193.51 -2.57 193.51 C-6.02 193.11 -7.46 192.64 -9.83 190.13 C-10.23 187.54 -10.36 185.37 -10.32 182.77 C-10.33 182.02 -10.33 181.26 -10.34 180.48 C-10.35 177.94 -10.33 175.41 -10.32 172.87 C-10.32 171.05 -10.32 169.24 -10.33 167.42 C-10.34 162.48 -10.32 157.54 -10.3 152.6 C-10.28 147.44 -10.29 142.27 -10.29 137.11 C-10.29 128.43 -10.27 119.76 -10.24 111.08 C-10.21 101.05 -10.2 91.01 -10.2 80.98 C-10.2 71.33 -10.19 61.69 -10.18 52.05 C-10.17 47.94 -10.16 43.83 -10.16 39.72 C-10.16 34.88 -10.15 30.05 -10.13 25.21 C-10.12 23.43 -10.12 21.66 -10.12 19.88 C-10.12 17.46 -10.11 15.04 -10.1 12.61 C-10.1 11.91 -10.1 11.2 -10.11 10.47 C-10.07 6.88 -9.91 4.12 -7.83 1.13 C-5.13 -0.22 -3.03 0 0 0 Z " fill="#64CBFC" transform="translate(131.82982248067856,421.87119883298874)"/>
<path d="M0 0 C0.69 0 1.37 0 2.08 0 C48.25 0.11 94.79 6.55 139.62 17.44 C140.31 17.6 141 17.77 141.71 17.94 C145.87 18.96 150 20.05 154.12 21.19 C154.94 21.38 155.75 21.57 156.59 21.77 C162.91 23.57 165.1 27.78 168.12 33.19 C168.87 34.47 168.87 34.47 169.63 35.78 C171.22 38.55 172.77 41.34 174.31 44.12 C178.85 52.25 183.54 60.25 188.44 68.16 C191.39 72.94 194.16 77.79 196.8 82.75 C198.17 85.28 199.63 87.73 201.12 90.19 C203.72 94.47 206.13 98.83 208.51 103.23 C216.28 117.45 224.56 131.4 232.75 145.38 C233.28 146.3 233.8 147.23 234.34 148.18 C235.72 150.5 237.15 152.71 238.66 154.95 C239.52 156.3 240.39 157.65 241.25 159 C241.89 159.89 241.89 159.89 242.55 160.79 C245.79 166.02 245.05 170.29 243.71 176.15 C243.21 178.17 242.67 180.18 242.12 182.19 C241.86 183.16 241.86 183.16 241.6 184.15 C240.33 188.84 238.93 193.48 237.5 198.12 C237.28 198.84 237.06 199.55 236.84 200.29 C226.16 235.09 212.2 270.17 192.3 300.78 C190.36 303.77 188.65 306.84 187 310 C184.52 314.66 181.62 318.81 178.46 323.04 C176.15 326.16 173.91 329.32 171.69 332.51 C166.73 339.61 161.65 346.52 156.12 353.19 C155.41 354.08 154.69 354.97 153.95 355.88 C149.62 361.25 145.14 366.44 140.48 371.53 C138.28 374.02 136.22 376.56 134.16 379.17 C129.07 385.41 123.5 391.08 117.78 396.74 C116.06 398.44 114.34 400.15 112.63 401.87 C107.49 406.99 102.33 412.03 96.81 416.74 C94.24 418.94 91.79 421.26 89.31 423.56 C83.77 428.68 78.01 433.46 72.12 438.19 C70.86 439.22 69.6 440.25 68.34 441.29 C45.28 460.15 21.23 477.67 -3.65 494.05 C-5.68 495.4 -7.69 496.75 -9.69 498.13 C-10.49 498.69 -11.3 499.24 -12.12 499.81 C-12.79 500.28 -13.46 500.75 -14.14 501.23 C-15.88 502.19 -15.88 502.19 -18.88 502.19 C-18.89 454.86 -18.91 407.54 -18.92 360.21 C-18.92 359.51 -18.92 358.81 -18.92 358.09 C-18.92 342.87 -18.92 327.66 -18.93 312.45 C-18.93 304.99 -18.93 297.53 -18.93 290.07 C-18.93 289.32 -18.93 288.58 -18.93 287.82 C-18.93 263.74 -18.94 239.66 -18.95 215.58 C-18.96 190.85 -18.97 166.11 -18.97 141.38 C-18.97 137.88 -18.97 134.39 -18.97 130.9 C-18.97 130.21 -18.97 129.53 -18.97 128.82 C-18.97 117.74 -18.98 106.67 -18.98 95.59 C-18.99 84.47 -18.99 73.34 -18.99 62.22 C-18.99 56.18 -18.99 50.15 -18.99 44.12 C-19 38.6 -19 33.09 -19 27.57 C-19 25.57 -19 23.57 -19 21.57 C-19 18.86 -19 16.15 -19 13.44 C-19 12.65 -19 11.87 -19.01 11.06 C-19 7.59 -18.8 4.52 -17.88 1.19 C-12.11 -0.56 -5.97 -0.01 0 0 Z " fill="#FCBE07" transform="translate(907.875,555.8125)"/>
<path d="M0 0 C1.49 -0.01 2.98 -0.01 4.47 -0.02 C9.21 -0.04 13.95 -0.04 18.68 -0.05 C19.49 -0.05 20.29 -0.05 21.12 -0.05 C45.6 -0.07 69.78 0.46 94.12 3.2 C96.35 3.42 98.58 3.64 100.82 3.86 C142.88 8.11 184.4 16.45 225.03 28.05 C228.7 29.09 232.4 30.07 236.1 31.05 C251.38 35.22 251.38 35.22 255.25 40.33 C256.25 42.26 257.2 44.23 258.12 46.2 C259.43 48.55 260.79 50.86 262.15 53.18 C263.73 55.9 265.28 58.64 266.82 61.38 C270.15 67.28 273.57 73.12 277 78.95 C281.88 87.3 286.66 95.69 291.37 104.14 C298.13 116.27 305.05 128.28 312.37 140.08 C315.18 144.61 317.79 149.19 320.31 153.89 C329.99 171.61 340.31 189.01 350.52 206.42 C352.89 210.47 355.24 214.52 357.59 218.58 C358.9 220.83 360.24 223.05 361.6 225.27 C362.25 226.36 362.89 227.45 363.56 228.58 C364.09 229.45 364.63 230.33 365.18 231.23 C367.91 239.86 363.96 250.46 362.06 259.02 C361.9 259.71 361.75 260.41 361.59 261.12 C354.69 292.23 345.43 322.62 333.43 352.14 C333.17 352.79 332.91 353.44 332.63 354.11 C327.53 366.64 322.03 379 315.56 390.89 C313.01 395.62 310.53 400.36 308.18 405.2 C304.26 413.12 299.69 420.65 295.12 428.2 C294.7 428.9 294.28 429.59 293.85 430.3 C288.68 438.82 283.23 447.07 277.35 455.12 C275.94 457.07 274.56 459.06 273.23 461.08 C270.55 465.05 267.64 468.81 264.68 472.58 C264.07 473.36 263.46 474.15 262.83 474.96 C246.33 496.02 246.33 496.02 237.32 505.8 C235.45 507.85 233.62 509.92 231.8 512.01 C219.37 526.25 206.26 540.54 191.8 552.74 C190.04 554.28 188.43 555.9 186.81 557.58 C183.11 561.34 179.05 564.58 174.95 567.88 C172.26 570.09 169.68 572.36 167.12 574.7 C153.23 587.32 138.04 598.55 123.06 609.83 C122.32 610.39 121.58 610.95 120.81 611.53 C107 621.88 92.74 631.59 78.37 641.14 C77.59 641.66 76.81 642.18 76 642.72 C64.64 650.28 53.22 657.71 41.52 664.74 C38.87 666.36 36.25 668.03 33.62 669.71 C31.81 670.86 30 672 28.18 673.14 C27.36 673.68 26.54 674.22 25.69 674.78 C19.99 678.31 19.99 678.31 16.03 677.81 C12.44 675.82 8.94 673.76 5.5 671.52 C0.84 668.52 -3.85 665.62 -8.65 662.85 C-14.85 659.25 -20.91 655.45 -26.94 651.58 C-28.02 650.88 -29.11 650.19 -30.22 649.47 C-39.91 643.23 -49.44 636.8 -58.88 630.2 C-59.61 629.7 -60.33 629.19 -61.08 628.67 C-70.83 621.89 -80.41 614.89 -89.88 607.71 C-91.92 606.18 -93.96 604.65 -96.02 603.13 C-103.24 597.78 -110.28 592.32 -117.14 586.5 C-119.73 584.33 -122.35 582.23 -125 580.14 C-129.28 576.75 -133.31 573.15 -137.33 569.46 C-139.84 567.24 -142.43 565.16 -145.07 563.08 C-150.6 558.61 -155.55 553.65 -160.53 548.58 C-164.2 544.86 -167.93 541.32 -171.92 537.93 C-178.48 532.13 -184.54 525.74 -190.21 519.09 C-191.98 517.09 -193.84 515.25 -195.75 513.39 C-199.67 509.53 -203.08 505.35 -206.52 501.07 C-209.64 497.27 -212.97 493.69 -216.32 490.1 C-224.26 481.1 -231.14 471.16 -238.21 461.48 C-239.63 459.55 -241.05 457.62 -242.48 455.7 C-254.69 439.04 -266.24 421.03 -275.32 402.45 C-275.9 401.27 -276.47 400.09 -277.07 398.88 C-277.51 397.97 -277.51 397.97 -277.97 397.05 C-278.89 395.19 -279.83 393.34 -280.78 391.5 C-285.99 381.36 -290.53 370.98 -294.93 360.47 C-295.69 358.66 -296.46 356.85 -297.24 355.04 C-298.5 352.11 -299.7 349.16 -300.88 346.2 C-301.18 345.44 -301.49 344.69 -301.8 343.9 C-334.49 261.42 -334.49 261.42 -329.88 236.2 C-327.75 232.83 -327.75 232.83 -326.37 231.14 C-323.33 227.19 -321.22 222.6 -318.88 218.2 C-315.08 211.29 -311.22 204.42 -307.16 197.66 C-303.88 192.21 -300.62 186.74 -297.38 181.27 C-296.56 179.9 -296.56 179.9 -295.73 178.5 C-291.97 172.14 -288.39 165.7 -284.88 159.2 C-280.6 151.4 -276.33 143.67 -271.28 136.34 C-268.52 132.13 -266.24 127.64 -263.88 123.2 C-261.33 118.52 -258.71 113.89 -255.94 109.33 C-253.83 105.83 -251.82 102.3 -249.88 98.7 C-248.04 95.29 -246.15 91.95 -244.13 88.64 C-241.25 83.9 -238.56 79.06 -235.88 74.2 C-232.85 68.71 -229.81 63.24 -226.49 57.91 C-225.12 55.61 -223.86 53.3 -222.61 50.93 C-221.98 49.78 -221.98 49.78 -221.34 48.61 C-220.51 47.08 -219.7 45.55 -218.92 44 C-216.72 40.03 -215.04 37.87 -210.66 36.4 C-209.07 35.99 -207.48 35.59 -205.88 35.2 C-204.33 34.7 -202.78 34.19 -201.24 33.66 C-146.18 15.61 -88.58 5.53 -30.88 1.2 C-29.22 1.07 -29.22 1.07 -27.53 0.94 C-18.34 0.27 -9.21 0.03 0 0 Z M-43.88 48.2 C-44.72 48.28 -45.56 48.36 -46.43 48.44 C-51.23 48.9 -56.03 49.43 -60.82 50.02 C-61.51 50.1 -62.21 50.18 -62.93 50.27 C-96.98 54.37 -130.78 61.25 -163.88 70.2 C-164.82 70.46 -165.76 70.71 -166.73 70.97 C-177.17 73.84 -184.45 76.44 -190.03 86.21 C-190.6 87.25 -190.6 87.25 -191.18 88.31 C-194.01 93.45 -196.91 98.55 -199.82 103.64 C-200.32 104.52 -200.82 105.4 -201.33 106.3 C-204.33 111.56 -207.4 116.78 -210.54 121.96 C-212.28 124.87 -213.91 127.84 -215.55 130.82 C-217.04 133.49 -218.58 136.13 -220.13 138.77 C-222.54 142.88 -224.9 147.02 -227.22 151.19 C-230.72 157.47 -234.34 163.6 -238.26 169.62 C-240.48 173.17 -242.44 176.83 -244.41 180.52 C-245.83 183.11 -247.33 185.63 -248.88 188.14 C-251.09 191.77 -253.02 195.45 -254.88 199.27 C-257.1 203.8 -259.58 207.93 -262.45 212.08 C-264.3 214.83 -265.88 217.69 -267.46 220.61 C-269.27 223.91 -271.13 227.18 -273 230.45 C-273.34 231.04 -273.68 231.63 -274.02 232.24 C-275.5 234.82 -276.98 237.37 -278.56 239.88 C-284 249.47 -279.79 261.01 -277.19 270.89 C-277 271.64 -276.8 272.39 -276.6 273.16 C-273.32 285.77 -269.43 298.14 -265.19 310.45 C-264.92 311.24 -264.65 312.02 -264.38 312.83 C-259.4 327.22 -253.91 341.32 -247.5 355.14 C-247.03 356.17 -246.56 357.19 -246.07 358.25 C-240.92 369.36 -235.76 380.45 -229.29 390.87 C-227.81 393.31 -226.47 395.8 -225.13 398.33 C-209.31 427.48 -188.46 454.22 -166.17 478.68 C-164.76 480.24 -163.35 481.8 -161.95 483.38 C-155.96 490.16 -149.66 496.6 -143.27 503 C-141.51 504.76 -139.76 506.53 -138 508.3 C-131.98 514.35 -125.9 520.06 -119.18 525.33 C-116.97 527.13 -115.02 529.01 -113.07 531.08 C-109.14 535.13 -104.81 538.5 -100.35 541.93 C-96.36 545.02 -92.5 548.21 -88.69 551.52 C-81.19 557.98 -73.17 563.74 -65.16 569.55 C-63.11 571.04 -61.07 572.54 -59.03 574.05 C-44.03 585.16 -28.74 595.81 -13 605.85 C-10.76 607.28 -8.52 608.73 -6.29 610.19 C-5.53 610.68 -4.77 611.18 -3.99 611.68 C-2.55 612.62 -1.11 613.56 0.33 614.5 C10.36 621.46 10.36 621.46 22.12 622.2 C31.36 619.19 39.63 612.33 47.6 606.91 C50.17 605.17 52.76 603.45 55.36 601.73 C69.92 592.1 84.32 582.3 98.09 571.55 C101.01 569.29 103.96 567.09 106.93 564.89 C123.23 552.7 138.72 539.41 153.64 525.58 C156.19 523.21 158.75 520.86 161.31 518.52 C161.81 518.06 162.31 517.6 162.82 517.12 C165.82 514.37 168.86 511.68 171.93 509.02 C175.32 506.02 178.26 502.85 181.18 499.4 C183.55 496.72 186.07 494.21 188.62 491.7 C192.37 488 195.96 484.23 199.38 480.22 C201.4 477.88 203.48 475.61 205.56 473.33 C209.96 468.44 214.07 463.38 218.12 458.2 C219.15 456.92 220.18 455.63 221.21 454.34 C247.19 421.65 270.27 384.91 285.93 346.09 C287.05 343.37 288.26 340.71 289.5 338.04 C300.36 314.23 307.92 288.82 314.18 263.45 C314.63 261.66 314.63 261.66 315.09 259.83 C318.15 247.55 318.15 247.55 314.56 235.89 C313.74 234.5 313.74 234.5 312.9 233.09 C312.31 232.14 311.73 231.18 311.12 230.2 C309.95 228.21 308.78 226.21 307.62 224.2 C307.03 223.19 306.43 222.18 305.82 221.14 C304.3 218.52 302.86 215.88 301.43 213.2 C298.04 206.91 294.33 200.82 290.61 194.72 C287.49 189.57 284.55 184.36 281.68 179.06 C278.9 173.97 275.97 168.97 273.06 163.95 C268.15 155.48 263.29 146.99 258.5 138.45 C253.28 129.18 247.91 120.01 242.48 110.87 C238.17 103.62 233.94 96.34 229.7 89.06 C229.15 88.1 228.59 87.15 228.02 86.17 C227.53 85.33 227.04 84.49 226.54 83.62 C226.07 82.83 225.6 82.03 225.12 81.2 C224.64 80.32 224.17 79.43 223.68 78.52 C218.85 71.32 206.28 70.22 198.43 68.27 C197.04 67.91 195.64 67.56 194.24 67.21 C190.2 66.19 186.16 65.2 182.12 64.2 C181.12 63.95 180.11 63.7 179.08 63.45 C128.21 50.9 75.75 45.58 23.45 45.88 C20.24 45.89 17.04 45.89 13.84 45.88 C-5.49 45.86 -24.62 46.41 -43.88 48.2 Z " fill="#FBDD40" transform="translate(871.87890625,474.796875)"/>
<path d="M0 0 C0.96 -0 0.96 -0 1.95 -0.01 C4.13 -0.01 6.3 -0.01 8.48 -0.01 C10.05 -0.01 11.61 -0.01 13.18 -0.01 C17.51 -0.02 21.83 -0.02 26.15 -0.02 C30.81 -0.02 35.47 -0.02 40.13 -0.03 C49.26 -0.04 58.39 -0.04 67.51 -0.04 C74.93 -0.04 82.35 -0.04 89.77 -0.04 C110.77 -0.05 131.78 -0.06 152.78 -0.06 C153.92 -0.06 155.05 -0.06 156.22 -0.06 C157.35 -0.06 158.49 -0.06 159.66 -0.06 C178.06 -0.06 196.46 -0.07 214.86 -0.08 C233.74 -0.09 252.61 -0.1 271.49 -0.1 C282.09 -0.1 292.7 -0.1 303.3 -0.11 C312.33 -0.12 321.35 -0.12 330.38 -0.12 C334.99 -0.11 339.6 -0.11 344.21 -0.12 C348.42 -0.13 352.64 -0.13 356.85 -0.12 C358.38 -0.12 359.91 -0.12 361.44 -0.13 C363.51 -0.13 365.58 -0.13 367.65 -0.12 C368.8 -0.12 369.95 -0.12 371.14 -0.12 C373.82 0.13 373.82 0.13 375.82 2.13 C376.48 4.53 377.03 6.89 377.52 9.32 C377.85 10.83 378.17 12.33 378.49 13.84 C378.74 15.02 378.74 15.02 378.99 16.24 C382.15 31.18 385.73 45.91 390.07 60.55 C390.76 62.9 391.43 65.26 392.09 67.62 C403.24 107.21 420.31 145.06 439.74 181.21 C441.19 183.91 442.59 186.63 443.96 189.37 C444.31 190.08 444.66 190.79 445.02 191.52 C445.29 192.05 445.55 192.58 445.82 193.13 C388.31 193.22 330.8 193.29 273.28 193.33 C266.5 193.34 259.71 193.34 252.93 193.35 C252.25 193.35 251.58 193.35 250.88 193.35 C228.99 193.37 207.09 193.4 185.2 193.43 C162.07 193.47 138.94 193.5 115.8 193.5 C101.94 193.51 88.08 193.53 74.22 193.56 C64.72 193.58 55.23 193.59 45.73 193.58 C40.25 193.58 34.76 193.58 29.28 193.61 C24.26 193.62 19.24 193.63 14.23 193.61 C12.41 193.61 10.59 193.62 8.77 193.63 C6.3 193.64 3.84 193.64 1.38 193.62 C0.66 193.63 -0.05 193.64 -0.79 193.65 C-4.13 193.61 -5.9 193.33 -8.62 191.31 C-10.83 188.21 -10.72 185.36 -10.67 181.69 C-10.67 180.94 -10.68 180.19 -10.68 179.41 C-10.7 176.89 -10.68 174.37 -10.66 171.85 C-10.66 170.04 -10.67 168.23 -10.67 166.43 C-10.68 161.52 -10.67 156.61 -10.65 151.7 C-10.63 146.57 -10.63 141.43 -10.63 136.3 C-10.63 127.68 -10.61 119.06 -10.59 110.43 C-10.56 100.46 -10.54 90.49 -10.55 80.52 C-10.55 70.93 -10.54 61.34 -10.52 51.75 C-10.51 47.67 -10.51 43.59 -10.51 39.51 C-10.51 34.7 -10.49 29.89 -10.47 25.09 C-10.47 23.32 -10.47 21.55 -10.47 19.79 C-10.47 17.38 -10.46 14.98 -10.44 12.57 C-10.45 11.87 -10.45 11.16 -10.45 10.44 C-10.42 6.86 -10.25 4.12 -8.18 1.13 C-5.39 -0.26 -3.12 0 0 0 Z " fill="#64CBFC" transform="translate(132.17510986328125,721.8713655471802)"/>
<path d="M0 0 C1.15 -0 1.15 -0 2.32 -0.01 C6.39 -0.02 10.46 -0.03 14.53 -0.04 C17.8 -0.04 21.06 -0.06 24.33 -0.08 C42.3 -0.2 60.12 0.09 78.04 1.58 C78.78 1.64 79.52 1.7 80.29 1.77 C116.83 4.87 153.29 10.99 188.86 19.89 C189.98 20.17 189.98 20.17 191.12 20.45 C219.25 27.53 219.25 27.53 222.74 32.22 C223.21 33.05 223.68 33.88 224.16 34.73 C224.7 35.68 225.24 36.62 225.8 37.59 C226.38 38.62 226.95 39.65 227.55 40.7 C228.15 41.77 228.76 42.83 229.39 43.93 C230.68 46.19 231.97 48.46 233.26 50.72 C236.47 56.38 239.73 62.01 242.98 67.64 C243.62 68.74 244.25 69.84 244.9 70.97 C248.36 76.96 251.83 82.94 255.36 88.89 C259.24 95.45 263 102.07 266.73 108.7 C271.67 117.47 276.71 126.18 281.84 134.84 C289.04 147.04 296.21 159.27 303.1 171.65 C306.08 176.98 309.21 182.22 312.41 187.42 C317.32 195.48 316.85 202.11 314.8 211.06 C314.15 213.7 313.48 216.33 312.8 218.95 C312.62 219.65 312.44 220.34 312.26 221.06 C305.88 246.02 298.57 271.11 287.49 294.44 C286.51 296.6 285.6 298.76 284.73 300.97 C280.3 312.15 274.99 322.65 269.23 333.2 C268.29 334.96 267.34 336.71 266.39 338.46 C261.63 347.25 256.74 355.86 251.23 364.2 C250.15 365.93 249.07 367.66 247.98 369.39 C240.31 381.43 232.05 392.98 223.23 404.2 C222.64 404.98 222.05 405.75 221.44 406.55 C213.72 416.65 205.36 426.18 196.72 435.5 C194.68 437.72 192.69 439.97 190.73 442.27 C187.42 446.1 183.83 449.64 180.22 453.2 C177.7 455.69 175.3 458.22 173.05 460.95 C170.53 463.98 167.74 466.46 164.75 469.01 C161.45 471.89 158.29 474.89 155.11 477.89 C148.01 484.56 140.7 490.94 133.23 497.2 C132.44 497.88 132.44 497.88 131.62 498.56 C128.18 501.46 124.71 504.34 121.23 507.2 C120.48 507.83 119.72 508.46 118.93 509.11 C111.78 514.94 104.31 520.34 96.87 525.8 C93.12 528.55 89.39 531.33 85.67 534.14 C76.65 540.92 67.31 547.22 57.9 553.44 C55.86 554.79 53.83 556.13 51.8 557.48 C48.57 559.62 45.33 561.76 42.09 563.9 C40.78 564.76 39.46 565.63 38.15 566.5 C36.28 567.74 34.41 568.97 32.54 570.2 C31.45 570.92 30.35 571.65 29.23 572.39 C23.73 575.72 18.67 577.62 12.23 576.2 C6.91 573.73 2.11 570.45 -2.77 567.2 C-4.34 566.17 -5.91 565.14 -7.48 564.1 C-20.34 555.63 -33.14 547.03 -45.77 538.2 C-46.32 537.82 -46.87 537.43 -47.44 537.04 C-58.81 529.11 -69.79 520.66 -80.77 512.2 C-81.46 511.67 -82.15 511.14 -82.86 510.59 C-91.36 504.02 -99.63 497.21 -107.77 490.2 C-108.86 489.27 -108.86 489.27 -109.97 488.31 C-114.67 484.23 -119.27 480.03 -123.86 475.83 C-125.36 474.48 -126.86 473.13 -128.4 471.82 C-134.92 466.28 -140.91 460.21 -146.95 454.15 C-148.82 452.27 -150.71 450.39 -152.59 448.52 C-158.53 442.58 -164.36 436.64 -169.77 430.2 C-170.74 429.08 -171.71 427.97 -172.69 426.85 C-204.45 390.19 -229.28 350.11 -249.8 306.26 C-250.6 304.55 -251.42 302.85 -252.23 301.15 C-254.66 296.02 -256.67 290.79 -258.54 285.44 C-258.93 284.32 -258.93 284.32 -259.33 283.18 C-260.15 280.86 -260.96 278.53 -261.77 276.2 C-262.01 275.49 -262.26 274.78 -262.52 274.04 C-268.38 257.19 -274.01 240.29 -278.52 223.02 C-278.85 221.75 -279.19 220.49 -279.53 219.19 C-281.93 209.69 -283.41 201.21 -278.77 192.2 C-277.1 189.45 -275.36 186.75 -273.59 184.06 C-271.28 180.44 -269.26 176.69 -267.23 172.89 C-265.38 169.49 -263.38 166.19 -261.36 162.88 C-260.02 160.63 -258.75 158.37 -257.48 156.08 C-254.02 149.82 -250.34 143.69 -246.67 137.55 C-243.36 131.99 -240.19 126.38 -237.11 120.69 C-235.1 116.97 -232.99 113.3 -230.88 109.64 C-230.54 109.04 -230.2 108.44 -229.84 107.83 C-229.33 106.93 -229.33 106.93 -228.81 106.02 C-227.76 104.19 -226.72 102.35 -225.69 100.52 C-222.82 95.43 -219.97 90.38 -216.64 85.58 C-214.43 82.36 -212.66 79.09 -210.95 75.58 C-208.34 70.21 -205.41 65.15 -202.3 60.07 C-199.85 56.05 -197.53 51.99 -195.28 47.86 C-193.5 44.6 -191.65 41.4 -189.77 38.2 C-189.03 36.93 -189.03 36.93 -188.28 35.63 C-182.94 28.07 -173.22 26.47 -164.77 24.2 C-163.64 23.9 -162.52 23.6 -161.37 23.28 C-108.91 9.24 -54.39 0.14 0 0 Z M-150.58 56.39 C-151.47 56.62 -152.36 56.84 -153.27 57.07 C-159.57 58.8 -162.27 60.76 -165.74 66.43 C-166.44 67.7 -167.14 68.98 -167.83 70.27 C-168.62 71.71 -169.42 73.15 -170.22 74.6 C-170.63 75.35 -171.05 76.11 -171.48 76.89 C-173.63 80.77 -175.85 84.61 -178.08 88.45 C-178.53 89.24 -178.99 90.02 -179.46 90.83 C-182.94 96.83 -186.5 102.77 -190.08 108.7 C-193.64 114.61 -197.12 120.53 -200.38 126.62 C-205.42 135.99 -210.89 145.14 -216.27 154.33 C-221.67 163.57 -227.02 172.84 -232.33 182.14 C-232.83 183.03 -232.83 183.03 -233.35 183.93 C-234.93 186.7 -236.51 189.47 -238.08 192.25 C-239.14 194.11 -240.21 195.96 -241.3 197.81 C-241.75 198.58 -242.2 199.35 -242.67 200.14 C-243.05 200.79 -243.44 201.44 -243.84 202.11 C-245.98 206.95 -245.92 210.85 -244.46 215.86 C-244.15 216.95 -243.84 218.04 -243.52 219.16 C-242.99 220.92 -242.99 220.92 -242.45 222.7 C-242.1 223.92 -241.74 225.14 -241.37 226.4 C-234.54 249.47 -227.07 272.43 -216.77 294.2 C-216.11 295.63 -215.46 297.05 -214.8 298.47 C-206.5 316.48 -197.12 333.79 -186.06 350.26 C-184.81 352.14 -183.57 354.04 -182.35 355.95 C-175.75 366.17 -168.35 375.7 -160.77 385.2 C-160.32 385.76 -159.88 386.32 -159.42 386.89 C-154.54 393.03 -149.4 398.89 -144.09 404.67 C-142.19 406.74 -140.34 408.83 -138.52 410.95 C-125.91 425.41 -112.68 440.01 -97.58 451.89 C-94.13 454.73 -90.89 457.76 -87.64 460.83 C-83.28 464.93 -78.9 468.81 -74.1 472.4 C-71.11 474.71 -68.26 477.18 -65.39 479.64 C-60.66 483.68 -55.83 487.45 -50.75 491.06 C-47.86 493.14 -45.01 495.27 -42.16 497.42 C-28.75 507.57 -15 517.17 -0.95 526.42 C1.68 528.16 4.29 529.93 6.86 531.77 C8.44 532.88 8.44 532.88 10.05 534.02 C10.94 534.66 11.83 535.31 12.75 535.97 C15.85 537.51 16.96 537.12 20.23 536.2 C22.36 535.14 22.36 535.14 24.39 533.75 C25.18 533.24 25.96 532.73 26.77 532.2 C27.6 531.65 28.44 531.09 29.3 530.52 C30.17 529.94 31.04 529.36 31.94 528.77 C45.27 519.93 58.38 510.73 71.23 501.2 C71.81 500.78 72.39 500.35 72.98 499.92 C82.71 492.74 92.16 485.29 101.5 477.62 C103.8 475.74 106.14 473.91 108.48 472.08 C113.35 468.21 117.88 464.01 122.43 459.79 C124.65 457.74 126.89 455.74 129.17 453.77 C138.8 445.37 147.98 436.57 157.05 427.58 C157.93 426.71 158.81 425.84 159.72 424.94 C164.67 420 169.2 414.92 173.5 409.41 C175.63 406.71 177.88 404.21 180.23 401.7 C194.01 386.67 205.73 369.72 217.12 352.85 C218.09 351.42 219.06 350.01 220.04 348.6 C223.19 343.99 225.93 339.24 228.55 334.31 C229.75 332.09 230.97 329.9 232.23 327.72 C252.64 292.22 267.76 253.93 278.11 214.33 C278.37 213.37 278.62 212.42 278.89 211.43 C280.78 203.72 279.19 199.46 275.11 192.7 C272.53 188.37 269.98 184.03 267.48 179.64 C260.54 167.47 253.55 155.33 246.3 143.34 C243.67 138.99 241.23 134.56 238.83 130.08 C236.88 126.57 234.81 123.14 232.73 119.7 C229.64 114.6 226.7 109.45 223.88 104.19 C221.39 99.68 218.75 95.26 216.13 90.83 C213.57 86.51 211.07 82.16 208.63 77.76 C207.17 75.14 205.69 72.52 204.21 69.91 C203.34 68.38 202.48 66.85 201.62 65.31 C201.14 64.51 200.66 63.71 200.17 62.89 C199.79 62.23 199.41 61.58 199.01 60.9 C193.18 55.32 182.33 54.29 174.73 52.45 C173.67 52.2 173.67 52.2 172.59 51.93 C133.14 42.43 92.75 37.11 52.23 35.2 C51.19 35.15 51.19 35.15 50.13 35.1 C-17.4 31.82 -85.17 39.29 -150.58 56.39 Z " fill="#000102" transform="translate(872.765625,520.796875)"/>
<path d="M0 0 C2.09 0.01 4.18 -0 6.27 -0.01 C7.61 -0.01 8.95 -0 10.28 -0 C12.07 -0 12.07 -0 13.9 0 C16.73 0.13 16.73 0.13 18.73 1.13 C19.06 15.32 19.39 29.51 19.73 44.13 C25.01 44.46 30.29 44.79 35.73 45.13 C35.73 45.46 35.73 45.79 35.73 46.13 C35.17 46.14 34.61 46.15 34.02 46.15 C-4.17 46.54 -4.17 46.54 -42.27 49.13 C-43.58 49.26 -44.89 49.4 -46.24 49.53 C-88.83 53.93 -131.69 61.5 -172.64 74.13 C-173.34 74.33 -174.04 74.53 -174.77 74.74 C-183.61 77.64 -187.18 85.4 -191.27 93.13 C-192.23 94.84 -193.2 96.55 -194.17 98.25 C-194.67 99.12 -195.17 100 -195.68 100.9 C-196.18 101.78 -196.69 102.66 -197.2 103.57 C-197.7 104.45 -198.2 105.32 -198.72 106.23 C-201.72 111.49 -204.79 116.71 -207.93 121.89 C-209.67 124.8 -211.3 127.77 -212.93 130.74 C-214.43 133.42 -215.97 136.05 -217.52 138.69 C-219.93 142.81 -222.29 146.95 -224.61 151.12 C-228.11 157.4 -231.73 163.52 -235.65 169.55 C-237.87 173.1 -239.83 176.76 -241.8 180.45 C-243.22 183.04 -244.72 185.55 -246.27 188.07 C-248.48 191.69 -250.41 195.37 -252.27 199.19 C-254.49 203.73 -256.97 207.85 -259.84 212.01 C-261.69 214.76 -263.26 217.62 -264.84 220.53 C-266.65 223.84 -268.52 227.11 -270.39 230.38 C-270.9 231.27 -270.9 231.27 -271.41 232.17 C-272.88 234.74 -274.37 237.29 -275.95 239.8 C-281.39 249.4 -277.18 260.93 -274.58 270.82 C-274.38 271.57 -274.19 272.32 -273.99 273.09 C-270.71 285.7 -266.82 298.06 -262.58 310.38 C-262.31 311.16 -262.04 311.95 -261.76 312.75 C-256.79 327.14 -251.3 341.25 -244.89 355.07 C-244.42 356.09 -243.94 357.12 -243.46 358.18 C-238.3 369.29 -233.15 380.37 -226.68 390.8 C-225.2 393.24 -223.86 395.73 -222.52 398.26 C-206.7 427.41 -185.85 454.14 -163.56 478.6 C-162.14 480.17 -160.72 481.74 -159.32 483.33 C-153.46 489.94 -147.33 496.25 -141.08 502.5 C-139.4 504.19 -137.72 505.89 -136.04 507.59 C-130.14 513.51 -124.17 519.07 -117.58 524.24 C-115.37 526.04 -113.41 527.94 -111.45 530.01 C-107.53 534.05 -103.2 537.43 -98.74 540.86 C-94.75 543.94 -90.89 547.14 -87.08 550.44 C-79.57 556.9 -71.56 562.66 -63.54 568.47 C-61.49 569.96 -59.45 571.47 -57.42 572.97 C-42.42 584.09 -27.12 594.75 -11.37 604.78 C-9.17 606.19 -6.97 607.62 -4.78 609.04 C2.09 613.52 8.96 617.97 16.05 622.11 C17.73 623.13 17.73 623.13 18.73 624.13 C18.83 625.79 18.85 627.45 18.85 629.11 C18.85 630.17 18.85 631.23 18.85 632.32 C18.84 633.48 18.84 634.63 18.83 635.82 C18.83 637.58 18.83 637.58 18.83 639.38 C18.82 643.15 18.81 646.92 18.8 650.69 C18.79 653.24 18.79 655.79 18.78 658.34 C18.77 664.6 18.75 670.87 18.73 677.13 C14.02 675.65 10.19 673.7 6.11 670.94 C1.83 668.08 -2.51 665.38 -6.97 662.81 C-13.2 659.2 -19.28 655.39 -25.33 651.51 C-26.41 650.81 -27.5 650.12 -28.61 649.4 C-38.29 643.16 -47.82 636.72 -57.27 630.13 C-57.99 629.63 -58.72 629.12 -59.47 628.6 C-69.22 621.81 -78.79 614.81 -88.26 607.64 C-90.3 606.1 -92.35 604.58 -94.4 603.06 C-101.62 597.7 -108.67 592.24 -115.53 586.43 C-118.11 584.26 -120.74 582.16 -123.39 580.07 C-127.66 576.68 -131.7 573.07 -135.72 569.39 C-138.23 567.16 -140.82 565.08 -143.45 563.01 C-148.99 558.54 -153.93 553.57 -158.92 548.51 C-162.59 544.78 -166.32 541.24 -170.31 537.86 C-176.87 532.06 -182.92 525.67 -188.6 519.01 C-190.37 517.02 -192.23 515.17 -194.14 513.32 C-198.06 509.46 -201.47 505.28 -204.91 500.99 C-208.03 497.2 -211.35 493.61 -214.71 490.03 C-222.65 481.03 -229.52 471.08 -236.6 461.41 C-238.01 459.48 -239.44 457.55 -240.87 455.63 C-253.08 438.97 -264.63 420.95 -273.7 402.38 C-274.28 401.2 -274.86 400.02 -275.46 398.81 C-275.9 397.9 -275.9 397.9 -276.35 396.98 C-277.27 395.12 -278.22 393.27 -279.17 391.42 C-284.37 381.28 -288.91 370.91 -293.31 360.4 C-294.08 358.58 -294.85 356.78 -295.63 354.97 C-296.89 352.04 -298.09 349.09 -299.27 346.13 C-299.57 345.37 -299.87 344.61 -300.19 343.83 C-332.87 261.35 -332.87 261.35 -328.27 236.13 C-326.14 232.76 -326.14 232.76 -324.76 231.07 C-321.71 227.12 -319.61 222.52 -317.27 218.13 C-313.47 211.22 -309.61 204.35 -305.54 197.59 C-302.27 192.14 -299.01 186.67 -295.77 181.19 C-294.95 179.82 -294.95 179.82 -294.12 178.43 C-290.36 172.07 -286.78 165.63 -283.27 159.13 C-278.99 151.33 -274.72 143.6 -269.66 136.27 C-266.91 132.06 -264.63 127.57 -262.27 123.13 C-259.72 118.44 -257.1 113.82 -254.33 109.26 C-252.21 105.76 -250.21 102.23 -248.27 98.63 C-246.43 95.22 -244.53 91.87 -242.52 88.57 C-239.63 83.83 -236.95 78.99 -234.27 74.13 C-231.23 68.64 -228.2 63.17 -224.88 57.84 C-223.51 55.54 -222.25 53.22 -221 50.86 C-220.37 49.71 -220.37 49.71 -219.73 48.53 C-218.9 47.01 -218.09 45.48 -217.31 43.93 C-215.11 39.96 -213.43 37.8 -209.05 36.33 C-207.46 35.91 -205.86 35.51 -204.27 35.13 C-202.72 34.63 -201.17 34.12 -199.63 33.59 C-144.51 15.51 -87.01 5.62 -29.27 1.13 C-27.96 1.03 -26.66 0.92 -25.31 0.81 C-16.86 0.19 -8.47 -0.03 0 0 Z " fill="#FBBD3F" transform="translate(870.266357421875,474.86962890625)"/>
<path d="M0 0 C1.35 -0.01 2.7 -0.01 4.06 -0.02 C7.75 -0.05 11.45 -0.03 15.15 -0.01 C19.14 0.01 23.13 -0.01 27.13 -0.02 C34.94 -0.04 42.76 -0.02 50.57 0 C59.68 0.03 68.78 0.02 77.88 0.02 C94.12 0.01 110.36 0.04 126.6 0.08 C142.36 0.11 158.12 0.13 173.88 0.12 C191.04 0.1 208.21 0.11 225.37 0.13 C227.2 0.13 229.03 0.13 230.86 0.14 C231.76 0.14 232.66 0.14 233.59 0.14 C239.94 0.15 246.28 0.15 252.63 0.14 C260.36 0.14 268.09 0.15 275.82 0.18 C279.76 0.19 283.7 0.2 287.65 0.19 C291.26 0.18 294.87 0.19 298.48 0.22 C300.4 0.23 302.33 0.22 304.25 0.2 C310.62 0.27 314.75 0.36 319.54 4.75 C321.19 6.75 321.19 6.75 322.36 8.75 C322.75 9.41 323.15 10.07 323.56 10.75 C325.77 15.25 325.7 19.68 325.71 24.62 C325.71 25.41 325.71 26.2 325.72 27.01 C325.73 29.62 325.74 32.22 325.75 34.83 C325.75 36.65 325.76 38.46 325.76 40.28 C325.77 44.09 325.78 47.89 325.78 51.7 C325.79 56.57 325.81 61.44 325.84 66.31 C325.86 70.06 325.87 73.81 325.87 77.56 C325.87 79.36 325.88 81.15 325.89 82.94 C325.91 85.46 325.91 87.97 325.9 90.49 C325.91 91.23 325.92 91.96 325.93 92.72 C325.88 98.49 324.71 103.22 320.9 107.67 C320.33 108.13 319.76 108.59 319.17 109.06 C318.6 109.53 318.04 110 317.46 110.49 C313.38 113.17 309.79 114 304.95 114 C303.83 114.01 302.71 114.01 301.56 114.02 C300.33 114.01 299.1 114.01 297.84 114 C296.54 114.01 295.23 114.01 293.88 114.01 C290.26 114.02 286.64 114.02 283.01 114.01 C279.1 114.01 275.19 114.01 271.29 114.02 C263.63 114.03 255.97 114.02 248.31 114.02 C242.09 114.01 235.87 114.01 229.64 114.02 C228.76 114.02 227.87 114.02 226.96 114.02 C225.16 114.02 223.36 114.02 221.56 114.02 C204.69 114.02 187.82 114.02 170.95 114.01 C156.47 114 141.99 114 127.52 114.01 C110.71 114.02 93.9 114.02 77.09 114.02 C75.3 114.02 73.5 114.02 71.71 114.02 C70.83 114.02 69.95 114.02 69.04 114.02 C62.82 114.01 56.61 114.02 50.39 114.02 C42.82 114.03 35.24 114.03 27.67 114.01 C23.8 114.01 19.94 114.01 16.07 114.01 C11.88 114.02 7.69 114.01 3.5 114 C2.28 114.01 1.06 114.01 -0.2 114.02 C-7.41 113.98 -14.05 113.82 -20.21 109.62 C-20.76 109.27 -21.31 108.92 -21.88 108.55 C-26.36 103.42 -26.9 96.86 -26.86 90.36 C-26.87 89.57 -26.87 88.77 -26.88 87.95 C-26.9 85.34 -26.9 82.74 -26.89 80.13 C-26.89 78.3 -26.9 76.47 -26.91 74.64 C-26.91 70.82 -26.91 67 -26.9 63.18 C-26.89 58.3 -26.91 53.42 -26.94 48.54 C-26.96 44.77 -26.96 40.99 -26.95 37.22 C-26.95 35.42 -26.96 33.63 -26.97 31.83 C-27.08 12.82 -27.08 12.82 -22.46 6.75 C-15.64 0.3 -9.05 -0.11 0 0 Z " fill="#000102" transform="translate(643.4561004638672,162.25155639648438)"/>
<path d="M0 0 C0.33 0.66 0.66 1.32 1 2 C1.76 2 2.52 2 3.3 2 C86.04 1.89 168.77 1.78 251.5 1.67 C252.74 1.67 253.97 1.67 255.24 1.67 C282.08 1.63 308.91 1.6 335.74 1.57 C348.9 1.55 362.06 1.53 375.21 1.52 C376.52 1.52 377.83 1.51 379.18 1.51 C421.66 1.46 464.14 1.4 506.62 1.35 C550.26 1.29 593.89 1.23 637.53 1.18 C643.68 1.17 649.84 1.16 655.99 1.16 C657.21 1.16 658.42 1.15 659.67 1.15 C679.21 1.13 698.75 1.1 718.3 1.07 C737.92 1.05 757.55 1.02 777.17 1 C788.85 0.99 800.52 0.97 812.2 0.95 C819.98 0.94 827.76 0.93 835.55 0.93 C839.99 0.92 844.44 0.92 848.88 0.91 C852.92 0.9 856.95 0.89 860.99 0.89 C862.45 0.89 863.9 0.89 865.36 0.89 C867.33 0.88 869.29 0.88 871.26 0.88 C872.35 0.88 873.44 0.88 874.57 0.88 C877 1 877 1 878 2 C878.31 5.28 878.28 8.58 878.31 11.88 C878.34 12.8 878.37 13.72 878.4 14.68 C878.41 15.56 878.42 16.45 878.43 17.37 C878.45 18.59 878.45 18.59 878.47 19.84 C878 22 878 22 876.35 23.61 C873.36 25.38 871.41 25.38 867.94 25.38 C866.06 25.39 866.06 25.39 864.14 25.4 C862.74 25.39 861.35 25.39 859.95 25.38 C858.47 25.38 856.98 25.39 855.49 25.39 C851.39 25.41 847.28 25.4 843.18 25.39 C838.72 25.38 834.27 25.4 829.81 25.4 C821.99 25.42 814.17 25.42 806.35 25.41 C794.72 25.4 783.1 25.41 771.47 25.42 C750.71 25.44 729.94 25.44 709.18 25.44 C691.01 25.43 672.84 25.43 654.67 25.44 C652.23 25.44 649.8 25.44 647.37 25.44 C643.7 25.44 640.03 25.44 636.36 25.45 C602.25 25.46 568.13 25.46 534.02 25.45 C532.73 25.45 531.45 25.45 530.12 25.45 C519.67 25.45 509.22 25.45 498.77 25.45 C457.99 25.43 417.21 25.44 376.43 25.47 C330.66 25.49 284.88 25.51 239.1 25.5 C234.22 25.5 229.34 25.5 224.46 25.5 C222.66 25.5 222.66 25.5 220.83 25.5 C202.66 25.49 184.5 25.5 166.34 25.51 C145.7 25.53 125.05 25.53 104.41 25.51 C92.84 25.5 81.28 25.5 69.72 25.52 C62 25.53 54.29 25.53 46.58 25.51 C42.17 25.5 37.77 25.5 33.37 25.52 C29.37 25.53 25.37 25.53 21.37 25.51 C19.93 25.5 18.49 25.51 17.04 25.52 C15.09 25.53 13.14 25.52 11.19 25.5 C10.11 25.5 9.02 25.5 7.91 25.5 C4.28 24.88 2.6 23.56 0 21 C-0.57 18.62 -0.57 18.62 -0.49 16.02 C-0.47 15.08 -0.46 14.15 -0.44 13.18 C-0.4 12.22 -0.36 11.25 -0.31 10.25 C-0.29 9.27 -0.27 8.28 -0.24 7.27 C-0.19 4.84 -0.1 2.42 0 0 Z " fill="#47A5FA" transform="translate(122,291)"/>
<path d="M0 0 C47.16 -0.02 94.33 -0.03 141.49 -0.04 C142.19 -0.04 142.89 -0.04 143.6 -0.04 C158.76 -0.05 173.92 -0.05 189.08 -0.05 C196.51 -0.05 203.94 -0.05 211.38 -0.05 C212.12 -0.06 212.86 -0.06 213.62 -0.06 C237.61 -0.06 261.61 -0.07 285.6 -0.08 C310.25 -0.09 334.9 -0.09 359.55 -0.09 C363.02 -0.09 366.5 -0.09 369.98 -0.09 C371.01 -0.09 371.01 -0.09 372.05 -0.1 C383.09 -0.1 394.13 -0.1 405.17 -0.11 C416.26 -0.11 427.34 -0.11 438.43 -0.11 C444.44 -0.11 450.45 -0.11 456.46 -0.12 C461.96 -0.12 467.45 -0.12 472.94 -0.12 C474.94 -0.12 476.94 -0.12 478.93 -0.12 C481.63 -0.13 484.33 -0.13 487.02 -0.12 C487.81 -0.13 488.6 -0.13 489.41 -0.13 C494.77 -0.11 494.77 -0.11 497 1 C497 12.55 497 24.1 497 36 C333.32 36 169.64 36 1 36 C-0.53 32.93 -0.12 29.73 -0.1 26.37 C-0.1 25.62 -0.09 24.86 -0.09 24.09 C-0.09 21.68 -0.08 19.28 -0.06 16.88 C-0.06 15.25 -0.05 13.62 -0.05 11.99 C-0.04 7.99 -0.02 4 0 0 Z " fill="#EFF2F1" transform="translate(314,351)"/>
<path d="M0 0 C35.51 -0.05 71.02 -0.08 106.53 -0.1 C110.72 -0.1 114.9 -0.11 119.09 -0.11 C119.93 -0.11 120.76 -0.11 121.62 -0.11 C135.14 -0.12 148.65 -0.14 162.17 -0.15 C176.03 -0.17 189.89 -0.18 203.75 -0.19 C212.31 -0.19 220.87 -0.2 229.43 -0.22 C235.29 -0.23 241.15 -0.23 247.01 -0.23 C250.4 -0.23 253.79 -0.23 257.17 -0.24 C260.84 -0.25 264.5 -0.25 268.17 -0.24 C269.25 -0.25 270.33 -0.25 271.44 -0.26 C272.9 -0.25 272.9 -0.25 274.4 -0.25 C275.67 -0.25 275.67 -0.25 276.96 -0.25 C279 0 279 0 281 2 C281.19 5 281.26 7.91 281.23 10.91 C281.23 11.79 281.23 12.68 281.23 13.58 C281.23 15.45 281.22 17.32 281.21 19.19 C281.19 22.05 281.19 24.92 281.19 27.79 C281.18 29.6 281.17 31.41 281.17 33.22 C281.17 34.09 281.17 34.95 281.16 35.84 C281.12 41.88 281.12 41.88 280 43 C278.51 43.1 277.02 43.13 275.53 43.13 C274.55 43.13 273.58 43.14 272.58 43.14 C271.5 43.14 270.42 43.14 269.3 43.13 C267.59 43.14 267.59 43.14 265.85 43.14 C262.68 43.15 259.5 43.15 256.33 43.15 C252.91 43.15 249.49 43.15 246.07 43.16 C239.37 43.16 232.66 43.17 225.96 43.17 C220.52 43.17 215.07 43.17 209.62 43.17 C194.2 43.18 178.78 43.19 163.35 43.19 C162.52 43.19 161.69 43.19 160.83 43.19 C160 43.19 159.17 43.19 158.31 43.19 C144.8 43.18 131.29 43.19 117.78 43.21 C103.92 43.22 90.06 43.23 76.21 43.23 C68.42 43.23 60.64 43.23 52.85 43.24 C46.22 43.25 39.59 43.25 32.97 43.25 C29.58 43.24 26.2 43.24 22.81 43.25 C19.15 43.26 15.49 43.25 11.83 43.25 C10.75 43.25 9.67 43.26 8.56 43.26 C7.09 43.26 7.09 43.26 5.6 43.25 C4.75 43.25 3.91 43.25 3.04 43.25 C1 43 1 43 -1 41 C-1.19 38.08 -1.26 35.26 -1.23 32.34 C-1.23 31.49 -1.23 30.63 -1.23 29.74 C-1.23 27.93 -1.22 26.11 -1.21 24.3 C-1.19 21.51 -1.19 18.73 -1.19 15.94 C-1.18 14.18 -1.17 12.42 -1.17 10.66 C-1.17 9.82 -1.17 8.98 -1.16 8.12 C-1.12 2.23 -1.12 2.23 0 0 Z " fill="#FB5859" transform="translate(653,198)"/>
<path d="M0 0 C36.34 -0.41 72.68 -0.73 109.02 -0.92 C113.32 -0.94 117.61 -0.96 121.91 -0.99 C123.19 -1 123.19 -1 124.5 -1 C138.32 -1.08 152.15 -1.22 165.98 -1.39 C180.17 -1.56 194.37 -1.66 208.56 -1.69 C217.32 -1.72 226.07 -1.8 234.83 -1.94 C240.84 -2.04 246.84 -2.07 252.86 -2.04 C256.32 -2.03 259.78 -2.05 263.24 -2.15 C283.49 -2.63 283.49 -2.63 289.35 1.76 C293.38 5.97 296.19 10.67 298.82 15.84 C300.55 19 302.7 21.53 305.06 24.25 C313 33.75 313 33.75 313 37 C273.41 37.05 233.83 37.08 194.24 37.1 C189.57 37.1 184.91 37.11 180.24 37.11 C179.31 37.11 178.38 37.11 177.42 37.11 C162.35 37.12 147.28 37.14 132.21 37.15 C116.76 37.17 101.31 37.18 85.86 37.19 C76.32 37.19 66.77 37.2 57.23 37.22 C50.7 37.23 44.16 37.23 37.63 37.23 C33.85 37.23 30.08 37.23 26.3 37.24 C22.22 37.25 18.13 37.25 14.05 37.24 C12.84 37.25 11.64 37.25 10.4 37.26 C8.77 37.25 8.77 37.25 7.1 37.25 C6.16 37.25 5.22 37.25 4.24 37.25 C2 37 2 37 0 35 C-0.18 32.35 -0.23 29.8 -0.2 27.15 C-0.19 26.37 -0.19 25.6 -0.19 24.8 C-0.18 22.33 -0.15 19.85 -0.12 17.38 C-0.11 15.7 -0.11 14.02 -0.1 12.34 C-0.08 8.23 -0.04 4.11 0 0 Z " fill="#EFF2F1" transform="translate(314,950)"/>
<path d="M0 0 C0.66 0.66 1.32 1.32 2 2 C4.42 2.2 6.73 2.26 9.15 2.25 C10.27 2.25 10.27 2.25 11.42 2.25 C13.95 2.26 16.49 2.25 19.02 2.24 C20.85 2.24 22.67 2.24 24.5 2.25 C29.53 2.25 34.57 2.24 39.6 2.23 C45.02 2.22 50.44 2.23 55.87 2.23 C65.27 2.23 74.67 2.22 84.07 2.21 C97.66 2.2 111.25 2.19 124.84 2.19 C146.89 2.18 168.94 2.17 190.99 2.15 C212.42 2.13 233.84 2.12 255.27 2.11 C257.25 2.11 257.25 2.11 259.27 2.11 C265.89 2.11 272.51 2.1 279.13 2.1 C334.09 2.08 389.04 2.04 444 2 C452.45 17.74 452.45 17.74 456 25 C398.49 25.09 340.97 25.16 283.46 25.2 C276.67 25.21 269.89 25.21 263.1 25.22 C262.43 25.22 261.75 25.22 261.06 25.22 C239.16 25.24 217.27 25.27 195.37 25.31 C172.24 25.34 149.11 25.37 125.98 25.38 C112.12 25.38 98.25 25.4 84.39 25.43 C74.9 25.45 65.4 25.46 55.91 25.45 C50.42 25.45 44.94 25.46 39.45 25.48 C34.43 25.5 29.42 25.5 24.4 25.48 C22.58 25.48 20.76 25.49 18.94 25.5 C16.48 25.52 14.02 25.51 11.55 25.49 C10.48 25.51 10.48 25.51 9.39 25.52 C6 25.48 4.27 25.21 1.56 23.12 C-0.34 20.53 -0.47 19.2 -0.39 16.02 C-0.38 15.08 -0.36 14.15 -0.35 13.18 C-0.32 12.22 -0.28 11.25 -0.25 10.25 C-0.23 9.27 -0.21 8.28 -0.2 7.27 C-0.15 4.85 -0.08 2.42 0 0 Z " fill="#47A6FD" transform="translate(122,890)"/>
<path d="M0 0 C0.66 0.66 1.32 1.32 2 2 C5.13 2.3 5.13 2.3 8.9 2.24 C9.98 2.25 9.98 2.25 11.08 2.25 C13.53 2.25 15.97 2.24 18.41 2.23 C20.17 2.23 21.93 2.23 23.69 2.24 C28.54 2.24 33.4 2.23 38.25 2.22 C43.48 2.21 48.71 2.21 53.94 2.21 C63 2.2 72.07 2.2 81.14 2.18 C94.27 2.16 107.4 2.15 120.53 2.15 C141.86 2.14 163.18 2.12 184.51 2.1 C185.78 2.09 187.06 2.09 188.38 2.09 C190.29 2.09 190.29 2.09 192.25 2.09 C210.35 2.07 228.44 2.05 246.54 2.03 C247.81 2.03 249.08 2.03 250.39 2.03 C271.62 2.01 292.84 2 314.07 1.99 C327.16 1.98 340.24 1.97 353.33 1.95 C362.31 1.94 371.29 1.93 380.28 1.93 C385.45 1.92 390.63 1.92 395.81 1.91 C400.56 1.9 405.31 1.9 410.06 1.89 C411.76 1.89 413.47 1.89 415.18 1.89 C426.16 1.86 437.05 2.23 448 3 C446.63 7.32 445.07 10.77 442.56 14.56 C439.97 18.47 439.97 18.47 437.83 22.63 C436 25 436 25 432.86 25.62 C431.55 25.62 430.24 25.62 428.9 25.62 C428.16 25.63 427.43 25.64 426.68 25.64 C424.21 25.66 421.74 25.64 419.27 25.62 C417.48 25.63 415.7 25.63 413.92 25.64 C409.01 25.66 404.1 25.64 399.19 25.62 C393.9 25.61 388.61 25.62 383.32 25.63 C372.95 25.65 362.58 25.63 352.21 25.61 C340.14 25.59 328.07 25.59 316 25.59 C294.48 25.6 272.95 25.58 251.42 25.54 C230.52 25.51 209.61 25.49 188.71 25.5 C165.96 25.51 143.22 25.51 120.48 25.49 C118.67 25.48 118.67 25.48 116.83 25.48 C114.42 25.48 112.01 25.48 109.59 25.48 C101.17 25.47 92.75 25.47 84.34 25.47 C74.08 25.47 63.83 25.46 53.57 25.44 C48.33 25.43 43.1 25.42 37.86 25.42 C33.07 25.43 28.29 25.42 23.5 25.4 C21.76 25.4 20.02 25.4 18.29 25.4 C15.93 25.41 13.58 25.4 11.23 25.38 C9.92 25.38 8.61 25.38 7.26 25.38 C3.82 24.98 2.39 24.46 0 22 C-0.45 19.64 -0.45 19.64 -0.39 16.89 C-0.37 15.42 -0.37 15.42 -0.35 13.92 C-0.32 12.89 -0.28 11.87 -0.25 10.81 C-0.23 9.78 -0.21 8.74 -0.2 7.67 C-0.15 5.11 -0.08 2.56 0 0 Z " fill="#47A6FD" transform="translate(122,590)"/>
<path d="M0 0 C0.85 0 1.7 0 2.58 0 C3.48 -0 4.38 -0 5.3 -0.01 C8.33 -0.02 11.37 -0.02 14.4 -0.02 C16.56 -0.02 18.73 -0.03 20.89 -0.03 C26.79 -0.05 32.69 -0.05 38.58 -0.06 C42.26 -0.06 45.94 -0.06 49.62 -0.07 C61.12 -0.08 72.61 -0.09 84.11 -0.1 C97.41 -0.1 110.7 -0.12 124 -0.15 C134.26 -0.17 144.53 -0.18 154.79 -0.18 C160.92 -0.18 167.06 -0.19 173.2 -0.2 C178.97 -0.22 184.74 -0.22 190.51 -0.21 C192.63 -0.21 194.75 -0.22 196.87 -0.23 C199.76 -0.24 202.65 -0.23 205.54 -0.22 C206.39 -0.23 207.24 -0.24 208.11 -0.25 C210.44 -0.23 210.44 -0.23 214.12 0.14 C215.11 1.63 215.11 1.63 216.12 3.14 C215.66 3.88 215.2 4.63 214.72 5.39 C210.66 11.95 206.67 18.55 202.75 25.21 C202.32 25.93 201.89 26.66 201.45 27.4 C201.04 28.09 200.64 28.78 200.22 29.49 C199.87 30.1 199.51 30.71 199.14 31.33 C198.07 33.24 197.1 35.19 196.12 37.14 C129.46 37.14 62.8 37.14 -5.88 37.14 C-7.41 34.09 -7.02 30.9 -7.01 27.55 C-7.01 26.42 -7.01 26.42 -7.01 25.27 C-7.01 23.69 -7.01 22.11 -7.01 20.52 C-7 18.09 -7.01 15.65 -7.01 13.22 C-7.01 11.68 -7.01 10.15 -7.01 8.61 C-7.01 7.88 -7.01 7.14 -7.02 6.39 C-6.99 -0.08 -6.4 0.03 0 0 Z " fill="#EFF2F1" transform="translate(320.8778423666954,649.8569324016571)"/>
<path d="M0 0 C1.43 -0 2.86 -0 4.29 -0 C7.27 -0.01 10.25 0.01 13.23 0.03 C17.04 0.06 20.85 0.06 24.66 0.04 C27.61 0.04 30.56 0.04 33.5 0.06 C34.91 0.06 36.31 0.06 37.72 0.06 C39.68 0.05 41.64 0.07 43.61 0.09 C44.72 0.1 45.84 0.1 46.98 0.11 C51.67 0.69 54.98 2.36 58.3 5.68 C61.35 10.42 63.51 14.88 63.05 20.62 C61.8 25.8 59.32 30.13 55.11 33.5 C51.16 35.41 47.95 35.75 43.58 35.77 C41.63 35.79 41.63 35.79 39.64 35.8 C38.22 35.8 36.81 35.8 35.4 35.8 C33.94 35.8 32.48 35.81 31.02 35.81 C27.97 35.82 24.92 35.82 21.87 35.81 C17.97 35.81 14.06 35.82 10.16 35.85 C7.15 35.86 4.14 35.86 1.13 35.86 C-0.31 35.86 -1.74 35.86 -3.18 35.87 C-5.2 35.89 -7.21 35.88 -9.23 35.87 C-10.94 35.87 -10.94 35.87 -12.69 35.87 C-18.99 35.13 -23.39 31.68 -27.89 27.5 C-29.73 21.96 -29.93 15.64 -28.09 10.07 C-25.56 5.46 -22.48 3.29 -17.7 1.3 C-11.92 -0.35 -5.96 -0.05 0 0 Z " fill="#000102" transform="translate(195.88671875,839.50390625)"/>
<path d="M0 0 C1.32 -0.01 2.64 -0.03 4 -0.04 C5.43 -0.04 6.87 -0.04 8.31 -0.05 C9.79 -0.05 11.27 -0.06 12.75 -0.07 C15.85 -0.08 18.95 -0.08 22.05 -0.08 C26.01 -0.08 29.97 -0.11 33.93 -0.14 C36.99 -0.16 40.05 -0.17 43.1 -0.17 C44.56 -0.17 46.02 -0.18 47.48 -0.19 C61.64 -0.33 61.64 -0.33 67.51 4.29 C71.68 9.01 73.4 14.55 73.05 20.79 C72.06 25.35 69.87 29.08 66.51 32.29 C59.72 36.26 52.62 35.76 44.96 35.76 C43.53 35.77 42.11 35.77 40.69 35.78 C37.71 35.8 34.73 35.8 31.76 35.79 C27.97 35.79 24.18 35.82 20.39 35.86 C17.45 35.88 14.51 35.89 11.57 35.88 C10.18 35.88 8.78 35.89 7.39 35.91 C-1.33 36.01 -8.18 35.34 -15.49 30.29 C-19.32 26.23 -19.62 20.69 -19.49 15.29 C-18.68 10.72 -17.07 7.47 -13.56 4.42 C-8.72 1.06 -5.96 0.04 0 0 Z " fill="#000102" transform="translate(410.493408203125,839.70947265625)"/>
<path d="M0 0 C1.48 -0 2.95 -0.01 4.43 -0.01 C7.51 -0.02 10.59 -0.01 13.67 0.01 C17.61 0.03 21.55 0.02 25.49 -0 C28.53 -0.02 31.58 -0.01 34.62 -0 C36.07 -0 37.52 -0 38.98 -0.01 C41.01 -0.02 43.04 -0.01 45.07 0.01 C46.22 0.02 47.37 0.02 48.56 0.02 C53.17 0.75 56.32 2.92 59.42 6.36 C62.48 11.25 64.27 15.68 63.77 21.53 C62.23 27.15 59.26 30.47 54.46 33.62 C50.81 35.59 47.74 35.67 43.67 35.69 C42.41 35.7 41.15 35.71 39.86 35.72 C38.48 35.73 37.1 35.73 35.73 35.73 C34.31 35.74 32.9 35.75 31.49 35.75 C28.52 35.76 25.55 35.77 22.59 35.77 C18.8 35.78 15.01 35.8 11.23 35.83 C8.3 35.85 5.38 35.85 2.46 35.85 C1.07 35.86 -0.33 35.87 -1.73 35.88 C-11.67 35.97 -18.7 35.63 -26.23 28.53 C-29.31 23.61 -28.91 18.12 -28.23 12.53 C-26.28 6.91 -23.26 4.01 -17.88 1.4 C-12.15 -0.47 -5.98 -0.04 0 0 Z " fill="#000102" transform="translate(195.2265625,162.46875)"/>
<path d="M0 0 C0.97 -0.01 0.97 -0.01 1.95 -0.02 C4.08 -0.03 6.2 -0.04 8.33 -0.04 C9.81 -0.05 11.29 -0.05 12.77 -0.06 C15.88 -0.07 18.98 -0.08 22.09 -0.08 C26.06 -0.08 30.03 -0.11 34 -0.14 C37.06 -0.16 40.12 -0.16 43.18 -0.16 C44.64 -0.17 46.11 -0.17 47.57 -0.19 C49.62 -0.2 51.67 -0.2 53.72 -0.2 C54.89 -0.2 56.05 -0.2 57.25 -0.21 C61.7 0.3 65.2 1.64 68.14 5.1 C68.52 5.78 68.91 6.46 69.3 7.16 C69.7 7.84 70.1 8.52 70.51 9.22 C72.65 13.45 73.11 17.5 72.49 22.16 C70.71 26.97 67.79 30.4 63.49 33.16 C59.27 34.82 55.75 35.42 51.23 35.44 C49.4 35.45 49.4 35.45 47.54 35.46 C46.23 35.46 44.93 35.46 43.59 35.46 C42.22 35.47 40.86 35.47 39.49 35.47 C36.64 35.48 33.79 35.48 30.93 35.48 C27.29 35.47 23.65 35.49 20.01 35.51 C17.19 35.53 14.37 35.53 11.56 35.52 C9.57 35.52 7.57 35.54 5.58 35.55 C-4.18 35.5 -10.42 34.08 -17.51 27.16 C-20.12 22.88 -20.17 18.03 -19.51 13.16 C-17.79 7.88 -15.29 4.15 -10.51 1.16 C-7.02 -0.01 -3.66 0.02 0 0 Z " fill="#000102" transform="translate(298.50927734375,763.8388671875)"/>
<path d="M0 0 C1.36 -0 2.72 -0.01 4.08 -0.01 C6.93 -0.02 9.77 -0.02 12.61 -0.01 C16.24 -0.01 19.86 -0.03 23.49 -0.05 C26.3 -0.06 29.11 -0.06 31.91 -0.06 C33.89 -0.06 35.87 -0.08 37.86 -0.09 C44.62 -0.06 49.93 0.28 56.04 3.3 C57.88 5.24 57.88 5.24 58.97 7.3 C59.35 7.98 59.73 8.66 60.12 9.36 C62.5 14.41 63.23 19.97 61.32 25.3 C58.66 30.26 55.37 33.52 50.04 35.3 C47.93 35.42 45.81 35.48 43.7 35.51 C42.39 35.53 41.09 35.55 39.74 35.57 C38.3 35.58 36.87 35.6 35.44 35.61 C34.35 35.62 34.35 35.62 33.24 35.63 C29.41 35.66 25.57 35.69 21.73 35.71 C18.57 35.72 15.41 35.76 12.25 35.81 C8.42 35.87 4.59 35.9 0.76 35.91 C-0.69 35.92 -2.14 35.94 -3.59 35.97 C-12.57 36.14 -19.98 35.56 -26.96 29.3 C-30.14 24.55 -30.37 19.96 -29.47 14.41 C-28.13 8.82 -25.8 5.38 -20.96 2.3 C-14.14 -0.36 -7.24 -0.01 0 0 Z " fill="#000102" transform="translate(420.96484375,238.69921875)"/>
<path d="M0 0 C1.3 -0.01 2.6 -0.02 3.94 -0.03 C5.37 -0.03 6.79 -0.04 8.22 -0.04 C9.68 -0.05 11.14 -0.05 12.6 -0.06 C15.66 -0.07 18.73 -0.08 21.79 -0.08 C25.71 -0.08 29.63 -0.11 33.54 -0.14 C36.56 -0.16 39.58 -0.16 42.6 -0.16 C44.04 -0.17 45.49 -0.17 46.93 -0.19 C48.95 -0.2 50.98 -0.2 53 -0.2 C54.15 -0.2 55.3 -0.2 56.49 -0.21 C60.92 0.3 64.42 1.66 67.34 5.1 C67.73 5.78 68.11 6.46 68.51 7.16 C68.91 7.84 69.31 8.52 69.72 9.22 C71.86 13.45 72.31 17.5 71.7 22.16 C69.59 27.85 65.85 31.65 60.42 34.25 C57.3 35.29 54.77 35.42 51.47 35.44 C50.24 35.45 49 35.45 47.73 35.46 C46.39 35.46 45.05 35.46 43.71 35.46 C42.32 35.47 40.94 35.47 39.55 35.47 C36.65 35.48 33.74 35.48 30.84 35.48 C27.14 35.47 23.44 35.49 19.74 35.51 C16.87 35.53 14.01 35.53 11.15 35.52 C9.78 35.52 8.42 35.53 7.06 35.54 C-9.19 35.65 -9.19 35.65 -16.18 29.72 C-20.02 25.09 -20.76 21.7 -20.61 15.76 C-20.12 11.64 -18.89 8.42 -16.3 5.16 C-11.26 1.2 -6.29 0.04 0 0 Z " fill="#000102" transform="translate(299.303955078125,162.8388671875)"/>
<path d="M0 0 C1.92 -0.01 1.92 -0.01 3.88 -0.03 C5.27 -0.03 6.66 -0.03 8.04 -0.03 C9.48 -0.03 10.91 -0.03 12.34 -0.04 C15.34 -0.05 18.34 -0.05 21.34 -0.04 C25.17 -0.04 29.01 -0.05 32.84 -0.08 C35.8 -0.09 38.76 -0.09 41.72 -0.09 C43.13 -0.09 44.55 -0.09 45.96 -0.1 C47.94 -0.12 49.92 -0.11 51.89 -0.1 C53.58 -0.1 53.58 -0.1 55.3 -0.1 C59.78 0.43 63.17 1.95 66.31 5.21 C66.79 5.89 67.27 6.57 67.76 7.27 C68.5 8.3 68.5 8.3 69.25 9.34 C71.77 13.41 72.06 17.61 71.45 22.27 C69.51 27.67 66.01 30.97 61.45 34.27 C58.18 35.36 55.73 35.43 52.3 35.47 C51.03 35.48 49.76 35.5 48.45 35.52 C47.06 35.53 45.68 35.54 44.29 35.55 C43.23 35.56 43.23 35.56 42.16 35.56 C38.44 35.59 34.72 35.61 31 35.62 C27.94 35.64 24.87 35.67 21.81 35.71 C18.1 35.76 14.38 35.78 10.67 35.79 C9.26 35.79 7.86 35.81 6.45 35.83 C-2.14 35.97 -9.48 35.6 -16.55 30.27 C-20.28 25.94 -20.85 22.17 -20.77 16.62 C-20.31 11.68 -18.34 8.23 -15.24 4.46 C-10.54 0.64 -5.93 0.02 0 0 Z " fill="#000102" transform="translate(299.552734375,839.725341796875)"/>
<path d="M0 0 C1.86 -0.01 1.86 -0.01 3.75 -0.03 C5.09 -0.03 6.43 -0.03 7.77 -0.03 C9.15 -0.03 10.54 -0.03 11.93 -0.04 C14.83 -0.05 17.73 -0.05 20.63 -0.04 C24.33 -0.04 28.04 -0.05 31.74 -0.08 C34.6 -0.09 37.47 -0.09 40.33 -0.09 C41.69 -0.09 43.06 -0.09 44.42 -0.1 C57.77 -0.19 57.77 -0.19 63.65 3.27 C67.77 7.51 70.77 12.28 71.02 18.27 C70.79 23.06 69.43 26.52 65.96 29.94 C61.26 34.06 58.79 35.4 52.43 35.48 C51.12 35.5 49.81 35.52 48.46 35.54 C47.02 35.56 45.58 35.57 44.15 35.58 C43.06 35.59 43.06 35.59 41.95 35.6 C38.11 35.64 34.26 35.66 30.42 35.68 C27.25 35.7 24.08 35.73 20.92 35.78 C17.08 35.84 13.25 35.87 9.41 35.88 C7.96 35.89 6.51 35.91 5.05 35.94 C-4.07 36.11 -11.13 35.37 -18.35 29.27 C-21.61 25.06 -21.88 20.92 -21.7 15.74 C-20.99 10.71 -18.62 7.5 -14.98 3.96 C-10.16 0.86 -5.68 0.02 0 0 Z " fill="#000102" transform="translate(300.353271484375,462.725341796875)"/>
<path d="M0 0 C1.34 0 2.68 -0 4.01 -0 C6.8 -0 9.59 0.01 12.38 0.03 C15.94 0.05 19.5 0.05 23.05 0.04 C25.81 0.04 28.57 0.05 31.33 0.06 C33.27 0.06 35.22 0.06 37.16 0.06 C51.84 0.18 51.84 0.18 56.77 5.11 C60.79 10.91 63.06 15.29 62.02 22.36 C60.08 27.58 56.99 31.47 52.27 34.48 C49.29 35.65 46.76 35.64 43.56 35.67 C42.25 35.69 40.94 35.7 39.59 35.72 C38.15 35.72 36.72 35.73 35.29 35.73 C33.82 35.74 32.34 35.75 30.87 35.76 C27.78 35.78 24.68 35.79 21.59 35.79 C17.65 35.79 13.71 35.83 9.76 35.88 C6.71 35.91 3.67 35.91 0.62 35.92 C-0.83 35.92 -2.29 35.93 -3.74 35.95 C-12.01 36.06 -19.38 35.98 -25.98 30.36 C-29.62 26.04 -30.32 22.3 -30.27 16.78 C-29.63 11.42 -26.95 6.94 -22.98 3.36 C-15.8 -0.43 -7.9 -0.06 0 0 Z " fill="#000102" transform="translate(308.9765625,238.63671875)"/>
<path d="M0 0 C1.22 -0.01 2.43 -0.02 3.68 -0.03 C5.63 -0.03 5.63 -0.03 7.62 -0.03 C8.98 -0.03 10.35 -0.03 11.71 -0.04 C14.56 -0.05 17.41 -0.05 20.26 -0.04 C23.89 -0.04 27.52 -0.05 31.16 -0.08 C33.97 -0.09 36.78 -0.09 39.59 -0.09 C41.58 -0.09 43.56 -0.1 45.55 -0.12 C60.31 -0.04 60.31 -0.04 65.81 5.26 C69.38 10.96 71.64 15.44 70.38 22.34 C68.7 27.88 65.43 31.02 60.75 34.27 C57.94 35.68 55.57 35.44 52.43 35.48 C51.78 35.49 51.13 35.5 50.46 35.51 C48.31 35.54 46.15 35.56 44 35.58 C43.26 35.59 42.53 35.6 41.77 35.6 C37.86 35.64 33.95 35.66 30.05 35.68 C26.82 35.7 23.6 35.73 20.38 35.78 C16.48 35.84 12.58 35.87 8.68 35.88 C7.2 35.89 5.72 35.91 4.24 35.94 C-4.71 36.11 -11.42 35.62 -18.25 29.27 C-21.33 26.01 -21.46 23.18 -21.62 18.84 C-21.42 12.49 -20.02 9.01 -15.43 4.52 C-10.44 1 -6.05 0.03 0 0 Z " fill="#000102" transform="translate(188.24560546875,238.725341796875)"/>
<path d="M0 0 C1.46 -0 2.91 -0 4.37 -0.01 C7.41 -0.01 10.45 -0.01 13.49 0.01 C17.37 0.02 21.26 0.01 25.14 -0 C28.15 -0.01 31.15 -0.01 34.15 -0 C35.58 -0 37.01 -0 38.45 -0.01 C40.45 -0.02 42.46 -0 44.46 0.01 C45.6 0.01 46.74 0.02 47.91 0.02 C52.24 0.54 55.69 1.94 58.73 5.12 C59.12 5.71 59.51 6.29 59.9 6.9 C60.3 7.49 60.7 8.07 61.11 8.68 C63.75 13.3 63.66 18.24 63.09 23.4 C60.71 28.25 56.57 33.19 51.29 35.03 C48.49 35.5 45.8 35.54 42.96 35.56 C41.11 35.57 41.11 35.57 39.21 35.59 C37.86 35.59 36.51 35.6 35.16 35.6 C33.77 35.61 32.38 35.61 30.99 35.62 C28.08 35.63 25.17 35.64 22.26 35.64 C18.54 35.64 14.82 35.67 11.1 35.7 C8.23 35.72 5.36 35.72 2.49 35.72 C1.12 35.73 -0.25 35.73 -1.62 35.75 C-10.26 35.82 -17.29 35.77 -24.22 30.09 C-27.88 26.43 -28.81 23.96 -29.01 18.82 C-28.81 12.95 -27.82 9.2 -23.87 4.84 C-16.47 -0.59 -8.86 -0.04 0 0 Z " fill="#000102" transform="translate(419.91015625,162.6015625)"/>
<path d="M0 0 C0.65 -0 1.29 -0.01 1.96 -0.02 C4.09 -0.03 6.22 -0.04 8.35 -0.04 C9.83 -0.05 11.31 -0.05 12.8 -0.06 C15.91 -0.07 19.02 -0.08 22.13 -0.08 C26.11 -0.08 30.09 -0.11 34.06 -0.14 C37.13 -0.16 40.19 -0.16 43.26 -0.16 C44.73 -0.17 46.19 -0.17 47.66 -0.19 C49.71 -0.2 51.77 -0.2 53.82 -0.2 C54.99 -0.2 56.15 -0.2 57.36 -0.21 C61.93 0.33 64.48 2.11 67.6 5.41 C71.15 10.61 73.19 14.92 72.04 21.18 C70.58 26.28 68.55 29.81 63.91 32.54 C59.51 34.62 56.45 35.3 51.63 35.37 C49.83 35.4 49.83 35.4 47.99 35.43 C42.47 35.49 36.94 35.54 31.42 35.57 C28.51 35.58 25.61 35.62 22.7 35.67 C19.18 35.73 15.66 35.76 12.13 35.77 C10.16 35.78 8.18 35.82 6.21 35.87 C-2.4 35.85 -9.48 34.38 -16.53 29.16 C-20.44 23.69 -20.16 18.68 -19.53 12.16 C-17.79 6.87 -14.95 4.32 -10.53 1.16 C-7.06 -0.06 -3.65 0.02 0 0 Z " fill="#000102" transform="translate(186.525146484375,763.8388671875)"/>
<path d="M0 0 C0.64 -0 1.29 -0.01 1.95 -0.02 C4.08 -0.03 6.21 -0.04 8.34 -0.04 C9.83 -0.05 11.31 -0.05 12.79 -0.06 C15.9 -0.07 19.02 -0.08 22.13 -0.08 C26.1 -0.08 30.08 -0.11 34.06 -0.14 C37.13 -0.16 40.19 -0.16 43.26 -0.16 C44.72 -0.17 46.19 -0.17 47.65 -0.19 C49.71 -0.2 51.76 -0.2 53.82 -0.2 C54.99 -0.2 56.16 -0.2 57.36 -0.21 C61.73 0.29 65.18 1.67 68.25 4.88 C68.63 5.47 69.02 6.06 69.42 6.66 C69.82 7.25 70.21 7.84 70.62 8.44 C73.12 12.81 73.19 17.28 72.6 22.16 C70.56 27.86 66.74 31.66 61.33 34.25 C58.22 35.29 55.69 35.44 52.41 35.47 C51.18 35.48 49.95 35.5 48.69 35.52 C47.35 35.52 46.02 35.53 44.69 35.53 C43.3 35.54 41.92 35.55 40.54 35.56 C37.65 35.58 34.75 35.58 31.86 35.59 C28.18 35.59 24.49 35.63 20.81 35.68 C17.95 35.71 15.1 35.71 12.25 35.71 C10.24 35.72 8.22 35.75 6.21 35.78 C-2.42 35.74 -9.45 34.53 -16.09 28.67 C-18.82 25.52 -19.32 21.82 -19.77 17.79 C-19.15 11.8 -16.91 7.18 -12.33 3.22 C-8.06 0.22 -5.11 0.03 0 0 Z " fill="#000102" transform="translate(410.395751953125,763.8388671875)"/>
<path d="M0 0 C1.36 -0 2.72 -0 4.09 -0.01 C6.93 -0.01 9.77 -0.01 12.61 0.01 C16.24 0.02 19.86 0.01 23.49 -0 C26.3 -0.01 29.11 -0.01 31.91 -0 C33.9 -0 35.88 -0.01 37.86 -0.02 C44.27 0.03 49.31 0.12 54.9 3.4 C57.15 5.77 57.15 5.77 58.9 8.4 C59.77 9.48 59.77 9.48 60.65 10.59 C62.77 15.35 62.92 20.52 61.18 25.46 C58.56 30.39 55.18 33.64 49.9 35.4 C47.82 35.51 45.74 35.57 43.66 35.59 C41.73 35.62 41.73 35.62 39.76 35.64 C38.35 35.65 36.93 35.66 35.52 35.67 C34.81 35.68 34.1 35.68 33.36 35.69 C29.58 35.71 25.81 35.73 22.03 35.75 C18.91 35.76 15.8 35.79 12.69 35.83 C8.92 35.88 5.15 35.9 1.38 35.91 C-0.05 35.92 -1.48 35.93 -2.91 35.96 C-11.74 36.1 -18.71 35.55 -26.1 30.4 C-29.91 26.35 -30.23 20.79 -30.1 15.4 C-28.55 10.15 -26.37 6.82 -22.1 3.4 C-14.82 -0.17 -8 -0.04 0 0 Z " fill="#000102" transform="translate(421.09765625,462.6015625)"/>
<path d="M0 0 C1.82 -0.01 1.82 -0.01 3.68 -0.03 C4.99 -0.03 6.3 -0.04 7.65 -0.04 C8.32 -0.04 8.99 -0.05 9.68 -0.05 C13.23 -0.07 16.78 -0.07 20.33 -0.08 C23.98 -0.08 27.63 -0.11 31.28 -0.14 C34.1 -0.16 36.92 -0.16 39.74 -0.16 C41.74 -0.17 43.73 -0.19 45.72 -0.2 C60.46 -0.17 60.46 -0.17 66.04 5.11 C69.32 10.3 71.64 14.9 70.98 21.16 C69.24 27.1 65.96 30.66 60.98 34.16 C57.69 35.26 55.19 35.31 51.73 35.35 C49.79 35.38 49.79 35.38 47.81 35.4 C46.4 35.41 44.98 35.42 43.57 35.43 C42.85 35.44 42.14 35.45 41.4 35.45 C37.62 35.48 33.84 35.5 30.05 35.51 C26.93 35.52 23.81 35.55 20.69 35.59 C16.92 35.64 13.14 35.67 9.36 35.67 C7.93 35.68 6.5 35.7 5.06 35.72 C-4.5 35.87 -11.39 35.14 -18.69 28.68 C-21.93 24.97 -21.47 19.9 -21.43 15.25 C-20.78 10.38 -18.53 7.47 -15.02 4.16 C-10.15 0.57 -5.96 0.04 0 0 Z " fill="#000102" transform="translate(188.0185546875,462.8388671875)"/>
<path d="M0 0 C1.14 -0 2.28 -0.01 3.46 -0.01 C5.87 -0.02 8.29 -0.02 10.7 -0.02 C14.36 -0.02 18.03 -0.04 21.69 -0.06 C24.05 -0.06 26.4 -0.06 28.75 -0.06 C29.83 -0.07 30.92 -0.08 32.03 -0.08 C49.16 -0.03 49.16 -0.03 55.14 4.29 C59.61 10.52 62.2 15.38 61.21 23.17 C59.1 28.7 55.49 32.53 50.21 35.17 C48.06 35.28 45.91 35.33 43.76 35.34 C43.1 35.35 42.43 35.36 41.75 35.36 C39.56 35.38 37.36 35.4 35.16 35.41 C34.41 35.41 33.66 35.41 32.89 35.42 C28.91 35.44 24.94 35.45 20.96 35.46 C16.86 35.47 12.77 35.51 8.67 35.55 C5.51 35.57 2.35 35.58 -0.81 35.59 C-2.32 35.59 -3.83 35.6 -5.34 35.62 C-14.79 35.73 -20.76 35.41 -28.17 29.17 C-31.16 25.48 -31.13 21.15 -31.08 16.55 C-30.5 11.69 -28.35 7.68 -24.86 4.29 C-16.85 -0.07 -8.91 0.01 0 0 Z " fill="#000102" transform="translate(309.79296875,538.83203125)"/>
<path d="M0 0 C1.17 -0 2.33 -0.01 3.53 -0.01 C6 -0.02 8.46 -0.02 10.93 -0.02 C14.68 -0.02 18.42 -0.04 22.17 -0.06 C24.57 -0.06 26.97 -0.06 29.38 -0.06 C30.49 -0.07 31.6 -0.08 32.74 -0.08 C40.66 -0.06 48.92 0.11 55.95 4.17 C60.07 9.41 62.38 15.48 61.95 22.17 C59.92 28.04 56.06 31.76 50.95 35.17 C48.03 35.44 48.03 35.44 44.42 35.47 C43.76 35.48 43.1 35.49 42.42 35.5 C40.24 35.52 38.06 35.53 35.88 35.54 C34.36 35.55 32.84 35.56 31.32 35.57 C28.13 35.58 24.93 35.59 21.74 35.59 C17.67 35.6 13.6 35.64 9.53 35.68 C6.38 35.71 3.24 35.72 0.09 35.72 C-1.41 35.72 -2.91 35.74 -4.41 35.76 C-12.87 35.87 -20.23 35.79 -27.05 30.17 C-30.97 25.18 -30.72 19.26 -30.05 13.17 C-28.19 8.07 -25.58 4.43 -20.67 1.98 C-13.85 -0.13 -7.08 0.01 0 0 Z " fill="#000102" transform="translate(197.046875,538.83203125)"/>
<path d="M0 0 C1.14 -0 2.28 -0.01 3.46 -0.01 C5.86 -0.02 8.27 -0.02 10.68 -0.02 C14.33 -0.02 17.99 -0.04 21.64 -0.06 C23.99 -0.06 26.34 -0.06 28.69 -0.06 C29.77 -0.07 30.85 -0.08 31.96 -0.08 C49.15 -0.03 49.15 -0.03 55.05 4.36 C59.21 10.03 61.85 13.81 61.5 20.96 C60.63 25.9 58.2 29.19 54.48 32.54 C50.61 35.19 48.39 35.31 43.69 35.38 C43.03 35.39 42.37 35.4 41.69 35.41 C39.51 35.44 37.32 35.46 35.14 35.48 C34.01 35.49 34.01 35.49 32.87 35.5 C28.9 35.53 24.94 35.55 20.97 35.57 C17.7 35.59 14.43 35.63 11.16 35.68 C7.2 35.74 3.24 35.77 -0.71 35.78 C-2.22 35.78 -3.72 35.8 -5.22 35.83 C-13.25 35.98 -19.67 35.86 -26.27 30.78 C-29.6 27.47 -30.82 24.38 -30.97 19.71 C-30.61 13.2 -28.63 9.37 -24.39 4.42 C-17.73 -1.13 -8.16 0.01 0 0 Z " fill="#000102" transform="translate(421.890625,538.83203125)"/>
<path d="M0 0 C26.17 -0.02 52.35 -0.04 78.52 -0.05 C90.67 -0.06 102.82 -0.06 114.97 -0.08 C125.56 -0.09 136.15 -0.09 146.74 -0.09 C152.35 -0.1 157.95 -0.1 163.56 -0.11 C168.84 -0.11 174.11 -0.11 179.39 -0.11 C181.33 -0.11 183.27 -0.12 185.21 -0.12 C187.85 -0.12 190.49 -0.12 193.13 -0.12 C194.29 -0.12 194.29 -0.12 195.48 -0.13 C200.77 -0.11 200.77 -0.11 203 1 C203 1.66 203 2.32 203 3 C136.34 3 69.68 3 1 3 C0.67 2.01 0.34 1.02 0 0 Z " fill="#EFF2F1" transform="translate(314,684)"/>
<path d="M0 0 C-0.33 1.32 -0.66 2.64 -1 4 C-1.99 3.5 -1.99 3.5 -3 3 C-5.62 2.89 -8.21 2.85 -10.83 2.84 C-11.65 2.84 -12.47 2.83 -13.31 2.83 C-16.07 2.81 -18.83 2.8 -21.59 2.79 C-23.56 2.79 -25.53 2.78 -27.5 2.76 C-32.86 2.74 -38.23 2.72 -43.59 2.7 C-49.19 2.67 -54.79 2.65 -60.39 2.62 C-71 2.57 -81.61 2.53 -92.22 2.48 C-104.3 2.43 -116.37 2.38 -128.45 2.32 C-153.3 2.21 -178.15 2.1 -203 2 C-203 1.67 -203 1.34 -203 1 C-176.83 0.87 -150.65 0.74 -124.48 0.61 C-112.33 0.55 -100.18 0.49 -88.03 0.43 C-77.44 0.37 -66.85 0.32 -56.26 0.27 C-50.65 0.24 -45.05 0.21 -39.44 0.19 C-34.16 0.16 -28.89 0.13 -23.61 0.11 C-21.67 0.1 -19.73 0.09 -17.79 0.08 C-15.15 0.06 -12.51 0.05 -9.87 0.04 C-8.71 0.03 -8.71 0.03 -7.52 0.03 C-2.23 0 -2.23 0 0 0 Z " fill="#B4B7B8" transform="translate(518,682)"/>
</svg>
