<svg width="122" height="151" viewBox="0 0 122 151" fill="none" xmlns="http://www.w3.org/2000/svg">
<g clip-path="url(#clip0_15_4716)" filter="url(#filter0_d_15_4716)">
<rect width="118" height="150" fill="#DCC7FF"/>
<g filter="url(#filter1_d_15_4716)">
<g clip-path="url(#clip1_15_4716)">
<rect x="12.5012" y="87.0788" width="66" height="66" rx="33" transform="rotate(-60 12.5012 87.0788)" fill="url(#paint0_linear_15_4716)"/>
<g filter="url(#filter2_f_15_4716)">
<path opacity="0.7" d="M3.06882 120.246L4.98713 115.155C8.14728 106.768 12.4577 98.8609 17.7946 91.6605L20.1969 88.4194C23.94 83.3693 26.9632 77.8235 29.1796 71.9411V71.9411C31.396 66.0587 34.4192 60.5129 38.1623 55.4628L42.9669 48.9806C46.71 43.9305 49.7332 38.3847 51.9496 32.5023V32.5023C54.166 26.6199 57.1892 21.0741 60.9323 16.024L68.1391 6.30073C70.2885 3.40089 72.0244 0.216417 73.2971 -3.16132V-3.16132C76.4573 -11.5483 80.7677 -19.4555 86.1046 -26.6559L88.5069 -29.897C92.25 -34.9471 95.2732 -40.4929 97.4896 -46.3753C99.706 -52.2577 102.729 -57.8035 106.472 -62.8536L111.277 -69.3358C115.02 -74.3859 118.043 -79.9317 120.26 -85.8141C122.476 -91.6965 125.499 -97.2423 129.242 -102.292L139.689 -116.387" stroke="#5D2FE4" stroke-width="0.88"/>
<path opacity="0.7" d="M6.87932 122.446L8.79763 117.355C11.9578 108.968 16.2682 101.061 21.6051 93.8605L24.0074 90.6194C27.7505 85.5693 30.7737 80.0235 32.9901 74.1411V74.1411C35.2065 68.2587 38.2297 62.7129 41.9728 57.6627L46.7774 51.1806C50.5205 46.1305 53.5437 40.5846 55.7601 34.7023V34.7023C57.9765 28.8199 60.9997 23.2741 64.7428 18.2239L71.9496 8.50072C74.099 5.60087 75.8349 2.4164 77.1076 -0.961336V-0.961336C80.2678 -9.34836 84.5782 -17.2555 89.9151 -24.4559L92.3174 -27.697C96.0605 -32.7471 99.0837 -38.293 101.3 -44.1753C103.517 -50.0577 106.54 -55.6035 110.283 -60.6537L115.087 -67.1358C118.831 -72.1859 121.854 -77.7318 124.07 -83.6141C126.287 -89.4965 129.31 -95.0423 133.053 -100.092L143.499 -114.187" stroke="#120827" stroke-width="1.76"/>
<path opacity="0.7" d="M28.7898 135.096L30.7081 130.005C33.8682 121.618 38.1786 113.711 43.5155 106.51L45.9178 103.269C49.661 98.2193 52.6841 92.6735 54.9005 86.7911V86.7911C57.117 80.9087 60.1401 75.3629 63.8833 70.3128L68.6878 63.8306C72.431 58.7805 75.4541 53.2347 77.6705 47.3523V47.3523C79.887 41.4699 82.9101 35.9241 86.6533 30.874L93.8601 21.1507C96.0094 18.2509 97.7454 15.0664 99.0181 11.6887V11.6887C102.178 3.30166 106.489 -4.60549 111.826 -11.8059L114.228 -15.047C117.971 -20.0971 120.994 -25.6429 123.211 -31.5253C125.427 -37.4077 128.45 -42.9535 132.193 -48.0036L136.998 -54.4858C140.741 -59.5359 143.764 -65.0817 145.981 -70.9641C148.197 -76.8465 151.22 -82.3923 154.963 -87.4424L165.41 -101.537" stroke="#B098E4" stroke-width="3.52"/>
<path opacity="0.7" d="M20.8829 130.531L22.8013 125.44C25.9614 117.053 30.2718 109.146 35.6087 101.945L38.011 98.7044C41.7541 93.6543 44.7773 88.1085 46.9937 82.2261V82.2261C49.2101 76.3437 52.2333 70.7979 55.9764 65.7478L60.781 59.2656C64.5241 54.2155 67.5473 48.6697 69.7637 42.7873V42.7873C71.9801 36.9049 75.0033 31.3591 78.7464 26.309L85.9533 16.5857C88.1026 13.6859 89.8386 10.5014 91.1113 7.12369V7.12369C94.2714 -1.26334 98.5818 -9.17049 103.919 -16.3709L106.321 -19.612C110.064 -24.6621 113.087 -30.2079 115.304 -36.0903C117.52 -41.9727 120.543 -47.5185 124.286 -52.5686L129.091 -59.0508C132.834 -64.1009 135.857 -69.6467 138.074 -75.5291C140.29 -81.4115 143.313 -86.9573 147.056 -92.0074L157.503 -106.102" stroke="#331E6F" stroke-width="4.62"/>
<path opacity="0.7" d="M44.9844 144.446L46.9028 139.355C50.0629 130.968 54.3733 123.061 59.7102 115.86L62.1125 112.619C65.8556 107.569 68.8788 102.023 71.0952 96.1411V96.1411C73.3116 90.2587 76.3348 84.7129 80.0779 79.6627L84.8825 73.1806C88.6256 68.1305 91.6488 62.5846 93.8652 56.7023V56.7023C96.0816 50.8199 99.1048 45.2741 102.848 40.2239L110.055 30.5007C112.204 27.6009 113.94 24.4164 115.213 21.0387V21.0387C118.373 12.6516 122.683 4.74448 128.02 -2.45593L130.422 -5.697C134.166 -10.7471 137.189 -16.293 139.405 -22.1753C141.622 -28.0577 144.645 -33.6035 148.388 -38.6537L153.192 -45.1358C156.936 -50.1859 159.959 -55.7318 162.175 -61.6141C164.392 -67.4965 167.415 -73.0423 171.158 -78.0925L181.604 -92.1866" stroke="#6C44DD" stroke-width="0.88"/>
<path opacity="0.7" d="M49.7476 147.196L51.6659 142.105C54.826 133.718 59.1364 125.811 64.4734 118.61L66.8756 115.369C70.6188 110.319 73.6419 104.773 75.8584 98.8911V98.8911C78.0748 93.0087 81.0979 87.4629 84.8411 82.4127L89.6456 75.9306C93.3888 70.8805 96.4119 65.3346 98.6284 59.4523V59.4523C100.845 53.5699 103.868 48.0241 107.611 42.9739L114.818 33.2507C116.967 30.3509 118.703 27.1664 119.976 23.7887V23.7887C123.136 15.4016 127.446 7.49448 132.783 0.294072L135.186 -2.947C138.929 -7.99713 141.952 -13.543 144.168 -19.4253C146.385 -25.3077 149.408 -30.8535 153.151 -35.9037L157.956 -42.3858C161.699 -47.4359 164.722 -52.9818 166.938 -58.8641C169.155 -64.7465 172.178 -70.2923 175.921 -75.3425L186.368 -89.4366" stroke="#180F37" stroke-width="1.76"/>
<path opacity="0.7" d="M41.1739 142.246L43.0922 137.155C46.2524 128.768 50.5628 120.861 55.8997 113.66L58.302 110.419C62.0451 105.369 65.0683 99.8235 67.2847 93.9411V93.9411C69.5011 88.0587 72.5243 82.5129 76.2674 77.4628L81.072 70.9806C84.8151 65.9305 87.8383 60.3847 90.0547 54.5023V54.5023C92.2711 48.6199 95.2943 43.0741 99.0374 38.024L106.244 28.3007C108.394 25.4009 110.13 22.2164 111.402 18.8387V18.8387C114.562 10.4517 118.873 2.5445 124.21 -4.65591L126.612 -7.89698C130.355 -12.9471 133.378 -18.4929 135.595 -24.3753C137.811 -30.2577 140.834 -35.8035 144.577 -40.8536L149.382 -47.3358C153.125 -52.3859 156.148 -57.9317 158.365 -63.8141C160.581 -69.6965 163.604 -75.2423 167.347 -80.2924L177.794 -94.3865" stroke="#401F9E" stroke-width="1.76"/>
</g>
<g filter="url(#filter3_f_15_4716)">
<path d="M16.49 55.8254C28.1474 94.0798 77.9882 103.47 102.767 72.0798L110.711 62.0154L43.8413 153.235L16.49 55.8254Z" fill="url(#paint1_linear_15_4716)" fill-opacity="0.4"/>
</g>
<g opacity="0.2" filter="url(#filter4_f_15_4716)">
<path d="M99.1287 92.9304C89.8576 54.0287 40.6924 41.5766 14.0216 71.3753L5.47029 80.9295L77.8495 -5.98281L99.1287 92.9304Z" fill="#DDCDFF"/>
</g>
</g>
</g>
<g opacity="0.8" filter="url(#filter5_f_15_4716)">
<path d="M71.5007 44.4513C82.1129 27.4416 88.9566 17.9044 90.2977 18.6787C92.2409 19.8006 79.5165 45.478 61.8769 76.0307C44.2373 106.583 28.3622 130.442 26.419 129.32C25.0779 128.546 28.9209 119.573 38.3456 101.878" stroke="url(#paint2_linear_15_4716)" stroke-width="1.76"/>
</g>
<g opacity="0.8" filter="url(#filter6_f_15_4716)">
<path d="M72.7199 45.3467C82.1703 29.8078 85.9861 23.9738 86.7974 24.4423C87.9732 25.1211 75.9502 48.1467 59.9433 75.8714C43.9364 103.596 30.0071 125.521 28.8314 124.842C28.02 124.374 30.9158 118.583 39.6478 102.629" stroke="url(#paint3_linear_15_4716)" stroke-width="1.32"/>
</g>
</g>
<defs>
<filter id="filter0_d_15_4716" x="-4" y="0" width="126" height="158" filterUnits="userSpaceOnUse" color-interpolation-filters="sRGB">
<feFlood flood-opacity="0" result="BackgroundImageFix"/>
<feColorMatrix in="SourceAlpha" type="matrix" values="0 0 0 0 0 0 0 0 0 0 0 0 0 0 0 0 0 0 127 0" result="hardAlpha"/>
<feOffset dy="4"/>
<feGaussianBlur stdDeviation="2"/>
<feComposite in2="hardAlpha" operator="out"/>
<feColorMatrix type="matrix" values="0 0 0 0 0 0 0 0 0 0 0 0 0 0 0 0 0 0 0.25 0"/>
<feBlend mode="normal" in2="BackgroundImageFix" result="effect1_dropShadow_15_4716"/>
<feBlend mode="normal" in="SourceGraphic" in2="effect1_dropShadow_15_4716" result="shape"/>
</filter>
<filter id="filter1_d_15_4716" x="-17.4988" y="17.9211" width="150.158" height="150.158" filterUnits="userSpaceOnUse" color-interpolation-filters="sRGB">
<feFlood flood-opacity="0" result="BackgroundImageFix"/>
<feColorMatrix in="SourceAlpha" type="matrix" values="0 0 0 0 0 0 0 0 0 0 0 0 0 0 0 0 0 0 127 0" result="hardAlpha"/>
<feOffset dy="18"/>
<feGaussianBlur stdDeviation="15"/>
<feComposite in2="hardAlpha" operator="out"/>
<feColorMatrix type="matrix" values="0 0 0 0 0.124624 0 0 0 0 0.0614583 0 0 0 0 0.245833 0 0 0 0.3 0"/>
<feBlend mode="normal" in2="BackgroundImageFix" result="effect1_dropShadow_15_4716"/>
<feBlend mode="normal" in="SourceGraphic" in2="effect1_dropShadow_15_4716" result="shape"/>
</filter>
<filter id="filter2_f_15_4716" x="0.897074" y="-118.409" width="187.938" height="267.675" filterUnits="userSpaceOnUse" color-interpolation-filters="sRGB">
<feFlood flood-opacity="0" result="BackgroundImageFix"/>
<feBlend mode="normal" in="SourceGraphic" in2="BackgroundImageFix" result="shape"/>
<feGaussianBlur stdDeviation="0.88" result="effect1_foregroundBlur_15_4716"/>
</filter>
<filter id="filter3_f_15_4716" x="12.09" y="51.4254" width="103.021" height="106.209" filterUnits="userSpaceOnUse" color-interpolation-filters="sRGB">
<feFlood flood-opacity="0" result="BackgroundImageFix"/>
<feBlend mode="normal" in="SourceGraphic" in2="BackgroundImageFix" result="shape"/>
<feGaussianBlur stdDeviation="2.2" result="effect1_foregroundBlur_15_4716"/>
</filter>
<filter id="filter4_f_15_4716" x="-0.0297093" y="-11.4828" width="104.658" height="109.913" filterUnits="userSpaceOnUse" color-interpolation-filters="sRGB">
<feFlood flood-opacity="0" result="BackgroundImageFix"/>
<feBlend mode="normal" in="SourceGraphic" in2="BackgroundImageFix" result="shape"/>
<feGaussianBlur stdDeviation="2.75" result="effect1_foregroundBlur_15_4716"/>
</filter>
<filter id="filter5_f_15_4716" x="24.1797" y="16.6551" width="68.294" height="114.684" filterUnits="userSpaceOnUse" color-interpolation-filters="sRGB">
<feFlood flood-opacity="0" result="BackgroundImageFix"/>
<feBlend mode="normal" in="SourceGraphic" in2="BackgroundImageFix" result="shape"/>
<feGaussianBlur stdDeviation="0.55" result="effect1_foregroundBlur_15_4716"/>
</filter>
<filter id="filter6_f_15_4716" x="26.9411" y="22.6565" width="61.6957" height="103.961" filterUnits="userSpaceOnUse" color-interpolation-filters="sRGB">
<feFlood flood-opacity="0" result="BackgroundImageFix"/>
<feBlend mode="normal" in="SourceGraphic" in2="BackgroundImageFix" result="shape"/>
<feGaussianBlur stdDeviation="0.55" result="effect1_foregroundBlur_15_4716"/>
</filter>
<linearGradient id="paint0_linear_15_4716" x1="73.3312" y1="104.184" x2="12.5012" y2="126.184" gradientUnits="userSpaceOnUse">
<stop stop-color="#B68AFF"/>
<stop offset="1" stop-color="#3E16B6"/>
</linearGradient>
<linearGradient id="paint1_linear_15_4716" x1="49.7007" y1="116.367" x2="59.5939" y2="85.0187" gradientUnits="userSpaceOnUse">
<stop stop-color="#281E3C"/>
<stop offset="1" stop-color="#6B47B4"/>
</linearGradient>
<linearGradient id="paint2_linear_15_4716" x1="55.4205" y1="72.3031" x2="61.8769" y2="76.0307" gradientUnits="userSpaceOnUse">
<stop stop-color="#311D64"/>
<stop offset="1" stop-color="#DCCBFF"/>
</linearGradient>
<linearGradient id="paint3_linear_15_4716" x1="56.3082" y1="73.7727" x2="59.9433" y2="75.8715" gradientUnits="userSpaceOnUse">
<stop stop-color="#9747FF"/>
<stop offset="1" stop-color="#A77FF2"/>
</linearGradient>
<clipPath id="clip0_15_4716">
<rect width="118" height="150" fill="white"/>
</clipPath>
<clipPath id="clip1_15_4716">
<rect x="12.5012" y="87.0788" width="66" height="66" rx="33" transform="rotate(-60 12.5012 87.0788)" fill="white"/>
</clipPath>
</defs>
</svg>
